<svg width="393" height="177" viewBox="0 0 393 177" fill="none" xmlns="http://www.w3.org/2000/svg">
<g clip-path="url(#clip0_503_12629)">
<rect width="393" height="177" rx="3" fill="url(#paint0_linear_503_12629)"/>
<path d="M79.9369 36.2813V47.9805H78.7501V38.6381L74.579 47.9805H73.7143L69.5433 38.672V47.9805H68.3564V36.2813H69.6111L74.1382 46.4206L78.6653 36.2813H79.9369ZM82.0868 43.3347C82.0868 42.3852 82.2733 41.5544 82.6463 40.8423C83.0307 40.1188 83.5563 39.565 84.2232 39.1806C84.9014 38.785 85.6644 38.5872 86.5122 38.5872C87.3938 38.5872 88.1512 38.7907 88.7842 39.1976C89.4285 39.6045 89.8919 40.1245 90.1745 40.7575V38.7228H91.3614V47.9805H90.1745V45.9289C89.8806 46.5619 89.4115 47.0875 88.7672 47.5057C88.1342 47.9126 87.3769 48.1161 86.4952 48.1161C85.6587 48.1161 84.9014 47.9183 84.2232 47.5227C83.5563 47.127 83.0307 46.5675 82.6463 45.8441C82.2733 45.1207 82.0868 44.2842 82.0868 43.3347ZM90.1745 43.3517C90.1745 42.6056 90.0219 41.95 89.7167 41.3848C89.4115 40.8197 88.9933 40.3845 88.462 40.0793C87.9421 39.7741 87.3656 39.6215 86.7326 39.6215C86.077 39.6215 85.4892 39.7684 84.9692 40.0623C84.4493 40.3562 84.0367 40.7857 83.7315 41.3509C83.4376 41.9048 83.2907 42.5661 83.2907 43.3347C83.2907 44.092 83.4376 44.759 83.7315 45.3354C84.0367 45.9006 84.4493 46.3358 84.9692 46.641C85.4892 46.9349 86.077 47.0818 86.7326 47.0818C87.3656 47.0818 87.9421 46.9292 88.462 46.624C88.9933 46.3188 89.4115 45.8837 89.7167 45.3185C90.0219 44.7533 90.1745 44.0977 90.1745 43.3517ZM99.0728 47.9805L95.2578 43.8264V47.9805H94.0709V35.4335H95.2578V42.86L98.988 38.7228H100.65L96.2582 43.3347L100.684 47.9805H99.0728ZM102.811 36.9764C102.574 36.9764 102.37 36.8917 102.201 36.7221C102.031 36.5526 101.946 36.3434 101.946 36.0948C101.946 35.8461 102.031 35.6426 102.201 35.4844C102.37 35.3148 102.574 35.23 102.811 35.23C103.048 35.23 103.252 35.3148 103.421 35.4844C103.591 35.6426 103.676 35.8461 103.676 36.0948C103.676 36.3434 103.591 36.5526 103.421 36.7221C103.252 36.8917 103.048 36.9764 102.811 36.9764ZM103.404 38.7228V47.9805H102.217V38.7228H103.404ZM110.433 38.5533C111.54 38.5533 112.445 38.898 113.145 39.5876C113.846 40.2658 114.197 41.2548 114.197 42.5548V47.9805H113.027V42.6904C113.027 41.6844 112.772 40.9157 112.264 40.3845C111.766 39.8532 111.083 39.5876 110.212 39.5876C109.319 39.5876 108.607 39.8702 108.076 40.4353C107.545 41.0005 107.279 41.8313 107.279 42.9278V47.9805H106.092V38.7228H107.279V40.2997C107.573 39.7345 107.997 39.305 108.551 39.0111C109.104 38.7059 109.732 38.5533 110.433 38.5533ZM120.704 38.5872C121.575 38.5872 122.332 38.7907 122.976 39.1976C123.621 39.6045 124.084 40.1188 124.367 40.7405V38.7228H125.554V48.2178C125.554 49.0656 125.367 49.8173 124.994 50.4729C124.632 51.1285 124.124 51.6315 123.468 51.9819C122.812 52.3436 122.066 52.5245 121.23 52.5245C120.043 52.5245 119.054 52.2419 118.263 51.6767C117.483 51.1116 116.997 50.3429 116.805 49.3708H117.975C118.178 50.0151 118.562 50.5294 119.128 50.9137C119.704 51.2981 120.405 51.4902 121.23 51.4902C121.829 51.4902 122.366 51.3602 122.841 51.1003C123.315 50.8516 123.689 50.4786 123.96 49.9812C124.231 49.4838 124.367 48.8961 124.367 48.2178V45.9289C124.073 46.5619 123.604 47.0875 122.959 47.5057C122.326 47.9126 121.575 48.1161 120.704 48.1161C119.857 48.1161 119.094 47.9183 118.415 47.5227C117.748 47.127 117.223 46.5675 116.839 45.8441C116.466 45.1207 116.279 44.2842 116.279 43.3347C116.279 42.3852 116.466 41.5544 116.839 40.8423C117.223 40.1188 117.748 39.565 118.415 39.1806C119.094 38.785 119.857 38.5872 120.704 38.5872ZM124.367 43.3517C124.367 42.6056 124.214 41.95 123.909 41.3848C123.604 40.8197 123.185 40.3845 122.654 40.0793C122.134 39.7741 121.558 39.6215 120.925 39.6215C120.269 39.6215 119.681 39.7684 119.161 40.0623C118.641 40.3562 118.229 40.7857 117.924 41.3509C117.63 41.9048 117.483 42.5661 117.483 43.3347C117.483 44.092 117.63 44.759 117.924 45.3354C118.229 45.9006 118.641 46.3358 119.161 46.641C119.681 46.9349 120.269 47.0818 120.925 47.0818C121.558 47.0818 122.134 46.9292 122.654 46.624C123.185 46.3188 123.604 45.8837 123.909 45.3185C124.214 44.7533 124.367 44.0977 124.367 43.3517ZM136.587 38.3837C137.808 38.3837 138.774 38.7172 139.486 39.3841C140.21 40.0397 140.571 40.9383 140.571 42.08C140.571 42.453 140.543 42.7865 140.486 43.0804C140.441 43.3404 140.373 43.6173 140.283 43.9112H133.721C133.71 43.979 133.704 44.0864 133.704 44.2333C133.704 44.7307 133.84 45.1094 134.111 45.3693C134.383 45.6293 134.744 45.7593 135.196 45.7593C135.92 45.7593 136.474 45.4541 136.858 44.8437H139.944C139.537 45.8045 138.876 46.5901 137.96 47.2005C137.045 47.8109 136.016 48.1161 134.874 48.1161C133.653 48.1161 132.676 47.777 131.941 47.0988C131.218 46.4206 130.856 45.4993 130.856 44.3351C130.856 43.9847 130.89 43.6229 130.958 43.2499C131.127 42.2665 131.478 41.4074 132.009 40.6727C132.54 39.938 133.201 39.3728 133.993 38.9772C134.784 38.5815 135.649 38.3837 136.587 38.3837ZM137.638 42.4361C137.661 42.2778 137.672 42.1704 137.672 42.1139C137.672 41.6618 137.531 41.317 137.248 41.0796C136.965 40.831 136.592 40.7066 136.129 40.7066C135.632 40.7066 135.191 40.8592 134.806 41.1644C134.433 41.4583 134.162 41.8822 133.993 42.4361H137.638ZM145.865 45.2676L149.12 38.5194H152.223L147.187 47.9805H143.593L141.914 38.5194H145L145.865 45.2676ZM157.648 38.3837C158.869 38.3837 159.836 38.7172 160.548 39.3841C161.271 40.0397 161.633 40.9383 161.633 42.08C161.633 42.453 161.605 42.7865 161.548 43.0804C161.503 43.3404 161.435 43.6173 161.345 43.9112H154.783C154.772 43.979 154.766 44.0864 154.766 44.2333C154.766 44.7307 154.902 45.1094 155.173 45.3693C155.444 45.6293 155.806 45.7593 156.258 45.7593C156.982 45.7593 157.535 45.4541 157.92 44.8437H161.006C160.599 45.8045 159.937 46.5901 159.022 47.2005C158.106 47.8109 157.078 48.1161 155.936 48.1161C154.715 48.1161 153.737 47.777 153.003 47.0988C152.279 46.4206 151.918 45.4993 151.918 44.3351C151.918 43.9847 151.951 43.6229 152.019 43.2499C152.189 42.2665 152.539 41.4074 153.071 40.6727C153.602 39.938 154.263 39.3728 155.054 38.9772C155.846 38.5815 156.71 38.3837 157.648 38.3837ZM158.7 42.4361C158.722 42.2778 158.734 42.1704 158.734 42.1139C158.734 41.6618 158.592 41.317 158.31 41.0796C158.027 40.831 157.654 40.7066 157.191 40.7066C156.693 40.7066 156.253 40.8592 155.868 41.1644C155.495 41.4583 155.224 41.8822 155.054 42.4361H158.7ZM166.452 40.2319C166.893 39.6667 167.396 39.2259 167.961 38.9094C168.537 38.5816 169.136 38.4176 169.758 38.4176L169.216 41.4866H168.419C167.695 41.4866 167.124 41.6448 166.706 41.9613C166.288 42.2665 166.011 42.8091 165.875 43.589L165.095 47.9805H162.196L163.858 38.5194H166.757L166.452 40.2319ZM173.28 38.5194L174.433 44.4368L177.655 38.5194H180.792L172.399 52.4736H169.279L172.297 47.6583L170.059 38.5194H173.28ZM186.723 36.0778C187.82 36.0778 188.764 36.2756 189.555 36.6712C190.357 37.0556 190.968 37.6038 191.386 38.3159C191.815 39.0167 192.03 39.8419 192.03 40.7914C192.03 41.1192 191.991 41.5318 191.912 42.0291C191.708 43.1934 191.267 44.2277 190.589 45.132C189.922 46.0363 189.069 46.7371 188.029 47.2344C187 47.7318 185.864 47.9805 184.621 47.9805H180.161L182.264 36.0778H186.723ZM184.875 45.505C185.972 45.505 186.881 45.1998 187.605 44.5894C188.328 43.979 188.78 43.1256 188.961 42.0291C189.018 41.69 189.046 41.4074 189.046 41.1814C189.046 40.3449 188.792 39.7006 188.283 39.2485C187.774 38.785 187.051 38.5533 186.113 38.5533H184.722L183.502 45.505H184.875ZM192.752 43.233C192.921 42.2609 193.255 41.4074 193.752 40.6727C194.25 39.938 194.849 39.3728 195.55 38.9772C196.25 38.5815 196.991 38.3837 197.771 38.3837C198.438 38.3837 198.997 38.5194 199.449 38.7907C199.901 39.062 200.229 39.418 200.433 39.8589L200.67 38.5194H203.569L201.891 47.9805H198.991L199.246 46.641C198.884 47.0818 198.426 47.4379 197.872 47.7092C197.319 47.9805 196.708 48.1161 196.041 48.1161C195.374 48.1161 194.781 47.9635 194.261 47.6583C193.752 47.3531 193.357 46.9236 193.074 46.3697C192.791 45.8045 192.65 45.1433 192.65 44.3859C192.65 44.0242 192.684 43.6399 192.752 43.233ZM199.839 43.2499C199.873 43.0465 199.89 42.86 199.89 42.6904C199.89 42.1365 199.726 41.7013 199.398 41.3848C199.082 41.0683 198.675 40.9101 198.178 40.9101C197.601 40.9101 197.076 41.1192 196.601 41.5374C196.126 41.9444 195.826 42.5095 195.702 43.233C195.668 43.4364 195.651 43.6229 195.651 43.7925C195.651 44.3464 195.81 44.7872 196.126 45.115C196.454 45.4315 196.861 45.5898 197.347 45.5898C197.923 45.5898 198.449 45.3806 198.924 44.9624C199.398 44.5442 199.704 43.9734 199.839 43.2499ZM207.82 38.5194L208.973 44.4368L212.195 38.5194H215.332L206.939 52.4736H203.819L206.837 47.6583L204.599 38.5194H207.82ZM221.338 39.7232V45.4711C221.338 46.0363 221.446 46.4262 221.661 46.641C221.875 46.8558 222.254 46.9631 222.797 46.9631H223.882V47.9805H222.61C221.774 47.9805 221.152 47.7883 220.745 47.404C220.338 47.0084 220.135 46.3641 220.135 45.4711V39.7232H218.846V38.7228H220.135V36.4H221.338V38.7228H223.882V39.7232H221.338ZM227.026 40.3675C227.286 39.791 227.682 39.3445 228.213 39.028C228.756 38.7115 229.417 38.5533 230.197 38.5533V39.791H229.875C229.016 39.791 228.326 40.0228 227.806 40.4862C227.286 40.9496 227.026 41.7239 227.026 42.8091V47.9805H225.839V38.7228H227.026V40.3675ZM231.44 43.3347C231.44 42.3852 231.626 41.5544 231.999 40.8423C232.383 40.1188 232.909 39.565 233.576 39.1806C234.254 38.785 235.017 38.5872 235.865 38.5872C236.747 38.5872 237.504 38.7907 238.137 39.1976C238.781 39.6045 239.245 40.1245 239.527 40.7575V38.7228H240.714V47.9805H239.527V45.9289C239.233 46.5619 238.764 47.0875 238.12 47.5057C237.487 47.9126 236.73 48.1161 235.848 48.1161C235.012 48.1161 234.254 47.9183 233.576 47.5227C232.909 47.127 232.383 46.5675 231.999 45.8441C231.626 45.1207 231.44 44.2842 231.44 43.3347ZM239.527 43.3517C239.527 42.6056 239.375 41.95 239.07 41.3848C238.764 40.8197 238.346 40.3845 237.815 40.0793C237.295 39.7741 236.718 39.6215 236.085 39.6215C235.43 39.6215 234.842 39.7684 234.322 40.0623C233.802 40.3562 233.39 40.7857 233.084 41.3509C232.79 41.9048 232.643 42.5661 232.643 43.3347C232.643 44.092 232.79 44.759 233.084 45.3354C233.39 45.9006 233.802 46.3358 234.322 46.641C234.842 46.9349 235.43 47.0818 236.085 47.0818C236.718 47.0818 237.295 46.9292 237.815 46.624C238.346 46.3188 238.764 45.8837 239.07 45.3185C239.375 44.7533 239.527 44.0977 239.527 43.3517ZM246.713 46.8275L249.833 38.7228H251.088L247.374 47.9805H246.035L242.322 38.7228H243.593L246.713 46.8275ZM261.072 42.8769C261.072 43.2838 261.061 43.5947 261.038 43.8095H253.358C253.391 44.5103 253.561 45.1094 253.866 45.6067C254.171 46.1041 254.573 46.4827 255.07 46.7427C255.567 46.9914 256.11 47.1157 256.698 47.1157C257.466 47.1157 258.111 46.9292 258.631 46.5562C259.162 46.1832 259.512 45.6802 259.682 45.0472H260.937C260.71 45.9515 260.224 46.6919 259.478 47.2683C258.744 47.8335 257.817 48.1161 256.698 48.1161C255.827 48.1161 255.047 47.924 254.358 47.5396C253.668 47.144 253.126 46.5901 252.73 45.878C252.346 45.1546 252.154 44.3125 252.154 43.3517C252.154 42.3909 252.346 41.5487 252.73 40.8253C253.114 40.1019 253.651 39.548 254.341 39.1637C255.03 38.7794 255.816 38.5872 256.698 38.5872C257.579 38.5872 258.348 38.7794 259.004 39.1637C259.671 39.548 260.179 40.068 260.53 40.7236C260.891 41.3679 261.072 42.0857 261.072 42.8769ZM259.868 42.843C259.88 42.1535 259.738 41.5657 259.444 41.0796C259.162 40.5936 258.772 40.2262 258.275 39.9775C257.777 39.7289 257.235 39.6045 256.647 39.6045C255.765 39.6045 255.013 39.8871 254.392 40.4523C253.77 41.0175 253.425 41.8144 253.358 42.843H259.868ZM264.431 35.4335V47.9805H263.244V35.4335H264.431ZM280.147 42.8769C280.147 43.2838 280.136 43.5947 280.113 43.8095H272.432C272.466 44.5103 272.636 45.1094 272.941 45.6067C273.246 46.1041 273.647 46.4827 274.145 46.7427C274.642 46.9914 275.185 47.1157 275.772 47.1157C276.541 47.1157 277.185 46.9292 277.705 46.5562C278.237 46.1832 278.587 45.6802 278.757 45.0472H280.011C279.785 45.9515 279.299 46.6919 278.553 47.2683C277.818 47.8335 276.892 48.1161 275.772 48.1161C274.902 48.1161 274.122 47.924 273.433 47.5396C272.743 47.144 272.201 46.5901 271.805 45.878C271.421 45.1546 271.228 44.3125 271.228 43.3517C271.228 42.3909 271.421 41.5487 271.805 40.8253C272.189 40.1019 272.726 39.548 273.416 39.1637C274.105 38.7794 274.891 38.5872 275.772 38.5872C276.654 38.5872 277.423 38.7794 278.078 39.1637C278.745 39.548 279.254 40.068 279.604 40.7236C279.966 41.3679 280.147 42.0857 280.147 42.8769ZM278.943 42.843C278.954 42.1535 278.813 41.5657 278.519 41.0796C278.237 40.5936 277.847 40.2262 277.349 39.9775C276.852 39.7289 276.309 39.6045 275.722 39.6045C274.84 39.6045 274.088 39.8871 273.467 40.4523C272.845 41.0175 272.5 41.8144 272.432 42.843H278.943ZM281.776 43.3347C281.776 42.3852 281.962 41.5544 282.335 40.8423C282.72 40.1188 283.245 39.565 283.912 39.1806C284.59 38.785 285.353 38.5872 286.201 38.5872C287.083 38.5872 287.84 38.7907 288.473 39.1976C289.118 39.6045 289.581 40.1245 289.864 40.7575V38.7228H291.05V47.9805H289.864V45.9289C289.57 46.5619 289.101 47.0875 288.456 47.5057C287.823 47.9126 287.066 48.1161 286.184 48.1161C285.348 48.1161 284.59 47.9183 283.912 47.5227C283.245 47.127 282.72 46.5675 282.335 45.8441C281.962 45.1207 281.776 44.2842 281.776 43.3347ZM289.864 43.3517C289.864 42.6056 289.711 41.95 289.406 41.3848C289.101 40.8197 288.682 40.3845 288.151 40.0793C287.631 39.7741 287.055 39.6215 286.422 39.6215C285.766 39.6215 285.178 39.7684 284.658 40.0623C284.138 40.3562 283.726 40.7857 283.421 41.3509C283.127 41.9048 282.98 42.5661 282.98 43.3347C282.98 44.092 283.127 44.759 283.421 45.3354C283.726 45.9006 284.138 46.3358 284.658 46.641C285.178 46.9349 285.766 47.0818 286.422 47.0818C287.055 47.0818 287.631 46.9292 288.151 46.624C288.682 46.3188 289.101 45.8837 289.406 45.3185C289.711 44.7533 289.864 44.0977 289.864 43.3517ZM296.948 48.1161C295.885 48.1161 295.015 47.8731 294.336 47.387C293.67 46.8897 293.297 46.2171 293.217 45.3693H294.438C294.495 45.8893 294.738 46.3132 295.167 46.641C295.608 46.9575 296.196 47.1157 296.931 47.1157C297.575 47.1157 298.078 46.9631 298.44 46.658C298.813 46.3528 298.999 45.9741 298.999 45.5219C298.999 45.2054 298.897 44.9455 298.694 44.742C298.491 44.5385 298.231 44.3803 297.914 44.2672C297.609 44.1429 297.191 44.0129 296.659 43.8773C295.97 43.6964 295.41 43.5156 294.981 43.3347C294.551 43.1538 294.184 42.8882 293.879 42.5378C293.585 42.1761 293.438 41.6957 293.438 41.0966C293.438 40.6445 293.573 40.2262 293.845 39.8419C294.116 39.4576 294.5 39.1524 294.998 38.9263C295.495 38.7002 296.06 38.5872 296.693 38.5872C297.688 38.5872 298.491 38.8415 299.101 39.3502C299.711 39.8475 300.039 40.5371 300.084 41.4187H298.897C298.864 40.8762 298.649 40.441 298.253 40.1132C297.869 39.7741 297.338 39.6045 296.659 39.6045C296.06 39.6045 295.574 39.7458 295.201 40.0284C294.828 40.311 294.642 40.6614 294.642 41.0796C294.642 41.4414 294.749 41.7409 294.964 41.9783C295.19 42.2043 295.467 42.3852 295.795 42.5208C296.122 42.6452 296.563 42.7865 297.117 42.9447C297.784 43.1256 298.315 43.3008 298.711 43.4703C299.107 43.6399 299.446 43.8886 299.728 44.2164C300.011 44.5442 300.158 44.9794 300.169 45.5219C300.169 46.0193 300.033 46.4658 299.762 46.8614C299.491 47.2457 299.112 47.5509 298.626 47.777C298.14 48.0031 297.581 48.1161 296.948 48.1161ZM302.997 36.9764C302.759 36.9764 302.556 36.8917 302.386 36.7221C302.217 36.5526 302.132 36.3434 302.132 36.0948C302.132 35.8461 302.217 35.6426 302.386 35.4844C302.556 35.3148 302.759 35.23 302.997 35.23C303.234 35.23 303.438 35.3148 303.607 35.4844C303.777 35.6426 303.861 35.8461 303.861 36.0948C303.861 36.3434 303.777 36.5526 303.607 36.7221C303.438 36.8917 303.234 36.9764 302.997 36.9764ZM303.59 38.7228V47.9805H302.403V38.7228H303.59ZM314.654 42.8769C314.654 43.2838 314.642 43.5947 314.62 43.8095H306.939C306.973 44.5103 307.143 45.1094 307.448 45.6067C307.753 46.1041 308.154 46.4827 308.652 46.7427C309.149 46.9914 309.691 47.1157 310.279 47.1157C311.048 47.1157 311.692 46.9292 312.212 46.5562C312.743 46.1832 313.094 45.6802 313.263 45.0472H314.518C314.292 45.9515 313.806 46.6919 313.06 47.2683C312.325 47.8335 311.398 48.1161 310.279 48.1161C309.409 48.1161 308.629 47.924 307.939 47.5396C307.25 47.144 306.707 46.5901 306.312 45.878C305.927 45.1546 305.735 44.3125 305.735 43.3517C305.735 42.3909 305.927 41.5487 306.312 40.8253C306.696 40.1019 307.233 39.548 307.922 39.1637C308.612 38.7794 309.398 38.5872 310.279 38.5872C311.161 38.5872 311.93 38.7794 312.585 39.1637C313.252 39.548 313.761 40.068 314.111 40.7236C314.473 41.3679 314.654 42.0857 314.654 42.8769ZM313.45 42.843C313.461 42.1535 313.32 41.5657 313.026 41.0796C312.743 40.5936 312.353 40.2262 311.856 39.9775C311.359 39.7289 310.816 39.6045 310.228 39.6045C309.347 39.6045 308.595 39.8871 307.973 40.4523C307.352 41.0175 307.007 41.8144 306.939 42.843H313.45ZM318.012 40.3675C318.272 39.791 318.668 39.3445 319.199 39.028C319.742 38.7115 320.403 38.5533 321.183 38.5533V39.791H320.861C320.002 39.791 319.312 40.0228 318.792 40.4862C318.272 40.9496 318.012 41.7239 318.012 42.8091V47.9805H316.825V38.7228H318.012V40.3675ZM323.172 48.0652C322.923 48.0652 322.714 47.9805 322.544 47.8109C322.386 47.6414 322.307 47.4322 322.307 47.1836C322.307 46.9349 322.386 46.7314 322.544 46.5732C322.714 46.4036 322.923 46.3188 323.172 46.3188C323.409 46.3188 323.607 46.4036 323.765 46.5732C323.935 46.7314 324.019 46.9349 324.019 47.1836C324.019 47.4322 323.935 47.6414 323.765 47.8109C323.607 47.9805 323.409 48.0652 323.172 48.0652Z" fill="white"/>
<mask id="path-3-outside-1_503_12629" maskUnits="userSpaceOnUse" x="-3" y="124" width="386" height="93" fill="black">
<rect fill="white" x="-3" y="124" width="386" height="93"/>
<path d="M34.3152 125.183C40.3782 125.183 45.5973 126.277 49.9726 128.464C54.4104 130.589 57.7857 133.621 60.0983 137.559C62.4735 141.434 63.6611 145.997 63.6611 151.247C63.6611 153.06 63.4423 155.341 63.0048 158.091C61.8797 164.529 59.442 170.248 55.6918 175.249C52.004 180.249 47.2849 184.124 41.5345 186.875C35.8466 189.625 29.5649 191 22.6894 191H-1.96867L9.65717 125.183H34.3152ZM24.0957 177.312C30.1587 177.312 35.1903 175.624 39.1906 172.249C43.1909 168.873 45.691 164.154 46.6911 158.091C47.0036 156.216 47.1599 154.654 47.1599 153.404C47.1599 148.778 45.7535 145.215 42.9408 142.715C40.1281 140.153 36.1278 138.871 30.94 138.871H23.2519L16.5014 177.312H24.0957ZM67.6516 164.748C68.5892 159.373 70.4331 154.654 73.1833 150.591C75.9335 146.528 79.2462 143.403 83.1215 141.215C86.9968 139.027 91.0908 137.934 95.4036 137.934C99.0914 137.934 102.185 138.684 104.686 140.184C107.186 141.684 108.998 143.653 110.123 146.09L111.436 138.684H127.468L118.187 191H102.154L103.56 183.593C101.56 186.031 99.0289 188 95.9662 189.5C92.9035 191 89.5282 191.75 85.8405 191.75C82.1527 191.75 78.8712 190.906 75.996 189.219C73.1833 187.531 70.9956 185.156 69.433 182.093C67.8704 178.968 67.0891 175.311 67.0891 171.124C67.0891 169.123 67.2766 166.998 67.6516 164.748ZM106.842 164.842C107.029 163.717 107.123 162.685 107.123 161.748C107.123 158.685 106.217 156.279 104.404 154.529C102.654 152.778 100.404 151.903 97.6538 151.903C94.4661 151.903 91.5596 153.06 88.9344 155.372C86.3092 157.623 84.6529 160.748 83.9653 164.748C83.7778 165.873 83.684 166.904 83.684 167.842C83.684 170.905 84.5591 173.342 86.3092 175.155C88.1219 176.905 90.372 177.78 93.0597 177.78C96.2475 177.78 99.1539 176.624 101.779 174.311C104.404 171.999 106.092 168.842 106.842 164.842ZM150.974 138.684L157.35 171.405L175.164 138.684H192.509L146.099 215.846H128.848L145.536 189.219L133.161 138.684H150.974ZM270.353 142.246C269.666 146.122 268.072 149.341 265.572 151.903C263.071 154.466 260.071 156.247 256.571 157.248C259.696 157.935 262.165 159.466 263.978 161.842C265.79 164.217 266.697 166.998 266.697 170.186C266.697 171.186 266.603 172.155 266.415 173.092C265.478 178.593 262.79 182.968 258.352 186.218C253.914 189.406 248.258 191 241.382 191H210.724L222.35 125.183H251.977C257.915 125.183 262.509 126.402 265.759 128.839C269.009 131.277 270.634 134.652 270.634 138.965C270.634 140.028 270.541 141.121 270.353 142.246ZM244.101 151.903C246.789 151.903 248.945 151.31 250.57 150.122C252.196 148.934 253.196 147.216 253.571 144.965C253.633 144.59 253.664 144.09 253.664 143.465C253.664 141.653 253.071 140.278 251.883 139.34C250.695 138.34 248.945 137.84 246.633 137.84H236.132L233.694 151.903H244.101ZM250.477 170.936C250.602 170.186 250.664 169.623 250.664 169.248C250.664 167.436 250.008 166.029 248.695 165.029C247.383 163.967 245.57 163.435 243.257 163.435H231.632L229.006 178.249H240.82C243.57 178.249 245.758 177.624 247.383 176.374C249.008 175.124 250.039 173.311 250.477 170.936ZM333.375 138.684L324.186 191H308.154L309.373 183.874C307.31 186.187 304.779 188.062 301.779 189.5C298.841 190.875 295.684 191.563 292.309 191.563C287.059 191.563 282.933 190.094 279.933 187.156C276.933 184.156 275.433 179.999 275.433 174.686C275.433 172.686 275.589 170.874 275.902 169.248L281.34 138.684H297.278L292.309 167.092C292.122 168.092 292.028 169.061 292.028 169.998C292.028 172.624 292.747 174.655 294.184 176.093C295.684 177.468 297.747 178.155 300.372 178.155C303.372 178.155 305.904 177.28 307.966 175.53C310.092 173.717 311.498 171.155 312.186 167.842L317.342 138.684H333.375ZM357.454 191.75C353.329 191.75 349.61 191.094 346.297 189.781C343.047 188.469 340.484 186.656 338.609 184.343C336.734 181.968 335.796 179.249 335.796 176.186C335.796 175.749 335.859 174.968 335.984 173.843H351.454C351.329 175.78 351.891 177.343 353.141 178.53C354.454 179.655 356.298 180.218 358.673 180.218C360.673 180.218 362.329 179.843 363.642 179.093C364.955 178.343 365.611 177.28 365.611 175.905C365.611 174.593 364.892 173.561 363.454 172.811C362.079 171.999 359.767 171.03 356.516 169.905C353.141 168.78 350.297 167.686 347.985 166.623C345.734 165.498 343.797 163.904 342.172 161.842C340.546 159.779 339.734 157.185 339.734 154.06C339.734 150.997 340.64 148.247 342.453 145.809C344.265 143.309 346.797 141.371 350.047 139.996C353.36 138.621 357.173 137.934 361.486 137.934C365.798 137.934 369.549 138.652 372.736 140.09C375.924 141.465 378.393 143.403 380.143 145.903C381.893 148.403 382.768 151.216 382.768 154.341L382.675 155.747H368.142C368.267 153.872 367.705 152.372 366.455 151.247C365.205 150.122 363.423 149.559 361.11 149.559C359.298 149.559 357.798 149.935 356.61 150.685C355.485 151.435 354.923 152.466 354.923 153.779C354.923 155.154 355.673 156.31 357.173 157.248C358.735 158.123 361.142 159.123 364.392 160.248C367.767 161.373 370.549 162.498 372.736 163.623C374.986 164.686 376.893 166.217 378.455 168.217C380.081 170.155 380.893 172.592 380.893 175.53C380.893 178.905 379.862 181.812 377.799 184.25C375.799 186.687 373.018 188.562 369.455 189.875C365.955 191.125 361.954 191.75 357.454 191.75Z"/>
</mask>
<path d="M49.9726 128.464L49.8831 128.643L49.8862 128.645L49.9726 128.464ZM60.0983 137.559L59.9259 137.66L59.9278 137.663L60.0983 137.559ZM63.0048 158.091L63.2018 158.126L63.2023 158.123L63.0048 158.091ZM55.6918 175.249L55.5318 175.129L55.5308 175.13L55.6918 175.249ZM41.5345 186.875L41.4482 186.694L41.4474 186.695L41.5345 186.875ZM-1.96867 191L-2.16563 190.965L-2.2071 191.2H-1.96867V191ZM9.65717 125.183V124.983H9.4894L9.46022 125.148L9.65717 125.183ZM39.1906 172.249L39.3195 172.401V172.401L39.1906 172.249ZM46.6911 158.091L46.4938 158.058L46.4938 158.059L46.6911 158.091ZM42.9408 142.715L42.8061 142.863L42.808 142.865L42.9408 142.715ZM23.2519 138.871V138.671H23.084L23.0549 138.837L23.2519 138.871ZM16.5014 177.312L16.3044 177.277L16.2632 177.512H16.5014V177.312ZM34.3152 125.183V125.383C40.3544 125.383 45.5415 126.472 49.8832 128.643L49.9726 128.464L50.062 128.285C45.6531 126.081 40.4019 124.983 34.3152 124.983V125.183ZM49.9726 128.464L49.8862 128.645C54.291 130.754 57.635 133.759 59.9259 137.66L60.0983 137.559L60.2708 137.457C57.9364 133.483 54.5298 130.425 50.059 128.284L49.9726 128.464ZM60.0983 137.559L59.9278 137.663C62.2809 141.502 63.4611 146.028 63.4611 151.247H63.6611H63.8611C63.8611 145.966 62.6661 141.365 60.2689 137.454L60.0983 137.559ZM63.6611 151.247H63.4611C63.4611 153.045 63.2439 155.315 62.8073 158.06L63.0048 158.091L63.2023 158.123C63.6407 155.367 63.8611 153.074 63.8611 151.247H63.6611ZM63.0048 158.091L62.8078 158.057C61.6879 164.465 59.2623 170.155 55.5318 175.129L55.6918 175.249L55.8518 175.369C59.6218 170.342 62.0716 164.593 63.2018 158.126L63.0048 158.091ZM55.6918 175.249L55.5308 175.13C51.863 180.103 47.1698 183.958 41.4482 186.694L41.5345 186.875L41.6208 187.055C47.4 184.291 52.145 180.395 55.8527 175.368L55.6918 175.249ZM41.5345 186.875L41.4474 186.695C35.789 189.431 29.5374 190.8 22.6894 190.8V191V191.2C29.5923 191.2 35.9042 189.819 41.6216 187.055L41.5345 186.875ZM22.6894 191V190.8H-1.96867V191V191.2H22.6894V191ZM-1.96867 191L-1.77172 191.035L9.85412 125.217L9.65717 125.183L9.46022 125.148L-2.16563 190.965L-1.96867 191ZM9.65717 125.183V125.383H34.3152V125.183V124.983H9.65717V125.183ZM24.0957 177.312V177.512C30.198 177.512 35.2776 175.812 39.3195 172.401L39.1906 172.249L39.0616 172.096C35.103 175.436 30.1193 177.112 24.0957 177.112V177.312ZM39.1906 172.249L39.3195 172.401C43.3624 168.99 45.882 164.225 46.8885 158.124L46.6911 158.091L46.4938 158.059C45.5 164.083 43.0194 168.756 39.0616 172.096L39.1906 172.249ZM46.6911 158.091L46.8884 158.124C47.2019 156.243 47.3599 154.669 47.3599 153.404H47.1599H46.9599C46.9599 154.638 46.8054 156.189 46.4938 158.058L46.6911 158.091ZM47.1599 153.404H47.3599C47.3599 148.735 45.9387 145.112 43.0737 142.566L42.9408 142.715L42.808 142.865C45.5684 145.318 46.9599 148.821 46.9599 153.404H47.1599ZM42.9408 142.715L43.0755 142.567C40.2144 139.961 36.1594 138.671 30.94 138.671V138.871V139.071C36.0963 139.071 40.0419 140.345 42.8061 142.863L42.9408 142.715ZM30.94 138.871V138.671H23.2519V138.871V139.071H30.94V138.871ZM23.2519 138.871L23.0549 138.837L16.3044 177.277L16.5014 177.312L16.6984 177.346L23.4489 138.906L23.2519 138.871ZM16.5014 177.312V177.512H24.0957V177.312V177.112H16.5014V177.312ZM67.6516 164.748L67.4546 164.714L67.4543 164.715L67.6516 164.748ZM73.1833 150.591L73.0177 150.479V150.479L73.1833 150.591ZM83.1215 141.215L83.2198 141.389V141.389L83.1215 141.215ZM104.686 140.184L104.788 140.012V140.012L104.686 140.184ZM110.123 146.09L109.942 146.174L110.209 146.753L110.32 146.125L110.123 146.09ZM111.436 138.684V138.484H111.268L111.239 138.649L111.436 138.684ZM127.468 138.684L127.665 138.719L127.707 138.484H127.468V138.684ZM118.187 191V191.2H118.354L118.383 191.035L118.187 191ZM102.154 191L101.958 190.963L101.913 191.2H102.154V191ZM103.56 183.593L103.757 183.631L103.406 183.466L103.56 183.593ZM95.9662 189.5L96.0542 189.68V189.68L95.9662 189.5ZM75.996 189.219L75.8931 189.39L75.8947 189.391L75.996 189.219ZM69.433 182.093L69.2541 182.183L69.2549 182.184L69.433 182.093ZM106.842 164.842L107.039 164.879L107.039 164.875L106.842 164.842ZM104.404 154.529L104.263 154.67L104.265 154.672L104.404 154.529ZM88.9344 155.372L89.0646 155.524L89.0666 155.522L88.9344 155.372ZM83.9653 164.748L83.7682 164.714L83.768 164.715L83.9653 164.748ZM86.3092 175.155L86.1653 175.294L86.1703 175.299L86.3092 175.155ZM101.779 174.311L101.911 174.461V174.461L101.779 174.311ZM67.6516 164.748L67.8487 164.782C68.7819 159.432 70.6162 154.74 73.3489 150.703L73.1833 150.591L73.0177 150.479C70.2499 154.567 68.3965 159.314 67.4546 164.714L67.6516 164.748ZM73.1833 150.591L73.3489 150.703C76.0836 146.663 79.3741 143.56 83.2198 141.389L83.1215 141.215L83.0232 141.041C79.1183 143.245 75.7834 146.393 73.0177 150.479L73.1833 150.591ZM83.1215 141.215L83.2198 141.389C87.0661 139.218 91.1264 138.134 95.4036 138.134V137.934V137.734C91.0553 137.734 86.9275 138.837 83.0232 141.041L83.1215 141.215ZM95.4036 137.934V138.134C99.0647 138.134 102.121 138.878 104.583 140.355L104.686 140.184L104.788 140.012C102.25 138.489 99.1182 137.734 95.4036 137.734V137.934ZM104.686 140.184L104.583 140.355C107.052 141.837 108.835 143.776 109.942 146.174L110.123 146.09L110.305 146.007C109.162 143.529 107.32 141.531 104.788 140.012L104.686 140.184ZM110.123 146.09L110.32 146.125L111.633 138.719L111.436 138.684L111.239 138.649L109.927 146.056L110.123 146.09ZM111.436 138.684V138.884H127.468V138.684V138.484H111.436V138.684ZM127.468 138.684L127.272 138.649L117.99 190.965L118.187 191L118.383 191.035L127.665 138.719L127.468 138.684ZM118.187 191V190.8H102.154V191V191.2H118.187V191ZM102.154 191L102.351 191.037L103.757 183.631L103.56 183.593L103.364 183.556L101.958 190.963L102.154 191ZM103.56 183.593L103.406 183.466C101.425 185.88 98.9173 187.832 95.8782 189.32L95.9662 189.5L96.0542 189.68C99.1405 188.168 101.695 186.182 103.715 183.72L103.56 183.593ZM95.9662 189.5L95.8782 189.32C92.8451 190.806 89.5003 191.55 85.8405 191.55V191.75V191.95C89.5562 191.95 92.9619 191.194 96.0542 189.68L95.9662 189.5ZM85.8405 191.75V191.55C82.1844 191.55 78.9386 190.714 76.0972 189.046L75.996 189.219L75.8947 189.391C78.8038 191.099 82.121 191.95 85.8405 191.95V191.75ZM75.996 189.219L76.0989 189.047C73.3199 187.38 71.1576 185.033 69.6112 182.002L69.433 182.093L69.2549 182.184C70.8336 185.278 73.0467 187.682 75.8931 189.39L75.996 189.219ZM69.433 182.093L69.6119 182.004C68.0657 178.911 67.2891 175.286 67.2891 171.124H67.0891H66.8891C66.8891 175.336 67.6751 179.025 69.2541 182.183L69.433 182.093ZM67.0891 171.124H67.2891C67.2891 169.136 67.4754 167.022 67.8489 164.781L67.6516 164.748L67.4543 164.715C67.0778 166.975 66.8891 169.111 66.8891 171.124H67.0891ZM106.842 164.842L107.039 164.875C107.228 163.741 107.323 162.699 107.323 161.748H107.123H106.923C106.923 162.672 106.831 163.693 106.645 164.809L106.842 164.842ZM107.123 161.748H107.323C107.323 158.643 106.403 156.18 104.543 154.385L104.404 154.529L104.265 154.672C106.031 156.377 106.923 158.727 106.923 161.748H107.123ZM104.404 154.529L104.546 154.387C102.754 152.595 100.451 151.703 97.6538 151.703V151.903V152.103C100.357 152.103 102.555 152.962 104.263 154.67L104.404 154.529ZM97.6538 151.903V151.703C94.4125 151.703 91.4601 152.881 88.8022 155.222L88.9344 155.372L89.0666 155.522C91.6591 153.239 94.5196 152.103 97.6538 152.103V151.903ZM88.9344 155.372L88.8043 155.221C86.1377 157.506 84.4622 160.676 83.7682 164.714L83.9653 164.748L84.1624 164.782C84.8435 160.819 86.4807 157.739 89.0646 155.524L88.9344 155.372ZM83.9653 164.748L83.768 164.715C83.5791 165.849 83.484 166.891 83.484 167.842H83.684H83.884C83.884 166.918 83.9765 165.897 84.1626 164.781L83.9653 164.748ZM83.684 167.842H83.484C83.484 170.945 84.3718 173.436 86.1654 175.294L86.3092 175.155L86.4531 175.016C84.7465 173.249 83.884 170.865 83.884 167.842H83.684ZM86.3092 175.155L86.1703 175.299C88.0229 177.088 90.324 177.98 93.0597 177.98V177.78V177.58C90.4201 177.58 88.2208 176.723 86.4482 175.011L86.3092 175.155ZM93.0597 177.78V177.98C96.301 177.98 99.2534 176.803 101.911 174.461L101.779 174.311L101.647 174.161C99.0544 176.445 96.1939 177.58 93.0597 177.58V177.78ZM101.779 174.311L101.911 174.461C104.575 172.115 106.282 168.915 107.039 164.879L106.842 164.842L106.645 164.805C105.902 168.769 104.233 171.883 101.647 174.161L101.779 174.311ZM150.974 138.684L151.171 138.645L151.139 138.484H150.974V138.684ZM157.35 171.405L157.153 171.443L157.26 171.988L157.525 171.5L157.35 171.405ZM175.164 138.684V138.484H175.045L174.988 138.588L175.164 138.684ZM192.509 138.684L192.68 138.787L192.862 138.484H192.509V138.684ZM146.099 215.846V216.046H146.212L146.27 215.949L146.099 215.846ZM128.848 215.846L128.678 215.739L128.486 216.046H128.848V215.846ZM145.536 189.219L145.706 189.325L145.751 189.253L145.731 189.171L145.536 189.219ZM133.161 138.684V138.484H132.906L132.966 138.731L133.161 138.684ZM150.974 138.684L150.778 138.722L157.153 171.443L157.35 171.405L157.546 171.367L151.171 138.645L150.974 138.684ZM157.35 171.405L157.525 171.5L175.339 138.779L175.164 138.684L174.988 138.588L157.174 171.309L157.35 171.405ZM175.164 138.684V138.884H192.509V138.684V138.484H175.164V138.684ZM192.509 138.684L192.337 138.581L145.928 215.742L146.099 215.846L146.27 215.949L192.68 138.787L192.509 138.684ZM146.099 215.846V215.646H128.848V215.846V216.046H146.099V215.846ZM128.848 215.846L129.017 215.952L145.706 189.325L145.536 189.219L145.367 189.112L128.678 215.739L128.848 215.846ZM145.536 189.219L145.731 189.171L133.355 138.636L133.161 138.684L132.966 138.731L145.342 189.266L145.536 189.219ZM133.161 138.684V138.884H150.974V138.684V138.484H133.161V138.684ZM270.353 142.246L270.55 142.281L270.55 142.279L270.353 142.246ZM265.572 151.903L265.428 151.764V151.764L265.572 151.903ZM256.571 157.248L256.516 157.055L256.528 157.443L256.571 157.248ZM263.978 161.842L264.137 161.72V161.72L263.978 161.842ZM266.415 173.092L266.219 173.053L266.218 173.059L266.415 173.092ZM258.352 186.218L258.469 186.381L258.47 186.38L258.352 186.218ZM210.724 191L210.527 190.965L210.485 191.2H210.724V191ZM222.35 125.183V124.983H222.182L222.153 125.148L222.35 125.183ZM265.759 128.839L265.879 128.679V128.679L265.759 128.839ZM253.571 144.965L253.768 144.998V144.998L253.571 144.965ZM251.883 139.34L251.754 139.493L251.759 139.497L251.883 139.34ZM236.132 137.84V137.64H235.964L235.935 137.806L236.132 137.84ZM233.694 151.903L233.497 151.869L233.457 152.103H233.694V151.903ZM250.477 170.936L250.673 170.972L250.674 170.969L250.477 170.936ZM248.695 165.029L248.569 165.185L248.574 165.188L248.695 165.029ZM231.632 163.435V163.235H231.464L231.435 163.401L231.632 163.435ZM229.006 178.249L228.809 178.214L228.768 178.449H229.006V178.249ZM247.383 176.374L247.261 176.215V176.215L247.383 176.374ZM270.353 142.246L270.156 142.212C269.475 146.051 267.898 149.233 265.428 151.764L265.572 151.903L265.715 152.043C268.246 149.449 269.856 146.192 270.55 142.281L270.353 142.246ZM265.572 151.903L265.428 151.764C262.953 154.301 259.983 156.065 256.516 157.055L256.571 157.248L256.626 157.44C260.159 156.43 263.19 154.631 265.715 152.043L265.572 151.903ZM256.571 157.248L256.528 157.443C259.61 158.121 262.037 159.628 263.819 161.963L263.978 161.842L264.137 161.72C262.293 159.305 259.782 157.749 256.614 157.052L256.571 157.248ZM263.978 161.842L263.819 161.963C265.603 164.301 266.497 167.039 266.497 170.186H266.697H266.897C266.897 166.958 265.978 164.133 264.137 161.72L263.978 161.842ZM266.697 170.186H266.497C266.497 171.173 266.404 172.129 266.219 173.053L266.415 173.092L266.611 173.132C266.802 172.181 266.897 171.199 266.897 170.186H266.697ZM266.415 173.092L266.218 173.059C265.289 178.509 262.629 182.838 258.234 186.057L258.352 186.218L258.47 186.38C262.951 183.098 265.666 178.677 266.613 173.126L266.415 173.092ZM258.352 186.218L258.236 186.056C253.84 189.214 248.227 190.8 241.382 190.8V191V191.2C248.289 191.2 253.989 189.599 258.469 186.381L258.352 186.218ZM241.382 191V190.8H210.724V191V191.2H241.382V191ZM210.724 191L210.921 191.035L222.547 125.217L222.35 125.183L222.153 125.148L210.527 190.965L210.724 191ZM222.35 125.183V125.383H251.977V125.183V124.983H222.35V125.183ZM251.977 125.183V125.383C257.891 125.383 262.436 126.597 265.639 128.999L265.759 128.839L265.879 128.679C262.581 126.206 257.939 124.983 251.977 124.983V125.183ZM265.759 128.839L265.639 128.999C268.835 131.397 270.434 134.711 270.434 138.965H270.634H270.834C270.834 134.594 269.183 131.157 265.879 128.679L265.759 128.839ZM270.634 138.965H270.434C270.434 140.016 270.342 141.099 270.156 142.214L270.353 142.246L270.55 142.279C270.74 141.144 270.834 140.039 270.834 138.965H270.634ZM244.101 151.903V152.103C246.817 152.103 249.019 151.503 250.688 150.284L250.57 150.122L250.452 149.961C248.871 151.116 246.761 151.703 244.101 151.703V151.903ZM250.57 150.122L250.688 150.284C252.362 149.061 253.386 147.293 253.768 144.998L253.571 144.965L253.373 144.933C253.006 147.139 252.03 148.808 250.452 149.961L250.57 150.122ZM253.571 144.965L253.768 144.998C253.833 144.608 253.864 144.095 253.864 143.465H253.664H253.464C253.464 144.085 253.433 144.573 253.373 144.933L253.571 144.965ZM253.664 143.465H253.864C253.864 141.605 253.252 140.166 252.007 139.183L251.883 139.34L251.759 139.497C252.889 140.389 253.464 141.7 253.464 143.465H253.664ZM251.883 139.34L252.012 139.187C250.774 138.145 248.97 137.64 246.633 137.64V137.84V138.04C248.921 138.04 250.617 138.535 251.754 139.493L251.883 139.34ZM246.633 137.84V137.64H236.132V137.84V138.04H246.633V137.84ZM236.132 137.84L235.935 137.806L233.497 151.869L233.694 151.903L233.891 151.938L236.329 137.874L236.132 137.84ZM233.694 151.903V152.103H244.101V151.903V151.703H233.694V151.903ZM250.477 170.936L250.674 170.969C250.799 170.217 250.864 169.641 250.864 169.248H250.664H250.464C250.464 169.606 250.404 170.155 250.279 170.903L250.477 170.936ZM250.664 169.248H250.864C250.864 167.38 250.184 165.912 248.817 164.87L248.695 165.029L248.574 165.188C249.832 166.147 250.464 167.491 250.464 169.248H250.664ZM248.695 165.029L248.821 164.874C247.462 163.773 245.599 163.235 243.257 163.235V163.435V163.635C245.541 163.635 247.304 164.16 248.569 165.185L248.695 165.029ZM243.257 163.435V163.235H231.632V163.435V163.635H243.257V163.435ZM231.632 163.435L231.435 163.401L228.809 178.214L229.006 178.249L229.203 178.284L231.829 163.47L231.632 163.435ZM229.006 178.249V178.449H240.82V178.249V178.049H229.006V178.249ZM240.82 178.249V178.449C243.599 178.449 245.834 177.817 247.505 176.532L247.383 176.374L247.261 176.215C245.681 177.431 243.541 178.049 240.82 178.049V178.249ZM247.383 176.374L247.505 176.532C249.176 175.247 250.229 173.387 250.673 170.972L250.477 170.936L250.28 170.9C249.85 173.236 248.84 175.001 247.261 176.215L247.383 176.374ZM333.375 138.684L333.572 138.718L333.613 138.484H333.375V138.684ZM324.186 191V191.2H324.354L324.383 191.035L324.186 191ZM308.154 191L307.957 190.966L307.917 191.2H308.154V191ZM309.373 183.874L309.57 183.908L309.688 183.221L309.224 183.741L309.373 183.874ZM301.779 189.5L301.863 189.681L301.865 189.68L301.779 189.5ZM279.933 187.156L279.792 187.297L279.793 187.299L279.933 187.156ZM275.902 169.248L276.098 169.286L276.099 169.283L275.902 169.248ZM281.34 138.684V138.484H281.172L281.143 138.649L281.34 138.684ZM297.278 138.684L297.475 138.718L297.516 138.484H297.278V138.684ZM292.309 167.092L292.506 167.129L292.506 167.126L292.309 167.092ZM294.184 176.093L294.043 176.234L294.049 176.24L294.184 176.093ZM307.966 175.53L308.096 175.683L308.096 175.682L307.966 175.53ZM312.186 167.842L312.381 167.883L312.383 167.877L312.186 167.842ZM317.342 138.684V138.484H317.174L317.145 138.649L317.342 138.684ZM333.375 138.684L333.178 138.649L323.989 190.965L324.186 191L324.383 191.035L333.572 138.718L333.375 138.684ZM324.186 191V190.8H308.154V191V191.2H324.186V191ZM308.154 191L308.351 191.034L309.57 183.908L309.373 183.874L309.176 183.841L307.957 190.966L308.154 191ZM309.373 183.874L309.224 183.741C307.18 186.033 304.67 187.893 301.692 189.32L301.779 189.5L301.865 189.68C304.887 188.232 307.441 186.341 309.522 184.008L309.373 183.874ZM301.779 189.5L301.694 189.319C298.784 190.681 295.656 191.363 292.309 191.363V191.563V191.763C295.712 191.763 298.898 191.069 301.863 189.681L301.779 189.5ZM292.309 191.563V191.363C287.097 191.363 283.027 189.906 280.073 187.013L279.933 187.156L279.793 187.299C282.84 190.282 287.02 191.763 292.309 191.763V191.563ZM279.933 187.156L280.075 187.015C277.121 184.061 275.633 179.96 275.633 174.686H275.433H275.233C275.233 180.038 276.745 184.251 279.792 187.297L279.933 187.156ZM275.433 174.686H275.633C275.633 172.696 275.788 170.897 276.098 169.286L275.902 169.248L275.705 169.211C275.39 170.85 275.233 172.676 275.233 174.686H275.433ZM275.902 169.248L276.099 169.283L281.536 138.719L281.34 138.684L281.143 138.649L275.705 169.213L275.902 169.248ZM281.34 138.684V138.884H297.278V138.684V138.484H281.34V138.684ZM297.278 138.684L297.081 138.649L292.112 167.058L292.309 167.092L292.506 167.126L297.475 138.718L297.278 138.684ZM292.309 167.092L292.113 167.055C291.923 168.066 291.828 169.048 291.828 169.998H292.028H292.228C292.228 169.074 292.32 168.118 292.506 167.129L292.309 167.092ZM292.028 169.998H291.828C291.828 172.661 292.558 174.749 294.043 176.234L294.184 176.093L294.326 175.951C292.936 174.561 292.228 172.587 292.228 169.998H292.028ZM294.184 176.093L294.049 176.24C295.596 177.658 297.712 178.355 300.372 178.355V178.155V177.955C297.782 177.955 295.773 177.278 294.319 175.945L294.184 176.093ZM300.372 178.155V178.355C303.414 178.355 305.993 177.467 308.096 175.683L307.966 175.53L307.837 175.378C305.815 177.094 303.331 177.955 300.372 177.955V178.155ZM307.966 175.53L308.096 175.682C310.262 173.835 311.687 171.229 312.381 167.883L312.186 167.842L311.99 167.801C311.309 171.08 309.921 173.6 307.837 175.378L307.966 175.53ZM312.186 167.842L312.383 167.877L317.539 138.719L317.342 138.684L317.145 138.649L311.989 167.807L312.186 167.842ZM317.342 138.684V138.884H333.375V138.684V138.484H317.342V138.684ZM346.297 189.781L346.222 189.967L346.223 189.967L346.297 189.781ZM338.609 184.343L338.452 184.467L338.453 184.469L338.609 184.343ZM335.984 173.842V173.643H335.805L335.785 173.82L335.984 173.842ZM351.454 173.842L351.653 173.855L351.667 173.643H351.454V173.842ZM353.141 178.53L353.003 178.676L353.011 178.682L353.141 178.53ZM363.642 179.093L363.741 179.267V179.267L363.642 179.093ZM363.454 172.811L363.353 172.984L363.362 172.988L363.454 172.811ZM356.516 169.905L356.582 169.716L356.58 169.715L356.516 169.905ZM347.985 166.623L347.895 166.802L347.901 166.805L347.985 166.623ZM342.172 161.842L342.329 161.718V161.718L342.172 161.842ZM342.453 145.809L342.613 145.929L342.615 145.927L342.453 145.809ZM350.047 139.996L349.97 139.812L349.969 139.812L350.047 139.996ZM372.736 140.09L372.654 140.272L372.657 140.274L372.736 140.09ZM380.143 145.903L380.307 145.788V145.788L380.143 145.903ZM382.768 154.341L382.968 154.354V154.341H382.768ZM382.675 155.747V155.947H382.862L382.874 155.761L382.675 155.747ZM368.142 155.747L367.943 155.734L367.928 155.947H368.142V155.747ZM356.61 150.685L356.503 150.515L356.499 150.518L356.61 150.685ZM357.173 157.248L357.067 157.417L357.075 157.422L357.173 157.248ZM364.392 160.248L364.327 160.437L364.329 160.438L364.392 160.248ZM372.736 163.623L372.645 163.801L372.651 163.804L372.736 163.623ZM378.455 168.217L378.298 168.34L378.302 168.346L378.455 168.217ZM377.799 184.25L377.646 184.12L377.645 184.123L377.799 184.25ZM369.455 189.875L369.522 190.063L369.524 190.063L369.455 189.875ZM357.454 191.75V191.55C353.35 191.55 349.656 190.897 346.371 189.595L346.297 189.781L346.223 189.967C349.563 191.29 353.307 191.95 357.454 191.95V191.75ZM346.297 189.781L346.372 189.596C343.147 188.294 340.614 186.499 338.764 184.217L338.609 184.343L338.453 184.469C340.353 186.813 342.946 188.644 346.222 189.967L346.297 189.781ZM338.609 184.343L338.766 184.219C336.919 181.88 335.996 179.205 335.996 176.186H335.796H335.596C335.596 179.294 336.548 182.056 338.452 184.467L338.609 184.343ZM335.796 176.186H335.996C335.996 175.761 336.057 174.99 336.182 173.865L335.984 173.842L335.785 173.82C335.66 174.945 335.596 175.736 335.596 176.186H335.796ZM335.984 173.842V174.042H351.454V173.842V173.643H335.984V173.842ZM351.454 173.842L351.254 173.83C351.126 175.818 351.705 177.441 353.003 178.675L353.141 178.53L353.279 178.385C352.078 177.244 351.531 175.742 351.653 173.855L351.454 173.842ZM353.141 178.53L353.011 178.682C354.371 179.848 356.268 180.418 358.673 180.418V180.218V180.018C356.328 180.018 354.536 179.463 353.271 178.378L353.141 178.53ZM358.673 180.218V180.418C360.697 180.418 362.39 180.039 363.741 179.267L363.642 179.093L363.543 178.919C362.269 179.647 360.649 180.018 358.673 180.018V180.218ZM363.642 179.093L363.741 179.267C365.109 178.485 365.811 177.36 365.811 175.905H365.611H365.411C365.411 177.2 364.8 178.2 363.543 178.919L363.642 179.093ZM365.611 175.905H365.811C365.811 174.499 365.032 173.409 363.547 172.634L363.454 172.811L363.362 172.988C364.752 173.714 365.411 174.686 365.411 175.905H365.611ZM363.454 172.811L363.556 172.639C362.163 171.816 359.834 170.841 356.582 169.716L356.516 169.905L356.451 170.094C359.7 171.218 361.996 172.182 363.353 172.983L363.454 172.811ZM356.516 169.905L356.58 169.715C353.209 168.591 350.372 167.5 348.068 166.441L347.985 166.623L347.901 166.805C350.222 167.871 353.073 168.968 356.453 170.094L356.516 169.905ZM347.985 166.623L348.074 166.444C345.851 165.333 343.936 163.758 342.329 161.718L342.172 161.842L342.014 161.965C343.657 164.05 345.617 165.663 347.895 166.802L347.985 166.623ZM342.172 161.842L342.329 161.718C340.736 159.697 339.934 157.149 339.934 154.06H339.734H339.534C339.534 157.221 340.357 159.861 342.014 161.965L342.172 161.842ZM339.734 154.06H339.934C339.934 151.04 340.827 148.331 342.613 145.929L342.453 145.809L342.292 145.69C340.454 148.162 339.534 150.954 339.534 154.06H339.734ZM342.453 145.809L342.615 145.927C344.403 143.46 346.904 141.543 350.125 140.18L350.047 139.996L349.969 139.812C346.69 141.199 344.128 143.158 342.291 145.692L342.453 145.809ZM350.047 139.996L350.124 140.181C353.408 138.818 357.194 138.134 361.486 138.134V137.934V137.734C357.152 137.734 353.312 138.425 349.97 139.812L350.047 139.996ZM361.486 137.934V138.134C365.776 138.134 369.497 138.849 372.654 140.272L372.736 140.09L372.819 139.908C369.6 138.456 365.82 137.734 361.486 137.734V137.934ZM372.736 140.09L372.657 140.274C375.816 141.636 378.253 143.552 379.979 146.018L380.143 145.903L380.307 145.788C378.533 143.254 376.033 141.294 372.816 139.906L372.736 140.09ZM380.143 145.903L379.979 146.018C381.705 148.483 382.568 151.256 382.568 154.341H382.768H382.968C382.968 151.176 382.081 148.323 380.307 145.788L380.143 145.903ZM382.768 154.341L382.569 154.328L382.475 155.734L382.675 155.747L382.874 155.761L382.968 154.354L382.768 154.341ZM382.675 155.747V155.547H368.142V155.747V155.947H382.675V155.747ZM368.142 155.747L368.342 155.761C368.47 153.833 367.89 152.27 366.588 151.098L366.455 151.247L366.321 151.396C367.52 152.475 368.064 153.912 367.943 155.734L368.142 155.747ZM366.455 151.247L366.588 151.098C365.29 149.93 363.454 149.359 361.11 149.359V149.559V149.759C363.392 149.759 365.119 150.314 366.321 151.396L366.455 151.247ZM361.11 149.559V149.359C359.271 149.359 357.731 149.74 356.503 150.515L356.61 150.685L356.717 150.854C357.865 150.129 359.325 149.759 361.11 149.759V149.559ZM356.61 150.685L356.499 150.518C355.32 151.304 354.723 152.397 354.723 153.779H354.923H355.123C355.123 152.535 355.65 151.565 356.721 150.851L356.61 150.685ZM354.923 153.779H354.723C354.723 155.242 355.527 156.455 357.067 157.417L357.173 157.248L357.279 157.078C355.818 156.165 355.123 155.065 355.123 153.779H354.923ZM357.173 157.248L357.075 157.422C358.653 158.306 361.073 159.311 364.327 160.437L364.392 160.248L364.457 160.059C361.21 158.935 358.817 157.939 357.27 157.073L357.173 157.248ZM364.392 160.248L364.329 160.438C367.698 161.561 370.469 162.682 372.645 163.801L372.736 163.623L372.828 163.445C370.628 162.314 367.836 161.185 364.455 160.058L364.392 160.248ZM372.736 163.623L372.651 163.804C374.872 164.853 376.754 166.364 378.298 168.34L378.455 168.217L378.613 168.094C377.032 166.07 375.101 164.518 372.822 163.442L372.736 163.623ZM378.455 168.217L378.302 168.346C379.892 170.242 380.693 172.631 380.693 175.53H380.893H381.093C381.093 172.553 380.269 170.068 378.609 168.089L378.455 168.217ZM380.893 175.53H380.693C380.693 178.861 379.677 181.721 377.647 184.12L377.799 184.25L377.952 184.379C380.047 181.903 381.093 178.95 381.093 175.53H380.893ZM377.799 184.25L377.645 184.123C375.671 186.528 372.922 188.384 369.386 189.687L369.455 189.875L369.524 190.063C373.113 188.74 375.927 186.847 377.954 184.376L377.799 184.25ZM369.455 189.875L369.388 189.687C365.913 190.928 361.936 191.55 357.454 191.55V191.75V191.95C361.973 191.95 365.996 191.323 369.522 190.063L369.455 189.875Z" fill="white" mask="url(#path-3-outside-1_503_12629)"/>
<g clip-path="url(#clip1_503_12629)">
<path d="M394 79.4688L306.148 131.503L355.491 148.444L394 140.864V79.4688Z" fill="#2E85D7"/>
<path d="M201.923 81.9931L164.295 100.863L93.2137 77C93.2137 77 34.0437 103.455 -3 120.443V179.245L368.976 180.882L376.196 143.145L201.923 81.9931Z" fill="#2E85D7"/>
<path d="M24.2347 102.846C23.0453 101.935 21.4944 101.647 19.9987 101.565C19.7832 101.554 19.5641 101.546 19.3428 101.54C19.6046 100.417 19.4122 99.2744 18.4116 98.277C17.6287 97.4966 16.5179 97.465 15.3625 97.7609C15.322 97.6578 15.2743 97.5571 15.2185 97.46C14.6408 96.4577 13.3873 96.05 12.2313 96.0052C10.0491 95.9202 7.84985 96.8806 6.42848 98.5385C5.74626 99.3345 5.22694 100.328 5.23725 101.376C5.24508 102.196 5.45103 102.788 5.79392 103.201C5.24117 103.635 4.70656 104.101 4.30604 104.677C3.86071 105.317 3.59392 106.117 3.73798 106.884C3.85002 107.48 4.18582 107.97 4.64324 108.353C3.32503 110.061 2.59298 112.328 3.23786 114.373C3.64194 115.655 4.5447 116.733 5.59792 117.568C5.85545 117.772 6.12222 117.962 6.39718 118.138C6.33849 118.196 6.2798 118.254 6.22502 118.314C5.64096 118.955 5.29096 119.755 5.48019 120.522C5.81454 121.877 7.66026 122.681 9.46614 122.932C9.39784 123.014 9.33275 123.097 9.27335 123.182C8.67649 124.036 8.59967 125.075 9.33952 125.845C10.265 126.807 12.1961 127.131 13.9622 127.099C17.2965 127.038 20.6119 125.932 22.7084 124.181C23.715 123.34 24.4641 122.313 24.4026 121.267C24.3332 120.085 23.6578 119.405 22.6451 119.07C25.1272 117.28 27.6167 114.33 24.9141 112.066C25.6529 110.777 26.1893 109.371 26.2892 107.896C26.418 106.007 25.7382 103.997 24.2347 102.846Z" fill="#899C1C"/>
<path d="M10.8893 115.682L15.2616 118.29C15.3402 118.337 15.4398 118.281 15.4412 118.19L15.5194 113.662C15.5201 113.624 15.5024 113.588 15.4714 113.565L12.6835 111.489C12.6532 111.466 12.6354 111.431 12.6354 111.393C12.6354 111.301 12.7358 111.244 12.8151 111.291L15.3558 112.804C15.4344 112.85 15.534 112.795 15.5355 112.704L15.5899 109.554C15.5909 109.489 15.6439 109.438 15.7087 109.438H15.7578C15.8214 109.438 15.8737 109.487 15.8766 109.551L16.1124 114.665C16.1163 114.753 16.2113 114.806 16.2885 114.764L20.4334 112.49C20.5127 112.446 20.6095 112.504 20.6095 112.594V112.602C20.6095 112.641 20.591 112.676 20.56 112.699L16.2198 115.817C16.1871 115.841 16.1686 115.879 16.1704 115.919L17.1845 137.923C17.1862 137.962 17.1695 137.998 17.1389 138.022C16.991 138.138 16.6118 138.39 16.0814 138.37C15.6137 138.351 15.2854 138.131 15.1442 138.02C15.1154 137.997 15.0997 137.962 15.1004 137.925C15.2071 131.734 15.3142 125.543 15.4209 119.352C15.4216 119.312 15.4021 119.274 15.369 119.251L10.7609 116.103C10.7285 116.081 10.709 116.044 10.709 116.005V115.785C10.7097 115.692 10.81 115.635 10.8893 115.682Z" fill="#FFE4B9"/>
<path d="M15.1172 136.98L15.1204 136.79C15.7934 136.796 16.4678 136.726 17.123 136.582L17.1319 136.774C16.4959 136.911 15.8428 136.982 15.1897 136.982C15.1656 136.982 15.1414 136.98 15.1172 136.98Z" fill="#EACA9B"/>
<path d="M15.1387 135.688L15.1419 135.494C15.785 135.547 16.432 135.53 17.0694 135.438L17.0783 135.627C16.6664 135.686 16.2506 135.717 15.8344 135.717C15.6025 135.717 15.3706 135.707 15.1387 135.688Z" fill="#EACA9B"/>
<path d="M17.0032 133.993L17.0124 134.193L15.1738 133.666L15.177 133.469L17.0032 133.993Z" fill="#EACA9B"/>
<path d="M15.2102 131.547C15.7562 131.771 16.3285 131.935 16.9129 132.036L16.9218 132.229C16.3342 132.131 15.758 131.971 15.207 131.75L15.2102 131.547Z" fill="#EACA9B"/>
<path d="M15.2204 130.985C15.7706 130.979 16.3202 130.915 16.8559 130.793L16.8647 130.986C16.3244 131.107 15.771 131.17 15.2168 131.176L15.2204 130.985Z" fill="#EACA9B"/>
<path d="M16.7605 128.699L16.7694 128.89C16.4297 128.965 16.0829 129.005 15.735 129.005C15.5749 129.005 15.4152 128.994 15.2559 128.978L15.2591 128.785C15.7606 128.837 16.2692 128.811 16.7605 128.699Z" fill="#EACA9B"/>
<path d="M16.7238 127.961L16.7327 128.152C16.4581 128.181 16.1821 128.197 15.906 128.197C15.693 128.197 15.4799 128.186 15.2676 128.168L15.2708 127.979C15.7542 128.019 16.2411 128.013 16.7238 127.961Z" fill="#EACA9B"/>
<path d="M15.3004 126.383C15.7707 126.484 16.2192 126.554 16.6624 126.582L16.6713 126.774C16.2217 126.747 15.77 126.678 15.2969 126.578L15.3004 126.383Z" fill="#EACA9B"/>
<path d="M15.3216 125.055C15.7452 125.126 16.171 125.186 16.5985 125.229L16.6074 125.419C16.1759 125.376 15.7463 125.318 15.3184 125.246L15.3216 125.055Z" fill="#EACA9B"/>
<path d="M16.5578 124.34L16.5667 124.531C16.5613 124.531 16.556 124.531 16.5507 124.531C16.1437 124.531 15.7368 124.51 15.332 124.467L15.3352 124.273C15.7415 124.317 16.1494 124.34 16.5578 124.34Z" fill="#EACA9B"/>
<path d="M16.5133 123.356C16.1241 123.307 15.7375 123.239 15.3555 123.151L15.359 122.953C15.7368 123.042 16.1191 123.112 16.5044 123.162L16.5133 123.356Z" fill="#EACA9B"/>
<path d="M15.3926 120.953L15.3961 120.754L15.4164 120.76C15.7341 120.862 16.0663 120.968 16.4067 121.057L16.4159 121.255C16.0634 121.166 15.7205 121.058 15.3926 120.953Z" fill="#EACA9B"/>
<path d="M16.3585 120.033C16.0415 119.991 15.7257 119.943 15.4102 119.888L15.4134 119.695C15.7246 119.749 16.0365 119.797 16.3492 119.839L16.3585 120.033Z" fill="#EACA9B"/>
<path d="M14.9495 118.831L14.7656 118.782L14.9442 118.102L15.1142 118.203L14.9495 118.831Z" fill="#EACA9B"/>
<path d="M14.2932 117.711C14.1986 117.912 14.088 118.106 13.9635 118.289L13.8066 118.182C13.929 118.001 14.0371 117.811 14.1293 117.613L14.2932 117.711Z" fill="#EACA9B"/>
<path d="M12.5286 117.119C12.6193 117.017 12.7075 116.917 12.7765 116.809L13.0806 116.99C13.065 117.205 13.0354 117.419 12.9984 117.632L12.827 117.515C12.8555 117.337 12.8786 117.158 12.8917 116.978C12.8242 117.073 12.7473 117.159 12.6716 117.245C12.642 117.279 12.6132 117.314 12.5837 117.348L12.4258 117.24C12.4599 117.2 12.4941 117.159 12.5286 117.119Z" fill="#EACA9B"/>
<path d="M11.7287 116.184L11.9208 116.298C11.9194 116.491 11.9076 116.683 11.8902 116.874L11.7109 116.752C11.7252 116.563 11.7305 116.373 11.7287 116.184Z" fill="#EACA9B"/>
<path d="M11.3323 115.949L11.5151 116.058C11.5005 116.232 11.4799 116.406 11.4532 116.578L11.2793 116.459C11.3028 116.29 11.3198 116.12 11.3323 115.949Z" fill="#EACA9B"/>
<path d="M16.3041 118.848L16.313 119.037C15.9616 119.116 15.602 119.161 15.2431 119.165L15.0215 119.013L15.0229 118.974C15.4497 118.989 15.884 118.944 16.3041 118.848Z" fill="#EACA9B"/>
<path d="M16.2483 117.623C15.973 117.566 15.7062 117.471 15.4551 117.345L15.4586 117.133C15.7037 117.266 15.9673 117.364 16.239 117.426L16.2483 117.623Z" fill="#EACA9B"/>
<path d="M15.4707 116.388L15.4746 116.168C15.6959 116.313 15.9402 116.42 16.1953 116.489L16.2045 116.688C15.947 116.625 15.6991 116.524 15.4707 116.388Z" fill="#EACA9B"/>
<path d="M16.7394 115.445L16.5772 115.562C16.4734 115.28 16.4303 114.977 16.4499 114.677L16.6512 114.566C16.6121 114.861 16.6441 115.164 16.7394 115.445Z" fill="#EACA9B"/>
<path d="M17.9831 114.549L17.8288 114.66C17.7121 114.476 17.6168 114.279 17.5449 114.073L17.7132 113.98C17.7797 114.18 17.8711 114.371 17.9831 114.549Z" fill="#EACA9B"/>
<path d="M18.8047 113.96L18.6479 114.072C18.57 113.913 18.4999 113.749 18.4434 113.581L18.6123 113.488C18.665 113.65 18.7311 113.807 18.8047 113.96Z" fill="#EACA9B"/>
<path d="M19.3556 113.564C19.313 113.423 19.2834 113.278 19.2617 113.133L19.4396 113.035C19.4563 113.174 19.4833 113.311 19.5207 113.445L19.3556 113.564Z" fill="#EACA9B"/>
<path d="M15.5091 114.284C15.7058 114.253 15.9 114.205 16.0892 114.141L16.0985 114.338C15.905 114.401 15.7065 114.444 15.5059 114.474L15.5091 114.284Z" fill="#EACA9B"/>
<path d="M16.1657 115.854L16.1668 115.879C15.9527 115.723 15.7243 115.584 15.4863 115.465L15.4899 115.254C15.7791 115.392 16.0558 115.559 16.3123 115.749L16.1657 115.854Z" fill="#EACA9B"/>
<path d="M14.9316 113.164L14.9498 112.562L15.1372 112.674L15.118 113.303L14.9316 113.164Z" fill="#EACA9B"/>
<path d="M14.4891 112.836L14.3301 112.717L14.488 112.289L14.6541 112.388L14.4891 112.836Z" fill="#EACA9B"/>
<path d="M13.1803 111.861L13.0234 111.745C13.0668 111.66 13.1134 111.578 13.1614 111.5L13.3254 111.598C13.2724 111.684 13.2244 111.772 13.1803 111.861Z" fill="#EACA9B"/>
<path d="M13.7616 112.291L13.5581 112.139C13.5478 112.002 13.5446 111.864 13.5485 111.727L13.7338 111.837C13.7338 111.989 13.7434 112.14 13.7616 112.291Z" fill="#EACA9B"/>
<path d="M15.5762 112.137L15.7263 112.02C15.7995 112.113 15.8945 112.19 16.0002 112.247L16.0101 112.462C15.8408 112.391 15.6882 112.281 15.5762 112.137Z" fill="#EACA9B"/>
<path d="M15.9474 111.09L15.957 111.299C15.8232 111.248 15.692 111.191 15.5625 111.13L15.5661 110.922C15.6909 110.983 15.8186 111.039 15.9474 111.09Z" fill="#EACA9B"/>
<path d="M15.9013 110.079L15.9109 110.29C15.7988 110.24 15.6889 110.186 15.5801 110.13L15.5836 109.918C15.6886 109.974 15.7939 110.029 15.9013 110.079Z" fill="#EACA9B"/>
<path d="M6.42271 106.155C6.71225 106.059 7.03096 106.086 7.32476 106.169C7.80958 106.306 8.26914 106.616 8.46975 107.078C8.86564 107.989 7.88285 109.016 6.96941 108.585C6.18368 108.214 5.15927 106.574 6.42271 106.155Z" fill="#A6B32F"/>
<path d="M19.8366 103.553C20.1262 103.457 20.4448 103.484 20.7383 103.567C21.2231 103.704 21.6827 104.014 21.8837 104.476C22.2795 105.387 21.2967 106.414 20.3833 105.984C19.5976 105.613 18.5735 103.972 19.8366 103.553Z" fill="#A6B32F"/>
<path d="M11.6551 97.6078C11.9447 97.5117 12.2634 97.5391 12.5572 97.622C13.042 97.7589 13.5016 98.0691 13.7022 98.5311C14.0984 99.4421 13.1153 100.469 12.2018 100.038C11.4161 99.6676 10.3917 98.0268 11.6551 97.6078Z" fill="#A6B32F"/>
<path d="M9.15513 118.459C9.44467 118.363 9.76338 118.391 10.0572 118.474C10.542 118.61 11.0016 118.921 11.2022 119.383C11.5981 120.294 10.6153 121.321 9.70184 120.89C8.9161 120.519 7.89169 118.878 9.15513 118.459Z" fill="#A6B32F"/>
<path d="M17.6022 123.037C17.8921 122.941 18.2105 122.969 18.5043 123.052C18.9891 123.189 19.4487 123.499 19.6493 123.961C20.0455 124.872 19.0624 125.899 18.149 125.468C17.3632 125.097 16.3392 123.456 17.6022 123.037Z" fill="#A6B32F"/>
<path d="M11.3457 107.826C11.6701 107.94 11.9515 108.232 11.9614 108.576C11.97 108.871 11.7683 109.153 11.4962 109.268C11.2241 109.383 10.8983 109.341 10.6471 109.185C10.396 109.029 10.2174 108.77 10.1289 108.489C10.0876 108.357 10.0645 108.216 10.0983 108.083C10.2142 107.627 11.0135 107.709 11.3457 107.826Z" fill="#A6B32F"/>
<path d="M19.1199 107.432C18.7955 107.546 18.5141 107.837 18.5042 108.181C18.4956 108.477 18.6973 108.758 18.9694 108.874C19.2415 108.989 19.5674 108.946 19.8185 108.79C20.0696 108.634 20.2481 108.376 20.3367 108.094C20.378 107.963 20.4011 107.821 20.3673 107.688C20.2513 107.232 19.4517 107.315 19.1199 107.432Z" fill="#A6B32F"/>
<path d="M7.29567 114.353C6.97127 114.468 6.68991 114.759 6.67995 115.103C6.67141 115.398 6.87311 115.68 7.14522 115.795C7.41733 115.911 7.74313 115.868 7.99425 115.712C8.24538 115.556 8.42395 115.298 8.51252 115.016C8.55378 114.885 8.57653 114.743 8.54274 114.61C8.42714 114.154 7.62753 114.237 7.29567 114.353Z" fill="#A6B32F"/>
<path d="M18.9363 120.549C18.6119 120.663 18.3305 120.955 18.3206 121.298C18.312 121.594 18.5137 121.875 18.7858 121.991C19.0579 122.106 19.3838 122.064 19.6349 121.908C19.886 121.752 20.0646 121.493 20.1531 121.212C20.1944 121.08 20.2175 120.939 20.1837 120.806C20.0678 120.349 19.2685 120.432 18.9363 120.549Z" fill="#A6B32F"/>
<path d="M10.5864 104.937C10.4868 104.749 10.4814 104.499 10.6212 104.338C10.7411 104.201 10.9509 104.157 11.1227 104.219C11.2945 104.281 11.4247 104.436 11.4735 104.613C11.5222 104.789 11.4948 104.981 11.4169 105.146C11.3806 105.223 11.3315 105.297 11.2604 105.343C11.0164 105.502 10.6881 105.129 10.5864 104.937Z" fill="#A6B32F"/>
<path d="M4.79715 115.718C4.69791 115.53 4.69222 115.28 4.83201 115.12C4.95188 114.982 5.16175 114.938 5.33391 115C5.50571 115.062 5.63588 115.218 5.68461 115.394C5.73334 115.57 5.70595 115.762 5.62806 115.927C5.59178 116.004 5.54269 116.078 5.47155 116.124C5.22683 116.283 4.89888 115.91 4.79715 115.718Z" fill="#A6B32F"/>
<path d="M20.8108 116.031C20.7116 115.843 20.7059 115.592 20.8457 115.432C20.9655 115.294 21.1754 115.251 21.3472 115.312C21.519 115.374 21.6492 115.53 21.6979 115.706C21.7467 115.882 21.7193 116.074 21.6414 116.24C21.6051 116.317 21.556 116.391 21.4849 116.437C21.2409 116.596 20.9126 116.223 20.8108 116.031Z" fill="#A6B32F"/>
<path d="M13.2758 123.507C13.1762 123.319 13.1709 123.069 13.3107 122.909C13.4305 122.771 13.6404 122.728 13.8122 122.789C13.984 122.851 14.1142 123.007 14.1629 123.183C14.2117 123.359 14.1843 123.551 14.1064 123.716C14.0701 123.793 14.021 123.867 13.9499 123.913C13.7055 124.072 13.3772 123.699 13.2758 123.507Z" fill="#A6B32F"/>
<path d="M304.279 122.231C305.014 121.669 305.973 121.49 306.898 121.44C307.031 121.433 307.166 121.428 307.303 121.424C307.141 120.73 307.26 120.024 307.878 119.408C308.362 118.925 309.049 118.906 309.763 119.088C309.788 119.025 309.817 118.963 309.852 118.902C310.209 118.283 310.983 118.031 311.698 118.003C313.046 117.951 314.406 118.544 315.284 119.569C315.706 120.061 316.027 120.675 316.021 121.323C316.016 121.829 315.888 122.195 315.677 122.451C316.018 122.719 316.348 123.007 316.596 123.363C316.871 123.759 317.036 124.253 316.947 124.727C316.878 125.095 316.67 125.398 316.388 125.634C317.202 126.69 317.655 128.091 317.256 129.356C317.006 130.148 316.448 130.814 315.797 131.33C315.638 131.456 315.473 131.573 315.303 131.682C315.34 131.718 315.376 131.754 315.41 131.791C315.771 132.187 315.987 132.681 315.87 133.155C315.663 133.993 314.523 134.489 313.407 134.645C313.449 134.696 313.489 134.747 313.526 134.8C313.895 135.327 313.943 135.97 313.485 136.445C312.913 137.04 311.72 137.24 310.628 137.22C308.567 137.183 306.518 136.499 305.223 135.417C304.6 134.897 304.138 134.263 304.175 133.616C304.218 132.886 304.636 132.465 305.262 132.259C303.728 131.152 302.189 129.329 303.86 127.929C303.403 127.133 303.071 126.264 303.009 125.352C302.93 124.185 303.35 122.943 304.279 122.231Z" fill="#899C1C"/>
<path d="M312.529 130.164L309.827 131.776C309.779 131.804 309.717 131.77 309.716 131.714L309.668 128.916C309.667 128.892 309.678 128.87 309.697 128.856L311.42 127.573C311.439 127.559 311.45 127.537 311.45 127.514C311.45 127.457 311.388 127.422 311.339 127.451L309.768 128.386C309.72 128.414 309.658 128.38 309.657 128.324L309.624 126.377C309.623 126.337 309.59 126.305 309.55 126.305H309.52C309.481 126.305 309.448 126.336 309.446 126.375L309.301 129.535C309.298 129.59 309.24 129.623 309.192 129.597L306.63 128.191C306.581 128.164 306.521 128.2 306.521 128.256V128.261C306.521 128.284 306.533 128.307 306.552 128.32L309.234 130.248C309.255 130.263 309.266 130.286 309.265 130.311L308.638 143.91C308.637 143.934 308.647 143.957 308.666 143.971C308.758 144.043 308.992 144.199 309.32 144.186C309.609 144.175 309.812 144.039 309.899 143.97C309.917 143.956 309.926 143.934 309.926 143.912C309.86 140.085 309.794 136.259 309.728 132.432C309.727 132.408 309.739 132.384 309.76 132.37L312.608 130.425C312.628 130.411 312.64 130.388 312.64 130.364V130.228C312.641 130.17 312.578 130.135 312.529 130.164Z" fill="#FFE4B9"/>
<path d="M309.917 143.328L309.915 143.211C309.499 143.214 309.082 143.171 308.677 143.082L308.672 143.2C309.065 143.285 309.469 143.329 309.872 143.329C309.887 143.329 309.902 143.328 309.917 143.328Z" fill="#EACA9B"/>
<path d="M309.902 142.53L309.9 142.41C309.502 142.443 309.102 142.432 308.708 142.375L308.703 142.492C308.958 142.529 309.215 142.548 309.472 142.548C309.615 142.548 309.758 142.542 309.902 142.53Z" fill="#EACA9B"/>
<path d="M308.75 141.48L308.744 141.604L309.881 141.278L309.878 141.156L308.75 141.48Z" fill="#EACA9B"/>
<path d="M309.859 139.969C309.521 140.107 309.168 140.209 308.806 140.271L308.801 140.391C309.164 140.33 309.52 140.231 309.861 140.095L309.859 139.969Z" fill="#EACA9B"/>
<path d="M309.853 139.623C309.512 139.619 309.173 139.579 308.842 139.504L308.836 139.623C309.17 139.698 309.512 139.737 309.854 139.74L309.853 139.623Z" fill="#EACA9B"/>
<path d="M308.9 138.211L308.895 138.329C309.104 138.375 309.319 138.4 309.534 138.4C309.633 138.4 309.731 138.393 309.83 138.383L309.828 138.264C309.518 138.296 309.204 138.28 308.9 138.211Z" fill="#EACA9B"/>
<path d="M308.923 137.754L308.918 137.872C309.088 137.89 309.258 137.9 309.429 137.9C309.56 137.9 309.692 137.893 309.823 137.882L309.821 137.765C309.523 137.79 309.222 137.786 308.923 137.754Z" fill="#EACA9B"/>
<path d="M309.804 136.777C309.514 136.84 309.237 136.883 308.962 136.9L308.957 137.019C309.235 137.002 309.514 136.96 309.806 136.898L309.804 136.777Z" fill="#EACA9B"/>
<path d="M309.789 135.957C309.527 136.001 309.264 136.038 308.999 136.065L308.994 136.183C309.261 136.156 309.526 136.12 309.791 136.075L309.789 135.957Z" fill="#EACA9B"/>
<path d="M309.025 135.513L309.02 135.632C309.023 135.632 309.026 135.632 309.029 135.632C309.281 135.632 309.532 135.618 309.783 135.592L309.78 135.473C309.53 135.499 309.277 135.514 309.025 135.513Z" fill="#EACA9B"/>
<path d="M309.053 134.905C309.293 134.875 309.532 134.833 309.768 134.778L309.766 134.656C309.533 134.711 309.296 134.754 309.058 134.785L309.053 134.905Z" fill="#EACA9B"/>
<path d="M309.745 133.423L309.743 133.301L309.731 133.305C309.534 133.368 309.329 133.433 309.119 133.488L309.113 133.611C309.331 133.555 309.543 133.489 309.745 133.423Z" fill="#EACA9B"/>
<path d="M309.148 132.853C309.344 132.827 309.54 132.797 309.735 132.764L309.733 132.645C309.54 132.678 309.347 132.707 309.154 132.733L309.148 132.853Z" fill="#EACA9B"/>
<path d="M310.02 132.111L310.134 132.081L310.023 131.66L309.918 131.723L310.02 132.111Z" fill="#EACA9B"/>
<path d="M310.426 131.42C310.484 131.544 310.553 131.663 310.63 131.777L310.727 131.711C310.651 131.599 310.584 131.482 310.528 131.359L310.426 131.42Z" fill="#EACA9B"/>
<path d="M311.515 131.051C311.459 130.988 311.404 130.926 311.362 130.859L311.174 130.971C311.183 131.104 311.202 131.237 311.225 131.368L311.331 131.296C311.313 131.186 311.299 131.076 311.291 130.965C311.332 131.023 311.38 131.077 311.427 131.13C311.445 131.15 311.463 131.172 311.481 131.193L311.579 131.127C311.558 131.101 311.536 131.076 311.515 131.051Z" fill="#EACA9B"/>
<path d="M312.009 130.473L311.891 130.543C311.891 130.663 311.899 130.781 311.909 130.899L312.02 130.824C312.012 130.707 312.008 130.59 312.009 130.473Z" fill="#EACA9B"/>
<path d="M312.256 130.328L312.143 130.395C312.151 130.503 312.164 130.61 312.181 130.717L312.288 130.643C312.274 130.539 312.264 130.433 312.256 130.328Z" fill="#EACA9B"/>
<path d="M309.181 132.121L309.176 132.238C309.393 132.287 309.615 132.315 309.837 132.317L309.974 132.224L309.973 132.199C309.709 132.208 309.441 132.181 309.181 132.121Z" fill="#EACA9B"/>
<path d="M309.217 131.366C309.387 131.33 309.552 131.272 309.707 131.193L309.705 131.062C309.553 131.145 309.39 131.205 309.223 131.243L309.217 131.366Z" fill="#EACA9B"/>
<path d="M309.698 130.601L309.695 130.465C309.559 130.554 309.407 130.62 309.25 130.663L309.244 130.787C309.403 130.747 309.556 130.685 309.698 130.601Z" fill="#EACA9B"/>
<path d="M308.912 130.016L309.012 130.088C309.077 129.914 309.103 129.726 309.091 129.541L308.967 129.473C308.991 129.655 308.971 129.842 308.912 130.016Z" fill="#EACA9B"/>
<path d="M308.145 129.464L308.24 129.533C308.312 129.419 308.371 129.298 308.415 129.17L308.311 129.113C308.27 129.237 308.214 129.354 308.145 129.464Z" fill="#EACA9B"/>
<path d="M307.637 129.1L307.733 129.169C307.782 129.071 307.825 128.97 307.86 128.866L307.755 128.809C307.723 128.908 307.682 129.005 307.637 129.1Z" fill="#EACA9B"/>
<path d="M307.297 128.854C307.324 128.767 307.342 128.678 307.355 128.587L307.245 128.527C307.235 128.613 307.218 128.698 307.195 128.781L307.297 128.854Z" fill="#EACA9B"/>
<path d="M309.675 129.299C309.553 129.28 309.433 129.251 309.316 129.211L309.311 129.333C309.43 129.372 309.553 129.399 309.677 129.417L309.675 129.299Z" fill="#EACA9B"/>
<path d="M309.266 130.269L309.266 130.285C309.398 130.188 309.539 130.103 309.686 130.029L309.684 129.898C309.505 129.984 309.334 130.087 309.176 130.204L309.266 130.269Z" fill="#EACA9B"/>
<path d="M310.029 128.61L310.018 128.238L309.902 128.307L309.914 128.696L310.029 128.61Z" fill="#EACA9B"/>
<path d="M310.303 128.404L310.401 128.331L310.304 128.066L310.201 128.128L310.303 128.404Z" fill="#EACA9B"/>
<path d="M311.113 127.801L311.21 127.729C311.183 127.677 311.155 127.626 311.125 127.578L311.023 127.639C311.057 127.692 311.086 127.746 311.113 127.801Z" fill="#EACA9B"/>
<path d="M310.754 128.071L310.879 127.978C310.886 127.893 310.888 127.808 310.886 127.723L310.771 127.791C310.771 127.884 310.765 127.978 310.754 128.071Z" fill="#EACA9B"/>
<path d="M309.631 127.975L309.539 127.902C309.493 127.96 309.435 128.008 309.369 128.043L309.363 128.175C309.468 128.132 309.562 128.063 309.631 127.975Z" fill="#EACA9B"/>
<path d="M309.403 127.327L309.396 127.456C309.479 127.424 309.56 127.389 309.64 127.351L309.638 127.223C309.561 127.26 309.483 127.295 309.403 127.327Z" fill="#EACA9B"/>
<path d="M309.432 126.701L309.426 126.832C309.495 126.801 309.563 126.767 309.63 126.732L309.628 126.602C309.563 126.636 309.498 126.67 309.432 126.701Z" fill="#EACA9B"/>
<path d="M315.288 124.276C315.109 124.216 314.912 124.234 314.73 124.285C314.431 124.369 314.147 124.561 314.023 124.847C313.778 125.41 314.385 126.044 314.95 125.778C315.435 125.549 316.068 124.535 315.288 124.276Z" fill="#A6B32F"/>
<path d="M306.997 122.667C306.818 122.607 306.621 122.624 306.439 122.675C306.14 122.76 305.856 122.952 305.731 123.237C305.487 123.8 306.094 124.435 306.659 124.169C307.144 123.94 307.777 122.925 306.997 122.667Z" fill="#A6B32F"/>
<path d="M312.055 118.991C311.876 118.931 311.679 118.948 311.498 119C311.198 119.084 310.914 119.276 310.79 119.561C310.545 120.124 311.153 120.759 311.717 120.493C312.203 120.264 312.836 119.25 312.055 118.991Z" fill="#A6B32F"/>
<path d="M313.6 131.881C313.421 131.822 313.224 131.839 313.043 131.89C312.743 131.975 312.459 132.167 312.335 132.452C312.09 133.015 312.698 133.65 313.262 133.383C313.748 133.154 314.381 132.14 313.6 131.881Z" fill="#A6B32F"/>
<path d="M308.38 134.713C308.201 134.654 308.004 134.671 307.822 134.722C307.523 134.807 307.238 134.999 307.114 135.284C306.87 135.847 307.477 136.482 308.042 136.215C308.527 135.987 309.16 134.972 308.38 134.713Z" fill="#A6B32F"/>
<path d="M312.246 125.311C312.045 125.381 311.871 125.561 311.865 125.774C311.86 125.956 311.985 126.131 312.153 126.202C312.321 126.273 312.522 126.247 312.677 126.15C312.833 126.054 312.943 125.894 312.998 125.72C313.024 125.639 313.038 125.551 313.017 125.469C312.945 125.187 312.451 125.238 312.246 125.311Z" fill="#A6B32F"/>
<path d="M307.441 125.064C307.642 125.135 307.816 125.315 307.822 125.527C307.827 125.71 307.703 125.884 307.534 125.956C307.366 126.027 307.165 126 307.01 125.904C306.854 125.808 306.744 125.648 306.689 125.474C306.664 125.393 306.649 125.305 306.67 125.223C306.742 124.941 307.236 124.992 307.441 125.064Z" fill="#A6B32F"/>
<path d="M314.748 129.346C314.948 129.416 315.122 129.596 315.128 129.809C315.134 129.991 315.009 130.165 314.841 130.237C314.673 130.308 314.471 130.282 314.316 130.186C314.161 130.09 314.051 129.93 313.996 129.755C313.97 129.674 313.956 129.587 313.977 129.504C314.048 129.222 314.543 129.274 314.748 129.346Z" fill="#A6B32F"/>
<path d="M307.554 133.174C307.755 133.244 307.929 133.424 307.935 133.637C307.94 133.819 307.816 133.994 307.648 134.065C307.479 134.136 307.278 134.11 307.123 134.013C306.967 133.917 306.857 133.757 306.802 133.583C306.777 133.502 306.763 133.414 306.784 133.332C306.855 133.051 307.349 133.102 307.554 133.174Z" fill="#A6B32F"/>
<path d="M312.716 123.523C312.777 123.407 312.78 123.252 312.694 123.153C312.62 123.068 312.49 123.041 312.384 123.08C312.278 123.118 312.197 123.214 312.167 123.323C312.137 123.432 312.154 123.551 312.203 123.653C312.225 123.7 312.255 123.746 312.299 123.774C312.449 123.872 312.653 123.642 312.716 123.523Z" fill="#A6B32F"/>
<path d="M316.292 130.187C316.353 130.071 316.356 129.916 316.27 129.817C316.196 129.732 316.067 129.705 315.96 129.744C315.854 129.782 315.773 129.878 315.744 129.987C315.713 130.096 315.73 130.215 315.779 130.317C315.801 130.364 315.831 130.41 315.876 130.438C316.026 130.537 316.229 130.306 316.292 130.187Z" fill="#A6B32F"/>
<path d="M306.395 130.379C306.457 130.263 306.46 130.108 306.374 130.009C306.3 129.924 306.17 129.897 306.064 129.935C305.957 129.973 305.877 130.07 305.847 130.178C305.817 130.287 305.834 130.406 305.882 130.508C305.905 130.556 305.935 130.601 305.979 130.63C306.129 130.728 306.332 130.497 306.395 130.379Z" fill="#A6B32F"/>
<path d="M311.053 135C311.115 134.884 311.118 134.729 311.032 134.63C310.958 134.545 310.828 134.518 310.722 134.556C310.616 134.594 310.536 134.691 310.505 134.799C310.475 134.908 310.492 135.027 310.54 135.129C310.563 135.177 310.593 135.222 310.637 135.251C310.788 135.349 310.99 135.119 311.053 135Z" fill="#A6B32F"/>
<path d="M19.28 137.926C19.0295 136.48 19.6255 134.983 20.5804 133.869C21.5352 132.755 22.8157 131.972 24.1198 131.3C24.6208 131.042 25.1405 130.789 25.5248 130.376C25.9091 129.964 26.1315 129.347 25.917 128.825C25.7335 128.379 25.2654 128.098 24.7888 128.024C24.3121 127.951 23.826 128.055 23.3645 128.196C19.6331 129.332 16.8739 133.098 16.9145 136.998C17.0584 135.647 16.4871 134.573 16.2189 133.241C15.9508 131.908 15.2023 130.603 13.9836 130.002C13.4727 129.75 12.864 129.995 12.4195 130.351C11.9749 130.707 11.7264 131.295 11.7809 131.861C11.888 132.981 12.9881 133.681 13.7424 134.515C14.7085 135.583 15.1758 137.085 14.9862 138.512C15.0893 138.464 15.1923 138.415 15.2952 138.366" fill="#4B3B51"/>
<path d="M14.057 138.72C13.6762 137.362 13.136 136.027 12.2632 134.919C11.3905 133.811 10.1543 132.944 8.76113 132.723C7.36799 132.502 5.83075 133.007 5 134.147C6.66306 133.624 8.57056 133.955 9.95981 135.008C11.3491 136.062 12.1831 137.809 12.1285 139.551" fill="#4B3B51"/>
<path d="M309.848 145.768C104.832 90.284 5.43205 140.656 -1 144.88V149.103V168.746H399V126.958C348.101 133.659 309.848 145.768 309.848 145.768Z" fill="#899C1C"/>
<path d="M393 146H0V167H393V146Z" fill="#625068"/>
<path d="M80.1066 156H67.748V157.088H80.1066V156Z" fill="#AC9EB2"/>
<path d="M55.7339 156H43.375V157.088H55.7339V156Z" fill="#AC9EB2"/>
<path d="M31.3585 156H19V157.088H31.3585V156Z" fill="#AC9EB2"/>
<path d="M8.10659 156H-4.25195V157.088H8.10659V156Z" fill="#AC9EB2"/>
<path d="M152.107 156H139.748V157.088H152.107V156Z" fill="#AC9EB2"/>
<path d="M127.734 156H115.375V157.088H127.734V156Z" fill="#AC9EB2"/>
<path d="M103.359 156H91V157.088H103.359V156Z" fill="#AC9EB2"/>
<path d="M224.107 156H211.748V157.088H224.107V156Z" fill="#AC9EB2"/>
<path d="M199.734 156H187.375V157.088H199.734V156Z" fill="#AC9EB2"/>
<path d="M175.359 156H163V157.088H175.359V156Z" fill="#AC9EB2"/>
<path d="M296.107 156H283.748V157.088H296.107V156Z" fill="#AC9EB2"/>
<path d="M271.734 156H259.375V157.088H271.734V156Z" fill="#AC9EB2"/>
<path d="M247.359 156H235V157.088H247.359V156Z" fill="#AC9EB2"/>
<path d="M368.107 156H355.748V157.088H368.107V156Z" fill="#AC9EB2"/>
<path d="M343.734 156H331.375V157.088H343.734V156Z" fill="#AC9EB2"/>
<path d="M319.359 156H307V157.088H319.359V156Z" fill="#AC9EB2"/>
<path d="M391.359 156H379V157.088H391.359V156Z" fill="#AC9EB2"/>
<path d="M393 166H0V187H393V166Z" fill="#CB806D"/>
<path d="M102.561 156.462C105.694 156.462 108.234 153.705 108.234 150.305C108.234 146.905 105.694 144.148 102.561 144.148C99.4284 144.148 96.8887 146.905 96.8887 150.305C96.8887 153.705 99.4284 156.462 102.561 156.462Z" fill="#131835"/>
<path d="M102.56 153.275C104.072 153.275 105.297 151.946 105.297 150.306C105.297 148.665 104.072 147.336 102.56 147.336C101.049 147.336 99.8242 148.665 99.8242 150.306C99.8242 151.946 101.049 153.275 102.56 153.275Z" fill="#D3D0C9"/>
<path d="M201.679 111.996C201.679 111.996 202.355 107 195.328 107C188.3 107 147.367 108.134 146.852 109.498C146.337 110.862 146.852 112.166 146.852 112.166L201.05 115.238L201.679 111.996Z" fill="#0064C1"/>
<path d="M208.378 111.538C215.844 112.568 221.831 149.49 218.59 151.27C215.039 153.22 195.178 152.345 190.668 152.119C190.175 152.094 189.792 151.683 189.803 151.19C189.843 149.46 189.664 145.66 187.469 144.176C183.76 141.669 176.496 142.589 176.988 150.773C177.031 151.478 176.471 152.073 175.765 152.073H108.256C107.661 152.073 107.179 151.587 107.192 150.993C107.236 148.818 106.302 145.057 102.342 145.321C98.4803 145.578 98.4733 148.782 98.425 150.825C98.4105 151.438 97.8774 151.908 97.2671 151.854C94.1853 151.585 86.0404 150.861 84.3781 150.584C82.3185 150.241 80.2592 114.886 84.3781 113.513C88.4974 112.139 195.87 109.813 208.378 111.538Z" fill="#0F79DC"/>
<path d="M213.958 134.277H82.6074C82.6984 135.568 82.8039 136.82 82.9228 138.001C82.9636 138.408 83.0052 138.792 83.0467 139.159L213.957 135.106V134.277H213.958Z" fill="#0064C1"/>
<path d="M83.0449 143.967C83.5925 148.813 84.1714 150.287 84.4131 150.371C86.0479 150.643 93.9594 151.348 97.2848 151.639C97.3099 151.641 97.3354 151.642 97.3601 151.642C97.8163 151.642 98.196 151.274 98.207 150.821L98.2093 150.715C98.2556 148.717 98.3325 145.371 102.326 145.105C102.464 145.096 102.598 145.091 102.729 145.091C103.985 145.091 105.024 145.502 105.818 146.312C107.035 147.553 107.436 149.546 107.407 150.998C107.403 151.225 107.488 151.439 107.647 151.602C107.809 151.767 108.024 151.857 108.255 151.857H175.765C176.045 151.857 176.305 151.745 176.498 151.54C176.691 151.336 176.788 151.068 176.771 150.787C176.615 148.187 177.237 146.064 178.572 144.647C179.736 143.411 181.418 142.731 183.31 142.731C184.839 142.731 186.399 143.193 187.589 143.998C189.895 145.556 190.057 149.55 190.02 151.196C190.011 151.574 190.301 151.884 190.679 151.903C193.024 152.021 199.124 152.295 205.096 152.295C212.41 152.295 217.04 151.875 218.485 151.081C219.37 150.595 219.596 146.397 218.751 139.766L83.0449 143.967Z" fill="#0064C1"/>
<path d="M211.807 152.073C211.807 152.073 216.563 150.584 216.275 145.441" stroke="#0277E5" stroke-width="1.17672" stroke-miterlimit="10"/>
<path d="M183.397 155.946C186.53 155.946 189.07 153.19 189.07 149.789C189.07 146.389 186.53 143.633 183.397 143.633C180.264 143.633 177.725 146.389 177.725 149.789C177.725 153.19 180.264 155.946 183.397 155.946Z" fill="#131835"/>
<path d="M183.396 152.76C184.908 152.76 186.133 151.43 186.133 149.79C186.133 148.15 184.908 146.82 183.396 146.82C181.885 146.82 180.66 148.15 180.66 149.79C180.66 151.43 181.885 152.76 183.396 152.76Z" fill="#D3D0C9"/>
<path d="M85.7505 128.443C84.7923 126.048 85.2355 115.59 86.952 115.238C88.6684 114.885 205.376 110.511 208.979 113.168C212.581 115.826 218.246 144.771 216.359 146.819C214.471 148.867 193.977 130.006 189.292 129.568C184.608 129.13 87.1234 131.876 85.7505 128.443Z" fill="#131835"/>
<path d="M211.539 114.08C211.539 114.08 210.351 113.856 210.609 114.457C210.853 115.026 216.287 125.347 217.569 139.114C217.637 139.844 218.303 140.372 219.036 140.372C219.036 140.372 217.275 122.028 211.539 114.08Z" fill="#3F4B72"/>
<path d="M221.322 119.355C219.095 113.968 209.174 116.938 209.174 116.938L210.378 118.445C219.142 116.354 219.463 119.877 219.463 119.877L219.382 119.9C218.746 120.079 218.375 120.74 218.554 121.376L219.214 123.724C219.448 124.556 220.471 124.886 221.128 124.324C221.929 123.639 222.512 122.233 221.322 119.355Z" fill="#131835"/>
<path d="M214.05 130.165C212.76 124.016 211.256 118.823 209.997 115.958H198.749V113.027C196.688 112.991 194.208 112.969 191.207 112.969C157.823 112.969 89.3914 115.59 87.1105 115.873C86.8277 116.1 86.2049 117.707 85.9774 121.434C85.8036 124.277 85.9483 127.043 86.3206 128.112C86.6685 128.317 88.4226 128.869 97.197 129.211C102.91 129.434 110.944 129.547 121.077 129.547C136.677 129.547 154.81 129.282 168.05 129.089C176.418 128.967 183.027 128.871 186.61 128.871C188.104 128.871 188.976 128.887 189.353 128.922C191.816 129.153 197.626 133.566 203.778 138.238C208.753 142.016 214.39 146.298 215.909 146.326C216.366 145.368 215.987 139.396 214.05 130.165Z" fill="#2A3356"/>
<path d="M212.333 124.254L86.3145 126.078C86.3753 126.837 86.4682 127.463 86.5898 127.877C87.0448 128.058 89.0201 128.563 97.2105 128.883C102.922 129.106 110.952 129.218 121.078 129.218C136.696 129.218 154.816 128.953 168.046 128.76L168.085 128.759C176.436 128.637 183.032 128.541 186.611 128.541C188.116 128.541 188.997 128.558 189.384 128.594C191.94 128.833 197.787 133.273 203.977 137.975C208.439 141.364 213.94 145.542 215.679 145.962C215.934 144.669 215.639 139.325 213.73 130.23C213.289 128.13 212.816 126.114 212.333 124.254Z" fill="#3F4B72"/>
<path d="M83.8633 140.113H121.793" stroke="#0277E5" stroke-width="1.17672" stroke-miterlimit="10"/>
<path d="M122.48 152.074V132.914C122.48 132.254 123.015 131.719 123.675 131.719H131.412C132.072 131.719 132.607 132.254 132.607 132.914V152.074" stroke="#0277E5" stroke-width="1.17672" stroke-miterlimit="10"/>
<path d="M132.605 140.801H196.466" stroke="#0277E5" stroke-width="1.17672" stroke-miterlimit="10"/>
<path d="M196.283 134.793V152.072" stroke="#0277E5" stroke-width="1.17672" stroke-miterlimit="10"/>
<path d="M144.678 152.073V140.801" stroke="#0277E5" stroke-width="1.17672" stroke-miterlimit="10"/>
<path d="M159.094 140.801V152.073" stroke="#0277E5" stroke-width="1.17672" stroke-miterlimit="10"/>
<path d="M218.648 143.633C217.404 143.205 216.932 147.209 217.847 148.353C218.763 149.497 219.564 143.948 218.648 143.633Z" fill="#D3D0C9"/>
<path d="M96.7993 115.113H95.8203V129.317H96.7993V115.113Z" fill="#131835"/>
<path d="M111.215 114.598H110.236V129.831H111.215V114.598Z" fill="#131835"/>
<path d="M125.631 114.055H124.652V129.774H125.631V114.055Z" fill="#131835"/>
<path d="M140.05 113.625H139.07V129.717H140.05V113.625Z" fill="#131835"/>
<path d="M154.465 113.281H153.486V129.5H154.465V113.281Z" fill="#131835"/>
<path d="M168.883 112.855H167.904V129.195H168.883V112.855Z" fill="#131835"/>
<path d="M183.299 112.512H182.32V129.194H183.299V112.512Z" fill="#131835"/>
<path d="M196.772 133.269L195.793 132.704V112.512H196.772V133.269Z" fill="#131835"/>
<path d="M211.232 119.273L211.806 120.253H195.793V119.273H211.232Z" fill="#131835"/>
<path d="M214.733 132.289H196.283V133.268H214.733V132.289Z" fill="#131835"/>
<path d="M140.67 147.836H136.723V149.295H140.67V147.836Z" fill="#0064C1"/>
<path d="M153.86 147.836H149.912V149.295H153.86V147.836Z" fill="#0064C1"/>
<path d="M194.506 144.438C194.506 144.992 194.198 145.442 193.819 145.442C193.44 145.442 193.133 144.992 193.133 144.438C193.133 143.883 193.44 143.434 193.819 143.434C194.198 143.434 194.506 143.883 194.506 144.438Z" fill="#D3D0C9"/>
<path d="M83.3603 141.316C84.3342 141.331 84.2758 141.16 84.3899 141.896C84.5045 142.632 84.9618 146.355 84.6186 146.324C84.2754 146.293 83.4799 146.684 83.4282 146.324C83.3764 145.963 82.4923 141.302 83.3603 141.316Z" fill="#0277E5"/>
<path d="M196.466 107.79C196.466 107.79 148.111 109.392 148.282 109.964C148.452 110.536 199.472 110.994 199.249 109.964C199.025 108.935 197.903 107.742 196.466 107.79Z" fill="#0F79DC"/>
<path d="M342.116 178.439C339.629 176.329 337.643 173.632 336.367 170.63C335.999 169.764 335.723 168.666 336.345 167.96C336.782 167.464 337.544 167.361 338.178 167.549C338.813 167.736 339.346 168.162 339.843 168.599C342.444 170.888 344.536 173.751 345.926 176.924C345.344 175.151 345.228 173.476 345.214 171.61C345.208 170.697 345.396 169.597 346.241 169.252C346.836 169.01 347.543 169.278 347.986 169.743C348.429 170.208 348.66 170.831 348.854 171.444C349.509 173.518 349.866 175.686 349.909 177.861" fill="#4B3B51"/>
<path d="M340.16 181.132C339.27 177.959 338.008 174.838 335.969 172.249C333.93 169.66 331.041 167.635 327.787 167.119C324.532 166.602 320.941 167.782 319 170.446C322.885 169.224 327.342 169.998 330.588 172.459C333.833 174.919 335.782 179.001 335.655 183.072" fill="#4B3B51"/>
<path d="M390.794 177.439C393.281 175.329 395.267 172.632 396.543 169.63C396.911 168.764 397.188 167.666 396.565 166.96C396.128 166.464 395.366 166.361 394.732 166.549C394.097 166.736 393.564 167.162 393.067 167.599C390.466 169.888 388.374 172.751 386.984 175.924C387.567 174.151 387.683 172.476 387.696 170.61C387.702 169.697 387.514 168.597 386.669 168.252C386.074 168.01 385.367 168.278 384.924 168.743C384.481 169.208 384.25 169.831 384.057 170.444C383.401 172.518 383.045 174.686 383.001 176.861" fill="#4B3B51"/>
<path d="M392.75 180.132C393.64 176.959 394.902 173.838 396.941 171.249C398.98 168.66 401.869 166.635 405.123 166.119C408.378 165.602 411.97 166.782 413.91 169.446C410.025 168.224 405.568 168.998 402.322 171.459C399.077 173.919 397.128 178.001 397.255 182.072" fill="#4B3B51"/>
<path d="M399.885 105.148C397.427 103.266 394.222 102.67 391.13 102.502C390.685 102.477 390.232 102.461 389.775 102.45C390.316 100.129 389.918 97.7673 387.85 95.7057C386.232 94.0928 383.936 94.0276 381.549 94.6392C381.465 94.4258 381.367 94.2177 381.251 94.0172C380.057 91.9461 377.467 91.1037 375.078 91.0107C370.568 90.8352 366.022 92.8199 363.086 96.2465C361.676 97.8914 360.603 99.9438 360.624 102.11C360.64 103.805 361.066 105.028 361.774 105.881C360.631 106.779 359.526 107.742 358.699 108.932C357.778 110.256 357.227 111.909 357.525 113.494C357.757 114.726 358.45 115.738 359.396 116.528C356.672 120.059 355.159 124.744 356.492 128.971C357.327 131.62 359.193 133.848 361.369 135.573C361.901 135.995 362.453 136.387 363.021 136.752C362.9 136.872 362.779 136.991 362.665 137.116C361.458 138.44 360.735 140.093 361.126 141.677C361.817 144.478 365.631 146.139 369.363 146.659C369.222 146.828 369.088 147 368.965 147.176C367.731 148.94 367.572 151.087 369.102 152.678C371.014 154.668 375.005 155.337 378.655 155.27C385.546 155.144 392.398 152.858 396.731 149.239C398.811 147.501 400.359 145.38 400.233 143.216C400.09 140.775 398.694 139.369 396.6 138.678C401.73 134.978 406.875 128.881 401.289 124.201C402.816 121.537 403.925 118.631 404.132 115.583C404.397 111.68 402.992 107.526 399.885 105.148Z" fill="#899C1C"/>
<path d="M372.299 131.681L381.335 137.069C381.497 137.165 381.703 137.051 381.706 136.862L381.868 127.506C381.869 127.427 381.832 127.352 381.769 127.304L376.007 123.013C375.945 122.967 375.908 122.894 375.908 122.816C375.908 122.626 376.116 122.508 376.28 122.605L381.531 125.731C381.693 125.828 381.899 125.713 381.902 125.524L382.014 119.015C382.017 118.881 382.126 118.773 382.26 118.773H382.362C382.493 118.773 382.601 118.877 382.607 119.008L383.094 129.577C383.103 129.759 383.298 129.868 383.458 129.781L392.024 125.082C392.188 124.992 392.388 125.11 392.388 125.297V125.314C392.388 125.392 392.35 125.467 392.286 125.513L383.316 131.959C383.249 132.007 383.21 132.086 383.214 132.169L385.31 177.643C385.313 177.723 385.279 177.799 385.215 177.849C384.91 178.088 384.126 178.609 383.03 178.567C382.063 178.529 381.384 178.074 381.093 177.843C381.034 177.796 381.001 177.724 381.003 177.648C381.224 164.853 381.444 152.058 381.665 139.262C381.667 139.18 381.626 139.102 381.558 139.055L372.035 132.549C371.968 132.503 371.928 132.427 371.928 132.346V131.891C371.927 131.701 372.135 131.583 372.299 131.681Z" fill="#FFE4B9"/>
<path d="M381.035 175.692L381.042 175.302C382.433 175.312 383.827 175.168 385.181 174.871L385.199 175.268C383.884 175.551 382.535 175.697 381.185 175.697C381.135 175.697 381.085 175.693 381.035 175.692Z" fill="#EACA9B"/>
<path d="M381.082 173.026L381.089 172.626C382.418 172.734 383.755 172.7 385.073 172.508L385.091 172.899C384.239 173.021 383.38 173.086 382.52 173.086C382.04 173.087 381.561 173.065 381.082 173.026Z" fill="#EACA9B"/>
<path d="M384.935 169.52L384.954 169.935L381.154 168.845L381.161 168.438L384.935 169.52Z" fill="#EACA9B"/>
<path d="M381.23 164.461C382.358 164.925 383.541 165.264 384.749 165.473L384.767 165.872C383.552 165.668 382.361 165.337 381.223 164.881L381.23 164.461Z" fill="#EACA9B"/>
<path d="M381.251 163.304C382.388 163.291 383.524 163.158 384.631 162.906L384.65 163.306C383.533 163.555 382.389 163.685 381.244 163.697L381.251 163.304Z" fill="#EACA9B"/>
<path d="M384.432 158.582L384.45 158.977C383.748 159.131 383.031 159.214 382.312 159.214C381.982 159.214 381.652 159.193 381.322 159.159L381.329 158.758C382.365 158.867 383.417 158.813 384.432 158.582Z" fill="#EACA9B"/>
<path d="M384.36 157.051L384.378 157.446C383.81 157.507 383.24 157.54 382.669 157.54C382.229 157.54 381.789 157.515 381.35 157.479L381.356 157.087C382.356 157.171 383.362 157.16 384.36 157.051Z" fill="#EACA9B"/>
<path d="M381.415 153.793C382.387 154.002 383.314 154.146 384.23 154.205L384.248 154.601C383.319 154.545 382.386 154.403 381.408 154.196L381.415 153.793Z" fill="#EACA9B"/>
<path d="M381.462 151.047C382.338 151.194 383.217 151.317 384.101 151.407L384.119 151.801C383.227 151.711 382.339 151.59 381.455 151.443L381.462 151.047Z" fill="#EACA9B"/>
<path d="M384.016 149.57L384.034 149.966C384.023 149.966 384.012 149.966 384.001 149.966C383.16 149.966 382.319 149.921 381.482 149.833L381.489 149.434C382.328 149.524 383.172 149.571 384.016 149.57Z" fill="#EACA9B"/>
<path d="M383.922 147.536C383.118 147.433 382.319 147.294 381.529 147.111L381.536 146.703C382.317 146.887 383.107 147.031 383.903 147.135L383.922 147.536Z" fill="#EACA9B"/>
<path d="M381.607 142.571L381.614 142.16L381.656 142.174C382.313 142.385 382.999 142.604 383.702 142.787L383.721 143.197C382.994 143.012 382.286 142.789 381.607 142.571Z" fill="#EACA9B"/>
<path d="M383.606 140.666C382.951 140.579 382.298 140.479 381.646 140.368L381.653 139.969C382.296 140.08 382.941 140.179 383.587 140.266L383.606 140.666Z" fill="#EACA9B"/>
<path d="M380.691 138.183L380.311 138.083L380.68 136.676L381.031 136.885L380.691 138.183Z" fill="#EACA9B"/>
<path d="M379.338 135.878C379.142 136.294 378.914 136.693 378.656 137.073L378.332 136.852C378.585 136.478 378.808 136.085 378.998 135.676L379.338 135.878Z" fill="#EACA9B"/>
<path d="M375.692 134.65C375.879 134.438 376.061 134.232 376.204 134.008L376.832 134.382C376.8 134.828 376.739 135.27 376.662 135.709L376.308 135.467C376.367 135.1 376.415 134.73 376.442 134.359C376.302 134.554 376.143 134.733 375.987 134.911C375.926 134.98 375.866 135.053 375.805 135.124L375.479 134.9C375.55 134.817 375.62 134.731 375.692 134.65Z" fill="#EACA9B"/>
<path d="M374.031 132.715L374.428 132.952C374.425 133.349 374.401 133.746 374.365 134.142L373.994 133.889C374.024 133.499 374.035 133.107 374.031 132.715Z" fill="#EACA9B"/>
<path d="M373.217 132.227L373.595 132.452C373.565 132.811 373.522 133.169 373.467 133.526L373.107 133.28C373.156 132.931 373.192 132.579 373.217 132.227Z" fill="#EACA9B"/>
<path d="M383.493 138.223L383.511 138.614C382.785 138.777 382.041 138.87 381.3 138.878L380.842 138.565L380.845 138.484C381.728 138.514 382.625 138.423 383.493 138.223Z" fill="#EACA9B"/>
<path d="M383.376 135.689C382.807 135.57 382.255 135.375 381.736 135.114L381.744 134.676C382.25 134.951 382.795 135.154 383.357 135.28L383.376 135.689Z" fill="#EACA9B"/>
<path d="M381.771 133.139L381.779 132.684C382.236 132.983 382.742 133.204 383.269 133.347L383.288 133.76C382.755 133.628 382.243 133.42 381.771 133.139Z" fill="#EACA9B"/>
<path d="M384.391 131.184L384.056 131.425C383.841 130.842 383.752 130.215 383.793 129.595L384.209 129.367C384.128 129.977 384.194 130.602 384.391 131.184Z" fill="#EACA9B"/>
<path d="M386.96 129.338L386.641 129.568C386.4 129.187 386.203 128.781 386.055 128.355L386.403 128.164C386.54 128.577 386.729 128.97 386.96 129.338Z" fill="#EACA9B"/>
<path d="M388.659 128.119L388.335 128.351C388.173 128.022 388.029 127.684 387.912 127.336L388.262 127.145C388.37 127.478 388.507 127.802 388.659 128.119Z" fill="#EACA9B"/>
<path d="M389.797 127.3C389.709 127.009 389.648 126.71 389.604 126.408L389.971 126.207C390.006 126.493 390.061 126.777 390.138 127.055L389.797 127.3Z" fill="#EACA9B"/>
<path d="M381.847 128.791C382.253 128.728 382.655 128.63 383.046 128.496L383.064 128.905C382.665 129.035 382.254 129.124 381.84 129.185L381.847 128.791Z" fill="#EACA9B"/>
<path d="M383.207 132.038L383.209 132.089C382.766 131.766 382.294 131.48 381.803 131.234L381.81 130.797C382.408 131.083 382.98 131.427 383.51 131.82L383.207 132.038Z" fill="#EACA9B"/>
<path d="M380.656 126.473L380.694 125.23L381.081 125.461L381.041 126.76L380.656 126.473Z" fill="#EACA9B"/>
<path d="M379.743 125.794L379.414 125.549L379.74 124.664L380.084 124.869L379.743 125.794Z" fill="#EACA9B"/>
<path d="M377.037 123.778L376.713 123.537C376.803 123.361 376.899 123.192 376.998 123.031L377.337 123.233C377.228 123.411 377.128 123.594 377.037 123.778Z" fill="#EACA9B"/>
<path d="M378.236 124.673L377.816 124.361C377.795 124.077 377.788 123.793 377.796 123.508L378.179 123.736C378.179 124.049 378.199 124.362 378.236 124.673Z" fill="#EACA9B"/>
<path d="M381.988 124.351L382.299 124.109C382.45 124.304 382.646 124.462 382.865 124.58L382.885 125.023C382.535 124.877 382.219 124.648 381.988 124.351Z" fill="#EACA9B"/>
<path d="M382.754 122.187L382.774 122.619C382.498 122.513 382.226 122.396 381.959 122.27L381.966 121.84C382.224 121.966 382.487 122.081 382.754 122.187Z" fill="#EACA9B"/>
<path d="M382.656 120.098L382.676 120.535C382.445 120.431 382.217 120.32 381.992 120.203L382 119.766C382.216 119.881 382.434 119.994 382.656 120.098Z" fill="#EACA9B"/>
<path d="M390.793 106.61C391.392 106.412 392.05 106.468 392.657 106.64C393.659 106.923 394.609 107.563 395.024 108.518C395.842 110.401 393.811 112.523 391.923 111.633C390.299 110.867 388.182 107.476 390.793 106.61Z" fill="#A6B32F"/>
<path d="M373.883 94.3172C374.482 94.1187 375.14 94.1754 375.747 94.3467C376.749 94.6297 377.698 95.2705 378.113 96.2252C378.932 98.1077 376.901 100.23 375.013 99.3398C373.389 98.5747 371.272 95.1832 373.883 94.3172Z" fill="#A6B32F"/>
<path d="M368.717 137.415C369.316 137.216 369.974 137.273 370.581 137.444C371.583 137.727 372.532 138.368 372.947 139.323C373.766 141.205 371.735 143.328 369.847 142.438C368.223 141.672 366.106 138.281 368.717 137.415Z" fill="#A6B32F"/>
<path d="M373.243 115.443C373.913 115.679 374.495 116.282 374.515 116.992C374.533 117.603 374.116 118.186 373.554 118.424C372.991 118.662 372.318 118.574 371.799 118.252C371.279 117.931 370.911 117.396 370.727 116.813C370.642 116.542 370.595 116.25 370.665 115.974C370.904 115.031 372.557 115.202 373.243 115.443Z" fill="#A6B32F"/>
<path d="M389.31 114.627C388.64 114.863 388.058 115.466 388.038 116.176C388.02 116.787 388.437 117.369 388.999 117.608C389.562 117.846 390.235 117.758 390.754 117.436C391.273 117.114 391.642 116.58 391.825 115.997C391.91 115.726 391.958 115.433 391.888 115.158C391.648 114.215 389.996 114.386 389.31 114.627Z" fill="#A6B32F"/>
<path d="M388.935 141.732C388.265 141.968 387.683 142.571 387.663 143.281C387.645 143.892 388.062 144.475 388.624 144.713C389.187 144.951 389.86 144.863 390.379 144.541C390.898 144.22 391.267 143.685 391.45 143.102C391.535 142.831 391.583 142.538 391.513 142.263C391.273 141.32 389.621 141.491 388.935 141.732Z" fill="#A6B32F"/>
<path d="M371.675 109.47C371.47 109.082 371.459 108.564 371.747 108.233C371.995 107.949 372.429 107.859 372.784 107.987C373.139 108.114 373.408 108.437 373.509 108.801C373.61 109.164 373.553 109.562 373.392 109.903C373.317 110.062 373.216 110.215 373.068 110.31C372.564 110.638 371.886 109.868 371.675 109.47Z" fill="#A6B32F"/>
<path d="M392.806 132.396C392.601 132.008 392.59 131.49 392.878 131.159C393.126 130.874 393.56 130.785 393.915 130.912C394.27 131.04 394.539 131.362 394.64 131.726C394.74 132.09 394.684 132.488 394.523 132.829C394.448 132.988 394.347 133.14 394.199 133.236C393.695 133.564 393.017 132.793 392.806 132.396Z" fill="#A6B32F"/>
<path d="M377.234 147.849C377.029 147.461 377.017 146.943 377.306 146.612C377.554 146.328 377.987 146.238 378.343 146.365C378.698 146.493 378.967 146.816 379.067 147.179C379.168 147.543 379.111 147.941 378.95 148.282C378.875 148.441 378.774 148.594 378.627 148.689C378.123 149.017 377.444 148.246 377.234 147.849Z" fill="#A6B32F"/>
<path d="M377.116 178.439C374.629 176.329 372.643 173.632 371.367 170.63C370.999 169.764 370.723 168.666 371.345 167.96C371.782 167.464 372.544 167.361 373.178 167.549C373.813 167.736 374.346 168.162 374.843 168.599C377.444 170.888 379.536 173.751 380.926 176.924C380.344 175.151 380.228 173.476 380.214 171.61C380.208 170.697 380.396 169.597 381.241 169.252C381.836 169.01 382.543 169.278 382.986 169.743C383.429 170.208 383.66 170.831 383.854 171.444C384.509 173.518 384.866 175.686 384.909 177.861" fill="#4B3B51"/>
<path d="M375.16 181.132C374.27 177.959 373.008 174.838 370.969 172.249C368.93 169.66 366.041 167.635 362.787 167.119C359.532 166.602 355.941 167.782 354 170.446C357.885 169.224 362.342 169.998 365.588 172.459C368.833 174.919 370.782 179.001 370.655 183.072" fill="#4B3B51"/>
</g>
</g>
<defs>
<linearGradient id="paint0_linear_503_12629" x1="196.5" y1="0" x2="196.5" y2="177" gradientUnits="userSpaceOnUse">
<stop stop-color="#177EDE"/>
<stop offset="1" stop-color="#6AAFEF"/>
</linearGradient>
<clipPath id="clip0_503_12629">
<rect width="393" height="177" rx="3" fill="white"/>
</clipPath>
<clipPath id="clip1_503_12629">
<rect width="393" height="105" fill="white" transform="translate(0 72)"/>
</clipPath>
</defs>
</svg>
