<svg width="126" height="27" viewBox="0 0 126 27" fill="none" xmlns="http://www.w3.org/2000/svg">
<path d="M2.352 9.76775C2.96 9.76775 3.48533 9.88242 3.928 10.1117C4.376 10.3357 4.71733 10.6584 4.952 11.0797C5.192 11.5011 5.312 11.9971 5.312 12.5677C5.312 13.1384 5.192 13.6344 4.952 14.0557C4.71733 14.4717 4.376 14.7917 3.928 15.0157C3.48533 15.2344 2.96 15.3438 2.352 15.3438H0.616V9.76775H2.352ZM2.352 14.7437C3.072 14.7437 3.62133 14.5544 4 14.1757C4.37867 13.7917 4.568 13.2557 4.568 12.5677C4.568 11.8744 4.376 11.3331 3.992 10.9437C3.61333 10.5544 3.06667 10.3597 2.352 10.3597H1.344V14.7437H2.352ZM10.2723 12.9837C10.2723 13.1224 10.2643 13.2691 10.2483 13.4237H6.74425C6.77092 13.8557 6.91758 14.1944 7.18425 14.4397C7.45625 14.6797 7.78425 14.7997 8.16825 14.7997C8.48292 14.7997 8.74425 14.7277 8.95225 14.5837C9.16558 14.4344 9.31492 14.2371 9.40025 13.9917H10.1843C10.0669 14.4131 9.83225 14.7571 9.48025 15.0237C9.12825 15.2851 8.69092 15.4158 8.16825 15.4158C7.75225 15.4158 7.37892 15.3224 7.04825 15.1357C6.72292 14.9491 6.46692 14.6851 6.28025 14.3438C6.09358 13.9971 6.00025 13.5971 6.00025 13.1437C6.00025 12.6904 6.09092 12.2931 6.27225 11.9517C6.45358 11.6104 6.70692 11.3491 7.03225 11.1677C7.36292 10.9811 7.74158 10.8877 8.16825 10.8877C8.58425 10.8877 8.95225 10.9784 9.27225 11.1597C9.59225 11.3411 9.83758 11.5917 10.0083 11.9117C10.1843 12.2264 10.2723 12.5837 10.2723 12.9837ZM9.52025 12.8317C9.52025 12.5544 9.45892 12.3171 9.33625 12.1197C9.21358 11.9171 9.04558 11.7651 8.83225 11.6637C8.62425 11.5571 8.39225 11.5037 8.13625 11.5037C7.76825 11.5037 7.45358 11.6211 7.19225 11.8557C6.93625 12.0904 6.78958 12.4157 6.75225 12.8317H9.52025ZM12.8652 14.6717L14.2252 10.9597H15.0012L13.2812 15.3438H12.4332L10.7132 10.9597H11.4972L12.8652 14.6717ZM19.7176 12.9837C19.7176 13.1224 19.7096 13.2691 19.6936 13.4237H16.1896C16.2162 13.8557 16.3629 14.1944 16.6296 14.4397C16.9016 14.6797 17.2296 14.7997 17.6136 14.7997C17.9282 14.7997 18.1896 14.7277 18.3976 14.5837C18.6109 14.4344 18.7602 14.2371 18.8456 13.9917H19.6296C19.5122 14.4131 19.2776 14.7571 18.9256 15.0237C18.5736 15.2851 18.1362 15.4158 17.6136 15.4158C17.1976 15.4158 16.8242 15.3224 16.4936 15.1357C16.1682 14.9491 15.9122 14.6851 15.7256 14.3438C15.5389 13.9971 15.4456 13.5971 15.4456 13.1437C15.4456 12.6904 15.5362 12.2931 15.7176 11.9517C15.8989 11.6104 16.1522 11.3491 16.4776 11.1677C16.8082 10.9811 17.1869 10.8877 17.6136 10.8877C18.0296 10.8877 18.3976 10.9784 18.7176 11.1597C19.0376 11.3411 19.2829 11.5917 19.4536 11.9117C19.6296 12.2264 19.7176 12.5837 19.7176 12.9837ZM18.9656 12.8317C18.9656 12.5544 18.9042 12.3171 18.7816 12.1197C18.6589 11.9171 18.4909 11.7651 18.2776 11.6637C18.0696 11.5571 17.8376 11.5037 17.5816 11.5037C17.2136 11.5037 16.8989 11.6211 16.6376 11.8557C16.3816 12.0904 16.2349 12.4157 16.1976 12.8317H18.9656ZM21.4065 9.42375V15.3438H20.6785V9.42375H21.4065ZM24.5593 15.4158C24.1486 15.4158 23.7753 15.3224 23.4393 15.1357C23.1086 14.9491 22.8473 14.6851 22.6553 14.3438C22.4686 13.9971 22.3753 13.5971 22.3753 13.1437C22.3753 12.6957 22.4713 12.3011 22.6633 11.9597C22.8606 11.6131 23.1273 11.3491 23.4633 11.1677C23.7993 10.9811 24.1753 10.8877 24.5913 10.8877C25.0073 10.8877 25.3833 10.9811 25.7193 11.1677C26.0553 11.3491 26.3193 11.6104 26.5113 11.9517C26.7086 12.2931 26.8073 12.6904 26.8073 13.1437C26.8073 13.5971 26.7059 13.9971 26.5033 14.3438C26.3059 14.6851 26.0366 14.9491 25.6953 15.1357C25.3539 15.3224 24.9753 15.4158 24.5593 15.4158ZM24.5593 14.7757C24.8206 14.7757 25.0659 14.7144 25.2953 14.5917C25.5246 14.4691 25.7086 14.2851 25.8473 14.0397C25.9913 13.7944 26.0633 13.4957 26.0633 13.1437C26.0633 12.7917 25.9939 12.4931 25.8553 12.2477C25.7166 12.0024 25.5353 11.8211 25.3113 11.7037C25.0873 11.5811 24.8446 11.5197 24.5833 11.5197C24.3166 11.5197 24.0713 11.5811 23.8473 11.7037C23.6286 11.8211 23.4526 12.0024 23.3193 12.2477C23.1859 12.4931 23.1193 12.7917 23.1193 13.1437C23.1193 13.5011 23.1833 13.8024 23.3113 14.0477C23.4446 14.2931 23.6206 14.4771 23.8393 14.5997C24.0579 14.7171 24.2979 14.7757 24.5593 14.7757ZM28.4924 11.7677C28.6364 11.5171 28.8498 11.3091 29.1324 11.1437C29.4204 10.9731 29.7538 10.8877 30.1324 10.8877C30.5218 10.8877 30.8738 10.9811 31.1884 11.1677C31.5084 11.3544 31.7591 11.6184 31.9404 11.9597C32.1218 12.2957 32.2124 12.6877 32.2124 13.1357C32.2124 13.5784 32.1218 13.9731 31.9404 14.3197C31.7591 14.6664 31.5084 14.9357 31.1884 15.1277C30.8738 15.3198 30.5218 15.4158 30.1324 15.4158C29.7591 15.4158 29.4284 15.3331 29.1404 15.1677C28.8578 14.9971 28.6418 14.7864 28.4924 14.5357V17.4238H27.7644V10.9597H28.4924V11.7677ZM31.4684 13.1357C31.4684 12.8051 31.4018 12.5171 31.2684 12.2717C31.1351 12.0264 30.9538 11.8397 30.7244 11.7117C30.5004 11.5837 30.2524 11.5197 29.9804 11.5197C29.7138 11.5197 29.4658 11.5864 29.2364 11.7197C29.0124 11.8477 28.8311 12.0371 28.6924 12.2877C28.5591 12.5331 28.4924 12.8184 28.4924 13.1437C28.4924 13.4744 28.5591 13.7651 28.6924 14.0157C28.8311 14.2611 29.0124 14.4504 29.2364 14.5837C29.4658 14.7117 29.7138 14.7757 29.9804 14.7757C30.2524 14.7757 30.5004 14.7117 30.7244 14.5837C30.9538 14.4504 31.1351 14.2611 31.2684 14.0157C31.4018 13.7651 31.4684 13.4717 31.4684 13.1357ZM37.1707 12.9837C37.1707 13.1224 37.1627 13.2691 37.1467 13.4237H33.6427C33.6694 13.8557 33.816 14.1944 34.0827 14.4397C34.3547 14.6797 34.6827 14.7997 35.0667 14.7997C35.3814 14.7997 35.6427 14.7277 35.8507 14.5837C36.064 14.4344 36.2134 14.2371 36.2987 13.9917H37.0827C36.9654 14.4131 36.7307 14.7571 36.3787 15.0237C36.0267 15.2851 35.5894 15.4158 35.0667 15.4158C34.6507 15.4158 34.2774 15.3224 33.9467 15.1357C33.6214 14.9491 33.3654 14.6851 33.1787 14.3438C32.992 13.9971 32.8987 13.5971 32.8987 13.1437C32.8987 12.6904 32.9894 12.2931 33.1707 11.9517C33.352 11.6104 33.6054 11.3491 33.9307 11.1677C34.2614 10.9811 34.64 10.8877 35.0667 10.8877C35.4827 10.8877 35.8507 10.9784 36.1707 11.1597C36.4907 11.3411 36.736 11.5917 36.9067 11.9117C37.0827 12.2264 37.1707 12.5837 37.1707 12.9837ZM36.4187 12.8317C36.4187 12.5544 36.3574 12.3171 36.2347 12.1197C36.112 11.9171 35.944 11.7651 35.7307 11.6637C35.5227 11.5571 35.2907 11.5037 35.0347 11.5037C34.6667 11.5037 34.352 11.6211 34.0907 11.8557C33.8347 12.0904 33.688 12.4157 33.6507 12.8317H36.4187ZM37.8596 13.1357C37.8596 12.6877 37.9503 12.2957 38.1316 11.9597C38.313 11.6184 38.561 11.3544 38.8756 11.1677C39.1956 10.9811 39.553 10.8877 39.9476 10.8877C40.289 10.8877 40.6063 10.9677 40.8996 11.1277C41.193 11.2824 41.417 11.4877 41.5716 11.7437V9.42375H42.3076V15.3438H41.5716V14.5197C41.4276 14.7811 41.2143 14.9971 40.9316 15.1677C40.649 15.3331 40.3183 15.4158 39.9396 15.4158C39.5503 15.4158 39.1956 15.3198 38.8756 15.1277C38.561 14.9357 38.313 14.6664 38.1316 14.3197C37.9503 13.9731 37.8596 13.5784 37.8596 13.1357ZM41.5716 13.1437C41.5716 12.8131 41.505 12.5251 41.3716 12.2797C41.2383 12.0344 41.057 11.8477 40.8276 11.7197C40.6036 11.5864 40.3556 11.5197 40.0836 11.5197C39.8116 11.5197 39.5636 11.5837 39.3396 11.7117C39.1156 11.8397 38.937 12.0264 38.8036 12.2717C38.6703 12.5171 38.6036 12.8051 38.6036 13.1357C38.6036 13.4717 38.6703 13.7651 38.8036 14.0157C38.937 14.2611 39.1156 14.4504 39.3396 14.5837C39.5636 14.7117 39.8116 14.7757 40.0836 14.7757C40.3556 14.7757 40.6036 14.7117 40.8276 14.5837C41.057 14.4504 41.2383 14.2611 41.3716 14.0157C41.505 13.7651 41.5716 13.4744 41.5716 13.1437ZM46.3987 11.7757C46.548 11.5144 46.7667 11.3011 47.0547 11.1357C47.3427 10.9704 47.6707 10.8877 48.0387 10.8877C48.4334 10.8877 48.788 10.9811 49.1027 11.1677C49.4174 11.3544 49.6654 11.6184 49.8467 11.9597C50.028 12.2957 50.1187 12.6877 50.1187 13.1357C50.1187 13.5784 50.028 13.9731 49.8467 14.3197C49.6654 14.6664 49.4147 14.9357 49.0947 15.1277C48.78 15.3198 48.428 15.4158 48.0387 15.4158C47.66 15.4158 47.3267 15.3331 47.0387 15.1677C46.756 15.0024 46.5427 14.7917 46.3987 14.5357V15.3438H45.6707V9.42375H46.3987V11.7757ZM49.3747 13.1357C49.3747 12.8051 49.308 12.5171 49.1747 12.2717C49.0414 12.0264 48.86 11.8397 48.6307 11.7117C48.4067 11.5837 48.1587 11.5197 47.8867 11.5197C47.62 11.5197 47.372 11.5864 47.1427 11.7197C46.9187 11.8477 46.7374 12.0371 46.5987 12.2877C46.4654 12.5331 46.3987 12.8184 46.3987 13.1437C46.3987 13.4744 46.4654 13.7651 46.5987 14.0157C46.7374 14.2611 46.9187 14.4504 47.1427 14.5837C47.372 14.7117 47.62 14.7757 47.8867 14.7757C48.1587 14.7757 48.4067 14.7117 48.6307 14.5837C48.86 14.4504 49.0414 14.2611 49.1747 14.0157C49.308 13.7651 49.3747 13.4717 49.3747 13.1357ZM54.8529 10.9597L52.2129 17.4078H51.4609L52.3249 15.2957L50.5569 10.9597H51.3649L52.7409 14.5117L54.1009 10.9597H54.8529Z" fill="#262525"/>
<path d="M66.4438 10.2914L65.2806 10.9629L63.8435 11.7928C63.3152 12.0978 63 12.6438 63 13.2538C63 13.8638 63.3152 14.41 63.8435 14.7149L65.2806 15.5449V14.2018L64.425 13.7076C64.1886 13.571 64.163 13.3449 64.163 13.2538C64.163 13.1628 64.1886 12.9366 64.425 12.8002L65.2806 12.306L66.4438 11.6346L72.6254 8.06566L72.6253 6.72272L66.4438 10.2914Z" fill="url(#paint0_linear_364_13923)"/>
<path d="M78.3253 13.9066L80.88 15.3816C81.0418 15.4749 81.1424 15.6495 81.1424 15.8369V22.4629C81.1424 22.7371 80.9585 22.873 80.8792 22.9187C80.8001 22.9644 80.5908 23.0562 80.353 22.9187L73.7747 19.1206L72.6076 18.4467L66.3926 14.8587V16.2077L72.6056 19.7947L73.7728 20.4688L79.7689 23.9304C80.2994 24.2367 80.9328 24.2368 81.4633 23.9304C81.9939 23.6242 82.3106 23.0756 82.3106 22.4629V15.8369C82.3106 15.2334 81.9862 14.6713 81.4642 14.3697L79.4935 13.2322L78.3253 13.9066Z" fill="url(#paint1_linear_364_13923)"/>
<path d="M66.0516 0.236547C65.5399 0.540415 65.2344 1.07714 65.2344 1.67254V11.0144L66.4012 10.3408V1.67254C66.4012 1.41385 66.5735 1.28366 66.6475 1.23966C66.6937 1.21216 66.7875 1.16749 66.9066 1.16749C66.9786 1.16749 67.0597 1.18382 67.1453 1.23033L72.3393 4.0603C72.5012 4.14831 72.602 4.31784 72.602 4.50202V6.76094L72.6022 8.10809V9.7216C72.6025 10.3163 72.9221 10.8702 73.4366 11.1673L77.1525 13.3125L78.3192 12.6389L74.0202 10.1566C73.8653 10.0675 73.7688 9.90045 73.7688 9.72127V7.43451L73.7687 6.0872V4.50186C73.7683 3.88996 73.4346 3.32822 72.8976 3.03569L67.7036 0.205879C67.4516 0.068697 67.1774 0.000187874 66.9039 0.000187874C66.61 0.000187874 66.3168 0.07903 66.0516 0.236547Z" fill="url(#paint2_linear_364_13923)"/>
<path d="M65.2637 12.3216V14.2275V15.5778V25.0141C65.2637 25.5981 65.5602 26.1302 66.0568 26.4375C66.3275 26.6049 66.6313 26.6895 66.9366 26.6895C67.1911 26.6895 67.4467 26.6307 67.6843 26.512L72.8907 23.9169C73.4617 23.6324 73.8168 23.0592 73.8179 22.4212L73.8205 20.5181L72.6521 19.8434L72.6485 22.4195C72.6481 22.612 72.5412 22.7846 72.369 22.8703L67.1626 25.4656C66.9361 25.5787 66.7439 25.4875 66.6721 25.4431C66.6001 25.3986 66.4331 25.2678 66.4331 25.0141V16.2529V14.9026V11.6466L65.2637 12.3216Z" fill="url(#paint3_linear_364_13923)"/>
<path d="M79.7544 2.57745L73.7454 6.04661L73.7455 7.39766L80.3394 3.5907C80.5776 3.45347 80.7873 3.5454 80.8666 3.5907C80.9458 3.6365 81.13 3.77256 81.13 4.04718V10.6835C81.13 10.871 81.0292 11.0458 80.8672 11.1393L78.3085 12.6165L77.1387 13.292L73.4216 15.438C72.9061 15.7355 72.5852 16.2903 72.5842 16.886L72.582 18.5145L73.7509 19.1895L73.7542 16.8878C73.7546 16.7083 73.8512 16.541 74.0066 16.4512L78.3085 13.9674L79.4786 13.292L81.4522 12.1527C81.9751 11.8508 82.3 11.2877 82.3 10.6835V4.04718C82.3 3.43358 81.9828 2.88433 81.4516 2.57745C81.1858 2.42401 80.8943 2.34729 80.603 2.34729C80.3115 2.34729 80.0201 2.42401 79.7544 2.57745Z" fill="url(#paint4_linear_364_13923)"/>
<path d="M92.7444 14.4389C92.7508 14.4516 92.7498 14.4642 92.7421 14.4769C92.7341 14.4898 92.7237 14.4961 92.711 14.4961H91.7429C91.727 14.4961 91.7145 14.4882 91.7049 14.4721L90.9944 12.975C90.9339 12.8574 90.8489 12.7635 90.7393 12.6935C90.6295 12.6236 90.5095 12.5887 90.3792 12.5887H86.7789V14.4531C86.7789 14.4658 86.7749 14.4763 86.767 14.484C86.759 14.4921 86.7486 14.4961 86.7361 14.4961H85.8682C85.8555 14.4961 85.845 14.4921 85.8373 14.484C85.8292 14.4763 85.8252 14.4658 85.8252 14.4531V9.77049C85.8252 9.75776 85.8292 9.74734 85.8373 9.7394C85.845 9.73147 85.8555 9.7275 85.8682 9.7275H86.7361C86.7486 9.7275 86.759 9.73147 86.767 9.7394C86.7749 9.74734 86.7789 9.75776 86.7789 9.77049V11.7733H90.3792C90.5095 11.7733 90.6295 11.7384 90.7393 11.6683C90.8489 11.5983 90.9339 11.5031 90.9944 11.3822L91.7049 9.8897C91.7145 9.87383 91.727 9.86572 91.7429 9.86572H92.711C92.7237 9.86572 92.7341 9.87135 92.7421 9.88242C92.7498 9.89367 92.7508 9.90722 92.7444 9.9231L91.9195 11.6588C91.821 11.8622 91.6888 12.0355 91.5237 12.1785C91.6888 12.3248 91.821 12.4996 91.9195 12.703L92.7444 14.4389Z" fill="#303030"/>
<path d="M100.045 12.1119V10.9532C100.045 10.8388 100.005 10.7417 99.9236 10.6622C99.8424 10.5828 99.7461 10.5431 99.635 10.5431H95.5485C95.4339 10.5431 95.3368 10.5828 95.2575 10.6622C95.1779 10.7417 95.1383 10.8388 95.1383 10.9532V12.1119H100.045ZM94.1846 11.0866C94.1846 10.7116 94.3172 10.3913 94.5827 10.1258C94.8481 9.86043 95.17 9.72766 95.5485 9.72766H99.635C100.01 9.72766 100.331 9.86043 100.598 10.1258C100.865 10.3913 100.999 10.7116 100.999 11.0866V14.4533C100.999 14.466 100.995 14.4763 100.987 14.4842C100.979 14.4923 100.969 14.4961 100.956 14.4961H100.083C100.074 14.4961 100.065 14.4923 100.057 14.4842C100.049 14.4763 100.045 14.466 100.045 14.4533V12.9273H95.1383V14.4533C95.1383 14.466 95.1341 14.4763 95.1262 14.4842C95.1184 14.4923 95.1097 14.4961 95.1001 14.4961H94.2274C94.2147 14.4961 94.2042 14.4923 94.1965 14.4842C94.1885 14.4763 94.1846 14.466 94.1846 14.4533V11.0866Z" fill="#303030"/>
<path d="M108.561 9.76569C108.561 9.7561 108.565 9.74751 108.573 9.7394C108.581 9.73147 108.591 9.7275 108.604 9.7275H109.472C109.484 9.7275 109.495 9.73147 109.503 9.7394C109.511 9.74751 109.515 9.7561 109.515 9.76569V11.1008C109.515 11.2949 109.462 11.4705 109.357 11.6278C109.252 11.7852 109.111 11.9019 108.933 11.9783L106.449 13.0322V14.4531C106.449 14.4658 106.445 14.4763 106.437 14.4842C106.429 14.4921 106.42 14.4961 106.41 14.4961H105.538C105.525 14.4961 105.515 14.4921 105.507 14.4842C105.499 14.4763 105.495 14.4658 105.495 14.4531V13.0322L103.011 11.9783C102.832 11.9019 102.691 11.7843 102.586 11.6254C102.481 11.4666 102.429 11.2916 102.429 11.1008V9.76569C102.429 9.7561 102.433 9.74751 102.441 9.7394C102.449 9.73147 102.459 9.7275 102.472 9.7275H103.344C103.354 9.7275 103.363 9.73147 103.37 9.7394C103.378 9.74751 103.383 9.7561 103.383 9.76569V10.915C103.383 11.0803 103.467 11.2058 103.635 11.2916L105.972 12.2739L108.313 11.2916C108.478 11.2058 108.561 11.0803 108.561 10.915V9.76569Z" fill="#303030"/>
<path d="M117.756 14.4581C117.756 14.4677 117.752 14.4763 117.744 14.4842C117.736 14.4923 117.727 14.4961 117.718 14.4961H112.31C111.932 14.4961 111.61 14.3635 111.345 14.098C111.079 13.8326 110.946 13.5108 110.946 13.1324V9.77049C110.946 9.75792 110.95 9.7475 110.958 9.73957C110.966 9.73163 110.975 9.72766 110.984 9.72766H111.857C111.87 9.72766 111.88 9.73163 111.888 9.73957C111.896 9.7475 111.9 9.75792 111.9 9.77049V13.2706C111.9 13.382 111.94 13.4781 112.019 13.5591C112.099 13.6403 112.196 13.6808 112.31 13.6808H117.718C117.727 13.6808 117.736 13.6848 117.744 13.6927C117.752 13.7006 117.756 13.7094 117.756 13.7188V14.4581Z" fill="#303030"/>
<path d="M125.047 12.1119V10.9532C125.047 10.8388 125.007 10.7417 124.926 10.6622C124.844 10.5828 124.748 10.5431 124.637 10.5431H120.55C120.436 10.5431 120.339 10.5828 120.259 10.6622C120.18 10.7417 120.14 10.8388 120.14 10.9532V12.1119H125.047ZM119.187 11.0866C119.187 10.7116 119.319 10.3913 119.585 10.1258C119.85 9.86043 120.172 9.72766 120.55 9.72766H124.637C125.012 9.72766 125.333 9.86043 125.6 10.1258C125.867 10.3913 126.001 10.7116 126.001 11.0866V14.4533C126.001 14.466 125.997 14.4763 125.989 14.4842C125.981 14.4923 125.97 14.4961 125.958 14.4961H125.085C125.076 14.4961 125.067 14.4923 125.059 14.4842C125.051 14.4763 125.047 14.466 125.047 14.4533V12.9273H120.14V14.4533C120.14 14.466 120.136 14.4763 120.128 14.4842C120.12 14.4923 120.111 14.4961 120.102 14.4961H119.229C119.217 14.4961 119.206 14.4923 119.198 14.4842C119.19 14.4763 119.187 14.466 119.187 14.4533V11.0866Z" fill="#303030"/>
<path d="M88.4281 18.0939C88.4281 18.1759 88.4074 18.245 88.366 18.3012C88.3254 18.3567 88.2668 18.3985 88.1903 18.4266C88.1145 18.4547 88.024 18.4687 87.9185 18.4687C87.8287 18.4687 87.751 18.4617 87.6854 18.4477C87.6198 18.4336 87.5624 18.4137 87.5132 18.3879V18.2087C87.5655 18.2345 87.628 18.2579 87.7006 18.279C87.7733 18.3001 87.8475 18.3106 87.9232 18.3106C88.0341 18.3106 88.1145 18.2926 88.1645 18.2567C88.2145 18.2208 88.2395 18.172 88.2395 18.1103C88.2395 18.0751 88.2293 18.0443 88.209 18.0177C88.1895 17.9904 88.1563 17.9643 88.1095 17.9393C88.0626 17.9135 87.9978 17.8854 87.915 17.8549C87.833 17.8237 87.762 17.7928 87.7018 17.7624C87.6425 17.7311 87.5964 17.6933 87.5636 17.6488C87.5316 17.6042 87.5156 17.5464 87.5156 17.4754C87.5156 17.3668 87.5593 17.2837 87.6468 17.2259C87.735 17.1673 87.8506 17.138 87.9935 17.138C88.0708 17.138 88.1431 17.1458 88.2102 17.1614C88.2782 17.1763 88.3414 17.1966 88.4 17.2224L88.3344 17.3782C88.2813 17.3555 88.2247 17.3364 88.1645 17.3208C88.1044 17.3051 88.0431 17.2973 87.9806 17.2973C87.8908 17.2973 87.8217 17.3122 87.7733 17.3418C87.7256 17.3715 87.7018 17.4121 87.7018 17.4637C87.7018 17.5035 87.7128 17.5363 87.7346 17.5621C87.7573 17.5878 87.7932 17.612 87.8424 17.6347C87.8916 17.6573 87.9564 17.6839 88.0368 17.7144C88.1173 17.744 88.1868 17.7749 88.2454 17.8069C88.3039 17.8381 88.3488 17.8764 88.3801 17.9217C88.4121 17.9662 88.4281 18.0236 88.4281 18.0939ZM88.9353 16.6226V17.1673C88.9353 17.1985 88.9345 17.2302 88.933 17.2622C88.9314 17.2934 88.9287 17.3223 88.9248 17.3489H88.9377C88.9642 17.3036 88.9978 17.2657 89.0384 17.2352C89.0798 17.204 89.1266 17.1806 89.179 17.165C89.2313 17.1486 89.2867 17.1404 89.3453 17.1404C89.4484 17.1404 89.5343 17.1568 89.603 17.1896C89.6725 17.2224 89.7245 17.2731 89.7588 17.3418C89.794 17.4106 89.8115 17.4996 89.8115 17.6089V18.4453H89.6194V17.6218C89.6194 17.5148 89.5948 17.4348 89.5456 17.3817C89.4972 17.3286 89.4226 17.302 89.3219 17.302C89.2266 17.302 89.1505 17.3204 89.0935 17.3571C89.0372 17.393 88.9966 17.4461 88.9716 17.5164C88.9474 17.5867 88.9353 17.6726 88.9353 17.7741V18.4453H88.7409V16.6226H88.9353ZM90.6924 17.1404C90.8455 17.1404 90.9591 17.1747 91.0333 17.2434C91.1075 17.3122 91.1446 17.4219 91.1446 17.5726V18.4453H91.0029L90.9654 18.2555H90.956C90.9201 18.3024 90.8826 18.3418 90.8435 18.3739C90.8045 18.4051 90.7592 18.4289 90.7077 18.4453C90.6569 18.4609 90.5944 18.4687 90.5202 18.4687C90.4421 18.4687 90.3726 18.4551 90.3117 18.4277C90.2516 18.4004 90.204 18.359 90.1688 18.3036C90.1345 18.2481 90.1173 18.1778 90.1173 18.0927C90.1173 17.9646 90.168 17.8662 90.2696 17.7975C90.3711 17.7288 90.5257 17.6913 90.7334 17.6851L90.9548 17.6757V17.5972C90.9548 17.4863 90.931 17.4086 90.8834 17.3641C90.8357 17.3196 90.7686 17.2973 90.6819 17.2973C90.6147 17.2973 90.5507 17.3071 90.4898 17.3266C90.4289 17.3461 90.3711 17.3692 90.3164 17.3957L90.2567 17.2481C90.3145 17.2185 90.3808 17.1931 90.4558 17.172C90.5308 17.1509 90.6097 17.1404 90.6924 17.1404ZM90.9525 17.8127L90.7569 17.8209C90.5968 17.8272 90.4839 17.8534 90.4183 17.8994C90.3527 17.9455 90.3199 18.0107 90.3199 18.0951C90.3199 18.1685 90.3422 18.2227 90.3867 18.2579C90.4312 18.293 90.4902 18.3106 90.5636 18.3106C90.6776 18.3106 90.7709 18.279 90.8435 18.2157C90.9162 18.1525 90.9525 18.0576 90.9525 17.9311V17.8127ZM92.1485 17.138C92.3086 17.138 92.4363 17.1931 92.5316 17.3032C92.6268 17.4133 92.6745 17.5789 92.6745 17.7999C92.6745 17.9459 92.6526 18.0685 92.6089 18.1677C92.5651 18.2669 92.5034 18.3418 92.4238 18.3926C92.3449 18.4434 92.2516 18.4687 92.1438 18.4687C92.0759 18.4687 92.0161 18.4598 91.9646 18.4418C91.913 18.4238 91.8689 18.3996 91.8322 18.3692C91.7955 18.3387 91.7651 18.3055 91.7409 18.2696H91.7268C91.7291 18.3001 91.7319 18.3368 91.735 18.3797C91.7389 18.4227 91.7409 18.4602 91.7409 18.4922V19.0193H91.5452V17.1614H91.7057L91.7315 17.3512H91.7409C91.7658 17.3122 91.7963 17.2766 91.8322 17.2446C91.8681 17.2118 91.9119 17.186 91.9634 17.1673C92.0157 17.1478 92.0774 17.138 92.1485 17.138ZM92.1145 17.302C92.0255 17.302 91.9537 17.3192 91.899 17.3536C91.8451 17.3879 91.8057 17.4395 91.7807 17.5082C91.7557 17.5761 91.7424 17.6616 91.7409 17.7647V17.8022C91.7409 17.9108 91.7526 18.0025 91.776 18.0775C91.8002 18.1525 91.8396 18.2095 91.8943 18.2485C91.9498 18.2876 92.0239 18.3071 92.1169 18.3071C92.1965 18.3071 92.2629 18.2856 92.316 18.2427C92.3691 18.1997 92.4086 18.14 92.4343 18.0634C92.4609 17.9861 92.4742 17.8975 92.4742 17.7975C92.4742 17.646 92.4445 17.5258 92.3851 17.4367C92.3266 17.3469 92.2364 17.302 92.1145 17.302ZM93.2086 17.1614V18.4453H93.0142V17.1614H93.2086ZM93.1137 16.6812C93.1458 16.6812 93.1731 16.6917 93.1957 16.7128C93.2192 16.7331 93.2309 16.7651 93.2309 16.8088C93.2309 16.8518 93.2192 16.8838 93.1957 16.9049C93.1731 16.926 93.1458 16.9365 93.1137 16.9365C93.0802 16.9365 93.0521 16.926 93.0294 16.9049C93.0075 16.8838 92.9966 16.8518 92.9966 16.8088C92.9966 16.7651 93.0075 16.7331 93.0294 16.7128C93.0521 16.6917 93.0802 16.6812 93.1137 16.6812ZM94.2289 17.138C94.3812 17.138 94.4964 17.1755 94.5745 17.2505C94.6526 17.3247 94.6916 17.4441 94.6916 17.6089V18.4453H94.4995V17.6218C94.4995 17.5148 94.4749 17.4348 94.4257 17.3817C94.3773 17.3286 94.3027 17.302 94.202 17.302C94.0599 17.302 93.9599 17.3422 93.9021 17.4227C93.8443 17.5031 93.8154 17.6199 93.8154 17.7729V18.4453H93.621V17.1614H93.7779L93.8072 17.3465H93.8178C93.8451 17.3012 93.8798 17.2634 93.922 17.2329C93.9642 17.2017 94.0114 17.1782 94.0638 17.1626C94.1161 17.1462 94.1711 17.138 94.2289 17.138ZM95.4507 19.0216C95.282 19.0216 95.152 18.99 95.0606 18.9268C94.9693 18.8643 94.9236 18.7764 94.9236 18.6632C94.9236 18.5828 94.949 18.514 94.9997 18.457C95.0513 18.4 95.1223 18.3621 95.2129 18.3434C95.1793 18.3278 95.1504 18.3044 95.1262 18.2731C95.1028 18.2419 95.0911 18.206 95.0911 18.1653C95.0911 18.1185 95.104 18.0775 95.1297 18.0423C95.1563 18.0064 95.1965 17.9721 95.2504 17.9393C95.1832 17.9119 95.1286 17.8659 95.0864 17.801C95.045 17.7354 95.0243 17.6593 95.0243 17.5726C95.0243 17.4805 95.0435 17.402 95.0817 17.3372C95.12 17.2716 95.1754 17.2216 95.2481 17.1872C95.3207 17.1529 95.4085 17.1357 95.5116 17.1357C95.5343 17.1357 95.5569 17.1368 95.5796 17.1392C95.603 17.1407 95.6253 17.1435 95.6463 17.1474C95.6674 17.1505 95.6858 17.1544 95.7014 17.1591H96.1418V17.2844L95.9052 17.3137C95.9286 17.3442 95.9482 17.3809 95.9638 17.4238C95.9794 17.4668 95.9872 17.5144 95.9872 17.5668C95.9872 17.6948 95.9439 17.7967 95.8572 17.8725C95.7705 17.9475 95.6514 17.9849 95.4999 17.9849C95.464 17.9849 95.4273 17.9818 95.3898 17.9756C95.3515 17.9967 95.3222 18.0201 95.3019 18.0459C95.2824 18.0716 95.2727 18.1013 95.2727 18.1349C95.2727 18.1599 95.2801 18.1798 95.2949 18.1946C95.3105 18.2095 95.3328 18.2204 95.3617 18.2274C95.3906 18.2337 95.4253 18.2368 95.4659 18.2368H95.692C95.8318 18.2368 95.9388 18.2661 96.013 18.3247C96.088 18.3832 96.1254 18.4687 96.1254 18.5812C96.1254 18.7233 96.0677 18.8323 95.9521 18.908C95.8365 18.9838 95.6694 19.0216 95.4507 19.0216ZM95.4566 18.8694C95.5628 18.8694 95.6506 18.8584 95.7201 18.8366C95.7904 18.8155 95.8427 18.7846 95.8771 18.744C95.9122 18.7042 95.9298 18.6566 95.9298 18.6011C95.9298 18.5496 95.9181 18.5105 95.8947 18.484C95.8712 18.4582 95.8369 18.441 95.7916 18.4324C95.7463 18.4231 95.6909 18.4184 95.6253 18.4184H95.4027C95.3449 18.4184 95.2945 18.4274 95.2516 18.4453C95.2086 18.4633 95.1754 18.4898 95.152 18.525C95.1294 18.5601 95.118 18.6038 95.118 18.6562C95.118 18.7257 95.1473 18.7784 95.2059 18.8143C95.2645 18.851 95.348 18.8694 95.4566 18.8694ZM95.5069 17.8432C95.5999 17.8432 95.6698 17.8198 95.7166 17.7729C95.7635 17.7261 95.7869 17.6577 95.7869 17.5679C95.7869 17.4719 95.7631 17.4 95.7155 17.3524C95.6678 17.304 95.5975 17.2798 95.5046 17.2798C95.4156 17.2798 95.3468 17.3047 95.2984 17.3547C95.2508 17.4039 95.227 17.4762 95.227 17.5714C95.227 17.6589 95.2512 17.7261 95.2996 17.7729C95.348 17.8198 95.4171 17.8432 95.5069 17.8432ZM97.4327 18.3094C97.4648 18.3094 97.4976 18.3067 97.5311 18.3012C97.5647 18.2958 97.5921 18.2891 97.6131 18.2813V18.4324C97.5905 18.4426 97.5589 18.4512 97.5183 18.4582C97.4784 18.4652 97.4394 18.4687 97.4011 18.4687C97.3332 18.4687 97.2715 18.457 97.216 18.4336C97.1606 18.4094 97.1161 18.3688 97.0825 18.3118C97.0497 18.2548 97.0333 18.1759 97.0333 18.0751V17.3137H96.8505V17.2188L97.0345 17.1427L97.1118 16.8639H97.2289V17.1614H97.6049V17.3137H97.2289V18.0693C97.2289 18.1497 97.2473 18.2099 97.284 18.2497C97.3215 18.2895 97.371 18.3094 97.4327 18.3094ZM98.0676 16.6226V17.1673C98.0676 17.1985 98.0669 17.2302 98.0653 17.2622C98.0637 17.2934 98.061 17.3223 98.0571 17.3489H98.07C98.0965 17.3036 98.1301 17.2657 98.1707 17.2352C98.2121 17.204 98.259 17.1806 98.3113 17.165C98.3636 17.1486 98.4191 17.1404 98.4776 17.1404C98.5807 17.1404 98.6666 17.1568 98.7354 17.1896C98.8049 17.2224 98.8568 17.2731 98.8911 17.3418C98.9263 17.4106 98.9439 17.4996 98.9439 17.6089V18.4453H98.7518V17.6218C98.7518 17.5148 98.7272 17.4348 98.678 17.3817C98.6295 17.3286 98.555 17.302 98.4542 17.302C98.3589 17.302 98.2828 17.3204 98.2258 17.3571C98.1696 17.393 98.129 17.4461 98.104 17.5164C98.0798 17.5867 98.0676 17.6726 98.0676 17.7741V18.4453H97.8732V16.6226H98.0676ZM99.8388 17.138C99.9482 17.138 100.042 17.1622 100.12 17.2106C100.198 17.2591 100.258 17.327 100.299 17.4145C100.341 17.5012 100.361 17.6027 100.361 17.719V17.8397H99.4745C99.4769 17.9904 99.5143 18.1052 99.587 18.1841C99.6596 18.263 99.7619 18.3024 99.8939 18.3024C99.9751 18.3024 100.047 18.295 100.109 18.2801C100.172 18.2653 100.237 18.2434 100.304 18.2145V18.3856C100.239 18.4145 100.175 18.4356 100.111 18.4488C100.047 18.4621 99.9724 18.4687 99.8857 18.4687C99.7623 18.4687 99.6545 18.4438 99.5624 18.3938C99.471 18.343 99.3999 18.2688 99.3492 18.1712C99.2984 18.0736 99.273 17.9541 99.273 17.8127C99.273 17.6745 99.2961 17.555 99.3421 17.4543C99.389 17.3528 99.4546 17.2747 99.5389 17.22C99.6241 17.1653 99.724 17.138 99.8388 17.138ZM99.8365 17.2973C99.7326 17.2973 99.6498 17.3313 99.5881 17.3992C99.5264 17.4672 99.4897 17.5621 99.478 17.6839H100.157C100.157 17.6074 100.145 17.5402 100.121 17.4824C100.098 17.4238 100.064 17.3785 100.017 17.3465C99.97 17.3137 99.9099 17.2973 99.8365 17.2973ZM101.886 17.3137H101.567V18.4453H101.372V17.3137H101.145V17.22L101.372 17.1556V17.0701C101.372 16.9623 101.388 16.8748 101.42 16.8077C101.452 16.7397 101.499 16.6898 101.56 16.6577C101.621 16.6257 101.695 16.6097 101.782 16.6097C101.831 16.6097 101.876 16.614 101.917 16.6226C101.958 16.6312 101.995 16.6409 102.026 16.6519L101.975 16.8053C101.949 16.7967 101.919 16.7889 101.885 16.7819C101.852 16.7741 101.819 16.7702 101.785 16.7702C101.71 16.7702 101.655 16.7944 101.619 16.8428C101.584 16.8905 101.567 16.9654 101.567 17.0677V17.1614H101.886V17.3137ZM103.183 17.1614V18.4453H103.024L102.996 18.2649H102.985C102.959 18.3094 102.924 18.3469 102.882 18.3774C102.84 18.4078 102.792 18.4305 102.739 18.4453C102.687 18.4609 102.631 18.4687 102.572 18.4687C102.47 18.4687 102.385 18.4523 102.316 18.4195C102.248 18.3867 102.196 18.336 102.161 18.2673C102.126 18.1985 102.109 18.1103 102.109 18.0025V17.1614H102.306V17.9885C102.306 18.0955 102.33 18.1755 102.378 18.2286C102.427 18.2809 102.501 18.3071 102.6 18.3071C102.695 18.3071 102.771 18.2891 102.827 18.2532C102.884 18.2173 102.925 18.1646 102.95 18.0951C102.975 18.0248 102.988 17.9389 102.988 17.8373V17.1614H103.183ZM104.009 18.3094C104.041 18.3094 104.074 18.3067 104.107 18.3012C104.141 18.2958 104.168 18.2891 104.189 18.2813V18.4324C104.167 18.4426 104.135 18.4512 104.095 18.4582C104.055 18.4652 104.016 18.4687 103.977 18.4687C103.909 18.4687 103.848 18.457 103.792 18.4336C103.737 18.4094 103.692 18.3688 103.659 18.3118C103.626 18.2548 103.61 18.1759 103.61 18.0751V17.3137H103.427V17.2188L103.611 17.1427L103.688 16.8639H103.805V17.1614H104.181V17.3137H103.805V18.0693C103.805 18.1497 103.824 18.2099 103.86 18.2497C103.898 18.2895 103.947 18.3094 104.009 18.3094ZM105.51 17.1614V18.4453H105.35L105.322 18.2649H105.312C105.285 18.3094 105.251 18.3469 105.209 18.3774C105.166 18.4078 105.119 18.4305 105.066 18.4453C105.013 18.4609 104.958 18.4687 104.898 18.4687C104.797 18.4687 104.712 18.4523 104.643 18.4195C104.574 18.3867 104.522 18.336 104.487 18.2673C104.453 18.1985 104.435 18.1103 104.435 18.0025V17.1614H104.632V17.9885C104.632 18.0955 104.656 18.1755 104.705 18.2286C104.753 18.2809 104.827 18.3071 104.926 18.3071C105.022 18.3071 105.097 18.2891 105.154 18.2532C105.211 18.2173 105.252 18.1646 105.277 18.0951C105.302 18.0248 105.314 17.9389 105.314 17.8373V17.1614H105.51ZM106.504 17.138C106.53 17.138 106.557 17.1396 106.585 17.1427C106.613 17.145 106.638 17.1486 106.66 17.1532L106.635 17.3336C106.614 17.3282 106.591 17.3239 106.565 17.3208C106.539 17.3176 106.515 17.3161 106.492 17.3161C106.441 17.3161 106.392 17.3266 106.346 17.3477C106.301 17.368 106.261 17.3977 106.227 17.4367C106.192 17.475 106.165 17.5215 106.146 17.5761C106.126 17.63 106.116 17.6901 106.116 17.7565V18.4453H105.921V17.1614H106.082L106.104 17.3981H106.112C106.138 17.3504 106.17 17.3071 106.208 17.268C106.245 17.2282 106.289 17.1966 106.338 17.1732C106.388 17.1497 106.443 17.138 106.504 17.138ZM107.397 17.138C107.506 17.138 107.6 17.1622 107.678 17.2106C107.756 17.2591 107.816 17.327 107.857 17.4145C107.899 17.5012 107.919 17.6027 107.919 17.719V17.8397H107.032C107.035 17.9904 107.072 18.1052 107.145 18.1841C107.218 18.263 107.32 18.3024 107.452 18.3024C107.533 18.3024 107.605 18.295 107.667 18.2801C107.73 18.2653 107.795 18.2434 107.862 18.2145V18.3856C107.797 18.4145 107.733 18.4356 107.669 18.4488C107.605 18.4621 107.53 18.4687 107.444 18.4687C107.32 18.4687 107.212 18.4438 107.12 18.3938C107.029 18.343 106.958 18.2688 106.907 18.1712C106.856 18.0736 106.831 17.9541 106.831 17.8127C106.831 17.6745 106.854 17.555 106.9 17.4543C106.947 17.3528 107.013 17.2747 107.097 17.22C107.182 17.1653 107.282 17.138 107.397 17.138ZM107.394 17.2973C107.291 17.2973 107.208 17.3313 107.146 17.3992C107.084 17.4672 107.048 17.5621 107.036 17.6839H107.715C107.715 17.6074 107.703 17.5402 107.679 17.4824C107.656 17.4238 107.622 17.3785 107.575 17.3465C107.528 17.3137 107.468 17.2973 107.394 17.2973ZM109.918 18.443L109.689 17.6956C109.679 17.6636 109.669 17.6324 109.66 17.6019C109.651 17.5707 109.643 17.541 109.635 17.5129C109.628 17.484 109.622 17.4574 109.615 17.4332C109.61 17.4082 109.605 17.3867 109.601 17.3688H109.593C109.59 17.3867 109.586 17.4082 109.58 17.4332C109.575 17.4574 109.568 17.484 109.56 17.5129C109.553 17.5418 109.546 17.5722 109.537 17.6042C109.528 17.6355 109.519 17.6671 109.508 17.6991L109.269 18.443H109.05L108.696 17.1591H108.897L109.082 17.8678C109.095 17.9147 109.107 17.9611 109.118 18.0072C109.129 18.0525 109.139 18.0955 109.147 18.1361C109.155 18.1759 109.162 18.2106 109.166 18.2403H109.175C109.18 18.2208 109.185 18.1974 109.19 18.17C109.196 18.1427 109.203 18.1138 109.21 18.0833C109.218 18.0521 109.226 18.0213 109.235 17.9908C109.243 17.9596 109.252 17.9303 109.26 17.9029L109.497 17.1591H109.707L109.935 17.9018C109.947 17.9393 109.958 17.9783 109.969 18.0189C109.981 18.0595 109.991 18.099 110.001 18.1372C110.01 18.1747 110.017 18.2083 110.021 18.238H110.03C110.033 18.2114 110.039 18.1786 110.048 18.1396C110.056 18.1005 110.066 18.0576 110.077 18.0107C110.089 17.9639 110.101 17.9162 110.113 17.8678L110.301 17.1591H110.499L110.144 18.443H109.918ZM110.927 17.1614V18.4453H110.733V17.1614H110.927ZM110.833 16.6812C110.865 16.6812 110.892 16.6917 110.915 16.7128C110.938 16.7331 110.95 16.7651 110.95 16.8088C110.95 16.8518 110.938 16.8838 110.915 16.9049C110.892 16.926 110.865 16.9365 110.833 16.9365C110.799 16.9365 110.771 16.926 110.748 16.9049C110.726 16.8838 110.715 16.8518 110.715 16.8088C110.715 16.7651 110.726 16.7331 110.748 16.7128C110.771 16.6917 110.799 16.6812 110.833 16.6812ZM111.754 18.3094C111.786 18.3094 111.819 18.3067 111.853 18.3012C111.886 18.2958 111.914 18.2891 111.935 18.2813V18.4324C111.912 18.4426 111.881 18.4512 111.84 18.4582C111.8 18.4652 111.761 18.4687 111.723 18.4687C111.655 18.4687 111.593 18.457 111.538 18.4336C111.482 18.4094 111.438 18.3688 111.404 18.3118C111.371 18.2548 111.355 18.1759 111.355 18.0751V17.3137H111.172V17.2188L111.356 17.1427L111.433 16.8639H111.551V17.1614H111.927V17.3137H111.551V18.0693C111.551 18.1497 111.569 18.2099 111.606 18.2497C111.643 18.2895 111.693 18.3094 111.754 18.3094ZM112.389 16.6226V17.1673C112.389 17.1985 112.389 17.2302 112.387 17.2622C112.385 17.2934 112.383 17.3223 112.379 17.3489H112.392C112.418 17.3036 112.452 17.2657 112.492 17.2352C112.534 17.204 112.581 17.1806 112.633 17.165C112.685 17.1486 112.741 17.1404 112.799 17.1404C112.902 17.1404 112.988 17.1568 113.057 17.1896C113.127 17.2224 113.178 17.2731 113.213 17.3418C113.248 17.4106 113.266 17.4996 113.266 17.6089V18.4453H113.073V17.6218C113.073 17.5148 113.049 17.4348 113 17.3817C112.951 17.3286 112.877 17.302 112.776 17.302C112.681 17.302 112.604 17.3204 112.547 17.3571C112.491 17.393 112.451 17.4461 112.426 17.5164C112.401 17.5867 112.389 17.6726 112.389 17.7741V18.4453H112.195V16.6226H112.389ZM114.77 17.1404C114.923 17.1404 115.036 17.1747 115.111 17.2434C115.185 17.3122 115.222 17.4219 115.222 17.5726V18.4453H115.08L115.043 18.2555H115.033C114.997 18.3024 114.96 18.3418 114.921 18.3739C114.882 18.4051 114.836 18.4289 114.785 18.4453C114.734 18.4609 114.672 18.4687 114.597 18.4687C114.519 18.4687 114.45 18.4551 114.389 18.4277C114.329 18.4004 114.281 18.359 114.246 18.3036C114.212 18.2481 114.194 18.1778 114.194 18.0927C114.194 17.9646 114.245 17.8662 114.347 17.7975C114.448 17.7288 114.603 17.6913 114.811 17.6851L115.032 17.6757V17.5972C115.032 17.4863 115.008 17.4086 114.961 17.3641C114.913 17.3196 114.846 17.2973 114.759 17.2973C114.692 17.2973 114.628 17.3071 114.567 17.3266C114.506 17.3461 114.448 17.3692 114.394 17.3957L114.334 17.2481C114.392 17.2185 114.458 17.1931 114.533 17.172C114.608 17.1509 114.687 17.1404 114.77 17.1404ZM115.03 17.8127L114.834 17.8209C114.674 17.8272 114.561 17.8534 114.496 17.8994C114.43 17.9455 114.397 18.0107 114.397 18.0951C114.397 18.1685 114.419 18.2227 114.464 18.2579C114.508 18.293 114.567 18.3106 114.641 18.3106C114.755 18.3106 114.848 18.279 114.921 18.2157C114.993 18.1525 115.03 18.0576 115.03 17.9311V17.8127ZM116.226 17.138C116.386 17.138 116.513 17.1931 116.609 17.3032C116.704 17.4133 116.752 17.5789 116.752 17.7999C116.752 17.9459 116.73 18.0685 116.686 18.1677C116.642 18.2669 116.581 18.3418 116.501 18.3926C116.422 18.4434 116.329 18.4687 116.221 18.4687C116.153 18.4687 116.093 18.4598 116.042 18.4418C115.99 18.4238 115.946 18.3996 115.909 18.3692C115.873 18.3387 115.842 18.3055 115.818 18.2696H115.804C115.806 18.3001 115.809 18.3368 115.812 18.3797C115.816 18.4227 115.818 18.4602 115.818 18.4922V19.0193H115.622V17.1614H115.783L115.809 17.3512H115.818C115.843 17.3122 115.874 17.2766 115.909 17.2446C115.945 17.2118 115.989 17.186 116.041 17.1673C116.093 17.1478 116.155 17.138 116.226 17.138ZM116.192 17.302C116.103 17.302 116.031 17.3192 115.976 17.3536C115.922 17.3879 115.883 17.4395 115.858 17.5082C115.833 17.5761 115.82 17.6616 115.818 17.7647V17.8022C115.818 17.9108 115.83 18.0025 115.853 18.0775C115.877 18.1525 115.917 18.2095 115.972 18.2485C116.027 18.2876 116.101 18.3071 116.194 18.3071C116.274 18.3071 116.34 18.2856 116.393 18.2427C116.446 18.1997 116.486 18.14 116.512 18.0634C116.538 17.9861 116.551 17.8975 116.551 17.7975C116.551 17.646 116.522 17.5258 116.462 17.4367C116.404 17.3469 116.314 17.302 116.192 17.302ZM117.695 17.138C117.855 17.138 117.982 17.1931 118.078 17.3032C118.173 17.4133 118.221 17.5789 118.221 17.7999C118.221 17.9459 118.199 18.0685 118.155 18.1677C118.111 18.2669 118.05 18.3418 117.97 18.3926C117.891 18.4434 117.798 18.4687 117.69 18.4687C117.622 18.4687 117.562 18.4598 117.511 18.4418C117.459 18.4238 117.415 18.3996 117.378 18.3692C117.342 18.3387 117.311 18.3055 117.287 18.2696H117.273C117.275 18.3001 117.278 18.3368 117.281 18.3797C117.285 18.4227 117.287 18.4602 117.287 18.4922V19.0193H117.091V17.1614H117.252L117.278 17.3512H117.287C117.312 17.3122 117.342 17.2766 117.378 17.2446C117.414 17.2118 117.458 17.186 117.51 17.1673C117.562 17.1478 117.624 17.138 117.695 17.138ZM117.661 17.302C117.572 17.302 117.5 17.3192 117.445 17.3536C117.391 17.3879 117.352 17.4395 117.327 17.5082C117.302 17.5761 117.289 17.6616 117.287 17.7647V17.8022C117.287 17.9108 117.299 18.0025 117.322 18.0775C117.346 18.1525 117.386 18.2095 117.44 18.2485C117.496 18.2876 117.57 18.3071 117.663 18.3071C117.743 18.3071 117.809 18.2856 117.862 18.2427C117.915 18.1997 117.955 18.14 117.98 18.0634C118.007 17.9861 118.02 17.8975 118.02 17.7975C118.02 17.646 117.991 17.5258 117.931 17.4367C117.873 17.3469 117.783 17.302 117.661 17.302ZM119.391 18.0939C119.391 18.1759 119.37 18.245 119.329 18.3012C119.288 18.3567 119.23 18.3985 119.153 18.4266C119.077 18.4547 118.987 18.4687 118.881 18.4687C118.791 18.4687 118.714 18.4617 118.648 18.4477C118.583 18.4336 118.525 18.4137 118.476 18.3879V18.2087C118.528 18.2345 118.591 18.2579 118.663 18.279C118.736 18.3001 118.81 18.3106 118.886 18.3106C118.997 18.3106 119.077 18.2926 119.127 18.2567C119.177 18.2208 119.202 18.172 119.202 18.1103C119.202 18.0751 119.192 18.0443 119.172 18.0177C119.152 17.9904 119.119 17.9643 119.072 17.9393C119.025 17.9135 118.961 17.8854 118.878 17.8549C118.796 17.8237 118.725 17.7928 118.665 17.7624C118.605 17.7311 118.559 17.6933 118.526 17.6488C118.494 17.6042 118.478 17.5464 118.478 17.4754C118.478 17.3668 118.522 17.2837 118.61 17.2259C118.698 17.1673 118.813 17.138 118.956 17.138C119.034 17.138 119.106 17.1458 119.173 17.1614C119.241 17.1763 119.304 17.1966 119.363 17.2224L119.297 17.3782C119.244 17.3555 119.187 17.3364 119.127 17.3208C119.067 17.3051 119.006 17.2973 118.943 17.2973C118.854 17.2973 118.784 17.3122 118.736 17.3418C118.688 17.3715 118.665 17.4121 118.665 17.4637C118.665 17.5035 118.676 17.5363 118.697 17.5621C118.72 17.5878 118.756 17.612 118.805 17.6347C118.854 17.6573 118.919 17.6839 119 17.7144C119.08 17.744 119.15 17.7749 119.208 17.8069C119.267 17.8381 119.312 17.8764 119.343 17.9217C119.375 17.9662 119.391 18.0236 119.391 18.0939ZM120.852 16.7058C120.936 16.7058 121.009 16.7206 121.069 16.7503C121.131 16.7792 121.178 16.821 121.211 16.8756C121.245 16.9303 121.262 16.9963 121.262 17.0736C121.262 17.1751 121.228 17.261 121.162 17.3313C121.096 17.4016 121.013 17.4656 120.911 17.5234L121.387 17.9849C121.43 17.935 121.465 17.8772 121.492 17.8116C121.52 17.7452 121.543 17.6734 121.561 17.596H121.758C121.733 17.6991 121.701 17.794 121.661 17.8807C121.622 17.9674 121.573 18.0435 121.513 18.1091L121.857 18.4453H121.593L121.381 18.238C121.331 18.284 121.277 18.3247 121.219 18.3598C121.162 18.3942 121.099 18.4211 121.028 18.4406C120.959 18.4594 120.879 18.4687 120.79 18.4687C120.68 18.4687 120.585 18.4508 120.505 18.4149C120.424 18.3789 120.362 18.3262 120.317 18.2567C120.274 18.1872 120.252 18.1021 120.252 18.0013C120.252 17.9186 120.267 17.8475 120.298 17.7882C120.328 17.7288 120.371 17.6761 120.428 17.63C120.484 17.5839 120.551 17.539 120.629 17.4953C120.592 17.4547 120.558 17.4137 120.525 17.3723C120.492 17.3301 120.465 17.2852 120.445 17.2376C120.425 17.1892 120.415 17.1361 120.415 17.0783C120.415 17.0002 120.432 16.9334 120.467 16.878C120.503 16.8225 120.554 16.78 120.618 16.7503C120.684 16.7206 120.762 16.7058 120.852 16.7058ZM120.746 17.6183C120.685 17.6534 120.633 17.6882 120.589 17.7226C120.546 17.7569 120.513 17.7956 120.49 17.8385C120.467 17.8815 120.456 17.9334 120.456 17.9943C120.456 18.0857 120.487 18.1591 120.548 18.2145C120.61 18.2692 120.692 18.2965 120.795 18.2965C120.902 18.2965 120.992 18.279 121.066 18.2438C121.141 18.2087 121.205 18.1661 121.257 18.1161L120.746 17.6183ZM120.845 16.8662C120.774 16.8662 120.716 16.885 120.671 16.9225C120.627 16.9592 120.606 17.0107 120.606 17.0771C120.606 17.1365 120.622 17.1911 120.654 17.2411C120.686 17.2911 120.731 17.3465 120.791 17.4074C120.888 17.3536 120.959 17.3016 121.003 17.2516C121.047 17.2009 121.069 17.1415 121.069 17.0736C121.069 17.0119 121.049 16.9619 121.007 16.9236C120.967 16.8854 120.913 16.8662 120.845 16.8662ZM123.178 17.1404C123.331 17.1404 123.445 17.1747 123.519 17.2434C123.593 17.3122 123.63 17.4219 123.63 17.5726V18.4453H123.488L123.451 18.2555H123.442C123.406 18.3024 123.368 18.3418 123.329 18.3739C123.29 18.4051 123.245 18.4289 123.193 18.4453C123.143 18.4609 123.08 18.4687 123.006 18.4687C122.928 18.4687 122.858 18.4551 122.797 18.4277C122.737 18.4004 122.69 18.359 122.654 18.3036C122.62 18.2481 122.603 18.1778 122.603 18.0927C122.603 17.9646 122.654 17.8662 122.755 17.7975C122.857 17.7288 123.011 17.6913 123.219 17.6851L123.44 17.6757V17.5972C123.44 17.4863 123.417 17.4086 123.369 17.3641C123.321 17.3196 123.254 17.2973 123.167 17.2973C123.1 17.2973 123.036 17.3071 122.975 17.3266C122.914 17.3461 122.857 17.3692 122.802 17.3957L122.742 17.2481C122.8 17.2185 122.866 17.1931 122.941 17.172C123.016 17.1509 123.095 17.1404 123.178 17.1404ZM123.438 17.8127L123.242 17.8209C123.082 17.8272 122.97 17.8534 122.904 17.8994C122.838 17.9455 122.806 18.0107 122.806 18.0951C122.806 18.1685 122.828 18.2227 122.872 18.2579C122.917 18.293 122.976 18.3106 123.049 18.3106C123.163 18.3106 123.257 18.279 123.329 18.2157C123.402 18.1525 123.438 18.0576 123.438 17.9311V17.8127ZM124.225 17.1614V18.4453H124.031V17.1614H124.225ZM124.13 16.6812C124.162 16.6812 124.19 16.6917 124.212 16.7128C124.236 16.7331 124.248 16.7651 124.248 16.8088C124.248 16.8518 124.236 16.8838 124.212 16.9049C124.19 16.926 124.162 16.9365 124.13 16.9365C124.097 16.9365 124.069 16.926 124.046 16.9049C124.024 16.8838 124.013 16.8518 124.013 16.8088C124.013 16.7651 124.024 16.7331 124.046 16.7128C124.069 16.6917 124.097 16.6812 124.13 16.6812Z" fill="#303030"/>
<defs>
<linearGradient id="paint0_linear_364_13923" x1="65.0125" y1="13.2134" x2="71.9915" y2="6.64992" gradientUnits="userSpaceOnUse">
<stop stop-color="#662C91"/>
<stop offset="1" stop-color="#28AAE1"/>
</linearGradient>
<linearGradient id="paint1_linear_364_13923" x1="66.3926" y1="18.6962" x2="82.3107" y2="18.6962" gradientUnits="userSpaceOnUse">
<stop stop-color="#662C91"/>
<stop offset="1" stop-color="#EE2B7B"/>
</linearGradient>
<linearGradient id="paint2_linear_364_13923" x1="76.8978" y1="12.3567" x2="68.7932" y2="6.83416" gradientUnits="userSpaceOnUse">
<stop stop-color="#EE2B7B"/>
<stop offset="1" stop-color="#2BB673"/>
</linearGradient>
<linearGradient id="paint3_linear_364_13923" x1="69.5975" y1="23.0799" x2="64.2518" y2="12.9453" gradientUnits="userSpaceOnUse">
<stop stop-color="#2A3890"/>
<stop offset="0.994595" stop-color="#2BB673"/>
<stop offset="1" stop-color="#2BB673"/>
</linearGradient>
<linearGradient id="paint4_linear_364_13923" x1="71.075" y1="14.6053" x2="77.3709" y2="9.92512" gradientUnits="userSpaceOnUse">
<stop stop-color="#2A3890"/>
<stop offset="1" stop-color="#28AAE1"/>
</linearGradient>
</defs>
</svg>
