<svg width="393" height="169" viewBox="0 0 393 169" fill="none" xmlns="http://www.w3.org/2000/svg">
<g clip-path="url(#clip0_364_28115)">
<g clip-path="url(#clip1_364_28115)">
<circle cx="153.126" cy="102.031" r="16.0984" transform="rotate(-0.251843 153.126 102.031)" fill="#BEE0FF"/>
<line x1="155.695" y1="81.8984" x2="157.12" y2="74.1013" stroke="#BEE0FF" stroke-width="1.9307" stroke-linecap="round"/>
<line x1="162.188" y1="84.1063" x2="164.321" y2="81.0169" stroke="#BEE0FF" stroke-width="1.9307" stroke-linecap="round"/>
<line x1="167.353" y1="88.9912" x2="173.711" y2="84.5264" stroke="#BEE0FF" stroke-width="1.9307" stroke-linecap="round"/>
<line x1="170.474" y1="95.3611" x2="174.897" y2="94.5058" stroke="#BEE0FF" stroke-width="1.9307" stroke-linecap="round"/>
<line x1="148.506" y1="82.3531" x2="147.808" y2="78.7847" stroke="#BEE0FF" stroke-width="1.9307" stroke-linecap="round"/>
<line x1="142.086" y1="85.7545" x2="137.716" y2="79.3302" stroke="#BEE0FF" stroke-width="1.9307" stroke-linecap="round"/>
<line x1="137.702" y1="91.2238" x2="133.585" y2="88.7786" stroke="#BEE0FF" stroke-width="1.9307" stroke-linecap="round"/>
<path d="M391.488 82.4707L303.637 134.505L352.979 151.446L391.488 143.865V82.4707Z" fill="#DFEFFF"/>
<path d="M199.411 84.9931L161.783 103.863L90.702 80C90.702 80 31.532 106.455 -5.51172 123.443V182.245L366.465 183.882L373.684 146.145L199.411 84.9931Z" fill="#DFEFFF"/>
<path d="M21.724 105.846C20.5345 104.935 18.9837 104.647 17.488 104.565C17.2724 104.554 17.0533 104.546 16.8321 104.54C17.0939 103.417 16.9014 102.274 15.9008 101.277C15.1179 100.497 14.0071 100.465 12.8518 100.761C12.8113 100.658 12.7636 100.557 12.7077 100.46C12.1301 99.4577 10.8766 99.05 9.72058 99.0052C7.53838 98.9202 5.33911 99.8806 3.91774 101.538C3.23551 102.335 2.7162 103.328 2.72651 104.376C2.73434 105.196 2.94029 105.788 3.28318 106.201C2.73042 106.635 2.19582 107.101 1.7953 107.677C1.34997 108.317 1.08318 109.117 1.22723 109.884C1.33928 110.48 1.67507 110.97 2.1325 111.353C0.814285 113.061 0.0822418 115.328 0.727122 117.373C1.13119 118.655 2.03396 119.733 3.08718 120.568C3.34471 120.772 3.61148 120.962 3.88644 121.138C3.82775 121.196 3.76905 121.254 3.71428 121.314C3.13022 121.955 2.78022 122.755 2.96945 123.522C3.3038 124.877 5.14952 125.681 6.95539 125.932C6.8871 126.014 6.82201 126.097 6.76261 126.182C6.16575 127.036 6.08893 128.075 6.82878 128.845C7.75431 129.807 9.68538 130.131 11.4514 130.099C14.7857 130.038 18.1012 128.932 20.1977 127.181C21.2043 126.34 21.9534 125.313 21.8919 124.267C21.8225 123.085 21.147 122.405 20.1344 122.07C22.6164 120.28 25.1059 117.33 22.4033 115.066C23.1421 113.777 23.6785 112.371 23.7785 110.896C23.9072 109.007 23.2275 106.997 21.724 105.846Z" fill="#AFD9FF"/>
<path d="M8.37859 118.682L12.7508 121.29C12.8294 121.337 12.929 121.281 12.9305 121.19L13.0087 116.662C13.0094 116.624 12.9916 116.588 12.9607 116.565L10.1727 114.489C10.1425 114.466 10.1247 114.431 10.1247 114.393C10.1247 114.301 10.225 114.244 10.3043 114.291L12.8451 115.804C12.9237 115.85 13.0233 115.795 13.0247 115.704L13.0791 112.554C13.0802 112.489 13.1332 112.438 13.1979 112.438H13.247C13.3107 112.438 13.363 112.487 13.3658 112.551L13.6017 117.665C13.6056 117.753 13.7005 117.806 13.7777 117.764L17.9227 115.49C18.002 115.446 18.0987 115.504 18.0987 115.594V115.602C18.0987 115.641 18.0802 115.676 18.0493 115.699L13.7091 118.817C13.6764 118.841 13.6578 118.879 13.6596 118.919L14.6737 140.923C14.6755 140.962 14.6588 140.998 14.6282 141.022C14.4802 141.138 14.101 141.39 13.5707 141.37C13.103 141.351 12.7746 141.131 12.6334 141.02C12.6046 140.997 12.589 140.962 12.5897 140.925C12.6964 134.734 12.8035 128.543 12.9102 122.352C12.9109 122.312 12.8913 122.274 12.8582 122.251L8.25017 119.103C8.2178 119.081 8.19824 119.044 8.19824 119.005V118.785C8.19895 118.692 8.29927 118.635 8.37859 118.682Z" fill="#5C9CD6"/>
<path d="M12.6045 139.978L12.6077 139.789C13.2807 139.794 13.9551 139.724 14.6103 139.58L14.6192 139.772C13.9832 139.909 13.3301 139.98 12.677 139.98C12.6529 139.98 12.6287 139.978 12.6045 139.978Z" fill="#477EB2"/>
<path d="M12.626 138.69L12.6292 138.496C13.2723 138.549 13.9193 138.532 14.5567 138.439L14.5656 138.629C14.1537 138.688 13.7379 138.719 13.3217 138.719C13.0898 138.719 12.8579 138.709 12.626 138.69Z" fill="#477EB2"/>
<path d="M14.4915 136.993L14.5007 137.193L12.6621 136.666L12.6653 136.469L14.4915 136.993Z" fill="#477EB2"/>
<path d="M12.6975 134.545C13.2435 134.769 13.8158 134.933 14.4002 135.034L14.4091 135.228C13.8215 135.129 13.2453 134.969 12.6943 134.748L12.6975 134.545Z" fill="#477EB2"/>
<path d="M12.7077 133.983C13.2579 133.977 13.8075 133.913 14.3432 133.791L14.352 133.985C13.8117 134.105 13.2583 134.168 12.7041 134.174L12.7077 133.983Z" fill="#477EB2"/>
<path d="M14.2478 131.699L14.2567 131.89C13.917 131.965 13.5702 132.005 13.2223 132.005C13.0622 132.005 12.9025 131.994 12.7432 131.978L12.7464 131.785C13.2479 131.837 13.7565 131.811 14.2478 131.699Z" fill="#477EB2"/>
<path d="M14.2131 130.959L14.2219 131.15C13.9473 131.18 13.6713 131.196 13.3953 131.196C13.1822 131.196 12.9692 131.184 12.7568 131.166L12.76 130.977C13.2434 131.017 13.7304 131.011 14.2131 130.959Z" fill="#477EB2"/>
<path d="M12.7877 129.383C13.258 129.484 13.7065 129.554 14.1497 129.582L14.1586 129.774C13.709 129.747 13.2573 129.678 12.7842 129.578L12.7877 129.383Z" fill="#477EB2"/>
<path d="M12.8089 128.055C13.2325 128.126 13.6583 128.186 14.0858 128.229L14.0947 128.419C13.6632 128.376 13.2336 128.318 12.8057 128.246L12.8089 128.055Z" fill="#477EB2"/>
<path d="M14.0461 127.34L14.0549 127.531C14.0496 127.531 14.0443 127.531 14.0389 127.531C13.632 127.531 13.2251 127.51 12.8203 127.467L12.8235 127.273C13.2297 127.317 13.6377 127.34 14.0461 127.34Z" fill="#477EB2"/>
<path d="M14.0006 126.356C13.6114 126.307 13.2248 126.239 12.8428 126.151L12.8463 125.953C13.2241 126.042 13.6064 126.112 13.9917 126.162L14.0006 126.356Z" fill="#477EB2"/>
<path d="M12.8809 123.953L12.8844 123.754L12.9047 123.76C13.2223 123.862 13.5546 123.968 13.895 124.057L13.9042 124.255C13.5517 124.166 13.2088 124.058 12.8809 123.953Z" fill="#477EB2"/>
<path d="M13.8467 123.031C13.5298 122.989 13.2139 122.941 12.8984 122.887L12.9017 122.693C13.2129 122.747 13.5248 122.795 13.8375 122.837L13.8467 123.031Z" fill="#477EB2"/>
<path d="M12.4378 121.831L12.2539 121.782L12.4325 121.102L12.6025 121.203L12.4378 121.831Z" fill="#477EB2"/>
<path d="M11.7815 120.713C11.6869 120.914 11.5763 121.108 11.4518 121.291L11.2949 121.184C11.4173 121.003 11.5254 120.813 11.6175 120.615L11.7815 120.713Z" fill="#477EB2"/>
<path d="M10.0169 120.119C10.1076 120.017 10.1958 119.917 10.2648 119.809L10.5689 119.99C10.5533 120.205 10.5237 120.419 10.4867 120.632L10.3153 120.515C10.3437 120.337 10.3669 120.158 10.38 119.978C10.3124 120.073 10.2356 120.159 10.1598 120.245C10.1303 120.279 10.1015 120.314 10.072 120.348L9.91406 120.24C9.94821 120.2 9.98236 120.159 10.0169 120.119Z" fill="#477EB2"/>
<path d="M9.21602 119.184L9.40811 119.298C9.40669 119.491 9.39495 119.683 9.37752 119.874L9.19824 119.752C9.21247 119.563 9.2178 119.373 9.21602 119.184Z" fill="#477EB2"/>
<path d="M8.82057 118.947L9.00341 119.056C8.98883 119.23 8.9682 119.404 8.94152 119.576L8.76758 119.457C8.79105 119.288 8.80812 119.118 8.82057 118.947Z" fill="#477EB2"/>
<path d="M13.7924 121.85L13.8013 122.039C13.4499 122.118 13.0903 122.163 12.7314 122.167L12.5098 122.015L12.5112 121.976C12.938 121.99 13.3723 121.946 13.7924 121.85Z" fill="#477EB2"/>
<path d="M13.7356 120.623C13.4603 120.566 13.1935 120.471 12.9424 120.345L12.9459 120.133C13.191 120.266 13.4546 120.364 13.7263 120.426L13.7356 120.623Z" fill="#477EB2"/>
<path d="M12.959 119.388L12.9629 119.168C13.1841 119.313 13.4285 119.42 13.6835 119.489L13.6928 119.688C13.4353 119.625 13.1873 119.524 12.959 119.388Z" fill="#477EB2"/>
<path d="M14.2277 118.443L14.0655 118.56C13.9617 118.278 13.9186 117.975 13.9382 117.675L14.1395 117.564C14.1004 117.859 14.1324 118.162 14.2277 118.443Z" fill="#477EB2"/>
<path d="M15.4704 117.551L15.3161 117.662C15.1994 117.478 15.1041 117.281 15.0322 117.075L15.2005 116.982C15.267 117.182 15.3584 117.373 15.4704 117.551Z" fill="#477EB2"/>
<path d="M16.292 116.96L16.1352 117.072C16.0573 116.913 15.9872 116.749 15.9307 116.581L16.0996 116.488C16.1523 116.65 16.2184 116.807 16.292 116.96Z" fill="#477EB2"/>
<path d="M16.8439 116.564C16.8012 116.423 16.7717 116.278 16.75 116.133L16.9278 116.035C16.9446 116.174 16.9716 116.311 17.009 116.445L16.8439 116.564Z" fill="#477EB2"/>
<path d="M12.9964 117.286C13.1931 117.255 13.3873 117.207 13.5765 117.143L13.5858 117.34C13.3923 117.403 13.1938 117.446 12.9932 117.476L12.9964 117.286Z" fill="#477EB2"/>
<path d="M13.655 118.854L13.656 118.879C13.4419 118.723 13.2135 118.584 12.9756 118.465L12.9791 118.254C13.2683 118.392 13.5451 118.559 13.8015 118.749L13.655 118.854Z" fill="#477EB2"/>
<path d="M12.4199 116.164L12.438 115.562L12.6255 115.674L12.6063 116.303L12.4199 116.164Z" fill="#477EB2"/>
<path d="M11.9764 115.834L11.8174 115.715L11.9753 115.287L12.1414 115.386L11.9764 115.834Z" fill="#477EB2"/>
<path d="M10.6686 114.859L10.5117 114.743C10.5551 114.658 10.6017 114.576 10.6497 114.498L10.8137 114.596C10.7607 114.682 10.7127 114.771 10.6686 114.859Z" fill="#477EB2"/>
<path d="M11.2498 115.293L11.0464 115.141C11.0361 115.004 11.0329 114.866 11.0368 114.729L11.2221 114.839C11.2221 114.991 11.2317 115.142 11.2498 115.293Z" fill="#477EB2"/>
<path d="M13.0654 115.137L13.2155 115.02C13.2888 115.113 13.3838 115.19 13.4894 115.247L13.4994 115.462C13.3301 115.391 13.1775 115.281 13.0654 115.137Z" fill="#477EB2"/>
<path d="M13.4356 114.09L13.4453 114.299C13.3115 114.248 13.1803 114.191 13.0508 114.13L13.0543 113.922C13.1792 113.983 13.3069 114.039 13.4356 114.09Z" fill="#477EB2"/>
<path d="M13.3896 113.079L13.3992 113.29C13.2871 113.24 13.1772 113.186 13.0684 113.13L13.0719 112.918C13.1769 112.974 13.2821 113.029 13.3896 113.079Z" fill="#477EB2"/>
<path d="M3.91197 109.157C4.20151 109.061 4.52022 109.088 4.81402 109.171C5.29884 109.308 5.7584 109.618 5.95901 110.08C6.3549 110.991 5.3721 112.018 4.45867 111.587C3.67293 111.216 2.64853 109.576 3.91197 109.157Z" fill="#9DD0FF"/>
<path d="M17.3249 106.553C17.6144 106.457 17.9331 106.484 18.2266 106.567C18.7114 106.704 19.171 107.014 19.3719 107.476C19.7678 108.387 18.785 109.414 17.8716 108.984C17.0859 108.613 16.0618 106.972 17.3249 106.553Z" fill="#9DD0FF"/>
<path d="M9.14341 100.606C9.43295 100.51 9.75166 100.537 10.0455 100.62C10.5303 100.757 10.9898 101.067 11.1905 101.529C11.5867 102.44 10.6035 103.467 9.69012 103.036C8.90438 102.666 7.87997 101.025 9.14341 100.606Z" fill="#9DD0FF"/>
<path d="M6.64341 121.459C6.93295 121.363 7.25166 121.391 7.54547 121.474C8.03028 121.61 8.48984 121.921 8.69046 122.383C9.08635 123.294 8.10355 124.321 7.19012 123.89C6.40438 123.519 5.37997 121.878 6.64341 121.459Z" fill="#9DD0FF"/>
<path d="M15.0915 126.039C15.3814 125.943 15.6997 125.971 15.9935 126.054C16.4784 126.191 16.9379 126.501 17.1385 126.963C17.5348 127.874 16.5516 128.901 15.6382 128.47C14.8525 128.099 13.8284 126.458 15.0915 126.039Z" fill="#9DD0FF"/>
<path d="M8.83401 110.826C9.15841 110.94 9.43975 111.232 9.44971 111.576C9.45824 111.871 9.25657 112.153 8.98446 112.268C8.71235 112.383 8.38654 112.341 8.13542 112.185C7.8843 112.029 7.70573 111.77 7.61716 111.489C7.5759 111.357 7.55278 111.216 7.58657 111.083C7.70253 110.627 8.50179 110.709 8.83401 110.826Z" fill="#9DD0FF"/>
<path d="M16.6091 110.432C16.2847 110.546 16.0034 110.837 15.9934 111.181C15.9849 111.477 16.1866 111.758 16.4587 111.874C16.7308 111.989 17.0566 111.946 17.3077 111.79C17.5589 111.634 17.7374 111.376 17.826 111.094C17.8672 110.963 17.8904 110.821 17.8566 110.688C17.7406 110.232 16.941 110.315 16.6091 110.432Z" fill="#9DD0FF"/>
<path d="M4.7859 117.355C4.46151 117.47 4.18014 117.761 4.17018 118.105C4.16165 118.4 4.36334 118.682 4.63545 118.797C4.90756 118.913 5.23337 118.87 5.48449 118.714C5.73561 118.558 5.91418 118.3 6.00275 118.018C6.04401 117.887 6.06676 117.745 6.03297 117.612C5.91737 117.156 5.11777 117.239 4.7859 117.355Z" fill="#9DD0FF"/>
<path d="M16.4256 123.549C16.1012 123.663 15.8198 123.955 15.8098 124.298C15.8013 124.594 16.003 124.875 16.2751 124.991C16.5472 125.106 16.873 125.064 17.1241 124.908C17.3753 124.752 17.5538 124.493 17.6424 124.212C17.6837 124.08 17.7068 123.939 17.673 123.806C17.557 123.349 16.7578 123.432 16.4256 123.549Z" fill="#9DD0FF"/>
<path d="M8.07463 107.939C7.97504 107.751 7.96971 107.501 8.1095 107.34C8.22937 107.203 8.43922 107.159 8.61102 107.221C8.78283 107.283 8.91302 107.438 8.96175 107.614C9.01048 107.791 8.98309 107.983 8.90519 108.148C8.86891 108.225 8.81983 108.299 8.74869 108.345C8.50468 108.504 8.17636 108.131 8.07463 107.939Z" fill="#9DD0FF"/>
<path d="M2.28641 118.718C2.18717 118.53 2.18148 118.28 2.32127 118.12C2.44114 117.982 2.65101 117.938 2.82317 118C2.99497 118.062 3.12514 118.218 3.17387 118.394C3.2226 118.57 3.19521 118.762 3.11731 118.927C3.08103 119.004 3.03195 119.078 2.96081 119.124C2.71609 119.283 2.38813 118.91 2.28641 118.718Z" fill="#9DD0FF"/>
<path d="M18.3001 119.031C18.2008 118.843 18.1951 118.592 18.3349 118.432C18.4548 118.294 18.6647 118.251 18.8365 118.312C19.0083 118.374 19.1385 118.53 19.1872 118.706C19.2359 118.882 19.2085 119.074 19.1306 119.24C19.0943 119.317 19.0453 119.391 18.9741 119.437C18.7301 119.596 18.4018 119.223 18.3001 119.031Z" fill="#9DD0FF"/>
<path d="M10.7651 126.507C10.6655 126.319 10.6601 126.069 10.7999 125.909C10.9198 125.771 11.1297 125.728 11.3015 125.789C11.4733 125.851 11.6034 126.007 11.6522 126.183C11.7009 126.359 11.6735 126.551 11.5956 126.716C11.5593 126.793 11.5103 126.867 11.4391 126.913C11.1948 127.072 10.8664 126.699 10.7651 126.507Z" fill="#9DD0FF"/>
<path d="M301.767 125.231C302.502 124.669 303.46 124.49 304.385 124.44C304.518 124.433 304.653 124.428 304.79 124.424C304.628 123.73 304.747 123.024 305.366 122.408C305.849 121.925 306.536 121.906 307.25 122.088C307.275 122.025 307.304 121.963 307.339 121.902C307.696 121.283 308.471 121.031 309.185 121.003C310.533 120.951 311.893 121.544 312.772 122.569C313.193 123.061 313.514 123.675 313.508 124.323C313.503 124.829 313.375 125.195 313.164 125.451C313.506 125.719 313.836 126.007 314.083 126.363C314.359 126.759 314.523 127.253 314.434 127.727C314.365 128.095 314.158 128.398 313.875 128.634C314.69 129.69 315.142 131.091 314.744 132.356C314.494 133.148 313.936 133.814 313.285 134.33C313.126 134.456 312.961 134.573 312.791 134.682C312.827 134.718 312.863 134.754 312.897 134.791C313.258 135.187 313.474 135.681 313.357 136.155C313.151 136.993 312.01 137.489 310.894 137.645C310.936 137.696 310.977 137.747 311.013 137.8C311.382 138.327 311.43 138.97 310.972 139.445C310.4 140.04 309.207 140.24 308.115 140.22C306.055 140.183 304.006 139.499 302.71 138.417C302.088 137.897 301.625 137.263 301.663 136.616C301.705 135.886 302.123 135.465 302.749 135.259C301.215 134.152 299.676 132.329 301.347 130.929C300.89 130.133 300.559 129.264 300.497 128.352C300.417 127.185 300.837 125.943 301.767 125.231Z" fill="#AFD9FF"/>
<path d="M310.016 133.166L307.313 134.778C307.265 134.806 307.203 134.772 307.202 134.716L307.154 131.918C307.154 131.894 307.165 131.872 307.183 131.858L308.906 130.575C308.925 130.561 308.936 130.539 308.936 130.516C308.936 130.459 308.874 130.424 308.825 130.453L307.255 131.387C307.206 131.416 307.145 131.382 307.144 131.326L307.11 129.379C307.109 129.339 307.076 129.307 307.037 129.307H307.006C306.967 129.307 306.934 129.338 306.933 129.377L306.787 132.537C306.785 132.592 306.726 132.625 306.678 132.599L304.117 131.193C304.068 131.166 304.008 131.202 304.008 131.258V131.263C304.008 131.286 304.019 131.309 304.038 131.322L306.721 133.25C306.741 133.265 306.752 133.288 306.751 133.313L306.125 146.912C306.123 146.936 306.134 146.958 306.153 146.973C306.244 147.045 306.478 147.201 306.806 147.188C307.095 147.177 307.298 147.041 307.385 146.972C307.403 146.958 307.413 146.936 307.412 146.914C307.346 143.087 307.28 139.261 307.214 135.434C307.214 135.41 307.226 135.386 307.246 135.372L310.094 133.427C310.114 133.413 310.126 133.39 310.126 133.366V133.23C310.127 133.172 310.065 133.137 310.016 133.166Z" fill="#5C9CD6"/>
<path d="M307.402 146.328L307.399 146.211C306.983 146.214 306.567 146.171 306.162 146.082L306.156 146.2C306.549 146.285 306.953 146.329 307.356 146.329C307.371 146.329 307.386 146.328 307.402 146.328Z" fill="#477EB2"/>
<path d="M307.388 145.532L307.386 145.412C306.988 145.445 306.589 145.434 306.195 145.377L306.189 145.494C306.444 145.531 306.701 145.55 306.958 145.55C307.101 145.55 307.245 145.544 307.388 145.532Z" fill="#477EB2"/>
<path d="M306.236 144.484L306.23 144.608L307.367 144.282L307.365 144.16L306.236 144.484Z" fill="#477EB2"/>
<path d="M307.343 142.971C307.005 143.109 306.652 143.211 306.291 143.273L306.285 143.393C306.648 143.332 307.005 143.233 307.345 143.097L307.343 142.971Z" fill="#477EB2"/>
<path d="M307.338 142.623C306.998 142.619 306.658 142.579 306.327 142.504L306.321 142.623C306.655 142.698 306.997 142.737 307.34 142.74L307.338 142.623Z" fill="#477EB2"/>
<path d="M306.385 141.211L306.38 141.329C306.59 141.375 306.804 141.4 307.019 141.4C307.118 141.4 307.217 141.393 307.315 141.383L307.313 141.264C307.003 141.296 306.689 141.28 306.385 141.211Z" fill="#477EB2"/>
<path d="M306.409 140.754L306.403 140.872C306.573 140.89 306.744 140.9 306.914 140.9C307.046 140.9 307.177 140.893 307.309 140.882L307.306 140.765C307.008 140.79 306.707 140.786 306.409 140.754Z" fill="#477EB2"/>
<path d="M307.29 139.779C306.999 139.842 306.722 139.885 306.448 139.902L306.442 140.021C306.72 140.004 306.999 139.962 307.292 139.9L307.29 139.779Z" fill="#477EB2"/>
<path d="M307.274 138.959C307.012 139.003 306.749 139.04 306.485 139.067L306.479 139.184C306.746 139.158 307.012 139.122 307.276 139.077L307.274 138.959Z" fill="#477EB2"/>
<path d="M306.509 138.517L306.504 138.636C306.507 138.636 306.511 138.636 306.514 138.636C306.765 138.636 307.017 138.622 307.267 138.596L307.265 138.477C307.014 138.503 306.762 138.517 306.509 138.517Z" fill="#477EB2"/>
<path d="M306.539 137.909C306.78 137.879 307.019 137.837 307.255 137.782L307.253 137.66C307.019 137.715 306.783 137.758 306.545 137.789L306.539 137.909Z" fill="#477EB2"/>
<path d="M307.231 136.423L307.229 136.301L307.216 136.305C307.02 136.368 306.815 136.433 306.604 136.488L306.599 136.611C306.816 136.555 307.028 136.489 307.231 136.423Z" fill="#477EB2"/>
<path d="M306.634 135.855C306.829 135.829 307.025 135.799 307.22 135.766L307.218 135.646C307.025 135.68 306.833 135.709 306.639 135.735L306.634 135.855Z" fill="#477EB2"/>
<path d="M307.504 135.113L307.618 135.083L307.508 134.662L307.402 134.725L307.504 135.113Z" fill="#477EB2"/>
<path d="M307.91 134.422C307.968 134.546 308.037 134.665 308.114 134.779L308.211 134.713C308.135 134.601 308.069 134.484 308.012 134.361L307.91 134.422Z" fill="#477EB2"/>
<path d="M309.001 134.055C308.945 133.992 308.891 133.93 308.848 133.863L308.66 133.975C308.67 134.108 308.688 134.241 308.711 134.372L308.817 134.3C308.799 134.19 308.785 134.08 308.777 133.969C308.819 134.027 308.866 134.081 308.913 134.134C308.931 134.154 308.949 134.176 308.967 134.197L309.065 134.13C309.044 134.105 309.023 134.08 309.001 134.055Z" fill="#477EB2"/>
<path d="M309.496 133.475L309.377 133.545C309.378 133.665 309.385 133.783 309.396 133.901L309.506 133.826C309.498 133.709 309.495 133.592 309.496 133.475Z" fill="#477EB2"/>
<path d="M309.741 133.33L309.628 133.397C309.637 133.505 309.65 133.612 309.666 133.719L309.773 133.645C309.759 133.541 309.749 133.435 309.741 133.33Z" fill="#477EB2"/>
<path d="M306.666 135.123L306.661 135.24C306.878 135.289 307.101 135.317 307.322 135.319L307.459 135.225L307.459 135.201C307.194 135.21 306.926 135.183 306.666 135.123Z" fill="#477EB2"/>
<path d="M306.702 134.366C306.872 134.33 307.037 134.272 307.192 134.193L307.19 134.062C307.039 134.145 306.876 134.205 306.708 134.243L306.702 134.366Z" fill="#477EB2"/>
<path d="M307.183 133.603L307.181 133.467C307.044 133.556 306.893 133.622 306.735 133.665L306.729 133.789C306.889 133.749 307.042 133.687 307.183 133.603Z" fill="#477EB2"/>
<path d="M306.398 133.018L306.499 133.09C306.563 132.916 306.589 132.728 306.577 132.543L306.453 132.475C306.477 132.657 306.457 132.843 306.398 133.018Z" fill="#477EB2"/>
<path d="M305.631 132.466L305.726 132.535C305.798 132.421 305.857 132.299 305.902 132.172L305.798 132.115C305.756 132.239 305.7 132.356 305.631 132.466Z" fill="#477EB2"/>
<path d="M305.123 132.102L305.22 132.171C305.268 132.073 305.311 131.972 305.346 131.868L305.241 131.811C305.209 131.91 305.169 132.007 305.123 132.102Z" fill="#477EB2"/>
<path d="M304.783 131.856C304.809 131.769 304.827 131.68 304.841 131.589L304.731 131.529C304.72 131.615 304.704 131.7 304.681 131.783L304.783 131.856Z" fill="#477EB2"/>
<path d="M307.159 132.303C307.038 132.284 306.918 132.255 306.801 132.215L306.795 132.337C306.914 132.376 307.037 132.403 307.161 132.421L307.159 132.303Z" fill="#477EB2"/>
<path d="M306.752 133.273L306.751 133.289C306.883 133.192 307.025 133.107 307.172 133.033L307.169 132.902C306.991 132.988 306.82 133.091 306.661 133.208L306.752 133.273Z" fill="#477EB2"/>
<path d="M307.515 131.61L307.503 131.238L307.388 131.307L307.399 131.696L307.515 131.61Z" fill="#477EB2"/>
<path d="M307.789 131.406L307.887 131.333L307.789 131.068L307.687 131.13L307.789 131.406Z" fill="#477EB2"/>
<path d="M308.598 130.803L308.695 130.731C308.668 130.679 308.639 130.628 308.609 130.58L308.508 130.641C308.541 130.694 308.571 130.748 308.598 130.803Z" fill="#477EB2"/>
<path d="M308.24 131.071L308.366 130.978C308.372 130.893 308.374 130.808 308.372 130.723L308.257 130.791C308.257 130.884 308.251 130.978 308.24 131.071Z" fill="#477EB2"/>
<path d="M307.117 130.975L307.024 130.902C306.979 130.96 306.92 131.008 306.855 131.043L306.849 131.175C306.954 131.132 307.048 131.063 307.117 130.975Z" fill="#477EB2"/>
<path d="M306.888 130.328L306.882 130.458C306.964 130.426 307.046 130.391 307.125 130.353L307.123 130.225C307.047 130.262 306.968 130.296 306.888 130.328Z" fill="#477EB2"/>
<path d="M306.917 129.703L306.911 129.834C306.98 129.803 307.048 129.769 307.116 129.734L307.114 129.604C307.049 129.638 306.984 129.672 306.917 129.703Z" fill="#477EB2"/>
<path d="M312.776 127.278C312.597 127.218 312.4 127.236 312.219 127.287C311.919 127.371 311.635 127.563 311.511 127.849C311.266 128.412 311.874 129.046 312.438 128.78C312.924 128.551 313.557 127.537 312.776 127.278Z" fill="#9DD0FF"/>
<path d="M304.484 125.668C304.305 125.609 304.108 125.626 303.927 125.677C303.627 125.762 303.343 125.954 303.219 126.239C302.974 126.802 303.582 127.437 304.146 127.171C304.632 126.942 305.265 125.927 304.484 125.668Z" fill="#9DD0FF"/>
<path d="M309.543 121.993C309.364 121.933 309.167 121.95 308.985 122.002C308.686 122.086 308.402 122.278 308.277 122.563C308.033 123.126 308.64 123.761 309.205 123.495C309.69 123.266 310.323 122.252 309.543 121.993Z" fill="#9DD0FF"/>
<path d="M311.088 134.881C310.909 134.822 310.712 134.839 310.53 134.89C310.231 134.975 309.946 135.167 309.822 135.452C309.578 136.015 310.185 136.65 310.75 136.383C311.235 136.154 311.868 135.14 311.088 134.881Z" fill="#9DD0FF"/>
<path d="M305.868 137.711C305.689 137.652 305.492 137.669 305.31 137.72C305.011 137.805 304.727 137.997 304.603 138.282C304.358 138.845 304.965 139.48 305.53 139.214C306.015 138.985 306.649 137.97 305.868 137.711Z" fill="#9DD0FF"/>
<path d="M309.732 128.311C309.532 128.381 309.358 128.561 309.352 128.774C309.346 128.956 309.471 129.131 309.639 129.202C309.807 129.273 310.009 129.247 310.164 129.15C310.319 129.054 310.429 128.894 310.484 128.72C310.51 128.639 310.524 128.551 310.503 128.469C310.432 128.187 309.938 128.238 309.732 128.311Z" fill="#9DD0FF"/>
<path d="M304.929 128.066C305.13 128.137 305.304 128.317 305.31 128.529C305.315 128.712 305.191 128.886 305.023 128.958C304.854 129.029 304.653 129.002 304.498 128.906C304.342 128.81 304.232 128.65 304.177 128.476C304.152 128.395 304.138 128.307 304.159 128.225C304.23 127.943 304.724 127.994 304.929 128.066Z" fill="#9DD0FF"/>
<path d="M312.236 132.344C312.437 132.414 312.611 132.594 312.617 132.807C312.622 132.989 312.497 133.163 312.329 133.235C312.161 133.306 311.96 133.28 311.805 133.184C311.649 133.088 311.539 132.928 311.484 132.753C311.458 132.672 311.444 132.585 311.465 132.502C311.537 132.221 312.031 132.272 312.236 132.344Z" fill="#9DD0FF"/>
<path d="M305.042 136.172C305.242 136.242 305.416 136.422 305.422 136.635C305.428 136.817 305.303 136.992 305.135 137.063C304.967 137.134 304.765 137.108 304.61 137.012C304.455 136.915 304.344 136.755 304.29 136.581C304.264 136.5 304.25 136.413 304.271 136.33C304.342 136.049 304.836 136.1 305.042 136.172Z" fill="#9DD0FF"/>
<path d="M310.203 126.525C310.264 126.409 310.268 126.254 310.182 126.155C310.108 126.07 309.978 126.043 309.871 126.082C309.765 126.12 309.685 126.216 309.655 126.325C309.624 126.434 309.642 126.553 309.69 126.655C309.712 126.702 309.743 126.748 309.787 126.776C309.937 126.874 310.14 126.644 310.203 126.525Z" fill="#9DD0FF"/>
<path d="M313.78 133.187C313.842 133.071 313.845 132.916 313.759 132.817C313.685 132.732 313.555 132.705 313.448 132.744C313.342 132.782 313.262 132.878 313.232 132.987C313.202 133.096 313.219 133.215 313.267 133.317C313.289 133.364 313.32 133.41 313.364 133.438C313.514 133.537 313.717 133.306 313.78 133.187Z" fill="#9DD0FF"/>
<path d="M303.884 133.381C303.945 133.265 303.948 133.11 303.862 133.011C303.788 132.926 303.658 132.899 303.552 132.937C303.446 132.975 303.366 133.071 303.335 133.18C303.305 133.289 303.322 133.408 303.371 133.51C303.393 133.558 303.423 133.603 303.467 133.632C303.617 133.73 303.821 133.499 303.884 133.381Z" fill="#9DD0FF"/>
<path d="M308.54 138.002C308.601 137.886 308.605 137.731 308.518 137.632C308.444 137.547 308.315 137.52 308.208 137.558C308.102 137.596 308.022 137.693 307.992 137.801C307.961 137.91 307.978 138.029 308.027 138.131C308.049 138.179 308.079 138.224 308.123 138.253C308.274 138.351 308.477 138.12 308.54 138.002Z" fill="#9DD0FF"/>
<path d="M16.7673 140.926C16.5168 139.48 17.1128 137.983 18.0677 136.869C19.0225 135.755 20.303 134.972 21.6071 134.3C22.1081 134.042 22.6279 133.789 23.0121 133.376C23.3964 132.964 23.6188 132.347 23.4043 131.825C23.2208 131.379 22.7527 131.098 22.2761 131.024C21.7994 130.951 21.3133 131.055 20.8518 131.196C17.1204 132.332 14.3612 136.098 14.4018 139.998C14.5457 138.647 13.9744 137.573 13.7062 136.241C13.4381 134.908 12.6896 133.603 11.4709 133.002C10.96 132.75 10.3513 132.995 9.90678 133.351C9.46224 133.707 9.21371 134.295 9.26816 134.861C9.37531 135.981 10.4754 136.681 11.2297 137.515C12.1958 138.583 12.6631 140.085 12.4735 141.512C12.5766 141.464 12.6796 141.415 12.7825 141.366" fill="#7DAEDA"/>
<path d="M11.5453 141.722C11.1645 140.364 10.6243 139.029 9.75152 137.92C8.87877 136.813 7.64256 135.945 6.24941 135.725C4.85627 135.504 3.31903 136.009 2.48828 137.149C4.15134 136.626 6.05884 136.957 7.44809 138.01C8.83734 139.064 9.6714 140.811 9.61676 142.553" fill="#7DAEDA"/>
<path d="M307.336 148.768C102.321 93.284 2.92033 143.656 -3.51172 147.88V152.103V171.746H396.488V129.958C345.589 136.659 307.336 148.768 307.336 148.768Z" fill="#BEE0FF"/>
<path d="M390.239 183.132C391.128 179.959 392.39 176.838 394.43 174.249C396.469 171.66 399.357 169.635 402.611 169.119C405.866 168.602 409.458 169.782 411.398 172.446C407.513 171.224 403.056 171.998 399.811 174.459C396.565 176.919 394.616 181.001 394.744 185.072" fill="#4B3B51"/>
<path d="M397.373 108.148C394.915 106.266 391.71 105.67 388.619 105.502C388.173 105.477 387.721 105.461 387.263 105.45C387.804 103.129 387.407 100.767 385.339 98.7057C383.721 97.0928 381.425 97.0276 379.037 97.6392C378.953 97.4258 378.855 97.2177 378.739 97.0172C377.545 94.9461 374.955 94.1037 372.566 94.0107C368.057 93.8352 363.511 95.8199 360.574 99.2465C359.164 100.891 358.091 102.944 358.112 105.11C358.129 106.805 358.554 108.028 359.262 108.881C358.12 109.779 357.015 110.742 356.187 111.932C355.267 113.256 354.715 114.909 355.013 116.494C355.245 117.726 355.939 118.738 356.884 119.528C354.16 123.059 352.647 127.744 353.98 131.971C354.815 134.62 356.681 136.848 358.858 138.573C359.389 138.995 359.941 139.387 360.509 139.752C360.388 139.872 360.267 139.991 360.154 140.116C358.947 141.44 358.223 143.093 358.614 144.677C359.305 147.478 363.12 149.139 366.851 149.659C366.711 149.828 366.576 150 366.453 150.176C365.22 151.94 365.06 154.087 366.59 155.678C368.503 157.668 372.493 158.337 376.143 158.27C383.034 158.144 389.886 155.858 394.219 152.239C396.299 150.501 397.847 148.38 397.721 146.216C397.578 143.775 396.182 142.369 394.089 141.678C399.219 137.978 404.364 131.881 398.778 127.201C400.305 124.537 401.413 121.631 401.62 118.583C401.885 114.68 400.48 110.526 397.373 108.148Z" fill="#AFD9FF"/>
<path d="M369.787 134.679L378.823 140.067C378.985 140.163 379.191 140.049 379.195 139.86L379.356 130.504C379.357 130.425 379.321 130.35 379.257 130.302L373.495 126.012C373.433 125.965 373.397 125.892 373.397 125.814C373.397 125.624 373.604 125.506 373.768 125.603L379.019 128.729C379.181 128.826 379.387 128.711 379.39 128.522L379.503 122.013C379.505 121.879 379.614 121.771 379.748 121.771H379.85C379.981 121.771 380.089 121.875 380.095 122.006L380.583 132.575C380.591 132.757 380.787 132.866 380.946 132.779L389.512 128.08C389.676 127.99 389.876 128.108 389.876 128.295V128.312C389.876 128.39 389.838 128.465 389.774 128.511L380.804 134.957C380.737 135.005 380.698 135.084 380.702 135.168L382.798 180.641C382.802 180.721 382.767 180.797 382.704 180.847C382.398 181.086 381.614 181.607 380.518 181.565C379.552 181.527 378.873 181.072 378.582 180.841C378.522 180.794 378.489 180.722 378.491 180.646C378.712 167.851 378.933 155.056 379.154 142.26C379.155 142.178 379.115 142.1 379.047 142.053L369.523 135.547C369.456 135.501 369.416 135.425 369.416 135.344V134.889C369.415 134.699 369.623 134.581 369.787 134.679Z" fill="#5C9CD6"/>
<path d="M378.718 167.461C379.846 167.925 381.03 168.264 382.237 168.473L382.255 168.872C381.041 168.668 379.85 168.337 378.711 167.881L378.718 167.461Z" fill="#477EB2"/>
<path d="M378.738 166.304C379.875 166.291 381.011 166.158 382.119 165.906L382.137 166.306C381.021 166.555 379.877 166.685 378.731 166.697L378.738 166.304Z" fill="#477EB2"/>
<path d="M381.92 161.582L381.938 161.977C381.237 162.131 380.519 162.214 379.801 162.214C379.47 162.214 379.14 162.193 378.811 162.159L378.818 161.758C379.854 161.867 380.905 161.813 381.92 161.582Z" fill="#477EB2"/>
<path d="M381.848 160.051L381.866 160.446C381.299 160.507 380.728 160.54 380.158 160.54C379.717 160.54 379.277 160.515 378.838 160.479L378.845 160.087C379.844 160.171 380.85 160.16 381.848 160.051Z" fill="#477EB2"/>
<path d="M378.903 156.791C379.875 157 380.801 157.144 381.718 157.203L381.736 157.599C380.807 157.543 379.873 157.401 378.896 157.194L378.903 156.791Z" fill="#477EB2"/>
<path d="M378.949 154.047C379.825 154.194 380.705 154.317 381.588 154.407L381.606 154.801C380.714 154.711 379.826 154.59 378.942 154.443L378.949 154.047Z" fill="#477EB2"/>
<path d="M381.503 152.57L381.521 152.966C381.51 152.966 381.499 152.966 381.488 152.966C380.647 152.966 379.806 152.921 378.97 152.833L378.976 152.434C379.815 152.524 380.659 152.571 381.503 152.57Z" fill="#477EB2"/>
<path d="M381.409 150.538C380.605 150.435 379.806 150.296 379.017 150.113L379.024 149.705C379.805 149.889 380.594 150.033 381.391 150.137L381.409 150.538Z" fill="#477EB2"/>
<path d="M379.096 145.571L379.103 145.16L379.145 145.174C379.801 145.385 380.488 145.604 381.191 145.787L381.21 146.197C380.482 146.012 379.774 145.789 379.096 145.571Z" fill="#477EB2"/>
<path d="M381.093 143.668C380.438 143.581 379.785 143.481 379.134 143.37L379.141 142.971C379.784 143.082 380.429 143.181 381.075 143.268L381.093 143.668Z" fill="#477EB2"/>
<path d="M378.18 141.184L377.8 141.085L378.169 139.678L378.521 139.887L378.18 141.184Z" fill="#477EB2"/>
<path d="M376.826 138.876C376.631 139.292 376.402 139.691 376.145 140.071L375.82 139.85C376.073 139.476 376.296 139.083 376.487 138.674L376.826 138.876Z" fill="#477EB2"/>
<path d="M373.18 137.65C373.367 137.438 373.549 137.232 373.692 137.008L374.32 137.382C374.288 137.828 374.227 138.27 374.15 138.709L373.796 138.467C373.855 138.1 373.903 137.73 373.93 137.359C373.79 137.554 373.632 137.733 373.475 137.911C373.414 137.98 373.354 138.053 373.293 138.124L372.967 137.9C373.038 137.817 373.109 137.731 373.18 137.65Z" fill="#477EB2"/>
<path d="M371.52 135.713L371.917 135.95C371.914 136.347 371.89 136.745 371.854 137.14L371.483 136.887C371.513 136.497 371.524 136.105 371.52 135.713Z" fill="#477EB2"/>
<path d="M370.705 135.227L371.083 135.452C371.053 135.811 371.01 136.169 370.955 136.526L370.596 136.28C370.645 135.931 370.68 135.579 370.705 135.227Z" fill="#477EB2"/>
<path d="M380.981 141.223L380.999 141.614C380.273 141.777 379.53 141.87 378.788 141.878L378.33 141.565L378.333 141.484C379.216 141.514 380.113 141.423 380.981 141.223Z" fill="#477EB2"/>
<path d="M380.865 138.691C380.296 138.572 379.745 138.377 379.226 138.116L379.233 137.678C379.74 137.953 380.284 138.156 380.846 138.282L380.865 138.691Z" fill="#477EB2"/>
<path d="M379.26 136.139L379.268 135.684C379.725 135.983 380.23 136.204 380.757 136.347L380.776 136.76C380.244 136.628 379.732 136.42 379.26 136.139Z" fill="#477EB2"/>
<path d="M381.878 134.186L381.543 134.427C381.328 133.844 381.24 133.217 381.28 132.597L381.696 132.369C381.615 132.979 381.681 133.604 381.878 134.186Z" fill="#477EB2"/>
<path d="M384.449 132.338L384.13 132.568C383.889 132.187 383.692 131.781 383.544 131.355L383.892 131.164C384.029 131.577 384.218 131.97 384.449 132.338Z" fill="#477EB2"/>
<path d="M386.146 131.121L385.822 131.353C385.661 131.024 385.516 130.686 385.399 130.338L385.749 130.146C385.858 130.48 385.994 130.804 386.146 131.121Z" fill="#477EB2"/>
<path d="M387.286 130.3C387.197 130.009 387.136 129.71 387.092 129.408L387.459 129.207C387.494 129.493 387.549 129.777 387.627 130.055L387.286 130.3Z" fill="#477EB2"/>
<path d="M379.335 131.791C379.742 131.728 380.143 131.63 380.534 131.496L380.553 131.905C380.153 132.035 379.743 132.124 379.328 132.185L379.335 131.791Z" fill="#477EB2"/>
<path d="M380.696 135.036L380.698 135.087C380.256 134.765 379.784 134.478 379.292 134.232L379.3 133.795C379.897 134.081 380.469 134.425 380.999 134.818L380.696 135.036Z" fill="#477EB2"/>
<path d="M378.145 129.475L378.182 128.232L378.569 128.463L378.53 129.762L378.145 129.475Z" fill="#477EB2"/>
<path d="M377.23 128.792L376.901 128.547L377.228 127.662L377.571 127.867L377.23 128.792Z" fill="#477EB2"/>
<path d="M374.525 126.78L374.201 126.539C374.291 126.363 374.387 126.194 374.487 126.033L374.826 126.235C374.716 126.413 374.616 126.596 374.525 126.78Z" fill="#477EB2"/>
<path d="M375.726 127.673L375.306 127.361C375.284 127.077 375.278 126.793 375.285 126.508L375.669 126.736C375.669 127.049 375.689 127.362 375.726 127.673Z" fill="#477EB2"/>
<path d="M379.477 127.351L379.787 127.109C379.938 127.304 380.134 127.462 380.353 127.58L380.373 128.023C380.023 127.877 379.707 127.648 379.477 127.351Z" fill="#477EB2"/>
<path d="M380.242 125.186L380.262 125.617C379.986 125.512 379.715 125.394 379.447 125.268L379.455 124.838C379.712 124.965 379.976 125.079 380.242 125.186Z" fill="#477EB2"/>
<path d="M380.145 123.098L380.165 123.535C379.934 123.431 379.707 123.32 379.481 123.203L379.489 122.766C379.705 122.881 379.923 122.994 380.145 123.098Z" fill="#477EB2"/>
<path d="M388.281 109.608C388.88 109.41 389.538 109.466 390.145 109.638C391.147 109.921 392.097 110.562 392.512 111.516C393.331 113.399 391.299 115.521 389.411 114.631C387.787 113.865 385.671 110.474 388.281 109.608Z" fill="#9DD0FF"/>
<path d="M371.371 97.3172C371.97 97.1187 372.628 97.1754 373.235 97.3467C374.237 97.6297 375.187 98.2705 375.602 99.2252C376.42 101.108 374.389 103.23 372.501 102.34C370.877 101.575 368.76 98.1832 371.371 97.3172Z" fill="#9DD0FF"/>
<path d="M366.205 140.417C366.804 140.218 367.462 140.275 368.069 140.446C369.071 140.729 370.021 141.37 370.436 142.325C371.254 144.207 369.223 146.33 367.335 145.44C365.711 144.674 363.594 141.283 366.205 140.417Z" fill="#9DD0FF"/>
<path d="M370.731 118.441C371.401 118.677 371.983 119.28 372.003 119.991C372.021 120.601 371.604 121.184 371.042 121.422C370.48 121.66 369.806 121.572 369.287 121.25C368.768 120.929 368.399 120.394 368.216 119.811C368.131 119.54 368.083 119.248 368.153 118.972C368.393 118.029 370.045 118.2 370.731 118.441Z" fill="#9DD0FF"/>
<path d="M386.799 117.627C386.128 117.863 385.546 118.466 385.526 119.176C385.508 119.787 385.925 120.369 386.487 120.608C387.05 120.846 387.723 120.758 388.242 120.436C388.762 120.114 389.13 119.58 389.314 118.997C389.399 118.726 389.446 118.433 389.377 118.158C389.137 117.215 387.485 117.386 386.799 117.627Z" fill="#9DD0FF"/>
<path d="M386.424 144.732C385.753 144.968 385.171 145.571 385.151 146.281C385.133 146.892 385.55 147.475 386.112 147.713C386.675 147.951 387.348 147.863 387.867 147.541C388.387 147.22 388.755 146.685 388.939 146.102C389.024 145.831 389.071 145.538 389.002 145.263C388.762 144.32 387.109 144.491 386.424 144.732Z" fill="#9DD0FF"/>
<path d="M369.164 112.472C368.958 112.084 368.947 111.566 369.236 111.235C369.484 110.951 369.917 110.861 370.272 110.988C370.628 111.116 370.896 111.439 370.997 111.803C371.098 112.166 371.041 112.564 370.88 112.905C370.805 113.064 370.704 113.217 370.557 113.312C370.052 113.64 369.374 112.87 369.164 112.472Z" fill="#9DD0FF"/>
<path d="M390.295 135.396C390.089 135.008 390.078 134.49 390.367 134.159C390.614 133.874 391.048 133.785 391.403 133.912C391.758 134.04 392.027 134.362 392.128 134.726C392.229 135.09 392.172 135.488 392.011 135.829C391.936 135.988 391.835 136.14 391.687 136.236C391.183 136.564 390.505 135.793 390.295 135.396Z" fill="#9DD0FF"/>
<path d="M374.722 150.847C374.517 150.459 374.506 149.941 374.794 149.61C375.042 149.326 375.476 149.236 375.831 149.363C376.186 149.491 376.455 149.814 376.556 150.178C376.656 150.541 376.6 150.939 376.439 151.28C376.364 151.439 376.263 151.592 376.115 151.687C375.611 152.015 374.933 151.244 374.722 150.847Z" fill="#9DD0FF"/>
<path d="M100.044 50.4449L96.0153 56.1344L95.3348 60H94.7223L95.4028 56.1344L93.3747 50.4449H94.0825L95.8112 55.5491L99.3365 50.4449H100.044ZM103.08 60.1089C102.154 60.1089 101.41 59.8412 100.848 59.3058C100.294 58.7704 100.017 58.0445 100.017 57.128C100.017 56.2932 100.203 55.5219 100.575 54.8141C100.956 54.1063 101.483 53.5482 102.154 53.1399C102.826 52.7225 103.574 52.5138 104.4 52.5138C104.999 52.5138 105.53 52.6363 105.993 52.8813C106.455 53.1172 106.814 53.462 107.068 53.9157C107.331 54.3604 107.463 54.8867 107.463 55.4947C107.463 56.3295 107.272 57.1008 106.891 57.8086C106.51 58.5164 105.984 59.079 105.312 59.4964C104.65 59.9047 103.906 60.1089 103.08 60.1089ZM103.161 59.578C103.869 59.578 104.5 59.392 105.053 59.02C105.616 58.6479 106.052 58.1534 106.36 57.5364C106.678 56.9193 106.837 56.2478 106.837 55.5219C106.837 54.7143 106.596 54.0972 106.115 53.6707C105.634 53.2443 105.031 53.031 104.305 53.031C103.588 53.031 102.953 53.217 102.399 53.5891C101.846 53.9611 101.415 54.4602 101.106 55.0863C100.798 55.7034 100.643 56.3703 100.643 57.0872C100.643 57.8948 100.879 58.5118 101.351 58.9383C101.832 59.3648 102.436 59.578 103.161 59.578ZM116.14 52.6091L114.834 60H114.221L114.507 58.4075C114.198 58.961 113.776 59.3875 113.241 59.6869C112.706 59.9773 112.125 60.1225 111.499 60.1225C110.746 60.1225 110.138 59.9229 109.675 59.5236C109.221 59.1153 108.994 58.5118 108.994 57.7133C108.994 57.4139 109.017 57.1462 109.062 56.9102L109.838 52.6091H110.437L109.675 56.8694C109.63 57.1598 109.607 57.3957 109.607 57.5772C109.607 58.2396 109.788 58.7432 110.151 59.088C110.514 59.4238 111.022 59.5917 111.676 59.5917C112.474 59.5917 113.155 59.3376 113.717 58.8294C114.289 58.3122 114.657 57.559 114.82 56.57V56.6108L115.528 52.6091H116.14ZM118.713 54.2016C119.004 53.639 119.403 53.208 119.911 52.9085C120.428 52.6091 121.041 52.4593 121.749 52.4593L121.626 53.0991H121.436C120.71 53.0991 120.07 53.3078 119.517 53.7252C118.963 54.1335 118.605 54.805 118.441 55.7397L117.679 60H117.066L118.387 52.6091H118.999L118.713 54.2016ZM128.031 50.9485L127.324 54.9638H131.135L131.04 55.4538H127.242L126.521 59.4964H130.74L130.645 60H125.813L127.514 50.4449H132.333L132.237 50.9485H128.031ZM135.139 59.2786L139.019 52.6091H139.686L135.316 60H134.677L132.934 52.6091H133.588L135.139 59.2786ZM144.262 52.5138C144.889 52.5138 145.419 52.6363 145.855 52.8813C146.3 53.1172 146.631 53.4393 146.849 53.8477C147.075 54.247 147.189 54.6961 147.189 55.1952C147.189 55.413 147.171 55.6126 147.134 55.7941C147.08 56.1208 147.026 56.3658 146.971 56.5291H140.587C140.551 56.8195 140.533 57.0282 140.533 57.1552C140.533 57.9356 140.769 58.5345 141.241 58.9519C141.713 59.3693 142.307 59.578 143.024 59.578C143.741 59.578 144.376 59.4011 144.929 59.0472C145.492 58.6842 145.891 58.1942 146.127 57.5772H146.767C146.477 58.3303 145.991 58.9429 145.31 59.4147C144.639 59.8775 143.845 60.1089 142.929 60.1089C142.021 60.1089 141.291 59.8457 140.737 59.3194C140.193 58.7931 139.92 58.0763 139.92 57.1688C139.92 56.8875 139.948 56.5972 140.002 56.2977C140.138 55.5264 140.41 54.8549 140.819 54.2833C141.227 53.7116 141.726 53.276 142.316 52.9766C142.915 52.668 143.564 52.5138 144.262 52.5138ZM146.481 56.0527C146.545 55.7896 146.576 55.5219 146.576 55.2497C146.576 54.5328 146.345 53.9838 145.882 53.6027C145.428 53.2216 144.852 53.031 144.154 53.031C143.636 53.031 143.137 53.1444 142.656 53.3713C142.175 53.5981 141.758 53.9384 141.404 54.3921C141.05 54.8459 140.805 55.3994 140.669 56.0527H146.481ZM149.884 54.2016C150.174 53.639 150.574 53.208 151.082 52.9085C151.599 52.6091 152.211 52.4593 152.919 52.4593L152.797 53.0991H152.606C151.88 53.0991 151.24 53.3078 150.687 53.7252C150.133 54.1335 149.775 54.805 149.612 55.7397L148.849 60H148.237L149.557 52.6091H150.17L149.884 54.2016ZM154.098 52.6091L155.691 59.2378L159.434 52.6091H160.087L153.867 63.4709H153.2L155.201 59.9864L153.431 52.6091H154.098ZM160.106 56.2024C160.242 55.4402 160.51 54.7642 160.909 54.1744C161.318 53.5845 161.812 53.1308 162.393 52.8132C162.983 52.4956 163.6 52.3368 164.244 52.3368C164.734 52.3368 165.183 52.4457 165.592 52.6635C166 52.8722 166.304 53.1535 166.504 53.5074L167.143 49.9276H169.063L167.279 60H165.36L165.564 58.8839C165.265 59.2559 164.879 59.5554 164.407 59.7822C163.945 60.0091 163.432 60.1225 162.869 60.1225C162.316 60.1225 161.821 60 161.386 59.755C160.959 59.5009 160.624 59.147 160.379 58.6933C160.143 58.2305 160.025 57.6952 160.025 57.0872C160.025 56.8059 160.052 56.511 160.106 56.2024ZM166.027 56.2297C166.064 55.9937 166.082 55.8213 166.082 55.7124C166.082 55.1771 165.923 54.7596 165.605 54.4602C165.297 54.1607 164.907 54.011 164.435 54.011C164.081 54.011 163.736 54.0972 163.4 54.2696C163.074 54.442 162.788 54.6961 162.543 55.0319C162.298 55.3585 162.134 55.7487 162.053 56.2024C162.025 56.3749 162.012 56.5382 162.012 56.6925C162.012 57.2369 162.166 57.6679 162.475 57.9855C162.783 58.294 163.173 58.4483 163.645 58.4483C163.999 58.4483 164.344 58.3621 164.68 58.1897C165.015 58.0082 165.301 57.7496 165.537 57.4139C165.782 57.0781 165.946 56.6834 166.027 56.2297ZM169.331 56.2024C169.467 55.4402 169.735 54.7642 170.134 54.1744C170.543 53.5845 171.037 53.1308 171.618 52.8132C172.199 52.4956 172.811 52.3368 173.455 52.3368C174.018 52.3368 174.49 52.4503 174.871 52.6771C175.261 52.904 175.547 53.1898 175.728 53.5346L175.919 52.4593H177.838L176.504 60H174.585L174.789 58.8975C174.49 59.2514 174.1 59.5463 173.619 59.7822C173.147 60.0091 172.63 60.1225 172.067 60.1225C171.513 60.1225 171.023 60 170.597 59.755C170.171 59.5009 169.839 59.147 169.603 58.6933C169.367 58.2305 169.249 57.6952 169.249 57.0872C169.249 56.8059 169.277 56.511 169.331 56.2024ZM175.252 56.2297C175.288 55.9937 175.307 55.8213 175.307 55.7124C175.307 55.1771 175.148 54.7596 174.83 54.4602C174.522 54.1607 174.131 54.011 173.66 54.011C173.306 54.011 172.961 54.0972 172.625 54.2696C172.298 54.442 172.013 54.6961 171.768 55.0319C171.523 55.3585 171.359 55.7487 171.278 56.2024C171.25 56.3749 171.237 56.5382 171.237 56.6925C171.237 57.2369 171.391 57.6679 171.7 57.9855C172.008 58.294 172.398 58.4483 172.87 58.4483C173.224 58.4483 173.569 58.3621 173.905 58.1897C174.24 58.0082 174.526 57.7496 174.762 57.4139C175.007 57.0781 175.17 56.6834 175.252 56.2297ZM180.965 52.4593L181.972 57.7269L184.899 52.4593H186.927L180.298 63.5662H178.27L180.557 59.8094L178.828 52.4593H180.965ZM198.511 52.9493C198.42 53.5029 198.193 53.9657 197.83 54.3377C197.476 54.7007 197.041 54.9638 196.524 55.1272C196.959 55.2179 197.308 55.4357 197.572 55.7805C197.844 56.1253 197.98 56.5337 197.98 57.0055C197.98 57.1326 197.966 57.2732 197.939 57.4275C197.812 58.1988 197.422 58.8204 196.769 59.2922C196.124 59.7641 195.317 60 194.346 60H190.249L191.937 50.4993H195.857C196.719 50.4993 197.381 50.6808 197.844 51.0438C198.316 51.4067 198.552 51.8922 198.552 52.5002C198.552 52.6454 198.538 52.7951 198.511 52.9493ZM196.524 53.2352C196.533 53.1807 196.537 53.0991 196.537 52.9902C196.537 52.6726 196.433 52.4276 196.224 52.2552C196.015 52.0828 195.711 51.9966 195.312 51.9966H193.584L193.148 54.4466H194.89C195.335 54.4466 195.702 54.3422 195.993 54.1335C196.283 53.9157 196.46 53.6163 196.524 53.2352ZM196.047 57.1961C196.065 57.069 196.074 56.9783 196.074 56.9238C196.074 56.5972 195.956 56.3431 195.721 56.1616C195.494 55.9711 195.176 55.8758 194.768 55.8758H192.889L192.44 58.4891H194.359C194.822 58.4891 195.203 58.3757 195.503 58.1489C195.802 57.922 195.984 57.6044 196.047 57.1961ZM207.448 52.4593L206.114 60H204.208L204.372 59.0472C204.081 59.3739 203.723 59.6325 203.296 59.8231C202.87 60.0045 202.421 60.0953 201.949 60.0953C201.168 60.0953 200.551 59.8866 200.098 59.4692C199.644 59.0427 199.417 58.4392 199.417 57.6589C199.417 57.3685 199.44 57.1099 199.485 56.883L200.261 52.4593H202.167L201.432 56.6108C201.404 56.7741 201.391 56.9329 201.391 57.0872C201.391 57.5318 201.513 57.8766 201.758 58.1216C202.003 58.3576 202.348 58.4755 202.793 58.4755C203.31 58.4755 203.75 58.3167 204.113 57.9991C204.476 57.6725 204.707 57.2097 204.807 56.6108L205.542 52.4593H207.448ZM210.948 60.1225C210.394 60.1225 209.89 60.0318 209.437 59.8503C208.992 59.6597 208.638 59.4011 208.375 59.0744C208.121 58.7387 207.994 58.3576 207.994 57.9311C207.994 57.8676 208.003 57.7632 208.021 57.618H209.872C209.845 57.9356 209.94 58.1942 210.158 58.3939C210.376 58.5844 210.684 58.6797 211.084 58.6797C211.447 58.6797 211.746 58.6162 211.982 58.4891C212.227 58.353 212.35 58.1579 212.35 57.9039C212.35 57.677 212.236 57.4955 212.009 57.3594C211.792 57.2233 211.442 57.069 210.961 56.8966C210.48 56.7242 210.081 56.5563 209.763 56.393C209.446 56.2297 209.174 56.0028 208.947 55.7124C208.72 55.4221 208.606 55.0546 208.606 54.6099C208.606 54.1653 208.734 53.7706 208.988 53.4257C209.251 53.0809 209.614 52.8132 210.076 52.6227C210.539 52.4321 211.07 52.3368 211.669 52.3368C212.241 52.3368 212.744 52.4321 213.18 52.6227C213.615 52.8132 213.951 53.0809 214.187 53.4257C214.432 53.7615 214.555 54.1471 214.555 54.5827C214.555 54.6916 214.55 54.7733 214.541 54.8277H212.772C212.799 54.5101 212.708 54.256 212.499 54.0655C212.291 53.8749 211.987 53.7796 211.587 53.7796C211.261 53.7796 210.993 53.8522 210.784 53.9974C210.576 54.1335 210.471 54.3195 210.471 54.5555C210.471 54.7914 210.589 54.9865 210.825 55.1408C211.061 55.286 211.424 55.4493 211.914 55.6308C212.404 55.8213 212.794 55.9983 213.085 56.1616C213.384 56.3159 213.643 56.5337 213.86 56.815C214.078 57.0872 214.187 57.432 214.187 57.8494C214.187 58.3122 214.046 58.716 213.765 59.0608C213.484 59.4056 213.098 59.6688 212.608 59.8503C212.118 60.0318 211.565 60.1225 210.948 60.1225ZM216.296 58.5708L214.417 62.0553H213.941L215.588 58.5708H216.296ZM225.886 50.4449C226.811 50.4449 227.501 50.64 227.955 51.0301C228.408 51.4113 228.635 51.933 228.635 52.5954C228.635 52.8042 228.617 52.9993 228.581 53.1807C228.445 53.9157 228.127 54.5237 227.628 55.0047C227.138 55.4765 226.484 55.7669 225.668 55.8758L227.451 60H226.716L224.987 55.9302H224.933H222.905L222.17 60H221.557L223.259 50.4449H225.886ZM227.941 53.1807C227.977 53.0083 227.995 52.8223 227.995 52.6227C227.995 51.5247 227.26 50.9757 225.79 50.9757H223.776L222.986 55.413H225.028C225.872 55.413 226.539 55.2088 227.029 54.8005C227.519 54.3921 227.823 53.8522 227.941 53.1807ZM233.72 52.5138C234.346 52.5138 234.877 52.6363 235.312 52.8813C235.757 53.1172 236.088 53.4393 236.306 53.8477C236.533 54.247 236.646 54.6961 236.646 55.1952C236.646 55.413 236.628 55.6126 236.592 55.7941C236.537 56.1208 236.483 56.3658 236.428 56.5291H230.044C230.008 56.8195 229.99 57.0282 229.99 57.1552C229.99 57.9356 230.226 58.5345 230.698 58.9519C231.17 59.3693 231.764 59.578 232.481 59.578C233.198 59.578 233.833 59.4011 234.387 59.0472C234.949 58.6842 235.348 58.1942 235.584 57.5772H236.224C235.934 58.3303 235.448 58.9429 234.768 59.4147C234.096 59.8775 233.302 60.1089 232.386 60.1089C231.478 60.1089 230.748 59.8457 230.194 59.3194C229.65 58.7931 229.378 58.0763 229.378 57.1688C229.378 56.8875 229.405 56.5972 229.459 56.2977C229.595 55.5264 229.868 54.8549 230.276 54.2833C230.684 53.7116 231.183 53.276 231.773 52.9766C232.372 52.668 233.021 52.5138 233.72 52.5138ZM235.938 56.0527C236.002 55.7896 236.033 55.5219 236.033 55.2497C236.033 54.5328 235.802 53.9838 235.339 53.6027C234.886 53.2216 234.309 53.031 233.611 53.031C233.093 53.031 232.594 53.1444 232.113 53.3713C231.632 53.5981 231.215 53.9384 230.861 54.3921C230.507 54.8459 230.262 55.3994 230.126 56.0527H235.938ZM239.6 50.9621C239.473 50.9621 239.368 50.9258 239.287 50.8532C239.205 50.7715 239.164 50.6672 239.164 50.5401C239.164 50.3587 239.228 50.2089 239.355 50.091C239.482 49.9639 239.627 49.9004 239.79 49.9004C239.917 49.9004 240.022 49.9412 240.103 50.0229C240.194 50.1046 240.239 50.2089 240.239 50.336C240.239 50.5175 240.171 50.6672 240.035 50.7851C239.908 50.9031 239.763 50.9621 239.6 50.9621ZM239.627 52.6091L238.307 60H237.694L239.014 52.6091H239.627ZM250.624 52.4593C251.35 52.4593 251.931 52.6635 252.367 53.0718C252.802 53.4711 253.02 54.0655 253.02 54.8549C253.02 55.0999 252.993 55.3722 252.938 55.6716L252.162 60H251.563L252.326 55.7124C252.371 55.4856 252.394 55.2315 252.394 54.9502C252.394 54.315 252.221 53.8295 251.877 53.4938C251.541 53.158 251.064 52.9902 250.447 52.9902C249.685 52.9902 249.023 53.2533 248.46 53.7796C247.907 54.3059 247.544 55.0682 247.371 56.0663V56.0527L246.663 60H246.064L246.827 55.7124C246.872 55.4856 246.895 55.2315 246.895 54.9502C246.895 54.315 246.722 53.8295 246.378 53.4938C246.042 53.158 245.565 52.9902 244.948 52.9902C244.186 52.9902 243.524 53.2533 242.961 53.7796C242.408 54.3059 242.045 55.0682 241.872 56.0663V56.0391L241.164 60H240.552L241.872 52.6091H242.485L242.199 54.188C242.516 53.6163 242.934 53.1853 243.451 52.8949C243.968 52.6045 244.526 52.4593 245.125 52.4593C245.797 52.4593 246.341 52.6317 246.759 52.9766C247.185 53.3214 247.43 53.8341 247.494 54.5146C247.793 53.8432 248.224 53.335 248.787 52.9902C249.349 52.6363 249.962 52.4593 250.624 52.4593ZM254.608 56.2977C254.744 55.5355 255.012 54.8685 255.411 54.2969C255.82 53.7252 256.323 53.2851 256.922 52.9766C257.521 52.668 258.165 52.5138 258.855 52.5138C259.626 52.5138 260.248 52.7043 260.72 53.0855C261.201 53.4666 261.5 53.952 261.618 54.5419L261.958 52.6091H262.571L261.251 60H260.652L260.992 58.0536C260.674 58.6525 260.207 59.147 259.59 59.5372C258.973 59.9183 258.274 60.1089 257.494 60.1089C256.595 60.1089 255.874 59.8457 255.33 59.3194C254.794 58.7841 254.527 58.0627 254.527 57.1552C254.527 56.883 254.554 56.5972 254.608 56.2977ZM261.305 56.2977C261.35 56.0255 261.373 55.785 261.373 55.5763C261.373 54.805 261.142 54.1925 260.679 53.7388C260.216 53.276 259.604 53.0446 258.841 53.0446C258.242 53.0446 257.689 53.1762 257.181 53.4393C256.682 53.6934 256.26 54.0655 255.915 54.5555C255.579 55.0455 255.352 55.6262 255.234 56.2977C255.189 56.5972 255.166 56.8513 255.166 57.06C255.166 57.8494 255.389 58.4665 255.833 58.9111C256.287 59.3467 256.904 59.5644 257.684 59.5644C258.256 59.5644 258.796 59.4329 259.304 59.1697C259.821 58.8975 260.252 58.5164 260.597 58.0264C260.951 57.5273 261.187 56.9511 261.305 56.2977ZM268.013 52.5138C268.785 52.5138 269.411 52.7043 269.892 53.0855C270.373 53.4575 270.668 53.9384 270.776 54.5283L271.117 52.6091H271.729L270.382 60.2314C270.255 60.912 269.996 61.5063 269.606 62.0145C269.225 62.5317 268.753 62.9264 268.19 63.1987C267.637 63.48 267.047 63.6206 266.421 63.6206C265.495 63.6206 264.765 63.3983 264.229 62.9537C263.703 62.509 263.417 61.9101 263.372 61.157H263.984C264.057 61.7468 264.311 62.2141 264.747 62.5589C265.182 62.9128 265.772 63.0898 266.516 63.0898C267.033 63.0898 267.519 62.9718 267.973 62.7359C268.435 62.509 268.825 62.1778 269.143 61.7422C269.461 61.3158 269.669 60.8121 269.769 60.2314L270.15 58.0672C269.833 58.657 269.365 59.147 268.748 59.5372C268.131 59.9183 267.437 60.1089 266.666 60.1089C265.758 60.1089 265.032 59.8457 264.488 59.3194C263.953 58.7841 263.685 58.0627 263.685 57.1552C263.685 56.883 263.712 56.5972 263.767 56.2977C263.903 55.5355 264.17 54.8685 264.57 54.2969C264.978 53.7252 265.482 53.2851 266.081 52.9766C266.679 52.668 267.324 52.5138 268.013 52.5138ZM270.463 56.2977C270.509 56.0255 270.531 55.785 270.531 55.5763C270.531 54.805 270.3 54.1925 269.837 53.7388C269.374 53.276 268.762 53.0446 268 53.0446C267.401 53.0446 266.847 53.1762 266.339 53.4393C265.84 53.6934 265.418 54.0655 265.073 54.5555C264.738 55.0455 264.511 55.6262 264.393 56.2977C264.347 56.5972 264.325 56.8513 264.325 57.06C264.325 57.8494 264.547 58.4665 264.992 58.9111C265.445 59.3467 266.062 59.5644 266.843 59.5644C267.414 59.5644 267.954 59.4329 268.463 59.1697C268.98 58.8975 269.411 58.5164 269.756 58.0264C270.109 57.5273 270.345 56.9511 270.463 56.2977ZM274.558 50.9621C274.431 50.9621 274.327 50.9258 274.245 50.8532C274.164 50.7715 274.123 50.6672 274.123 50.5401C274.123 50.3587 274.186 50.2089 274.313 50.091C274.44 49.9639 274.586 49.9004 274.749 49.9004C274.876 49.9004 274.98 49.9412 275.062 50.0229C275.153 50.1046 275.198 50.2089 275.198 50.336C275.198 50.5175 275.13 50.6672 274.994 50.7851C274.867 50.9031 274.722 50.9621 274.558 50.9621ZM274.586 52.6091L273.265 60H272.653L273.973 52.6091H274.586ZM280.179 52.4593C280.932 52.4593 281.536 52.6635 281.99 53.0718C282.443 53.4711 282.67 54.0655 282.67 54.8549C282.67 55.0999 282.643 55.3722 282.589 55.6716L281.826 60H281.227L281.99 55.7124C282.035 55.4221 282.058 55.1816 282.058 54.991C282.058 54.3377 281.876 53.8432 281.513 53.5074C281.15 53.1626 280.642 52.9902 279.989 52.9902C279.227 52.9902 278.569 53.2261 278.015 53.698C277.462 54.1698 277.08 54.864 276.872 55.7805L276.123 60H275.511L276.831 52.6091H277.443L277.171 54.1607C277.48 53.6072 277.897 53.1853 278.423 52.8949C278.959 52.6045 279.544 52.4593 280.179 52.4593ZM288.524 52.5138C289.15 52.5138 289.681 52.6363 290.116 52.8813C290.561 53.1172 290.892 53.4393 291.11 53.8477C291.337 54.247 291.45 54.6961 291.45 55.1952C291.45 55.413 291.432 55.6126 291.396 55.7941C291.341 56.1208 291.287 56.3658 291.232 56.5291H284.849C284.812 56.8195 284.794 57.0282 284.794 57.1552C284.794 57.9356 285.03 58.5345 285.502 58.9519C285.974 59.3693 286.568 59.578 287.285 59.578C288.002 59.578 288.637 59.4011 289.191 59.0472C289.753 58.6842 290.152 58.1942 290.388 57.5772H291.028C290.738 58.3303 290.252 58.9429 289.572 59.4147C288.9 59.8775 288.106 60.1089 287.19 60.1089C286.282 60.1089 285.552 59.8457 284.998 59.3194C284.454 58.7931 284.182 58.0763 284.182 57.1688C284.182 56.8875 284.209 56.5972 284.263 56.2977C284.399 55.5264 284.672 54.8549 285.08 54.2833C285.488 53.7116 285.987 53.276 286.577 52.9766C287.176 52.668 287.825 52.5138 288.524 52.5138ZM290.742 56.0527C290.806 55.7896 290.838 55.5219 290.838 55.2497C290.838 54.5328 290.606 53.9838 290.143 53.6027C289.69 53.2216 289.113 53.031 288.415 53.031C287.898 53.031 287.398 53.1444 286.918 53.3713C286.437 53.5981 286.019 53.9384 285.665 54.3921C285.311 54.8459 285.066 55.3994 284.93 56.0527H290.742ZM292.77 56.2977C292.907 55.5355 293.174 54.8685 293.573 54.2969C293.982 53.7252 294.485 53.2851 295.084 52.9766C295.683 52.668 296.327 52.5138 297.017 52.5138C297.77 52.5138 298.387 52.7043 298.868 53.0855C299.358 53.4575 299.662 53.943 299.78 54.5419L300.597 49.9276H301.196L299.413 60H298.814L299.168 58.04C298.85 58.6479 298.383 59.147 297.766 59.5372C297.149 59.9183 296.45 60.1089 295.67 60.1089C294.762 60.1089 294.036 59.8457 293.492 59.3194C292.956 58.7841 292.689 58.0627 292.689 57.1552C292.689 56.883 292.716 56.5972 292.77 56.2977ZM299.467 56.2977C299.513 56.0255 299.535 55.785 299.535 55.5763C299.535 54.805 299.304 54.1925 298.841 53.7388C298.378 53.276 297.766 53.0446 297.004 53.0446C296.405 53.0446 295.851 53.1762 295.343 53.4393C294.844 53.6934 294.422 54.0655 294.077 54.5555C293.741 55.0455 293.514 55.6262 293.397 56.2977C293.351 56.5972 293.328 56.8513 293.328 57.06C293.328 57.8494 293.551 58.4665 293.995 58.9111C294.449 59.3467 295.066 59.5644 295.847 59.5644C296.418 59.5644 296.958 59.4329 297.466 59.1697C297.984 58.8975 298.415 58.5164 298.759 58.0264C299.113 57.5273 299.349 56.9511 299.467 56.2977ZM301.548 60.0408C301.421 60.0408 301.316 60.0045 301.235 59.9319C301.153 59.8503 301.112 59.7459 301.112 59.6189C301.112 59.4374 301.176 59.2877 301.303 59.1697C301.43 59.0427 301.579 58.9792 301.752 58.9792C301.879 58.9792 301.983 59.02 302.065 59.1017C302.147 59.1742 302.187 59.2741 302.187 59.4011C302.187 59.5826 302.124 59.7368 301.997 59.8639C301.87 59.9819 301.72 60.0408 301.548 60.0408Z" fill="#A1B7CD"/>
</g>
</g>
<defs>
<clipPath id="clip0_364_28115">
<rect width="393" height="169" fill="white"/>
</clipPath>
<clipPath id="clip1_364_28115">
<rect width="393" height="186" fill="white" transform="translate(0 4)"/>
</clipPath>
</defs>
</svg>
