<svg width="393" height="186" viewBox="0 0 393 186" fill="none" xmlns="http://www.w3.org/2000/svg">
<g clip-path="url(#clip0_827_18529)">
<circle cx="153.126" cy="98.0314" r="16.0984" transform="rotate(-0.251843 153.126 98.0314)" fill="#BEE0FF"/>
<line x1="155.695" y1="77.8964" x2="157.119" y2="70.0994" stroke="#BEE0FF" stroke-width="1.9307" stroke-linecap="round"/>
<line x1="162.187" y1="80.1063" x2="164.32" y2="77.0169" stroke="#BEE0FF" stroke-width="1.9307" stroke-linecap="round"/>
<line x1="167.352" y1="84.9912" x2="173.71" y2="80.5264" stroke="#BEE0FF" stroke-width="1.9307" stroke-linecap="round"/>
<line x1="170.473" y1="91.3611" x2="174.896" y2="90.5058" stroke="#BEE0FF" stroke-width="1.9307" stroke-linecap="round"/>
<line x1="148.505" y1="78.355" x2="147.807" y2="74.7866" stroke="#BEE0FF" stroke-width="1.9307" stroke-linecap="round"/>
<line x1="142.085" y1="81.7565" x2="137.715" y2="75.3322" stroke="#BEE0FF" stroke-width="1.9307" stroke-linecap="round"/>
<line x1="137.701" y1="87.2238" x2="133.584" y2="84.7786" stroke="#BEE0FF" stroke-width="1.9307" stroke-linecap="round"/>
<path d="M393.488 78.4688L305.637 130.503L354.979 147.444L393.488 139.864V78.4688Z" fill="#DFEFFF"/>
<path d="M201.411 80.9931L163.783 99.8631L92.702 76C92.702 76 33.532 102.455 -3.51172 119.443V178.245L368.465 179.882L375.684 142.145L201.411 80.9931Z" fill="#DFEFFF"/>
<path d="M23.724 101.846C22.5345 100.935 20.9837 100.647 19.488 100.565C19.2724 100.554 19.0533 100.546 18.8321 100.54C19.0939 99.4169 18.9014 98.2744 17.9008 97.277C17.1179 96.4966 16.0071 96.465 14.8518 96.7609C14.8113 96.6578 14.7636 96.5571 14.7077 96.46C14.1301 95.4577 12.8766 95.05 11.7206 95.0052C9.53838 94.9202 7.33911 95.8806 5.91774 97.5385C5.23551 98.3345 4.7162 99.3276 4.72651 100.376C4.73434 101.196 4.94029 101.788 5.28318 102.201C4.73042 102.635 4.19582 103.101 3.7953 103.677C3.34997 104.317 3.08318 105.117 3.22723 105.884C3.33928 106.48 3.67507 106.97 4.1325 107.353C2.81429 109.061 2.08224 111.328 2.72712 113.373C3.13119 114.655 4.03396 115.733 5.08718 116.568C5.34471 116.772 5.61148 116.962 5.88644 117.138C5.82775 117.196 5.76905 117.254 5.71428 117.314C5.13022 117.955 4.78022 118.755 4.96945 119.522C5.3038 120.877 7.14952 121.681 8.95539 121.932C8.8871 122.014 8.82201 122.097 8.76261 122.182C8.16575 123.036 8.08893 124.075 8.82878 124.845C9.75431 125.807 11.6854 126.131 13.4514 126.099C16.7857 126.038 20.1012 124.932 22.1977 123.181C23.2043 122.34 23.9534 121.313 23.8919 120.267C23.8225 119.085 23.147 118.405 22.1344 118.07C24.6164 116.28 27.1059 113.33 24.4033 111.066C25.1421 109.777 25.6785 108.371 25.7785 106.896C25.9072 105.007 25.2275 102.997 23.724 101.846Z" fill="#AFD9FF"/>
<path d="M10.3786 114.682L14.7508 117.29C14.8294 117.337 14.929 117.281 14.9305 117.19L15.0087 112.662C15.0094 112.624 14.9916 112.588 14.9607 112.565L12.1727 110.489C12.1425 110.466 12.1247 110.431 12.1247 110.393C12.1247 110.301 12.225 110.244 12.3043 110.291L14.8451 111.804C14.9237 111.85 15.0233 111.795 15.0247 111.704L15.0791 108.554C15.0802 108.489 15.1332 108.438 15.1979 108.438H15.247C15.3107 108.438 15.363 108.487 15.3658 108.551L15.6017 113.665C15.6056 113.753 15.7005 113.806 15.7777 113.764L19.9227 111.49C20.002 111.446 20.0987 111.504 20.0987 111.594V111.602C20.0987 111.641 20.0802 111.676 20.0493 111.699L15.7091 114.817C15.6764 114.841 15.6578 114.879 15.6596 114.919L16.6737 136.923C16.6755 136.962 16.6588 136.998 16.6282 137.022C16.4802 137.138 16.101 137.39 15.5707 137.37C15.103 137.351 14.7746 137.131 14.6334 137.02C14.6046 136.997 14.589 136.962 14.5897 136.925C14.6964 130.734 14.8035 124.543 14.9102 118.352C14.9109 118.312 14.8913 118.274 14.8582 118.251L10.2502 115.103C10.2178 115.081 10.1982 115.044 10.1982 115.005V114.785C10.199 114.692 10.2993 114.635 10.3786 114.682Z" fill="#5C9CD6"/>
<path d="M14.6045 135.98L14.6077 135.79C15.2807 135.796 15.9551 135.726 16.6103 135.582L16.6192 135.774C15.9832 135.911 15.3301 135.982 14.677 135.982C14.6529 135.982 14.6287 135.98 14.6045 135.98Z" fill="#477EB2"/>
<path d="M14.626 134.688L14.6292 134.494C15.2723 134.547 15.9193 134.53 16.5567 134.438L16.5656 134.627C16.1537 134.686 15.7379 134.717 15.3217 134.717C15.0898 134.717 14.8579 134.707 14.626 134.688Z" fill="#477EB2"/>
<path d="M16.4915 132.993L16.5007 133.193L14.6621 132.666L14.6653 132.469L16.4915 132.993Z" fill="#477EB2"/>
<path d="M14.6975 130.547C15.2435 130.771 15.8158 130.935 16.4002 131.036L16.4091 131.229C15.8215 131.131 15.2453 130.971 14.6943 130.75L14.6975 130.547Z" fill="#477EB2"/>
<path d="M14.7077 129.985C15.2579 129.979 15.8075 129.915 16.3432 129.793L16.352 129.986C15.8117 130.107 15.2583 130.17 14.7041 130.176L14.7077 129.985Z" fill="#477EB2"/>
<path d="M16.2478 127.699L16.2567 127.89C15.917 127.965 15.5702 128.005 15.2223 128.005C15.0622 128.005 14.9025 127.994 14.7432 127.978L14.7464 127.785C15.2479 127.837 15.7565 127.811 16.2478 127.699Z" fill="#477EB2"/>
<path d="M16.2131 126.961L16.2219 127.152C15.9473 127.181 15.6713 127.197 15.3953 127.197C15.1822 127.197 14.9692 127.186 14.7568 127.168L14.76 126.979C15.2434 127.019 15.7304 127.013 16.2131 126.961Z" fill="#477EB2"/>
<path d="M14.7877 125.383C15.258 125.484 15.7065 125.554 16.1497 125.582L16.1586 125.774C15.709 125.747 15.2573 125.678 14.7842 125.578L14.7877 125.383Z" fill="#477EB2"/>
<path d="M14.8089 124.055C15.2325 124.126 15.6583 124.186 16.0858 124.229L16.0947 124.419C15.6632 124.376 15.2336 124.318 14.8057 124.246L14.8089 124.055Z" fill="#477EB2"/>
<path d="M16.0461 123.34L16.0549 123.531C16.0496 123.531 16.0443 123.531 16.0389 123.531C15.632 123.531 15.2251 123.51 14.8203 123.467L14.8235 123.273C15.2297 123.317 15.6377 123.34 16.0461 123.34Z" fill="#477EB2"/>
<path d="M16.0006 122.356C15.6114 122.307 15.2248 122.239 14.8428 122.151L14.8463 121.953C15.2241 122.042 15.6064 122.112 15.9917 122.162L16.0006 122.356Z" fill="#477EB2"/>
<path d="M14.8809 119.953L14.8844 119.754L14.9047 119.76C15.2223 119.862 15.5546 119.968 15.895 120.057L15.9042 120.255C15.5517 120.166 15.2088 120.058 14.8809 119.953Z" fill="#477EB2"/>
<path d="M15.8467 119.033C15.5298 118.991 15.2139 118.943 14.8984 118.888L14.9017 118.695C15.2129 118.749 15.5248 118.797 15.8375 118.839L15.8467 119.033Z" fill="#477EB2"/>
<path d="M14.4378 117.831L14.2539 117.782L14.4325 117.102L14.6025 117.203L14.4378 117.831Z" fill="#477EB2"/>
<path d="M13.7815 116.711C13.6869 116.912 13.5763 117.106 13.4518 117.289L13.2949 117.182C13.4173 117.001 13.5254 116.811 13.6175 116.613L13.7815 116.711Z" fill="#477EB2"/>
<path d="M12.0169 116.119C12.1076 116.017 12.1958 115.917 12.2648 115.809L12.5689 115.99C12.5533 116.205 12.5237 116.419 12.4867 116.632L12.3153 116.515C12.3437 116.337 12.3669 116.158 12.38 115.978C12.3124 116.073 12.2356 116.159 12.1598 116.245C12.1303 116.279 12.1015 116.314 12.072 116.348L11.9141 116.24C11.9482 116.2 11.9824 116.159 12.0169 116.119Z" fill="#477EB2"/>
<path d="M11.216 115.184L11.4081 115.298C11.4067 115.491 11.395 115.683 11.3775 115.874L11.1982 115.752C11.2125 115.563 11.2178 115.373 11.216 115.184Z" fill="#477EB2"/>
<path d="M10.8206 114.949L11.0034 115.058C10.9888 115.232 10.9682 115.406 10.9415 115.578L10.7676 115.459C10.7911 115.29 10.8081 115.12 10.8206 114.949Z" fill="#477EB2"/>
<path d="M15.7924 117.848L15.8013 118.037C15.4499 118.116 15.0903 118.161 14.7314 118.165L14.5098 118.013L14.5112 117.974C14.938 117.989 15.3723 117.944 15.7924 117.848Z" fill="#477EB2"/>
<path d="M15.7356 116.623C15.4603 116.566 15.1935 116.471 14.9424 116.345L14.9459 116.133C15.191 116.266 15.4546 116.364 15.7263 116.426L15.7356 116.623Z" fill="#477EB2"/>
<path d="M14.959 115.388L14.9629 115.168C15.1841 115.313 15.4285 115.42 15.6835 115.489L15.6928 115.688C15.4353 115.625 15.1873 115.524 14.959 115.388Z" fill="#477EB2"/>
<path d="M16.2277 114.445L16.0655 114.562C15.9617 114.28 15.9186 113.977 15.9382 113.677L16.1395 113.566C16.1004 113.861 16.1324 114.164 16.2277 114.445Z" fill="#477EB2"/>
<path d="M17.4714 113.549L17.317 113.66C17.2004 113.476 17.1051 113.279 17.0332 113.073L17.2014 112.98C17.2679 113.18 17.3594 113.371 17.4714 113.549Z" fill="#477EB2"/>
<path d="M18.292 112.96L18.1352 113.072C18.0573 112.913 17.9872 112.749 17.9307 112.581L18.0996 112.488C18.1523 112.65 18.2184 112.807 18.292 112.96Z" fill="#477EB2"/>
<path d="M18.8439 112.564C18.8012 112.423 18.7717 112.278 18.75 112.133L18.9278 112.035C18.9446 112.174 18.9716 112.311 19.009 112.445L18.8439 112.564Z" fill="#477EB2"/>
<path d="M14.9964 113.284C15.1931 113.253 15.3873 113.205 15.5765 113.141L15.5858 113.338C15.3923 113.401 15.1938 113.444 14.9932 113.474L14.9964 113.284Z" fill="#477EB2"/>
<path d="M15.655 114.854L15.656 114.879C15.4419 114.723 15.2135 114.584 14.9756 114.465L14.9791 114.254C15.2683 114.392 15.5451 114.559 15.8015 114.749L15.655 114.854Z" fill="#477EB2"/>
<path d="M14.4199 112.164L14.438 111.562L14.6255 111.674L14.6063 112.303L14.4199 112.164Z" fill="#477EB2"/>
<path d="M13.9764 111.836L13.8174 111.717L13.9753 111.289L14.1414 111.388L13.9764 111.836Z" fill="#477EB2"/>
<path d="M12.6686 110.861L12.5117 110.745C12.5551 110.66 12.6017 110.578 12.6497 110.5L12.8137 110.598C12.7607 110.684 12.7127 110.772 12.6686 110.861Z" fill="#477EB2"/>
<path d="M13.2498 111.291L13.0464 111.139C13.0361 111.002 13.0329 110.864 13.0368 110.727L13.2221 110.837C13.2221 110.989 13.2317 111.14 13.2498 111.291Z" fill="#477EB2"/>
<path d="M15.0654 111.137L15.2155 111.02C15.2888 111.113 15.3838 111.19 15.4894 111.247L15.4994 111.462C15.3301 111.391 15.1775 111.281 15.0654 111.137Z" fill="#477EB2"/>
<path d="M15.4356 110.09L15.4453 110.299C15.3115 110.248 15.1803 110.191 15.0508 110.13L15.0543 109.922C15.1792 109.983 15.3069 110.039 15.4356 110.09Z" fill="#477EB2"/>
<path d="M15.3896 109.079L15.3992 109.29C15.2871 109.24 15.1772 109.186 15.0684 109.13L15.0719 108.918C15.1769 108.974 15.2821 109.029 15.3896 109.079Z" fill="#477EB2"/>
<path d="M5.91197 105.155C6.20151 105.059 6.52022 105.086 6.81402 105.169C7.29884 105.306 7.7584 105.616 7.95901 106.078C8.3549 106.989 7.3721 108.016 6.45867 107.585C5.67293 107.214 4.64853 105.574 5.91197 105.155Z" fill="#9DD0FF"/>
<path d="M19.3249 102.553C19.6144 102.457 19.9331 102.484 20.2266 102.567C20.7114 102.704 21.171 103.014 21.3719 103.476C21.7678 104.387 20.785 105.414 19.8716 104.984C19.0859 104.613 18.0618 102.972 19.3249 102.553Z" fill="#9DD0FF"/>
<path d="M11.1434 96.6078C11.433 96.5117 11.7517 96.5391 12.0455 96.622C12.5303 96.7589 12.9898 97.0691 13.1905 97.5311C13.5867 98.4421 12.6035 99.469 11.6901 99.0382C10.9044 98.6676 9.87997 97.0268 11.1434 96.6078Z" fill="#9DD0FF"/>
<path d="M8.64341 117.459C8.93295 117.363 9.25166 117.391 9.54547 117.474C10.0303 117.61 10.4898 117.921 10.6905 118.383C11.0863 119.294 10.1035 120.321 9.19012 119.89C8.40438 119.519 7.37997 117.878 8.64341 117.459Z" fill="#9DD0FF"/>
<path d="M17.0915 122.037C17.3814 121.941 17.6997 121.969 17.9935 122.052C18.4784 122.189 18.9379 122.499 19.1385 122.961C19.5348 123.872 18.5516 124.899 17.6382 124.468C16.8525 124.097 15.8284 122.456 17.0915 122.037Z" fill="#9DD0FF"/>
<path d="M10.834 106.826C11.1584 106.94 11.4397 107.232 11.4497 107.576C11.4582 107.871 11.2566 108.153 10.9845 108.268C10.7124 108.383 10.3865 108.341 10.1354 108.185C9.8843 108.029 9.70573 107.77 9.61716 107.489C9.5759 107.357 9.55278 107.216 9.58657 107.083C9.70253 106.627 10.5018 106.709 10.834 106.826Z" fill="#9DD0FF"/>
<path d="M18.6091 106.432C18.2847 106.546 18.0034 106.837 17.9934 107.181C17.9849 107.477 18.1866 107.758 18.4587 107.874C18.7308 107.989 19.0566 107.946 19.3077 107.79C19.5589 107.634 19.7374 107.376 19.826 107.094C19.8672 106.963 19.8904 106.821 19.8566 106.688C19.7406 106.232 18.941 106.315 18.6091 106.432Z" fill="#9DD0FF"/>
<path d="M6.7859 113.353C6.46151 113.468 6.18014 113.759 6.17018 114.103C6.16165 114.398 6.36334 114.68 6.63545 114.795C6.90756 114.911 7.23337 114.868 7.48449 114.712C7.73561 114.556 7.91418 114.298 8.00275 114.016C8.04401 113.885 8.06676 113.743 8.03297 113.61C7.91737 113.154 7.11777 113.237 6.7859 113.353Z" fill="#9DD0FF"/>
<path d="M18.4256 119.549C18.1012 119.663 17.8198 119.955 17.8098 120.298C17.8013 120.594 18.003 120.875 18.2751 120.991C18.5472 121.106 18.873 121.064 19.1241 120.908C19.3753 120.752 19.5538 120.493 19.6424 120.212C19.6837 120.08 19.7068 119.939 19.673 119.806C19.557 119.349 18.7578 119.432 18.4256 119.549Z" fill="#9DD0FF"/>
<path d="M10.0746 103.937C9.97504 103.749 9.96971 103.499 10.1095 103.338C10.2294 103.201 10.4392 103.157 10.611 103.219C10.7828 103.281 10.913 103.436 10.9617 103.613C11.0105 103.789 10.9831 103.981 10.9052 104.146C10.8689 104.223 10.8198 104.297 10.7487 104.343C10.5047 104.502 10.1764 104.129 10.0746 103.937Z" fill="#9DD0FF"/>
<path d="M4.28641 114.718C4.18717 114.53 4.18148 114.28 4.32127 114.12C4.44114 113.982 4.65101 113.938 4.82317 114C4.99497 114.062 5.12514 114.218 5.17387 114.394C5.2226 114.57 5.19521 114.762 5.11731 114.927C5.08103 115.004 5.03195 115.078 4.96081 115.124C4.71609 115.283 4.38813 114.91 4.28641 114.718Z" fill="#9DD0FF"/>
<path d="M20.3011 115.031C20.2018 114.843 20.1961 114.592 20.3359 114.432C20.4558 114.294 20.6657 114.251 20.8375 114.312C21.0093 114.374 21.1394 114.53 21.1882 114.706C21.2369 114.882 21.2095 115.074 21.1316 115.24C21.0953 115.317 21.0462 115.391 20.9751 115.437C20.7311 115.596 20.4028 115.223 20.3011 115.031Z" fill="#9DD0FF"/>
<path d="M12.7651 122.507C12.6655 122.319 12.6601 122.069 12.7999 121.909C12.9198 121.771 13.1297 121.728 13.3015 121.789C13.4733 121.851 13.6034 122.007 13.6522 122.183C13.7009 122.359 13.6735 122.551 13.5956 122.716C13.5593 122.793 13.5103 122.867 13.4391 122.913C13.1948 123.072 12.8664 122.699 12.7651 122.507Z" fill="#9DD0FF"/>
<path d="M303.767 121.231C304.502 120.669 305.46 120.49 306.385 120.44C306.518 120.433 306.653 120.428 306.79 120.424C306.628 119.73 306.747 119.024 307.366 118.408C307.849 117.925 308.536 117.906 309.25 118.088C309.275 118.025 309.304 117.963 309.339 117.902C309.696 117.283 310.471 117.031 311.185 117.003C312.533 116.951 313.893 117.544 314.772 118.569C315.193 119.061 315.514 119.675 315.508 120.323C315.503 120.829 315.375 121.195 315.164 121.451C315.506 121.719 315.836 122.007 316.083 122.363C316.359 122.759 316.523 123.253 316.434 123.727C316.365 124.095 316.158 124.398 315.875 124.634C316.69 125.69 317.142 127.091 316.744 128.356C316.494 129.148 315.936 129.814 315.285 130.33C315.126 130.456 314.961 130.573 314.791 130.682C314.827 130.718 314.863 130.754 314.897 130.791C315.258 131.187 315.474 131.681 315.357 132.155C315.151 132.993 314.01 133.489 312.894 133.645C312.936 133.696 312.977 133.747 313.013 133.8C313.382 134.327 313.43 134.97 312.972 135.445C312.4 136.04 311.207 136.24 310.115 136.22C308.055 136.183 306.006 135.499 304.71 134.417C304.088 133.897 303.625 133.263 303.663 132.616C303.705 131.886 304.123 131.465 304.749 131.259C303.215 130.152 301.676 128.329 303.347 126.929C302.89 126.133 302.559 125.264 302.497 124.352C302.417 123.185 302.837 121.943 303.767 121.231Z" fill="#AFD9FF"/>
<path d="M312.016 129.164L309.313 130.776C309.265 130.804 309.203 130.77 309.202 130.714L309.154 127.916C309.154 127.892 309.165 127.87 309.183 127.856L310.906 126.573C310.925 126.559 310.936 126.537 310.936 126.514C310.936 126.457 310.874 126.422 310.825 126.451L309.255 127.386C309.206 127.414 309.145 127.38 309.144 127.324L309.11 125.377C309.109 125.337 309.076 125.305 309.037 125.305H309.006C308.967 125.305 308.934 125.336 308.933 125.375L308.787 128.535C308.785 128.59 308.726 128.623 308.678 128.597L306.117 127.191C306.068 127.164 306.008 127.2 306.008 127.256V127.261C306.008 127.284 306.019 127.307 306.038 127.32L308.721 129.248C308.741 129.263 308.752 129.286 308.751 129.311L308.125 142.91C308.123 142.934 308.134 142.957 308.153 142.971C308.244 143.043 308.478 143.199 308.806 143.186C309.095 143.175 309.298 143.039 309.385 142.97C309.403 142.956 309.413 142.934 309.412 142.912C309.346 139.085 309.28 135.259 309.214 131.432C309.214 131.408 309.226 131.384 309.246 131.37L312.094 129.425C312.114 129.411 312.126 129.388 312.126 129.364V129.228C312.127 129.17 312.065 129.135 312.016 129.164Z" fill="#5C9CD6"/>
<path d="M309.402 142.328L309.399 142.211C308.983 142.214 308.567 142.171 308.162 142.082L308.156 142.2C308.549 142.285 308.953 142.329 309.356 142.329C309.371 142.329 309.386 142.328 309.402 142.328Z" fill="#477EB2"/>
<path d="M309.388 141.53L309.386 141.41C308.988 141.443 308.589 141.432 308.195 141.375L308.189 141.492C308.444 141.529 308.701 141.548 308.958 141.548C309.101 141.548 309.245 141.542 309.388 141.53Z" fill="#477EB2"/>
<path d="M308.236 140.48L308.23 140.604L309.367 140.278L309.365 140.156L308.236 140.48Z" fill="#477EB2"/>
<path d="M309.344 138.969C309.006 139.107 308.653 139.209 308.292 139.271L308.286 139.391C308.649 139.33 309.006 139.231 309.346 139.095L309.344 138.969Z" fill="#477EB2"/>
<path d="M309.338 138.623C308.998 138.619 308.658 138.579 308.327 138.504L308.321 138.623C308.655 138.698 308.997 138.737 309.34 138.74L309.338 138.623Z" fill="#477EB2"/>
<path d="M308.386 137.211L308.381 137.329C308.591 137.375 308.805 137.4 309.02 137.4C309.119 137.4 309.218 137.393 309.316 137.383L309.314 137.264C309.004 137.296 308.69 137.28 308.386 137.211Z" fill="#477EB2"/>
<path d="M308.409 136.754L308.403 136.872C308.573 136.89 308.744 136.9 308.914 136.9C309.046 136.9 309.177 136.893 309.309 136.882L309.306 136.765C309.008 136.79 308.707 136.786 308.409 136.754Z" fill="#477EB2"/>
<path d="M309.29 135.777C308.999 135.84 308.722 135.883 308.448 135.9L308.442 136.019C308.72 136.002 308.999 135.96 309.292 135.898L309.29 135.777Z" fill="#477EB2"/>
<path d="M309.275 134.957C309.013 135.001 308.75 135.038 308.486 135.065L308.48 135.183C308.747 135.156 309.013 135.12 309.277 135.075L309.275 134.957Z" fill="#477EB2"/>
<path d="M308.51 134.513L308.505 134.632C308.508 134.632 308.512 134.632 308.515 134.632C308.766 134.632 309.018 134.618 309.268 134.592L309.266 134.473C309.015 134.499 308.763 134.514 308.51 134.513Z" fill="#477EB2"/>
<path d="M308.539 133.905C308.78 133.875 309.019 133.833 309.255 133.778L309.253 133.656C309.019 133.711 308.783 133.754 308.545 133.785L308.539 133.905Z" fill="#477EB2"/>
<path d="M309.232 132.423L309.23 132.301L309.217 132.305C309.021 132.368 308.816 132.433 308.605 132.488L308.6 132.611C308.817 132.555 309.029 132.489 309.232 132.423Z" fill="#477EB2"/>
<path d="M308.634 131.853C308.829 131.827 309.025 131.797 309.22 131.764L309.218 131.645C309.025 131.678 308.833 131.707 308.639 131.733L308.634 131.853Z" fill="#477EB2"/>
<path d="M309.504 131.111L309.618 131.081L309.508 130.66L309.402 130.723L309.504 131.111Z" fill="#477EB2"/>
<path d="M309.91 130.42C309.968 130.544 310.037 130.663 310.114 130.777L310.211 130.711C310.135 130.599 310.069 130.482 310.012 130.359L309.91 130.42Z" fill="#477EB2"/>
<path d="M311.001 130.051C310.945 129.988 310.891 129.926 310.848 129.859L310.66 129.971C310.67 130.104 310.688 130.237 310.711 130.368L310.817 130.296C310.799 130.186 310.785 130.076 310.777 129.965C310.819 130.023 310.866 130.077 310.913 130.13C310.931 130.15 310.949 130.172 310.967 130.193L311.065 130.127C311.044 130.101 311.023 130.076 311.001 130.051Z" fill="#477EB2"/>
<path d="M311.496 129.473L311.377 129.543C311.378 129.663 311.385 129.781 311.396 129.899L311.506 129.824C311.498 129.707 311.495 129.59 311.496 129.473Z" fill="#477EB2"/>
<path d="M311.741 129.328L311.628 129.395C311.637 129.503 311.65 129.61 311.666 129.717L311.773 129.643C311.759 129.539 311.749 129.433 311.741 129.328Z" fill="#477EB2"/>
<path d="M308.666 131.121L308.661 131.238C308.878 131.287 309.101 131.315 309.322 131.317L309.459 131.224L309.459 131.199C309.194 131.208 308.926 131.181 308.666 131.121Z" fill="#477EB2"/>
<path d="M308.702 130.366C308.872 130.33 309.037 130.272 309.192 130.193L309.19 130.062C309.039 130.145 308.876 130.205 308.708 130.243L308.702 130.366Z" fill="#477EB2"/>
<path d="M309.183 129.601L309.181 129.465C309.044 129.554 308.893 129.62 308.735 129.663L308.729 129.787C308.889 129.747 309.042 129.685 309.183 129.601Z" fill="#477EB2"/>
<path d="M308.398 129.016L308.499 129.088C308.563 128.914 308.589 128.726 308.577 128.541L308.453 128.473C308.477 128.655 308.457 128.842 308.398 129.016Z" fill="#477EB2"/>
<path d="M307.631 128.464L307.726 128.533C307.798 128.419 307.857 128.298 307.902 128.17L307.798 128.113C307.756 128.237 307.7 128.354 307.631 128.464Z" fill="#477EB2"/>
<path d="M307.123 128.1L307.22 128.169C307.268 128.071 307.311 127.97 307.346 127.866L307.241 127.809C307.209 127.908 307.169 128.005 307.123 128.1Z" fill="#477EB2"/>
<path d="M306.783 127.854C306.809 127.767 306.827 127.678 306.841 127.587L306.731 127.527C306.72 127.613 306.704 127.698 306.681 127.781L306.783 127.854Z" fill="#477EB2"/>
<path d="M309.159 128.299C309.038 128.28 308.918 128.251 308.801 128.211L308.795 128.333C308.914 128.372 309.037 128.399 309.161 128.417L309.159 128.299Z" fill="#477EB2"/>
<path d="M308.752 129.269L308.751 129.285C308.883 129.188 309.025 129.103 309.172 129.029L309.169 128.898C308.991 128.984 308.82 129.087 308.661 129.204L308.752 129.269Z" fill="#477EB2"/>
<path d="M309.515 127.61L309.503 127.238L309.388 127.307L309.399 127.696L309.515 127.61Z" fill="#477EB2"/>
<path d="M309.789 127.404L309.887 127.331L309.789 127.066L309.687 127.128L309.789 127.404Z" fill="#477EB2"/>
<path d="M310.598 126.801L310.695 126.729C310.668 126.677 310.639 126.626 310.609 126.578L310.508 126.639C310.541 126.692 310.571 126.746 310.598 126.801Z" fill="#477EB2"/>
<path d="M310.24 127.071L310.366 126.978C310.372 126.893 310.374 126.808 310.372 126.723L310.257 126.791C310.257 126.884 310.251 126.978 310.24 127.071Z" fill="#477EB2"/>
<path d="M309.117 126.975L309.024 126.902C308.979 126.96 308.92 127.008 308.855 127.043L308.849 127.175C308.954 127.132 309.048 127.063 309.117 126.975Z" fill="#477EB2"/>
<path d="M308.888 126.327L308.882 126.456C308.964 126.424 309.046 126.389 309.125 126.351L309.123 126.223C309.047 126.26 308.968 126.295 308.888 126.327Z" fill="#477EB2"/>
<path d="M308.917 125.701L308.911 125.832C308.98 125.801 309.048 125.767 309.116 125.732L309.114 125.602C309.049 125.636 308.984 125.67 308.917 125.701Z" fill="#477EB2"/>
<path d="M314.776 123.276C314.597 123.216 314.4 123.234 314.219 123.285C313.919 123.369 313.635 123.561 313.511 123.847C313.266 124.41 313.874 125.044 314.438 124.778C314.924 124.549 315.557 123.535 314.776 123.276Z" fill="#9DD0FF"/>
<path d="M306.484 121.667C306.305 121.607 306.108 121.624 305.927 121.675C305.627 121.76 305.343 121.952 305.219 122.237C304.974 122.8 305.582 123.435 306.146 123.169C306.632 122.94 307.265 121.925 306.484 121.667Z" fill="#9DD0FF"/>
<path d="M311.543 117.991C311.364 117.931 311.167 117.948 310.985 118C310.686 118.084 310.402 118.276 310.277 118.561C310.033 119.124 310.64 119.759 311.205 119.493C311.69 119.264 312.323 118.25 311.543 117.991Z" fill="#9DD0FF"/>
<path d="M313.088 130.881C312.909 130.822 312.712 130.839 312.53 130.89C312.231 130.975 311.946 131.167 311.822 131.452C311.578 132.015 312.185 132.65 312.75 132.383C313.235 132.154 313.868 131.14 313.088 130.881Z" fill="#9DD0FF"/>
<path d="M307.868 133.713C307.689 133.654 307.492 133.671 307.31 133.722C307.011 133.807 306.727 133.999 306.603 134.284C306.358 134.847 306.965 135.482 307.53 135.215C308.015 134.987 308.649 133.972 307.868 133.713Z" fill="#9DD0FF"/>
<path d="M311.732 124.311C311.532 124.381 311.358 124.561 311.352 124.774C311.346 124.956 311.471 125.131 311.639 125.202C311.807 125.273 312.009 125.247 312.164 125.15C312.319 125.054 312.429 124.894 312.484 124.72C312.51 124.639 312.524 124.551 312.503 124.469C312.432 124.187 311.938 124.238 311.732 124.311Z" fill="#9DD0FF"/>
<path d="M306.929 124.064C307.13 124.135 307.304 124.315 307.31 124.527C307.315 124.71 307.191 124.884 307.023 124.956C306.854 125.027 306.653 125 306.498 124.904C306.342 124.808 306.232 124.648 306.177 124.474C306.152 124.393 306.138 124.305 306.159 124.223C306.23 123.941 306.724 123.992 306.929 124.064Z" fill="#9DD0FF"/>
<path d="M314.236 128.346C314.437 128.416 314.611 128.596 314.617 128.809C314.622 128.991 314.497 129.165 314.329 129.237C314.161 129.308 313.96 129.282 313.805 129.186C313.649 129.09 313.539 128.93 313.484 128.755C313.458 128.674 313.444 128.587 313.465 128.504C313.537 128.222 314.031 128.274 314.236 128.346Z" fill="#9DD0FF"/>
<path d="M307.042 132.174C307.242 132.244 307.416 132.424 307.422 132.637C307.428 132.819 307.303 132.994 307.135 133.065C306.967 133.136 306.765 133.11 306.61 133.013C306.455 132.917 306.344 132.757 306.29 132.583C306.264 132.502 306.25 132.414 306.271 132.332C306.342 132.051 306.836 132.102 307.042 132.174Z" fill="#9DD0FF"/>
<path d="M312.203 122.523C312.264 122.407 312.268 122.252 312.182 122.153C312.108 122.068 311.978 122.041 311.871 122.08C311.765 122.118 311.685 122.214 311.655 122.323C311.624 122.432 311.642 122.551 311.69 122.653C311.712 122.7 311.743 122.746 311.787 122.774C311.937 122.872 312.14 122.642 312.203 122.523Z" fill="#9DD0FF"/>
<path d="M315.78 129.187C315.842 129.071 315.845 128.916 315.759 128.817C315.685 128.732 315.555 128.705 315.448 128.744C315.342 128.782 315.262 128.878 315.232 128.987C315.202 129.096 315.219 129.215 315.267 129.317C315.289 129.364 315.32 129.41 315.364 129.438C315.514 129.537 315.717 129.306 315.78 129.187Z" fill="#9DD0FF"/>
<path d="M305.884 129.379C305.945 129.263 305.948 129.108 305.862 129.009C305.788 128.924 305.658 128.897 305.552 128.935C305.446 128.973 305.366 129.07 305.335 129.178C305.305 129.287 305.322 129.406 305.371 129.508C305.393 129.556 305.423 129.601 305.467 129.63C305.617 129.728 305.821 129.497 305.884 129.379Z" fill="#9DD0FF"/>
<path d="M310.54 134C310.601 133.884 310.605 133.729 310.518 133.63C310.444 133.545 310.315 133.518 310.208 133.556C310.102 133.594 310.022 133.691 309.992 133.799C309.961 133.908 309.978 134.027 310.027 134.129C310.049 134.177 310.079 134.222 310.123 134.251C310.274 134.349 310.477 134.119 310.54 134Z" fill="#9DD0FF"/>
<path d="M18.7673 136.926C18.5168 135.48 19.1128 133.983 20.0677 132.869C21.0225 131.755 22.303 130.972 23.6071 130.3C24.1081 130.042 24.6279 129.789 25.0121 129.376C25.3964 128.964 25.6188 128.347 25.4043 127.825C25.2208 127.379 24.7527 127.098 24.2761 127.024C23.7994 126.951 23.3133 127.055 22.8518 127.196C19.1204 128.332 16.3612 132.098 16.4018 135.998C16.5457 134.647 15.9744 133.573 15.7062 132.241C15.4381 130.908 14.6896 129.603 13.4709 129.002C12.96 128.75 12.3513 128.995 11.9068 129.351C11.4622 129.707 11.2137 130.295 11.2682 130.861C11.3753 131.981 12.4754 132.681 13.2297 133.515C14.1958 134.583 14.6631 136.085 14.4735 137.512C14.5766 137.464 14.6796 137.415 14.7825 137.366" fill="#7DAEDA"/>
<path d="M13.5453 137.72C13.1645 136.362 12.6243 135.027 11.7515 133.919C10.8788 132.811 9.64256 131.944 8.24941 131.723C6.85627 131.502 5.31903 132.007 4.48828 133.147C6.15134 132.624 8.05884 132.955 9.44809 134.008C10.8373 135.062 11.6714 136.809 11.6168 138.551" fill="#7DAEDA"/>
<path d="M309.336 144.768C104.321 89.284 4.92033 139.656 -1.51172 143.88V148.103V167.746H398.488V125.958C347.589 132.659 309.336 144.768 309.336 144.768Z" fill="#BEE0FF"/>
<path d="M404 165H-1V186H404V165Z" fill="#BEE0FF"/>
<path d="M399.373 104.148C396.915 102.266 393.71 101.67 390.619 101.502C390.173 101.477 389.721 101.461 389.263 101.45C389.804 99.1285 389.407 96.7673 387.339 94.7057C385.721 93.0928 383.425 93.0276 381.037 93.6392C380.953 93.4258 380.855 93.2177 380.739 93.0172C379.545 90.9461 376.955 90.1037 374.566 90.0107C370.057 89.8352 365.511 91.8199 362.574 95.2465C361.164 96.8914 360.091 98.9438 360.112 101.11C360.129 102.805 360.554 104.028 361.262 104.881C360.12 105.779 359.015 106.742 358.187 107.932C357.267 109.256 356.715 110.909 357.013 112.494C357.245 113.726 357.939 114.738 358.884 115.528C356.16 119.059 354.647 123.744 355.98 127.971C356.815 130.62 358.681 132.848 360.858 134.573C361.389 134.995 361.941 135.387 362.509 135.752C362.388 135.872 362.267 135.991 362.154 136.116C360.947 137.44 360.223 139.093 360.614 140.677C361.305 143.478 365.12 145.139 368.851 145.659C368.711 145.828 368.576 146 368.453 146.176C367.22 147.94 367.06 150.087 368.59 151.678C370.503 153.668 374.493 154.337 378.143 154.27C385.034 154.144 391.886 151.858 396.219 148.239C398.299 146.501 399.847 144.38 399.721 142.216C399.578 139.775 398.182 138.369 396.089 137.678C401.219 133.978 406.364 127.881 400.778 123.201C402.305 120.537 403.413 117.631 403.62 114.583C403.885 110.68 402.48 106.526 399.373 104.148Z" fill="#AFD9FF"/>
<path d="M371.787 130.681L380.823 136.069C380.985 136.165 381.191 136.051 381.195 135.862L381.356 126.506C381.357 126.427 381.321 126.352 381.257 126.304L375.495 122.013C375.433 121.967 375.397 121.894 375.397 121.816C375.397 121.626 375.604 121.508 375.768 121.605L381.019 124.731C381.181 124.828 381.387 124.713 381.39 124.524L381.503 118.015C381.505 117.881 381.614 117.773 381.748 117.773H381.85C381.981 117.773 382.089 117.877 382.095 118.008L382.583 128.577C382.591 128.759 382.787 128.868 382.946 128.781L391.512 124.082C391.676 123.992 391.876 124.11 391.876 124.297V124.314C391.876 124.392 391.838 124.467 391.774 124.513L382.804 130.959C382.737 131.007 382.698 131.086 382.702 131.169L384.798 176.643C384.802 176.723 384.767 176.799 384.704 176.849C384.398 177.088 383.614 177.609 382.518 177.567C381.552 177.529 380.873 177.074 380.582 176.843C380.522 176.796 380.489 176.724 380.491 176.648C380.712 163.853 380.933 151.058 381.154 138.262C381.155 138.18 381.115 138.102 381.047 138.055L371.523 131.549C371.456 131.503 371.416 131.427 371.416 131.346V130.891C371.415 130.701 371.623 130.583 371.787 130.681Z" fill="#5C9CD6"/>
<path d="M380.522 174.692L380.529 174.302C381.92 174.312 383.314 174.168 384.668 173.871L384.686 174.268C383.372 174.551 382.022 174.697 380.673 174.697C380.623 174.697 380.573 174.693 380.522 174.692Z" fill="#477EB2"/>
<path d="M380.569 172.026L380.576 171.626C381.906 171.734 383.243 171.7 384.56 171.508L384.578 171.899C383.726 172.021 382.867 172.086 382.007 172.086C381.528 172.087 381.048 172.065 380.569 172.026Z" fill="#477EB2"/>
<path d="M384.422 168.52L384.441 168.935L380.642 167.845L380.649 167.438L384.422 168.52Z" fill="#477EB2"/>
<path d="M380.717 163.461C381.846 163.925 383.029 164.264 384.236 164.473L384.254 164.872C383.04 164.668 381.849 164.337 380.71 163.881L380.717 163.461Z" fill="#477EB2"/>
<path d="M380.738 162.304C381.875 162.291 383.011 162.158 384.119 161.906L384.137 162.306C383.021 162.555 381.877 162.685 380.731 162.697L380.738 162.304Z" fill="#477EB2"/>
<path d="M383.919 157.582L383.937 157.977C383.236 158.131 382.519 158.214 381.8 158.214C381.469 158.214 381.139 158.193 380.81 158.159L380.817 157.758C381.853 157.867 382.904 157.813 383.919 157.582Z" fill="#477EB2"/>
<path d="M383.847 156.051L383.865 156.446C383.298 156.507 382.727 156.54 382.157 156.54C381.716 156.54 381.276 156.515 380.837 156.479L380.844 156.087C381.843 156.171 382.849 156.16 383.847 156.051Z" fill="#477EB2"/>
<path d="M380.902 152.793C381.874 153.002 382.8 153.146 383.717 153.205L383.735 153.601C382.806 153.545 381.872 153.403 380.895 153.196L380.902 152.793Z" fill="#477EB2"/>
<path d="M380.948 150.047C381.824 150.194 382.704 150.317 383.587 150.407L383.605 150.801C382.714 150.711 381.825 150.59 380.941 150.443L380.948 150.047Z" fill="#477EB2"/>
<path d="M383.503 148.57L383.521 148.966C383.51 148.966 383.499 148.966 383.488 148.966C382.647 148.966 381.806 148.921 380.97 148.833L380.976 148.434C381.815 148.524 382.659 148.571 383.503 148.57Z" fill="#477EB2"/>
<path d="M383.409 146.536C382.605 146.433 381.806 146.294 381.017 146.111L381.024 145.703C381.805 145.887 382.594 146.031 383.391 146.135L383.409 146.536Z" fill="#477EB2"/>
<path d="M381.095 141.571L381.102 141.16L381.144 141.174C381.8 141.385 382.487 141.604 383.19 141.787L383.209 142.197C382.481 142.012 381.773 141.789 381.095 141.571Z" fill="#477EB2"/>
<path d="M383.092 139.666C382.437 139.579 381.784 139.479 381.133 139.368L381.14 138.969C381.783 139.08 382.428 139.179 383.074 139.266L383.092 139.666Z" fill="#477EB2"/>
<path d="M380.179 137.183L379.799 137.083L380.168 135.676L380.52 135.885L380.179 137.183Z" fill="#477EB2"/>
<path d="M378.825 134.878C378.63 135.294 378.401 135.693 378.144 136.073L377.819 135.852C378.072 135.478 378.295 135.085 378.486 134.676L378.825 134.878Z" fill="#477EB2"/>
<path d="M375.179 133.65C375.367 133.438 375.548 133.232 375.691 133.008L376.319 133.382C376.287 133.828 376.226 134.27 376.149 134.709L375.795 134.467C375.854 134.1 375.902 133.73 375.929 133.359C375.789 133.554 375.631 133.733 375.474 133.911C375.413 133.98 375.353 134.053 375.292 134.124L374.966 133.9C375.037 133.817 375.108 133.731 375.179 133.65Z" fill="#477EB2"/>
<path d="M373.519 131.715L373.916 131.952C373.913 132.349 373.889 132.746 373.853 133.142L373.482 132.889C373.512 132.499 373.523 132.107 373.519 131.715Z" fill="#477EB2"/>
<path d="M372.704 131.227L373.082 131.452C373.052 131.811 373.009 132.169 372.954 132.526L372.595 132.28C372.644 131.931 372.679 131.579 372.704 131.227Z" fill="#477EB2"/>
<path d="M382.98 137.223L382.998 137.614C382.272 137.777 381.529 137.87 380.787 137.878L380.329 137.565L380.332 137.484C381.215 137.514 382.112 137.423 382.98 137.223Z" fill="#477EB2"/>
<path d="M382.864 134.689C382.295 134.57 381.744 134.375 381.225 134.114L381.232 133.676C381.739 133.951 382.283 134.154 382.845 134.28L382.864 134.689Z" fill="#477EB2"/>
<path d="M381.259 132.139L381.267 131.684C381.724 131.983 382.229 132.204 382.756 132.347L382.775 132.76C382.243 132.628 381.731 132.42 381.259 132.139Z" fill="#477EB2"/>
<path d="M383.877 130.184L383.542 130.425C383.327 129.842 383.239 129.215 383.279 128.595L383.695 128.367C383.614 128.977 383.68 129.602 383.877 130.184Z" fill="#477EB2"/>
<path d="M386.448 128.338L386.129 128.568C385.888 128.187 385.691 127.781 385.543 127.355L385.891 127.164C386.028 127.577 386.217 127.97 386.448 128.338Z" fill="#477EB2"/>
<path d="M388.145 127.119L387.821 127.351C387.66 127.022 387.515 126.684 387.398 126.336L387.748 126.145C387.857 126.478 387.993 126.802 388.145 127.119Z" fill="#477EB2"/>
<path d="M389.285 126.3C389.196 126.009 389.135 125.71 389.091 125.408L389.458 125.207C389.493 125.493 389.548 125.777 389.626 126.055L389.285 126.3Z" fill="#477EB2"/>
<path d="M381.334 127.791C381.741 127.728 382.142 127.63 382.533 127.496L382.552 127.905C382.152 128.035 381.742 128.124 381.327 128.185L381.334 127.791Z" fill="#477EB2"/>
<path d="M382.695 131.038L382.697 131.089C382.255 130.766 381.783 130.48 381.291 130.234L381.299 129.797C381.896 130.083 382.468 130.427 382.998 130.82L382.695 131.038Z" fill="#477EB2"/>
<path d="M380.144 125.473L380.181 124.23L380.568 124.461L380.529 125.76L380.144 125.473Z" fill="#477EB2"/>
<path d="M379.229 124.794L378.9 124.549L379.227 123.664L379.57 123.869L379.229 124.794Z" fill="#477EB2"/>
<path d="M376.524 122.778L376.2 122.537C376.29 122.361 376.386 122.192 376.486 122.031L376.825 122.233C376.715 122.411 376.615 122.594 376.524 122.778Z" fill="#477EB2"/>
<path d="M377.725 123.673L377.305 123.361C377.283 123.077 377.277 122.793 377.284 122.508L377.668 122.736C377.668 123.049 377.688 123.362 377.725 123.673Z" fill="#477EB2"/>
<path d="M381.476 123.351L381.786 123.109C381.937 123.304 382.133 123.462 382.352 123.58L382.372 124.023C382.022 123.877 381.706 123.648 381.476 123.351Z" fill="#477EB2"/>
<path d="M382.242 121.187L382.261 121.619C381.985 121.513 381.714 121.396 381.446 121.27L381.454 120.84C381.711 120.966 381.975 121.081 382.242 121.187Z" fill="#477EB2"/>
<path d="M382.144 119.098L382.164 119.535C381.933 119.431 381.706 119.32 381.48 119.203L381.488 118.766C381.704 118.881 381.922 118.994 382.144 119.098Z" fill="#477EB2"/>
<path d="M390.281 105.61C390.88 105.412 391.538 105.468 392.145 105.64C393.147 105.923 394.097 106.563 394.512 107.518C395.331 109.401 393.299 111.523 391.411 110.633C389.787 109.867 387.671 106.476 390.281 105.61Z" fill="#9DD0FF"/>
<path d="M373.371 93.3172C373.97 93.1187 374.628 93.1754 375.235 93.3467C376.237 93.6297 377.187 94.2705 377.602 95.2252C378.42 97.1077 376.389 99.23 374.501 98.3398C372.877 97.5747 370.76 94.1832 373.371 93.3172Z" fill="#9DD0FF"/>
<path d="M368.205 136.415C368.804 136.216 369.462 136.273 370.069 136.444C371.071 136.727 372.021 137.368 372.436 138.323C373.254 140.205 371.223 142.328 369.335 141.438C367.711 140.672 365.594 137.281 368.205 136.415Z" fill="#9DD0FF"/>
<path d="M372.731 114.443C373.401 114.679 373.983 115.282 374.003 115.992C374.021 116.603 373.604 117.186 373.042 117.424C372.48 117.662 371.806 117.574 371.287 117.252C370.768 116.931 370.399 116.396 370.216 115.813C370.131 115.542 370.083 115.25 370.153 114.974C370.393 114.031 372.045 114.202 372.731 114.443Z" fill="#9DD0FF"/>
<path d="M388.799 113.627C388.128 113.863 387.546 114.466 387.526 115.176C387.508 115.787 387.925 116.369 388.487 116.608C389.05 116.846 389.723 116.758 390.242 116.436C390.762 116.114 391.13 115.58 391.314 114.997C391.399 114.726 391.446 114.433 391.377 114.158C391.137 113.215 389.485 113.386 388.799 113.627Z" fill="#9DD0FF"/>
<path d="M388.424 140.732C387.753 140.968 387.171 141.571 387.151 142.281C387.133 142.892 387.55 143.475 388.112 143.713C388.675 143.951 389.348 143.863 389.867 143.541C390.387 143.22 390.755 142.685 390.939 142.102C391.024 141.831 391.071 141.538 391.002 141.263C390.762 140.32 389.109 140.491 388.424 140.732Z" fill="#9DD0FF"/>
<path d="M371.164 108.47C370.958 108.082 370.947 107.564 371.236 107.233C371.484 106.949 371.917 106.859 372.272 106.987C372.628 107.114 372.896 107.437 372.997 107.801C373.098 108.164 373.041 108.562 372.88 108.903C372.805 109.062 372.704 109.215 372.557 109.31C372.052 109.638 371.374 108.868 371.164 108.47Z" fill="#9DD0FF"/>
<path d="M392.295 131.396C392.089 131.008 392.078 130.49 392.367 130.159C392.614 129.874 393.048 129.785 393.403 129.912C393.758 130.04 394.027 130.362 394.128 130.726C394.229 131.09 394.172 131.488 394.011 131.829C393.936 131.988 393.835 132.14 393.687 132.236C393.183 132.564 392.505 131.793 392.295 131.396Z" fill="#9DD0FF"/>
<path d="M376.722 146.849C376.517 146.461 376.506 145.943 376.794 145.612C377.042 145.328 377.476 145.238 377.831 145.365C378.186 145.493 378.455 145.816 378.556 146.179C378.656 146.543 378.6 146.941 378.439 147.282C378.364 147.441 378.263 147.594 378.115 147.689C377.611 148.017 376.933 147.246 376.722 146.849Z" fill="#9DD0FF"/>
<rect width="393" height="186" fill="url(#paint0_linear_827_18529)"/>
<path d="M257.295 27.8132C257.187 28.4303 256.937 28.9248 256.547 29.2969C256.157 29.6689 255.694 29.923 255.159 30.0591C255.63 30.1408 256.011 30.3631 256.302 30.726C256.601 31.0799 256.751 31.511 256.751 32.0191C256.751 32.1643 256.737 32.305 256.71 32.4411C256.574 33.1942 256.198 33.8113 255.58 34.2922C254.963 34.7641 254.165 35 253.185 35H250.163L251.865 25.4449H254.845C255.68 25.4449 256.302 25.6173 256.71 25.9621C257.128 26.3069 257.336 26.7652 257.336 27.3368C257.336 27.4911 257.323 27.6499 257.295 27.8132ZM254.097 29.8005C254.814 29.8005 255.394 29.6281 255.839 29.2833C256.293 28.9384 256.57 28.4666 256.669 27.8677C256.697 27.7316 256.71 27.5954 256.71 27.4593C256.71 26.9966 256.542 26.6336 256.207 26.3704C255.88 26.1073 255.381 25.9757 254.709 25.9757H252.382L251.701 29.8005H254.097ZM256.098 32.4002C256.125 32.2641 256.139 32.128 256.139 31.9919C256.139 31.4747 255.943 31.0663 255.553 30.7669C255.163 30.4674 254.628 30.3177 253.947 30.3177H251.606L250.871 34.4828H253.253C254.024 34.4828 254.659 34.2967 255.159 33.9247C255.667 33.5527 255.98 33.0445 256.098 32.4002ZM262.578 27.5138C263.204 27.5138 263.735 27.6363 264.171 27.8813C264.615 28.1172 264.946 28.4393 265.164 28.8477C265.391 29.247 265.504 29.6961 265.504 30.1952C265.504 30.413 265.486 30.6126 265.45 30.7941C265.396 31.1208 265.341 31.3658 265.287 31.5291H258.903C258.867 31.8195 258.849 32.0282 258.849 32.1552C258.849 32.9356 259.084 33.5345 259.556 33.9519C260.028 34.3693 260.623 34.578 261.339 34.578C262.056 34.578 262.691 34.4011 263.245 34.0472C263.808 33.6842 264.207 33.1942 264.443 32.5772H265.083C264.792 33.3303 264.307 33.9429 263.626 34.4147C262.955 34.8775 262.161 35.1089 261.244 35.1089C260.337 35.1089 259.606 34.8457 259.053 34.3194C258.508 33.7931 258.236 33.0763 258.236 32.1688C258.236 31.8875 258.263 31.5972 258.318 31.2977C258.454 30.5264 258.726 29.8549 259.134 29.2833C259.543 28.7116 260.042 28.276 260.632 27.9766C261.231 27.668 261.879 27.5138 262.578 27.5138ZM264.797 31.0527C264.86 30.7896 264.892 30.5219 264.892 30.2497C264.892 29.5328 264.661 28.9838 264.198 28.6027C263.744 28.2216 263.168 28.031 262.469 28.031C261.952 28.031 261.453 28.1444 260.972 28.3713C260.491 28.5981 260.074 28.9384 259.72 29.3921C259.366 29.8459 259.121 30.3994 258.985 31.0527H264.797ZM266.825 31.2977C266.961 30.5264 267.233 29.8549 267.641 29.2833C268.05 28.7116 268.549 28.276 269.139 27.9766C269.738 27.668 270.382 27.5138 271.072 27.5138C271.997 27.5138 272.714 27.7452 273.222 28.208C273.739 28.6707 274.002 29.2923 274.012 30.0727H273.372C273.363 29.4466 273.14 28.952 272.705 28.5891C272.278 28.217 271.702 28.031 270.976 28.031C270.441 28.031 269.928 28.1535 269.438 28.3985C268.948 28.6344 268.526 29.002 268.172 29.501C267.818 29.991 267.578 30.5899 267.451 31.2977C267.396 31.579 267.369 31.8513 267.369 32.1144C267.369 32.9129 267.596 33.5254 268.05 33.9519C268.513 34.3693 269.102 34.578 269.819 34.578C270.545 34.578 271.185 34.3966 271.738 34.0336C272.301 33.6706 272.7 33.1715 272.936 32.5364H273.59C273.299 33.3167 272.814 33.9429 272.133 34.4147C271.453 34.8775 270.65 35.1089 269.724 35.1089C268.817 35.1089 268.091 34.8503 267.546 34.333C267.011 33.8067 266.743 33.0899 266.743 32.1825C266.743 31.9012 266.77 31.6062 266.825 31.2977ZM275.279 31.2977C275.415 30.5355 275.682 29.8685 276.082 29.2969C276.49 28.7252 276.994 28.2851 277.593 27.9766C278.192 27.668 278.836 27.5138 279.525 27.5138C280.297 27.5138 280.918 27.7043 281.39 28.0855C281.871 28.4666 282.171 28.952 282.289 29.5419L282.629 27.6091H283.241L281.921 35H281.322L281.662 33.0536C281.345 33.6525 280.877 34.147 280.26 34.5372C279.643 34.9183 278.945 35.1089 278.164 35.1089C277.266 35.1089 276.545 34.8457 276 34.3194C275.465 33.7841 275.197 33.0627 275.197 32.1552C275.197 31.883 275.224 31.5972 275.279 31.2977ZM281.975 31.2977C282.021 31.0255 282.044 30.785 282.044 30.5763C282.044 29.805 281.812 29.1925 281.349 28.7388C280.887 28.276 280.274 28.0446 279.512 28.0446C278.913 28.0446 278.359 28.1762 277.851 28.4393C277.352 28.6934 276.93 29.0655 276.585 29.5555C276.25 30.0455 276.023 30.6262 275.905 31.2977C275.859 31.5972 275.837 31.8513 275.837 32.06C275.837 32.8494 276.059 33.4665 276.504 33.9111C276.957 34.3467 277.574 34.5644 278.355 34.5644C278.927 34.5644 279.466 34.4329 279.975 34.1697C280.492 33.8975 280.923 33.5164 281.268 33.0264C281.622 32.5273 281.857 31.9511 281.975 31.2977ZM291.719 27.6091L290.412 35H289.8L290.086 33.4075C289.777 33.961 289.355 34.3875 288.82 34.6869C288.285 34.9773 287.704 35.1225 287.078 35.1225C286.325 35.1225 285.717 34.9229 285.254 34.5236C284.8 34.1153 284.573 33.5118 284.573 32.7133C284.573 32.4139 284.596 32.1462 284.641 31.9102L285.417 27.6091H286.016L285.254 31.8694C285.208 32.1598 285.186 32.3957 285.186 32.5772C285.186 33.2396 285.367 33.7432 285.73 34.088C286.093 34.4238 286.601 34.5917 287.255 34.5917C288.053 34.5917 288.734 34.3376 289.296 33.8294C289.868 33.3122 290.235 32.559 290.399 31.57V31.6108L291.107 27.6091H291.719ZM294.973 35.1089C294.211 35.1089 293.603 34.9274 293.149 34.5644C292.704 34.2015 292.509 33.6842 292.564 33.0127H293.176C293.131 33.4937 293.267 33.8793 293.585 34.1697C293.911 34.451 294.388 34.5917 295.014 34.5917C295.658 34.5917 296.171 34.451 296.552 34.1697C296.933 33.8793 297.123 33.5073 297.123 33.0536C297.123 32.7814 297.046 32.5545 296.892 32.373C296.738 32.1915 296.547 32.0463 296.32 31.9375C296.094 31.8286 295.776 31.7015 295.368 31.5563C294.914 31.4021 294.542 31.2524 294.251 31.1072C293.97 30.962 293.73 30.7623 293.53 30.5083C293.34 30.2451 293.244 29.9139 293.244 29.5146C293.244 29.1245 293.358 28.7796 293.585 28.4802C293.811 28.1717 294.124 27.9357 294.524 27.7724C294.923 27.6 295.368 27.5138 295.858 27.5138C296.538 27.5138 297.105 27.6907 297.559 28.0446C298.013 28.3894 298.24 28.8477 298.24 29.4194C298.24 29.5373 298.235 29.6281 298.226 29.6916H297.627C297.636 29.6462 297.641 29.5736 297.641 29.4738C297.641 29.0382 297.464 28.6889 297.11 28.4257C296.765 28.1535 296.329 28.0174 295.803 28.0174C295.241 28.0174 294.773 28.1535 294.401 28.4257C294.038 28.6889 293.857 29.0473 293.857 29.501C293.857 29.8005 293.938 30.05 294.102 30.2497C294.265 30.4402 294.465 30.5945 294.701 30.7124C294.946 30.8213 295.272 30.9484 295.681 31.0936C296.134 31.2478 296.493 31.393 296.756 31.5291C297.028 31.6652 297.26 31.8558 297.45 32.1008C297.641 32.3458 297.736 32.6589 297.736 33.04C297.736 33.6752 297.477 34.1788 296.96 34.5508C296.452 34.9229 295.79 35.1089 294.973 35.1089ZM303.944 27.5138C304.57 27.5138 305.101 27.6363 305.536 27.8813C305.981 28.1172 306.312 28.4393 306.53 28.8477C306.757 29.247 306.87 29.6961 306.87 30.1952C306.87 30.413 306.852 30.6126 306.816 30.7941C306.761 31.1208 306.707 31.3658 306.652 31.5291H300.269C300.232 31.8195 300.214 32.0282 300.214 32.1552C300.214 32.9356 300.45 33.5345 300.922 33.9519C301.394 34.3693 301.988 34.578 302.705 34.578C303.422 34.578 304.057 34.4011 304.611 34.0472C305.173 33.6842 305.572 33.1942 305.808 32.5772H306.448C306.158 33.3303 305.672 33.9429 304.992 34.4147C304.32 34.8775 303.526 35.1089 302.61 35.1089C301.702 35.1089 300.972 34.8457 300.418 34.3194C299.874 33.7931 299.602 33.0763 299.602 32.1688C299.602 31.8875 299.629 31.5972 299.683 31.2977C299.819 30.5264 300.092 29.8549 300.5 29.2833C300.908 28.7116 301.407 28.276 301.997 27.9766C302.596 27.668 303.245 27.5138 303.944 27.5138ZM306.162 31.0527C306.226 30.7896 306.258 30.5219 306.258 30.2497C306.258 29.5328 306.026 28.9838 305.563 28.6027C305.11 28.2216 304.533 28.031 303.835 28.031C303.318 28.031 302.818 28.1444 302.338 28.3713C301.857 28.5981 301.439 28.9384 301.085 29.3921C300.731 29.8459 300.486 30.3994 300.35 31.0527H306.162ZM319.501 25.4449L315.472 31.1344L314.791 35H314.179L314.86 31.1344L312.831 25.4449H313.539L315.268 30.5491L318.793 25.4449H319.501ZM322.537 35.1089C321.611 35.1089 320.867 34.8412 320.304 34.3058C319.751 33.7704 319.474 33.0445 319.474 32.128C319.474 31.2932 319.66 30.5219 320.032 29.8141C320.413 29.1063 320.939 28.5482 321.611 28.1399C322.282 27.7225 323.031 27.5138 323.857 27.5138C324.456 27.5138 324.987 27.6363 325.449 27.8813C325.912 28.1172 326.271 28.462 326.525 28.9157C326.788 29.3604 326.919 29.8867 326.919 30.4947C326.919 31.3295 326.729 32.1008 326.348 32.8086C325.967 33.5164 325.44 34.079 324.769 34.4964C324.106 34.9047 323.362 35.1089 322.537 35.1089ZM322.618 34.578C323.326 34.578 323.957 34.392 324.51 34.02C325.073 33.6479 325.508 33.1534 325.817 32.5364C326.134 31.9193 326.293 31.2478 326.293 30.5219C326.293 29.7143 326.053 29.0972 325.572 28.6707C325.091 28.2443 324.487 28.031 323.762 28.031C323.045 28.031 322.409 28.217 321.856 28.5891C321.302 28.9611 320.871 29.4602 320.563 30.0863C320.254 30.7034 320.1 31.3703 320.1 32.0872C320.1 32.8948 320.336 33.5118 320.808 33.9383C321.289 34.3648 321.892 34.578 322.618 34.578ZM335.597 27.6091L334.29 35H333.678L333.964 33.4075C333.655 33.961 333.233 34.3875 332.698 34.6869C332.162 34.9773 331.582 35.1225 330.956 35.1225C330.202 35.1225 329.594 34.9229 329.132 34.5236C328.678 34.1153 328.451 33.5118 328.451 32.7133C328.451 32.4139 328.474 32.1462 328.519 31.9102L329.295 27.6091H329.894L329.132 31.8694C329.086 32.1598 329.064 32.3957 329.064 32.5772C329.064 33.2396 329.245 33.7432 329.608 34.088C329.971 34.4238 330.479 34.5917 331.132 34.5917C331.931 34.5917 332.612 34.3376 333.174 33.8294C333.746 33.3122 334.113 32.559 334.277 31.57V31.6108L334.984 27.6091H335.597ZM338.17 29.2016C338.461 28.639 338.86 28.208 339.368 27.9085C339.885 27.6091 340.498 27.4593 341.205 27.4593L341.083 28.0991H340.892C340.166 28.0991 339.527 28.3078 338.973 28.7252C338.42 29.1335 338.061 29.805 337.898 30.7397L337.136 35H336.523L337.843 27.6091H338.456L338.17 29.2016ZM350.387 25.404C351.268 25.404 352.03 25.5628 352.674 25.8804C353.318 26.1889 353.808 26.629 354.144 27.2007C354.48 27.7724 354.648 28.4393 354.648 29.2016C354.648 29.5464 354.616 29.8776 354.552 30.1952C354.389 31.1208 354.035 31.9465 353.491 32.6725C352.955 33.3984 352.27 33.9701 351.435 34.3875C350.61 34.7958 349.693 35 348.686 35H344.888L346.59 25.404H350.387ZM348.904 32.6589C349.684 32.6589 350.333 32.4456 350.85 32.0191C351.367 31.5836 351.699 30.9756 351.844 30.1952C351.88 30.0137 351.898 29.8186 351.898 29.6099C351.898 29.002 351.712 28.5346 351.34 28.208C350.968 27.8813 350.446 27.718 349.775 27.718H348.863L347.978 32.6589H348.904ZM355.142 31.1752C355.288 30.3858 355.555 29.6961 355.946 29.1063C356.336 28.5165 356.803 28.0628 357.348 27.7452C357.901 27.4276 358.482 27.2688 359.09 27.2688C359.616 27.2688 360.052 27.3731 360.396 27.5818C360.741 27.7905 360.982 28.0718 361.118 28.4257L361.308 27.3641H363.976L362.629 35H359.961L360.151 33.9383C359.888 34.2922 359.543 34.5735 359.117 34.7822C358.691 34.9909 358.219 35.0953 357.701 35.0953C356.903 35.0953 356.263 34.8321 355.782 34.3058C355.301 33.7704 355.061 33.0445 355.061 32.128C355.061 31.8286 355.088 31.511 355.142 31.1752ZM360.641 31.1752C360.669 31.0391 360.682 30.9121 360.682 30.7941C360.682 30.413 360.573 30.1181 360.356 29.9094C360.147 29.7007 359.875 29.5963 359.539 29.5963C359.14 29.5963 358.781 29.737 358.464 30.0183C358.146 30.2905 357.946 30.6761 357.865 31.1752C357.838 31.3113 357.824 31.4429 357.824 31.57C357.824 31.9511 357.928 32.246 358.137 32.4547C358.355 32.6634 358.632 32.7677 358.967 32.7677C359.367 32.7677 359.725 32.6271 360.043 32.3458C360.36 32.0645 360.56 31.6743 360.641 31.1752ZM367.647 27.3641L368.477 31.6925L370.791 27.3641H373.718L366.898 38.6342H363.999L366.517 34.6733L364.68 27.3641H367.647ZM230.314 45.4449C231.711 45.4449 232.777 45.7625 233.512 46.3977C234.248 47.0328 234.615 47.9312 234.615 49.0927C234.615 49.4194 234.579 49.8005 234.506 50.236C234.243 51.7424 233.599 52.9129 232.573 53.7478C231.557 54.5826 230.237 55 228.612 55H225.945L227.646 45.4449H230.314ZM228.721 54.51C230.164 54.51 231.326 54.1334 232.206 53.3803C233.095 52.6271 233.658 51.579 233.894 50.236C233.957 49.8912 233.989 49.5419 233.989 49.188C233.989 48.1626 233.671 47.3686 233.036 46.806C232.41 46.2434 231.471 45.9621 230.219 45.9621H228.163L226.652 54.51H228.721ZM240.061 47.5138C240.687 47.5138 241.218 47.6363 241.653 47.8813C242.098 48.1172 242.429 48.4393 242.647 48.8477C242.874 49.247 242.987 49.6961 242.987 50.1952C242.987 50.413 242.969 50.6126 242.933 50.7941C242.878 51.1208 242.824 51.3658 242.77 51.5291H236.386C236.35 51.8195 236.331 52.0282 236.331 52.1552C236.331 52.9356 236.567 53.5345 237.039 53.9519C237.511 54.3693 238.105 54.578 238.822 54.578C239.539 54.578 240.174 54.4011 240.728 54.0472C241.29 53.6842 241.69 53.1942 241.926 52.5772H242.565C242.275 53.3303 241.79 53.9429 241.109 54.4147C240.437 54.8775 239.644 55.1089 238.727 55.1089C237.82 55.1089 237.089 54.8457 236.536 54.3194C235.991 53.7931 235.719 53.0763 235.719 52.1688C235.719 51.8875 235.746 51.5972 235.801 51.2977C235.937 50.5264 236.209 49.8549 236.617 49.2833C237.026 48.7116 237.525 48.276 238.115 47.9766C238.713 47.668 239.362 47.5138 240.061 47.5138ZM242.28 51.0527C242.343 50.7896 242.375 50.5219 242.375 50.2497C242.375 49.5328 242.143 48.9838 241.681 48.6027C241.227 48.2216 240.651 48.031 239.952 48.031C239.435 48.031 238.936 48.1444 238.455 48.3713C237.974 48.5981 237.556 48.9384 237.203 49.3921C236.849 49.8459 236.604 50.3994 236.468 51.0527H242.28ZM246.363 55.1089C245.601 55.1089 244.993 54.9274 244.539 54.5644C244.094 54.2015 243.899 53.6842 243.954 53.0127H244.566C244.521 53.4937 244.657 53.8793 244.975 54.1697C245.301 54.451 245.778 54.5917 246.404 54.5917C247.048 54.5917 247.561 54.451 247.942 54.1697C248.323 53.8793 248.514 53.5073 248.514 53.0536C248.514 52.7814 248.436 52.5545 248.282 52.373C248.128 52.1915 247.937 52.0463 247.71 51.9375C247.484 51.8286 247.166 51.7015 246.758 51.5563C246.304 51.4021 245.932 51.2524 245.642 51.1072C245.36 50.962 245.12 50.7623 244.92 50.5083C244.73 50.2451 244.634 49.9139 244.634 49.5146C244.634 49.1245 244.748 48.7796 244.975 48.4802C245.201 48.1717 245.515 47.9357 245.914 47.7724C246.313 47.6 246.758 47.5138 247.248 47.5138C247.928 47.5138 248.495 47.6907 248.949 48.0446C249.403 48.3894 249.63 48.8477 249.63 49.4194C249.63 49.5373 249.625 49.6281 249.616 49.6916H249.017C249.026 49.6462 249.031 49.5736 249.031 49.4738C249.031 49.0382 248.854 48.6889 248.5 48.4257C248.155 48.1535 247.72 48.0174 247.193 48.0174C246.631 48.0174 246.163 48.1535 245.791 48.4257C245.428 48.6889 245.247 49.0473 245.247 49.501C245.247 49.8005 245.328 50.05 245.492 50.2497C245.655 50.4402 245.855 50.5945 246.091 50.7124C246.336 50.8213 246.662 50.9484 247.071 51.0936C247.524 51.2478 247.883 51.393 248.146 51.5291C248.418 51.6652 248.65 51.8558 248.84 52.1008C249.031 52.3458 249.126 52.6589 249.126 53.04C249.126 53.6752 248.867 54.1788 248.35 54.5508C247.842 54.9229 247.18 55.1089 246.363 55.1089ZM255.334 47.5138C255.96 47.5138 256.491 47.6363 256.926 47.8813C257.371 48.1172 257.702 48.4393 257.92 48.8477C258.147 49.247 258.26 49.6961 258.26 50.1952C258.26 50.413 258.242 50.6126 258.206 50.7941C258.151 51.1208 258.097 51.3658 258.042 51.5291H251.659C251.622 51.8195 251.604 52.0282 251.604 52.1552C251.604 52.9356 251.84 53.5345 252.312 53.9519C252.784 54.3693 253.378 54.578 254.095 54.578C254.812 54.578 255.447 54.4011 256.001 54.0472C256.563 53.6842 256.963 53.1942 257.199 52.5772H257.838C257.548 53.3303 257.062 53.9429 256.382 54.4147C255.71 54.8775 254.916 55.1089 254 55.1089C253.092 55.1089 252.362 54.8457 251.808 54.3194C251.264 53.7931 250.992 53.0763 250.992 52.1688C250.992 51.8875 251.019 51.5972 251.073 51.2977C251.21 50.5264 251.482 49.8549 251.89 49.2833C252.298 48.7116 252.798 48.276 253.387 47.9766C253.986 47.668 254.635 47.5138 255.334 47.5138ZM257.552 51.0527C257.616 50.7896 257.648 50.5219 257.648 50.2497C257.648 49.5328 257.416 48.9838 256.954 48.6027C256.5 48.2216 255.924 48.031 255.225 48.031C254.708 48.031 254.209 48.1444 253.728 48.3713C253.247 48.5981 252.829 48.9384 252.475 49.3921C252.121 49.8459 251.876 50.3994 251.74 51.0527H257.552ZM260.955 49.2016C261.246 48.639 261.645 48.208 262.153 47.9085C262.67 47.6091 263.283 47.4593 263.991 47.4593L263.868 48.0991H263.677C262.952 48.0991 262.312 48.3078 261.758 48.7252C261.205 49.1335 260.846 49.805 260.683 50.7397L259.921 55H259.308L260.629 47.6091H261.241L260.955 49.2016ZM266.707 54.2786L270.587 47.6091H271.254L266.884 55H266.245L264.502 47.6091H265.156L266.707 54.2786ZM275.83 47.5138C276.457 47.5138 276.987 47.6363 277.423 47.8813C277.868 48.1172 278.199 48.4393 278.417 48.8477C278.643 49.247 278.757 49.6961 278.757 50.1952C278.757 50.413 278.739 50.6126 278.702 50.7941C278.648 51.1208 278.594 51.3658 278.539 51.5291H272.155C272.119 51.8195 272.101 52.0282 272.101 52.1552C272.101 52.9356 272.337 53.5345 272.809 53.9519C273.281 54.3693 273.875 54.578 274.592 54.578C275.309 54.578 275.944 54.4011 276.497 54.0472C277.06 53.6842 277.459 53.1942 277.695 52.5772H278.335C278.045 53.3303 277.559 53.9429 276.879 54.4147C276.207 54.8775 275.413 55.1089 274.497 55.1089C273.589 55.1089 272.859 54.8457 272.305 54.3194C271.761 53.7931 271.488 53.0763 271.488 52.1688C271.488 51.8875 271.516 51.5972 271.57 51.2977C271.706 50.5264 271.978 49.8549 272.387 49.2833C272.795 48.7116 273.294 48.276 273.884 47.9766C274.483 47.668 275.132 47.5138 275.83 47.5138ZM278.049 51.0527C278.113 50.7896 278.144 50.5219 278.144 50.2497C278.144 49.5328 277.913 48.9838 277.45 48.6027C276.997 48.2216 276.42 48.031 275.722 48.031C275.204 48.031 274.705 48.1444 274.224 48.3713C273.743 48.5981 273.326 48.9384 272.972 49.3921C272.618 49.8459 272.373 50.3994 272.237 51.0527H278.049ZM282.133 55.1089C281.37 55.1089 280.762 54.9274 280.309 54.5644C279.864 54.2015 279.669 53.6842 279.723 53.0127H280.336C280.29 53.4937 280.427 53.8793 280.744 54.1697C281.071 54.451 281.547 54.5917 282.173 54.5917C282.818 54.5917 283.33 54.451 283.711 54.1697C284.093 53.8793 284.283 53.5073 284.283 53.0536C284.283 52.7814 284.206 52.5545 284.052 52.373C283.897 52.1915 283.707 52.0463 283.48 51.9375C283.253 51.8286 282.936 51.7015 282.527 51.5563C282.074 51.4021 281.701 51.2524 281.411 51.1072C281.13 50.962 280.889 50.7623 280.69 50.5083C280.499 50.2451 280.404 49.9139 280.404 49.5146C280.404 49.1245 280.517 48.7796 280.744 48.4802C280.971 48.1717 281.284 47.9357 281.683 47.7724C282.083 47.6 282.527 47.5138 283.017 47.5138C283.698 47.5138 284.265 47.6907 284.719 48.0446C285.172 48.3894 285.399 48.8477 285.399 49.4194C285.399 49.5373 285.395 49.6281 285.386 49.6916H284.787C284.796 49.6462 284.8 49.5736 284.8 49.4738C284.8 49.0382 284.623 48.6889 284.269 48.4257C283.925 48.1535 283.489 48.0174 282.963 48.0174C282.4 48.0174 281.933 48.1535 281.561 48.4257C281.198 48.6889 281.016 49.0473 281.016 49.501C281.016 49.8005 281.098 50.05 281.261 50.2497C281.425 50.4402 281.624 50.5945 281.86 50.7124C282.105 50.8213 282.432 50.9484 282.84 51.0936C283.294 51.2478 283.652 51.393 283.916 51.5291C284.188 51.6652 284.419 51.8558 284.61 52.1008C284.8 52.3458 284.896 52.6589 284.896 53.04C284.896 53.6752 284.637 54.1788 284.12 54.5508C283.612 54.9229 282.949 55.1089 282.133 55.1089ZM296.411 52.55H291.879L290.531 55H289.864L295.023 45.6626H295.704L297.555 55H296.888L296.411 52.55ZM296.316 52.0463L295.227 46.4521L292.151 52.0463H296.316ZM303.761 47.4593C304.514 47.4593 305.117 47.6635 305.571 48.0718C306.025 48.4711 306.252 49.0655 306.252 49.8549C306.252 50.0999 306.224 50.3722 306.17 50.6716L305.408 55H304.809L305.571 50.7124C305.616 50.4221 305.639 50.1816 305.639 49.991C305.639 49.3377 305.458 48.8432 305.095 48.5074C304.732 48.1626 304.224 47.9902 303.57 47.9902C302.808 47.9902 302.15 48.2261 301.597 48.698C301.043 49.1698 300.662 49.864 300.453 50.7805L299.705 55H299.092L300.412 47.6091H301.025L300.753 49.1607C301.061 48.6072 301.479 48.1853 302.005 47.8949C302.54 47.6045 303.126 47.4593 303.761 47.4593ZM313.779 45.9485L313.071 49.9638H316.882L316.787 50.4538H312.989L312.268 54.4964H316.488L316.392 55H311.56L313.262 45.4449H318.08L317.985 45.9485H313.779ZM318.519 51.2977C318.655 50.5355 318.922 49.8685 319.322 49.2969C319.73 48.7252 320.234 48.2851 320.832 47.9766C321.431 47.668 322.076 47.5138 322.765 47.5138C323.537 47.5138 324.158 47.7043 324.63 48.0855C325.111 48.4666 325.41 48.952 325.528 49.5419L325.869 47.6091H326.481L325.161 55H324.562L324.902 53.0536C324.585 53.6525 324.117 54.147 323.5 54.5372C322.883 54.9183 322.184 55.1089 321.404 55.1089C320.506 55.1089 319.784 54.8457 319.24 54.3194C318.705 53.7841 318.437 53.0627 318.437 52.1552C318.437 51.883 318.464 51.5972 318.519 51.2977ZM325.215 51.2977C325.261 51.0255 325.283 50.785 325.283 50.5763C325.283 49.805 325.052 49.1925 324.589 48.7388C324.126 48.276 323.514 48.0446 322.752 48.0446C322.153 48.0446 321.599 48.1762 321.091 48.4393C320.592 48.6934 320.17 49.0655 319.825 49.5555C319.489 50.0455 319.263 50.6262 319.145 51.2977C319.099 51.5972 319.077 51.8513 319.077 52.06C319.077 52.8494 319.299 53.4665 319.744 53.9111C320.197 54.3467 320.814 54.5644 321.595 54.5644C322.166 54.5644 322.706 54.4329 323.214 54.1697C323.732 53.8975 324.163 53.5164 324.507 53.0264C324.861 52.5273 325.097 51.9511 325.215 51.2977ZM329.732 55.1089C328.97 55.1089 328.362 54.9274 327.908 54.5644C327.464 54.2015 327.269 53.6842 327.323 53.0127H327.936C327.89 53.4937 328.026 53.8793 328.344 54.1697C328.671 54.451 329.147 54.5917 329.773 54.5917C330.417 54.5917 330.93 54.451 331.311 54.1697C331.692 53.8793 331.883 53.5073 331.883 53.0536C331.883 52.7814 331.806 52.5545 331.651 52.373C331.497 52.1915 331.307 52.0463 331.08 51.9375C330.853 51.8286 330.535 51.7015 330.127 51.5563C329.673 51.4021 329.301 51.2524 329.011 51.1072C328.73 50.962 328.489 50.7623 328.289 50.5083C328.099 50.2451 328.004 49.9139 328.004 49.5146C328.004 49.1245 328.117 48.7796 328.344 48.4802C328.571 48.1717 328.884 47.9357 329.283 47.7724C329.682 47.6 330.127 47.5138 330.617 47.5138C331.298 47.5138 331.865 47.6907 332.318 48.0446C332.772 48.3894 332.999 48.8477 332.999 49.4194C332.999 49.5373 332.994 49.6281 332.985 49.6916H332.386C332.395 49.6462 332.4 49.5736 332.4 49.4738C332.4 49.0382 332.223 48.6889 331.869 48.4257C331.524 48.1535 331.089 48.0174 330.563 48.0174C330 48.0174 329.533 48.1535 329.161 48.4257C328.798 48.6889 328.616 49.0473 328.616 49.501C328.616 49.8005 328.698 50.05 328.861 50.2497C329.024 50.4402 329.224 50.5945 329.46 50.7124C329.705 50.8213 330.032 50.9484 330.44 51.0936C330.894 51.2478 331.252 51.393 331.515 51.5291C331.788 51.6652 332.019 51.8558 332.209 52.1008C332.4 52.3458 332.495 52.6589 332.495 53.04C332.495 53.6752 332.237 54.1788 331.719 54.5508C331.211 54.9229 330.549 55.1089 329.732 55.1089ZM335.273 47.6091L336.865 54.2378L340.609 47.6091H341.262L335.042 58.4709H334.375L336.375 54.9864L334.606 47.6091H335.273ZM349.624 45.4449C350.55 45.4449 351.24 45.64 351.693 46.0301C352.147 46.4113 352.374 46.933 352.374 47.5954C352.374 47.8042 352.356 47.9993 352.32 48.1807C352.183 48.9157 351.866 49.5237 351.367 50.0047C350.877 50.4765 350.223 50.7669 349.407 50.8758L351.19 55H350.455L348.726 50.9302H348.672H346.644L345.909 55H345.296L346.998 45.4449H349.624ZM351.68 48.1807C351.716 48.0083 351.734 47.8223 351.734 47.6227C351.734 46.5247 350.999 45.9757 349.529 45.9757H347.515L346.725 50.413H348.767C349.611 50.413 350.278 50.2088 350.768 49.8005C351.258 49.3921 351.562 48.8522 351.68 48.1807ZM354.831 45.9621C354.704 45.9621 354.6 45.9258 354.518 45.8532C354.437 45.7715 354.396 45.6672 354.396 45.5401C354.396 45.3587 354.459 45.2089 354.586 45.091C354.713 44.9639 354.859 44.9004 355.022 44.9004C355.149 44.9004 355.253 44.9412 355.335 45.0229C355.426 45.1046 355.471 45.2089 355.471 45.336C355.471 45.5175 355.403 45.6672 355.267 45.7851C355.14 45.9031 354.995 45.9621 354.831 45.9621ZM354.859 47.6091L353.538 55H352.926L354.246 47.6091H354.859ZM356.056 51.2977C356.192 50.5355 356.46 49.8685 356.859 49.2969C357.267 48.7252 357.771 48.2851 358.37 47.9766C358.969 47.668 359.613 47.5138 360.303 47.5138C361.056 47.5138 361.673 47.7043 362.154 48.0855C362.644 48.4575 362.948 48.943 363.066 49.5419L363.882 44.9276H364.481L362.698 55H362.099L362.453 53.04C362.136 53.6479 361.668 54.147 361.051 54.5372C360.434 54.9183 359.736 55.1089 358.955 55.1089C358.048 55.1089 357.322 54.8457 356.777 54.3194C356.242 53.7841 355.974 53.0627 355.974 52.1552C355.974 51.883 356.002 51.5972 356.056 51.2977ZM362.753 51.2977C362.798 51.0255 362.821 50.785 362.821 50.5763C362.821 49.805 362.589 49.1925 362.127 48.7388C361.664 48.276 361.051 48.0446 360.289 48.0446C359.69 48.0446 359.137 48.1762 358.628 48.4393C358.129 48.6934 357.707 49.0655 357.363 49.5555C357.027 50.0455 356.8 50.6262 356.682 51.2977C356.637 51.5972 356.614 51.8513 356.614 52.06C356.614 52.8494 356.836 53.4665 357.281 53.9111C357.735 54.3467 358.352 54.5644 359.132 54.5644C359.704 54.5644 360.244 54.4329 360.752 54.1697C361.269 53.8975 361.7 53.5164 362.045 53.0264C362.399 52.5273 362.635 51.9511 362.753 51.2977ZM369.475 47.5138C370.101 47.5138 370.632 47.6363 371.067 47.8813C371.512 48.1172 371.843 48.4393 372.061 48.8477C372.288 49.247 372.401 49.6961 372.401 50.1952C372.401 50.413 372.383 50.6126 372.347 50.7941C372.292 51.1208 372.238 51.3658 372.183 51.5291H365.8C365.763 51.8195 365.745 52.0282 365.745 52.1552C365.745 52.9356 365.981 53.5345 366.453 53.9519C366.925 54.3693 367.519 54.578 368.236 54.578C368.953 54.578 369.588 54.4011 370.142 54.0472C370.704 53.6842 371.103 53.1942 371.339 52.5772H371.979C371.689 53.3303 371.203 53.9429 370.523 54.4147C369.851 54.8775 369.057 55.1089 368.141 55.1089C367.233 55.1089 366.503 54.8457 365.949 54.3194C365.405 53.7931 365.133 53.0763 365.133 52.1688C365.133 51.8875 365.16 51.5972 365.214 51.2977C365.35 50.5264 365.623 49.8549 366.031 49.2833C366.439 48.7116 366.938 48.276 367.528 47.9766C368.127 47.668 368.776 47.5138 369.475 47.5138ZM371.693 51.0527C371.757 50.7896 371.789 50.5219 371.789 50.2497C371.789 49.5328 371.557 48.9838 371.094 48.6027C370.641 48.2216 370.064 48.031 369.366 48.031C368.849 48.031 368.349 48.1444 367.869 48.3713C367.388 48.5981 366.97 48.9384 366.616 49.3921C366.262 49.8459 366.017 50.3994 365.881 51.0527H371.693Z" fill="#A1B7CD"/>
</g>
<defs>
<linearGradient id="paint0_linear_827_18529" x1="393" y1="93" x2="0" y2="93" gradientUnits="userSpaceOnUse">
<stop stop-color="white" stop-opacity="0"/>
<stop offset="1" stop-color="white"/>
</linearGradient>
<clipPath id="clip0_827_18529">
<rect width="393" height="186" fill="white"/>
</clipPath>
</defs>
</svg>
