<svg width="35" height="31" viewBox="0 0 35 31" fill="none" xmlns="http://www.w3.org/2000/svg">
<path d="M12.826 4.9204C12.8541 4.92026 12.8822 4.92012 12.9112 4.91997C13.3094 4.91858 13.6982 4.94834 14.093 5.00428C14.1132 5.00709 14.1334 5.0099 14.1543 5.0128C14.7023 5.08961 15.2358 5.25243 15.7576 5.44346C15.7802 5.45157 15.8027 5.45968 15.826 5.46804C16.3613 5.66121 16.8831 5.89335 17.4067 6.11954C17.5661 6.18839 17.7258 6.25668 17.8854 6.32488C17.9383 6.3475 17.9911 6.37012 18.044 6.39274C18.0853 6.41043 18.0853 6.41043 18.1275 6.42848C23.4674 8.71397 23.4674 8.71397 23.5177 8.7355C23.551 8.74973 23.5842 8.76396 23.6174 8.77819C23.6993 8.81321 23.7811 8.84823 23.8629 8.88326C24.0196 8.95033 24.1763 9.01738 24.333 9.0844C24.7657 9.26946 25.1982 9.45494 25.6297 9.6432C25.7364 9.68973 25.8433 9.73561 25.9505 9.78089C26.3321 9.94443 26.54 10.1521 26.7187 10.5568C26.9177 11.0582 26.9722 11.6118 27.0196 12.1496C27.0252 12.2126 27.031 12.2756 27.0368 12.3386C27.0406 12.3805 27.0444 12.4223 27.0481 12.4642C27.0498 12.4821 27.0515 12.5 27.0532 12.5185C27.0914 12.9588 27.0947 13.4002 27.0953 13.842C27.0954 13.8716 27.0955 13.9012 27.0955 13.9316C27.0959 14.0877 27.0961 14.2437 27.0962 14.3998C27.0963 14.5599 27.0969 14.7201 27.0975 14.8803C27.0979 15.0046 27.0981 15.1288 27.0981 15.2531C27.0982 15.3122 27.0983 15.3712 27.0986 15.4303C27.1026 16.2566 27.1026 16.2566 26.8752 16.5086C26.7679 16.6118 26.657 16.6703 26.5235 16.7266C26.5021 16.7358 26.4806 16.745 26.4586 16.7545C25.849 17.0087 25.849 17.0087 25.6085 17.0087C25.6091 16.9693 25.6091 16.9693 25.6096 16.9291C25.6268 16.2446 25.6268 16.2446 25.5401 15.5691C25.5367 15.553 25.5333 15.5368 25.5298 15.5202C25.4793 15.2886 25.4165 15.0462 25.2209 14.9103C25.1277 14.8605 25.0198 14.8703 24.9216 14.9012C24.734 15.0015 24.6661 15.2343 24.6002 15.4335C24.5745 15.5268 24.5541 15.6202 24.5368 15.7155C24.5334 15.7341 24.53 15.7527 24.5264 15.7719C24.4461 16.2369 24.4615 16.7087 24.4684 17.1795C24.2041 17.2275 23.9383 17.2571 23.6719 17.2875C23.6227 17.2931 23.5735 17.2988 23.5244 17.3044C23.3949 17.3193 23.2654 17.3341 23.1358 17.3489C23.0081 17.3635 22.8803 17.3782 22.7525 17.3929C22.3502 17.4391 21.9478 17.4851 21.5454 17.5309C21.509 17.535 21.509 17.535 21.4719 17.5392C21.3575 17.5522 21.2432 17.5652 21.1289 17.5782C20.7769 17.6181 20.425 17.6597 20.0732 17.7019C19.8469 17.729 19.6206 17.7558 19.3943 17.7827C19.2638 17.7982 19.1332 17.8138 19.0026 17.8293C18.9544 17.835 18.9062 17.8407 18.8581 17.8465C18.8127 17.8519 18.7674 17.8573 18.722 17.8626C18.5852 17.8789 18.4484 17.8952 18.3115 17.9114C18.3318 17.5837 18.3318 17.5837 18.3459 17.5076C18.3614 17.3914 18.3613 17.2767 18.3618 17.1595C18.3619 17.1337 18.362 17.108 18.3622 17.0815C18.3624 17.027 18.3625 16.9725 18.3626 16.918C18.3628 16.8363 18.3636 16.7546 18.3643 16.6729C18.3674 15.9871 18.296 15.1905 17.8249 14.6732C17.5956 14.4628 17.3729 14.4245 17.0802 14.4468C16.9099 14.4863 16.7769 14.5689 16.6469 14.6908C16.6339 14.7019 16.6209 14.713 16.6075 14.7244C16.3804 14.9373 16.2502 15.2919 16.1681 15.5935C16.1634 15.6106 16.1587 15.6277 16.1538 15.6453C16.0035 16.2084 15.9606 16.798 15.9498 17.381C15.9431 17.6499 15.9078 17.8942 15.7804 18.131C15.7083 18.2032 15.6502 18.2165 15.5532 18.2276C15.5247 18.231 15.4963 18.2344 15.467 18.2379C15.4351 18.2414 15.4033 18.2449 15.3714 18.2485C15.3374 18.2524 15.3034 18.2564 15.2694 18.2605C15.1933 18.2695 15.1172 18.2783 15.0411 18.287C14.8794 18.3057 14.7177 18.3256 14.5561 18.3455C14.4275 18.3612 14.2989 18.3769 14.1702 18.3922C13.9449 18.4191 13.7196 18.446 13.4945 18.4758C13.4049 18.4876 13.3152 18.4989 13.2256 18.5102C13.1851 18.5154 13.1448 18.5208 13.1044 18.5265C12.3389 18.6329 11.5502 18.5684 10.7818 18.5308C10.7125 18.5275 10.6431 18.5242 10.5738 18.5209C9.822 18.4852 9.07137 18.4401 8.32079 18.3818C8.17618 18.3707 8.03154 18.3599 7.8869 18.349C7.48538 18.3189 7.08392 18.288 6.68248 18.2566C6.6373 18.2531 6.59211 18.2496 6.54692 18.2461C5.49199 18.1638 5.49199 18.1638 5.00454 18.1158C4.97664 18.1131 4.94873 18.1104 4.91998 18.1076C4.31373 18.0454 4.31373 18.0454 4.11077 17.8481C3.89784 17.5595 3.92127 17.082 3.89717 16.7342C3.89517 16.7056 3.89317 16.677 3.89111 16.6476C3.87528 16.405 3.86416 16.1657 3.89859 15.9244C3.93036 15.6851 3.93753 15.4445 3.94563 15.2031C3.95315 15.2031 3.96068 15.2031 3.96843 15.2031C3.97204 15.2273 3.97566 15.2514 3.97938 15.2763C4.01934 15.525 4.06593 15.7097 4.26487 15.8619C4.32475 15.8965 4.38631 15.926 4.44872 15.9549C4.46664 15.9633 4.48456 15.9717 4.50302 15.9804C4.70864 16.0749 4.91877 16.1536 5.13138 16.2279C5.14966 16.2344 5.16793 16.2409 5.18676 16.2475C5.68812 16.4236 6.20328 16.5151 6.7276 16.5695C6.75842 16.573 6.75842 16.573 6.78987 16.5766C7.05997 16.6038 7.33164 16.5987 7.60266 16.5985C7.64301 16.5985 7.64301 16.5985 7.68416 16.5984C8.26752 16.5978 8.84198 16.5753 9.41836 16.4719C9.4552 16.4657 9.49205 16.4594 9.5289 16.4532C9.81423 16.4037 10.0977 16.3428 10.3811 16.2818C10.4244 16.2725 10.4678 16.2632 10.5112 16.254C10.901 16.1713 11.2984 16.0814 11.663 15.9077C11.6804 15.8998 11.6977 15.892 11.7156 15.8839C11.9268 15.7863 12.0708 15.6725 12.1633 15.4421C12.1944 15.3528 12.2234 15.263 12.2516 15.1726C12.2711 15.1115 12.2908 15.0504 12.3104 14.9893C12.3189 14.9624 12.3273 14.9355 12.336 14.9078C12.356 14.8488 12.3779 14.7947 12.4056 14.7396C11.3757 14.8869 10.3041 15.1033 9.55517 15.9366C9.4808 16.0179 9.40153 16.0913 9.31859 16.1623C9.29537 16.1824 9.27215 16.2024 9.24822 16.223C9.07164 16.3528 8.84511 16.3687 8.63789 16.3906C8.60915 16.3937 8.58041 16.3968 8.55081 16.3999C8.2582 16.4289 7.96637 16.4334 7.67258 16.4313C7.5851 16.4307 7.49765 16.4308 7.41017 16.431C7.06632 16.4305 6.72734 16.4145 6.38555 16.3743C6.36885 16.3724 6.35214 16.3705 6.33493 16.3685C6.23663 16.3573 6.13865 16.3441 6.04066 16.3301C6.01397 16.3267 5.98728 16.3232 5.95978 16.3197C5.71486 16.2847 5.43248 16.2221 5.2682 16.0083C5.16948 15.8639 5.08082 15.7119 4.99225 15.5603C4.97749 15.5355 4.96274 15.5108 4.94753 15.4853C4.93504 15.4636 4.92255 15.442 4.90968 15.4198C4.76329 15.2218 4.57704 15.0989 4.37318 14.9774C4.32503 14.9484 4.27693 14.9193 4.22888 14.8901C4.20786 14.8776 4.18683 14.865 4.16517 14.8521C3.99739 14.7419 3.99739 14.7419 3.97893 14.6616C3.97991 14.642 3.98088 14.6224 3.98188 14.6022C3.9828 14.5794 3.98372 14.5566 3.98467 14.5331C3.98636 14.5082 3.98806 14.4832 3.98981 14.4574C3.99122 14.4309 3.99264 14.4044 3.9941 14.3771C4.01578 14.0171 4.05677 13.6586 4.09935 13.3009C4.10481 13.2549 4.11015 13.2089 4.11548 13.1629C4.33464 11.2945 4.78717 9.39523 6.24873 6.59022C6.26081 6.57308 6.2729 6.55594 6.28534 6.53828C7.13493 5.3913 9.28064 5.27379 10.5387 5.09038C10.5952 5.08211 10.6517 5.07368 10.7082 5.06505C11.4102 4.95997 12.1177 4.92142 12.826 4.9204Z" fill="#0070D9"/>
<path d="M14.6425 6.03815C15.2247 6.01995 15.8025 6.2449 16.3444 6.44527C16.3983 6.46502 16.4521 6.48475 16.5059 6.50448C16.8872 6.64459 17.2669 6.78889 17.6455 6.93723C17.824 7.00717 18.003 7.07581 18.182 7.14446C18.2755 7.18033 18.369 7.21626 18.4625 7.25218C18.4809 7.25925 18.4992 7.26631 18.5182 7.27358C18.9795 7.45094 19.4405 7.62906 19.9006 7.81018C20.1732 7.91746 20.4463 8.02367 20.7193 8.1299C21.571 8.46133 21.571 8.46133 21.9186 8.59729C21.9368 8.60441 21.955 8.61153 21.9738 8.61886C22.2091 8.71097 22.444 8.80412 22.6787 8.89798C22.7044 8.90825 22.7301 8.91852 22.7565 8.9291C22.8818 8.97921 23.0071 9.0294 23.1323 9.07974C23.3768 9.1778 23.6219 9.27283 23.8687 9.36387C24.1398 9.46421 24.4084 9.57158 24.6772 9.67864C24.7318 9.70034 24.7863 9.72205 24.8409 9.74375C24.9946 9.8049 25.1483 9.8662 25.3019 9.92759C25.3219 9.93558 25.3419 9.94357 25.3625 9.9518C25.4717 9.99546 25.5808 10.0393 25.6899 10.0834C25.714 10.0931 25.7381 10.1028 25.7629 10.1128C25.8879 10.1636 26.0117 10.2169 26.1348 10.2725C26.174 10.2902 26.174 10.2902 26.2139 10.3082C26.4291 10.4163 26.5179 10.5987 26.6042 10.8272C26.744 11.2605 26.8873 11.9287 26.7397 12.3713C26.6872 12.442 26.6602 12.4649 26.5799 12.4935C26.4051 12.5074 26.2422 12.4821 26.0719 12.4424C26.0358 12.4344 26.0358 12.4344 25.9991 12.4262C25.9212 12.4087 25.8433 12.3908 25.7655 12.3729C25.711 12.3605 25.6566 12.3482 25.6022 12.3359C25.2423 12.2543 24.8831 12.1691 24.5245 12.0814C24.2878 12.0237 24.0507 11.9694 23.8128 11.9177C23.565 11.8639 23.3178 11.8076 23.0711 11.7482C22.6609 11.6495 22.2498 11.5552 21.8387 11.461C21.8039 11.4531 21.7691 11.4451 21.7343 11.4371C21.5432 11.3933 21.3522 11.3496 21.1611 11.3059C20.9071 11.2478 20.653 11.1896 20.3989 11.1313C20.319 11.113 20.239 11.0947 20.159 11.0763C19.9467 11.0277 19.7345 10.979 19.5227 10.9283C19.1988 10.8507 18.8744 10.7792 18.5482 10.7142C18.5302 10.7106 18.5123 10.707 18.4939 10.7032C18.3056 10.6655 18.1175 10.6317 17.9272 10.6074C17.9041 10.6045 17.9041 10.6045 17.8805 10.6015C17.0919 10.5069 16.4066 10.7836 15.7931 11.3022C15.6883 11.3929 15.5902 11.4912 15.4925 11.5904C15.4432 11.6404 15.3925 11.6879 15.3407 11.7349C15.1882 11.8769 15.0488 12.0343 14.9067 12.188C14.5671 12.5555 14.5671 12.5555 14.4312 12.6789C14.3685 12.7359 14.3091 12.7968 14.2491 12.857C14.1392 12.9666 14.0264 13.0706 13.9092 13.1713C13.8523 13.2207 13.7965 13.2714 13.7409 13.3227C13.5752 13.4753 13.4024 13.6158 13.2266 13.7547C13.164 13.8043 13.1018 13.8546 13.0396 13.9048C12.9964 13.9394 12.9531 13.974 12.9098 14.0086C12.8864 14.0274 12.8629 14.0462 12.8387 14.0656C12.8161 14.0836 12.7934 14.1016 12.77 14.1201C12.7497 14.1363 12.7294 14.1524 12.7085 14.1691C12.6588 14.2041 12.6588 14.2041 12.6131 14.2041C12.5987 12.537 12.7777 10.8658 13.0559 9.22664C13.0697 9.14495 13.083 9.06319 13.0964 8.98141C13.2204 8.23115 13.3639 7.45625 13.6401 6.75074C13.6489 6.72784 13.6577 6.70494 13.6667 6.68134C13.7663 6.44526 13.9429 6.22524 14.1661 6.11718C14.322 6.05472 14.4778 6.04781 14.6425 6.03815Z" fill="white"/>
<path d="M12.3416 6.24322C12.3694 6.24292 12.3972 6.24262 12.4258 6.24231C12.9197 6.24147 12.9197 6.24147 13.1302 6.36989C13.1758 6.41873 13.1758 6.41873 13.183 6.49007C13.1793 6.61965 13.1408 6.74113 13.1066 6.86457C13.0994 6.89114 13.0922 6.91771 13.0848 6.94509C13.0695 7.00181 13.0541 7.05851 13.0387 7.11519C12.9985 7.26257 12.9591 7.4102 12.9198 7.55785C12.9121 7.58665 12.9044 7.61545 12.8965 7.64512C12.8131 7.95874 12.7398 8.27369 12.6738 8.59204C12.6678 8.62058 12.6617 8.64912 12.6554 8.67852C12.4335 9.72279 12.2886 10.7841 12.1456 11.8434C12.1268 11.9823 12.1079 12.1212 12.0887 12.26C12.086 12.2798 12.0833 12.2996 12.0805 12.3199C12.0412 12.6027 11.9732 12.8378 11.7612 13.0272C10.973 13.6319 9.76709 13.6354 8.83629 13.6972C8.8072 13.6991 8.77812 13.7011 8.74816 13.7031C8.22565 13.7361 7.704 13.7488 7.18062 13.7476C7.15055 13.7475 7.12049 13.7475 7.08952 13.7474C4.87052 13.7437 4.87052 13.7437 4.51485 13.3913C4.39112 13.2304 4.42338 12.9879 4.43686 12.7921C4.45615 12.6194 4.49017 12.4494 4.52385 12.2793C4.52837 12.2558 4.5329 12.2323 4.53756 12.2081C4.68401 11.4477 4.87104 10.6968 5.09856 9.95952C5.10672 9.93288 5.11488 9.90624 5.12329 9.8788C5.87346 7.44646 5.87346 7.44646 6.71118 6.97712C7.18842 6.72777 7.74128 6.6806 8.26331 6.6366C8.46313 6.61822 8.66079 6.5865 8.8591 6.5551C10.009 6.37331 11.178 6.24389 12.3416 6.24322Z" fill="white"/>
<path d="M17.5024 15.1517C17.8723 15.4334 17.9866 15.9506 18.0604 16.4062C18.0865 16.5966 18.0885 16.7856 18.0876 16.9776C18.0875 16.9957 18.0875 17.0138 18.0874 17.0325C18.085 17.6736 18.0045 18.4111 17.5639 18.892C17.4228 19.0241 17.2706 19.0729 17.083 19.0608C17.0081 19.039 16.9456 19.0056 16.879 18.9633C16.8655 18.9559 16.8521 18.9484 16.8382 18.9408C16.5813 18.7767 16.4417 18.3987 16.3717 18.1051C16.3191 17.8732 16.2708 17.6433 16.2669 17.4039C16.2663 17.3846 16.2658 17.3652 16.2652 17.3453C16.2466 16.6512 16.323 15.8033 16.7869 15.2735C16.9872 15.0738 17.2498 14.9987 17.5024 15.1517Z" fill="#0070D9"/>
<path d="M26.8484 18.1319C26.7656 18.1915 26.6948 18.196 26.5985 18.2059C26.5593 18.2104 26.52 18.2148 26.4808 18.2192C26.4598 18.2215 26.4387 18.2238 26.417 18.2262C26.3014 18.2389 26.1859 18.2524 26.0704 18.266C26.0454 18.2689 26.0204 18.2718 25.9946 18.2749C25.6732 18.3131 25.3526 18.3579 25.032 18.4027C25.0033 18.4067 24.9747 18.4107 24.9453 18.4148C24.5842 18.465 24.2236 18.5185 23.8632 18.5744C23.5872 18.6173 23.311 18.6591 23.0348 18.7005C23.0126 18.7038 22.9904 18.7072 22.9676 18.7106C22.5448 18.7739 22.1221 18.837 21.6993 18.9C21.4508 18.937 21.2023 18.9742 20.9538 19.0115C19.9296 19.1654 18.905 19.3139 17.8787 19.4508C17.8556 19.4538 17.8325 19.4569 17.8087 19.4601C17.0156 19.5659 16.2222 19.6679 15.4263 19.7462C15.4005 19.7488 15.3748 19.7513 15.3482 19.754C14.9947 19.789 14.6411 19.8214 14.2871 19.8493C14.2688 19.8508 14.2505 19.8522 14.2316 19.8537C14.1273 19.8619 14.023 19.8696 13.9187 19.8766C13.8854 19.8789 13.8522 19.8813 13.8189 19.8838C13.4433 19.9114 13.0671 19.9085 12.6908 19.908C12.5977 19.9078 12.5046 19.9079 12.4115 19.908C12.0372 19.9085 11.6637 19.9081 11.29 19.8801C11.29 19.872 11.29 19.8639 11.29 19.8555C11.8477 19.7624 12.4065 19.6853 12.9671 19.6163C13.0208 19.6096 13.0744 19.603 13.128 19.5963C13.5999 19.5376 14.0723 19.4856 14.545 19.4351C14.8264 19.405 15.1077 19.3742 15.3889 19.3423C15.4125 19.3396 15.4361 19.337 15.4603 19.3342C15.5057 19.3291 15.5511 19.3239 15.5965 19.3188C15.9123 19.2829 16.2282 19.2488 16.5443 19.2159C17.1875 19.1488 17.8301 19.0751 18.4726 19.0003C18.5849 18.9872 18.6972 18.9742 18.8095 18.9612C18.9467 18.9453 19.0839 18.9294 19.2211 18.9135C19.246 18.9106 19.2709 18.9077 19.2965 18.9047C19.5715 18.8728 19.8464 18.8404 20.1212 18.8073C20.3371 18.7813 20.5529 18.756 20.769 18.7323C20.7993 18.729 20.8296 18.7256 20.8599 18.7223C20.9234 18.7153 20.9868 18.7083 21.0502 18.7013C21.2206 18.6825 21.391 18.6636 21.5614 18.6447C21.5872 18.6419 21.5872 18.6419 21.6135 18.6389C21.9536 18.6012 22.2937 18.563 22.6337 18.5243C22.6601 18.5213 22.6864 18.5183 22.7136 18.5152C23.0047 18.4822 23.2957 18.4487 23.5866 18.4143C26.0648 18.1217 26.0648 18.1217 26.8484 18.1319Z" fill="#0070D9"/>
<path d="M25.1229 15.3728C25.2873 15.4774 25.3445 15.6545 25.3948 15.8455C25.5217 16.4124 25.5247 17.1184 25.2697 17.6478C25.2184 17.7333 25.1796 17.7866 25.1002 17.8434C25.0246 17.8572 24.9696 17.8647 24.9041 17.8163C24.6331 17.5123 24.6106 16.9807 24.6124 16.5831C24.6219 16.1887 24.6682 15.6902 24.9408 15.3973C25.0069 15.3618 25.0495 15.3637 25.1229 15.3728Z" fill="#0070D9"/>
<path d="M17.2637 16.0118C17.3841 16.0676 17.4611 16.165 17.5145 16.2917C17.6017 16.539 17.6325 16.7746 17.6312 17.0384C17.6311 17.0784 17.6311 17.0784 17.6309 17.1193C17.6268 17.4442 17.6081 17.8456 17.382 18.0863C17.3195 18.1394 17.2731 18.168 17.1933 18.1731C17.0731 18.15 17.0092 18.0991 16.9229 18.0086C16.6856 17.6065 16.6851 16.9926 16.7709 16.541C16.8178 16.3397 16.8924 16.1833 17.037 16.0469C17.1205 16.0045 17.1724 15.9993 17.2637 16.0118Z" fill="white"/>
<path d="M8.78027 18.6074C8.94513 18.6145 9.10999 18.6218 9.27483 18.6292C9.33361 18.6319 9.39238 18.6345 9.45116 18.6371C9.56512 18.6422 9.67908 18.6474 9.79303 18.6526C9.83911 18.6547 9.88519 18.6568 9.93127 18.6589C9.99718 18.6618 10.0631 18.6648 10.129 18.6679C10.1487 18.6687 10.1683 18.6696 10.1886 18.6705C10.3131 18.6764 10.4359 18.6883 10.5597 18.7042C10.49 18.8692 10.3089 18.9698 10.1608 19.0488C9.848 19.1677 9.45604 19.0982 9.16382 18.9536C8.82991 18.7653 8.82991 18.7653 8.78027 18.6074Z" fill="#0070D9"/>
<path d="M25.0532 16.0059C25.1244 16.0179 25.1244 16.0179 25.1756 16.0737C25.3215 16.3499 25.2801 16.7374 25.2136 17.0305C25.1873 17.1225 25.1659 17.18 25.1016 17.2481C25.0447 17.2647 25.0447 17.2647 24.9877 17.2481C24.8647 17.1252 24.8489 16.9787 24.8434 16.8082C24.8429 16.7513 24.8426 16.6944 24.8425 16.6375C24.842 16.6093 24.8414 16.581 24.8408 16.5519C24.8403 16.3726 24.859 16.2246 24.9422 16.0662C24.9877 16.0179 24.9877 16.0179 25.0532 16.0059Z" fill="white"/>
<path d="M26.8479 18.1292C26.7813 18.1785 26.7598 18.1874 26.6843 18.1964C26.6652 18.1987 26.646 18.2011 26.6263 18.2035C26.6055 18.2059 26.5848 18.2082 26.5634 18.2107C26.5418 18.2133 26.5201 18.2159 26.4978 18.2186C26.4282 18.227 26.3586 18.235 26.289 18.2431C26.2435 18.2485 26.198 18.254 26.1525 18.2594C26.0193 18.2753 25.8861 18.2909 25.7529 18.3064C25.7095 18.3115 25.6661 18.3165 25.6227 18.3216C25.5216 18.3335 25.4205 18.3453 25.3194 18.357C25.3269 18.332 25.3345 18.3069 25.3422 18.2811C25.3121 18.2644 25.282 18.2477 25.251 18.2304C25.3832 18.22 25.5153 18.2097 25.6475 18.1994C25.6923 18.1959 25.7371 18.1924 25.7818 18.1888C26.0067 18.1712 26.2316 18.1538 26.4567 18.1394C26.4725 18.1383 26.4884 18.1372 26.5048 18.1362C26.6193 18.1291 26.7332 18.1284 26.8479 18.1292Z" fill="#0070D9"/>
<path d="M11.7235 19.7935C11.731 19.8159 11.7385 19.8383 11.7463 19.8614C11.5957 19.8614 11.4452 19.8614 11.29 19.8614C11.29 19.8539 11.29 19.8465 11.29 19.8388C11.3409 19.8311 11.3917 19.8236 11.4426 19.8161C11.4851 19.8098 11.4851 19.8098 11.5284 19.8034C11.5948 19.7953 11.6568 19.7915 11.7235 19.7935Z" fill="#0070D9"/>
<path d="M3.94434 15.207C3.95186 15.207 3.95939 15.207 3.96715 15.207C3.98221 15.3103 3.99726 15.4136 4.01277 15.5201C3.99772 15.5201 3.98266 15.5201 3.96715 15.5201C3.96715 15.5598 3.96715 15.5995 3.96715 15.6405C3.95962 15.6405 3.95209 15.6405 3.94434 15.6405C3.94434 15.4974 3.94434 15.3544 3.94434 15.207Z" fill="#0070D9"/>
<path d="M4.3324 7.83953C4.3324 7.83953 4.46177 7.68277 4.57388 7.62488C4.73325 7.54261 5.03001 7.57122 5.03001 7.57122L5.3654 7.59805L5.72358 7.64625L5.5753 7.97704C5.5753 7.97704 5.06246 7.61082 4.86903 7.8127C4.74389 7.94331 4.78853 8.26883 4.78853 8.26883C4.78853 8.26883 4.80579 8.68657 4.73487 8.93962C4.71698 9.00343 4.68121 9.1006 4.68121 9.1006C4.68121 9.1006 4.61001 9.18473 4.54705 9.20793C4.47822 9.23328 4.43153 9.22027 4.35923 9.20793C4.29391 9.19677 4.25107 9.18946 4.19824 9.14945C4.08088 9.06058 4.11196 8.98219 4.09091 8.85431C4.06873 8.7195 4.09092 8.48348 4.09092 8.48348C4.09092 8.48348 4.10509 8.22694 4.17141 8.08102C4.21831 7.97784 4.3324 7.83953 4.3324 7.83953Z" fill="#0070D9"/>
<path d="M12.0433 7.83953C12.0433 7.83953 12.1727 7.68277 12.2848 7.62488C12.4442 7.54261 12.741 7.57122 12.741 7.57122L13.0763 7.59805H13.3775L13.2862 7.97704C13.2862 7.97704 12.7734 7.61082 12.58 7.8127C12.4548 7.94331 12.4995 8.26883 12.4995 8.26883C12.4995 8.26883 12.5167 8.68657 12.4458 8.93962C12.4279 9.00343 12.3921 9.1006 12.3921 9.1006C12.3921 9.1006 12.3209 9.18473 12.258 9.20793C12.1892 9.23328 12.1425 9.22027 12.0702 9.20793C12.0048 9.19677 11.962 9.18946 11.9092 9.14945C11.7918 9.06058 11.8229 8.98219 11.8018 8.85431C11.7797 8.7195 11.8019 8.48348 11.8019 8.48348C11.8019 8.48348 11.816 8.22694 11.8824 8.08102C11.9293 7.97784 12.0433 7.83953 12.0433 7.83953Z" fill="#0070D9"/>
<path d="M25.9492 9.49509C26.1352 9.06688 26.235 8.60625 26.2429 8.13947C26.2508 7.6727 26.1667 7.20894 25.9954 6.77466C25.8241 6.34039 25.569 5.9441 25.2445 5.60844C24.9201 5.27277 24.5327 5.0043 24.1045 4.81835C23.6763 4.6324 23.2156 4.53261 22.7489 4.52468C22.2821 4.51675 21.8183 4.60083 21.3841 4.77213C20.9498 4.94343 20.5535 5.19859 20.2178 5.52304C19.8822 5.84749 19.6137 6.23488 19.4277 6.66308L22.6885 8.07909L25.9492 9.49509Z" fill="#0070D9"/>
<line x1="24.9966" y1="4.23524" x2="25.9772" y2="2.7855" stroke="#0070D9" stroke-width="0.426346" stroke-linecap="round"/>
<line x1="26.1116" y1="5.25941" x2="26.8173" y2="4.82438" stroke="#0070D9" stroke-width="0.426346" stroke-linecap="round"/>
<line x1="26.7227" y1="6.70608" x2="28.4049" y2="6.36845" stroke="#0070D9" stroke-width="0.426346" stroke-linecap="round"/>
<line x1="26.7882" y1="8.2709" x2="27.7582" y2="8.49088" stroke="#0070D9" stroke-width="0.426346" stroke-linecap="round"/>
<line x1="23.5018" y1="3.68864" x2="23.6778" y2="2.90526" stroke="#0070D9" stroke-width="0.426346" stroke-linecap="round"/>
<line x1="21.9029" y1="3.80581" x2="21.5902" y2="2.11879" stroke="#0070D9" stroke-width="0.426346" stroke-linecap="round"/>
<line x1="20.5297" y1="4.52288" x2="19.9146" y2="3.66269" stroke="#0070D9" stroke-width="0.426346" stroke-linecap="round"/>
<line x1="19.8718" y1="11.3854" x2="24.7579" y2="9.53343" stroke="#0070D9" stroke-width="0.38706"/>
<line x1="20.4462" y1="11.8509" x2="25.5132" y2="9.93032" stroke="#0070D9" stroke-width="0.19353"/>
<path d="M2.9424 27.1017C3.01103 27.1142 3.09526 27.1267 3.19509 27.1391C3.29492 27.1454 3.38851 27.1485 3.47585 27.1485C3.68799 27.1485 3.8814 27.1173 4.0561 27.0549C4.23704 26.9925 4.3899 26.8958 4.51469 26.7648C4.64571 26.6338 4.74554 26.4653 4.81417 26.2594C4.88904 26.0473 4.92648 25.7946 4.92648 25.5013C4.92648 24.9398 4.79545 24.5187 4.5334 24.2379C4.27136 23.9509 3.92196 23.8074 3.48521 23.8074C3.39786 23.8074 3.3074 23.8105 3.21381 23.8168C3.12646 23.823 3.03599 23.8324 2.9424 23.8448V27.1017ZM3.4665 28.4681C3.36043 28.4681 3.23876 28.465 3.1015 28.4587C2.96424 28.4525 2.82074 28.44 2.67099 28.4213C2.52749 28.4026 2.38087 28.3776 2.23113 28.3464C2.08763 28.3215 1.95348 28.284 1.8287 28.2341C1.48554 28.1031 1.31396 27.8754 1.31396 27.5509V23.1804C1.31396 23.0493 1.34828 22.9495 1.41691 22.8809C1.49178 22.806 1.59161 22.7467 1.71639 22.703C1.98468 22.6157 2.26856 22.5595 2.56805 22.5346C2.86753 22.5034 3.13582 22.4878 3.37291 22.4878C3.85957 22.4878 4.29943 22.5471 4.69251 22.6656C5.09182 22.7842 5.43185 22.9682 5.71262 23.2178C5.99962 23.4611 6.22112 23.77 6.3771 24.1443C6.53308 24.5187 6.61107 24.9617 6.61107 25.4733C6.61107 25.9724 6.5362 26.4092 6.38646 26.7835C6.23672 27.1516 6.02146 27.4636 5.7407 27.7194C5.46617 27.969 5.13549 28.1561 4.74866 28.2809C4.36183 28.4057 3.93444 28.4681 3.4665 28.4681ZM8.12888 22.8154C8.23495 22.753 8.39405 22.6937 8.60619 22.6375C8.82456 22.5814 9.04293 22.5533 9.26131 22.5533C9.57327 22.5533 9.84779 22.6001 10.0849 22.6937C10.3282 22.781 10.4842 22.9214 10.5528 23.1148C10.6651 23.4393 10.7868 23.8168 10.9178 24.2473C11.0488 24.6778 11.1799 25.1239 11.3109 25.5856C11.4419 26.041 11.5698 26.4934 11.6946 26.9426C11.8194 27.3856 11.9286 27.7787 12.0222 28.1218C11.9473 28.2092 11.835 28.2778 11.6852 28.3277C11.5355 28.3839 11.3577 28.4119 11.1518 28.4119C11.0021 28.4119 10.8741 28.3995 10.7681 28.3745C10.6683 28.3496 10.584 28.3121 10.5154 28.2622C10.453 28.2123 10.4 28.1468 10.3563 28.0657C10.3189 27.9846 10.2845 27.891 10.2533 27.7849L10.0849 27.1391H8.39093C8.34102 27.3263 8.2911 27.5197 8.24119 27.7194C8.19128 27.919 8.14136 28.1125 8.09145 28.2996C8.0041 28.3308 7.91051 28.3558 7.81068 28.3745C7.7171 28.3995 7.60167 28.4119 7.46441 28.4119C7.14621 28.4119 6.90911 28.3589 6.75313 28.2528C6.60339 28.1405 6.52852 27.9877 6.52852 27.7943C6.52852 27.7069 6.541 27.6196 6.56596 27.5322C6.59091 27.4449 6.61899 27.3419 6.65019 27.2234C6.69386 27.0549 6.75313 26.8459 6.828 26.5963C6.90911 26.3468 6.99646 26.0785 7.09005 25.7915C7.18364 25.4982 7.28347 25.1987 7.38954 24.893C7.4956 24.5873 7.59543 24.3003 7.68902 24.032C7.78261 23.7575 7.86684 23.5141 7.94171 23.302C8.02282 23.0899 8.08521 22.9277 8.12888 22.8154ZM9.25195 24.0226C9.1646 24.2847 9.06477 24.5779 8.95246 24.9024C8.8464 25.2206 8.74969 25.545 8.66234 25.8757H9.82284C9.73549 25.5388 9.64502 25.2112 9.55143 24.893C9.46408 24.5686 9.38297 24.2785 9.3081 24.0226H9.25195ZM14.7833 28.2809C14.7147 28.2996 14.6086 28.3184 14.4651 28.3371C14.3216 28.3558 14.1812 28.3652 14.044 28.3652C13.757 28.3652 13.5417 28.3184 13.3982 28.2248C13.2547 28.1249 13.183 27.919 13.183 27.6071V26.3436C13.027 26.1128 12.8585 25.857 12.6776 25.5762C12.4966 25.2955 12.3188 25.0084 12.1441 24.7152C11.9694 24.422 11.8072 24.135 11.6575 23.8542C11.5077 23.5672 11.3861 23.3051 11.2925 23.068C11.3736 22.9557 11.4828 22.8528 11.62 22.7592C11.7635 22.6656 11.9382 22.6188 12.1441 22.6188C12.3875 22.6188 12.584 22.6687 12.7337 22.7686C12.8897 22.8684 13.0363 23.0556 13.1736 23.3301L13.9504 24.893H14.0065C14.0939 24.6996 14.1688 24.5249 14.2311 24.3689C14.2998 24.2067 14.3653 24.0476 14.4277 23.8916C14.4901 23.7294 14.5556 23.5641 14.6242 23.3956C14.6929 23.2209 14.7708 23.0213 14.8582 22.7966C14.9705 22.7405 15.0953 22.6968 15.2325 22.6656C15.3698 22.6344 15.5008 22.6188 15.6256 22.6188C15.844 22.6188 16.028 22.6781 16.1778 22.7966C16.3338 22.9089 16.4118 23.0805 16.4118 23.3114C16.4118 23.3862 16.3962 23.4767 16.365 23.5828C16.3338 23.6888 16.262 23.8511 16.1497 24.0694C16.0374 24.2816 15.8721 24.5717 15.6537 24.9398C15.4416 25.3079 15.1514 25.7884 14.7833 26.3811V28.2809ZM19.5228 27.1485C19.6101 27.1735 19.7224 27.1922 19.8597 27.2047C19.997 27.2109 20.128 27.214 20.2528 27.214C20.5023 27.214 20.7082 27.1641 20.8704 27.0643C21.0389 26.9582 21.1231 26.796 21.1231 26.5776C21.1231 26.3717 21.0545 26.2251 20.9172 26.1377C20.78 26.0504 20.571 26.0067 20.2902 26.0067H19.5228V27.1485ZM19.5228 24.8649H20.206C20.4743 24.8649 20.6677 24.815 20.7862 24.7152C20.911 24.6154 20.9734 24.4688 20.9734 24.2753C20.9734 24.1069 20.9016 23.9727 20.7581 23.8729C20.6209 23.7731 20.4119 23.7232 20.1311 23.7232C20.0375 23.7232 19.9283 23.7263 19.8035 23.7325C19.685 23.7388 19.5914 23.7481 19.5228 23.7606V24.8649ZM20.1311 28.4681C20.025 28.4681 19.9002 28.465 19.7567 28.4587C19.6132 28.4525 19.4635 28.44 19.3075 28.4213C19.1578 28.4026 19.008 28.3776 18.8583 28.3464C18.7086 28.3215 18.5713 28.284 18.4465 28.2341C18.1033 28.1031 17.9318 27.8754 17.9318 27.5509V23.1804C17.9318 23.0493 17.9661 22.9495 18.0347 22.8809C18.1096 22.806 18.2094 22.7467 18.3342 22.703C18.5463 22.6282 18.8115 22.5751 19.1297 22.5439C19.4479 22.5065 19.7755 22.4878 20.1124 22.4878C20.911 22.4878 21.5256 22.6219 21.9561 22.8902C22.3866 23.1585 22.6018 23.5734 22.6018 24.135C22.6018 24.4157 22.5207 24.659 22.3585 24.8649C22.1963 25.0646 21.9779 25.2112 21.7034 25.3048C22.0153 25.3922 22.2743 25.5513 22.4802 25.7821C22.6923 26.013 22.7984 26.3031 22.7984 26.6525C22.7984 27.2702 22.5675 27.7288 22.1058 28.0282C21.6504 28.3215 20.9921 28.4681 20.1311 28.4681ZM28.1904 26.222C28.1904 26.5589 28.1311 26.8677 28.0126 27.1485C27.9003 27.423 27.7349 27.6601 27.5165 27.8598C27.2982 28.0532 27.033 28.2029 26.721 28.309C26.4091 28.4151 26.0566 28.4681 25.6635 28.4681C25.2704 28.4681 24.9179 28.4151 24.6059 28.309C24.294 28.2029 24.0288 28.0532 23.8104 27.8598C23.5921 27.6601 23.4236 27.423 23.3051 27.1485C23.1928 26.8677 23.1366 26.5589 23.1366 26.222V22.6469C23.2052 22.6344 23.3144 22.6188 23.4642 22.6001C23.6139 22.5751 23.7574 22.5627 23.8947 22.5627C24.0382 22.5627 24.163 22.5751 24.269 22.6001C24.3813 22.6188 24.4749 22.6563 24.5498 22.7124C24.6247 22.7686 24.6808 22.8466 24.7183 22.9464C24.7557 23.0462 24.7744 23.1772 24.7744 23.3395V26.1939C24.7744 26.4934 24.8555 26.7274 25.0177 26.8958C25.1862 27.0643 25.4014 27.1485 25.6635 27.1485C25.9318 27.1485 26.147 27.0643 26.3093 26.8958C26.4715 26.7274 26.5526 26.4934 26.5526 26.1939V22.6469C26.6212 22.6344 26.7304 22.6188 26.8801 22.6001C27.0299 22.5751 27.1734 22.5627 27.3107 22.5627C27.4542 22.5627 27.5789 22.5751 27.685 22.6001C27.7973 22.6188 27.8909 22.6563 27.9658 22.7124C28.0406 22.7686 28.0968 22.8466 28.1342 22.9464C28.1717 23.0462 28.1904 23.1772 28.1904 23.3395V26.222ZM30.4277 26.0629C30.1532 25.9693 29.9036 25.8757 29.679 25.7821C29.4544 25.6823 29.261 25.5637 29.0988 25.4265C28.9366 25.2892 28.8087 25.127 28.7151 24.9398C28.6277 24.7464 28.584 24.5124 28.584 24.2379C28.584 23.7076 28.7868 23.2833 29.1924 22.9651C29.6042 22.6469 30.1782 22.4878 30.9144 22.4878C31.1827 22.4878 31.4323 22.5065 31.6631 22.5439C31.894 22.5814 32.0905 22.6407 32.2527 22.7218C32.4212 22.7966 32.5522 22.8965 32.6458 23.0213C32.7394 23.1398 32.7862 23.2802 32.7862 23.4424C32.7862 23.6046 32.7487 23.745 32.6739 23.8635C32.599 23.9759 32.5085 24.0726 32.4025 24.1537C32.2652 24.0663 32.0811 23.9915 31.8503 23.9291C31.6194 23.8604 31.3667 23.8261 31.0922 23.8261C30.8114 23.8261 30.6056 23.8667 30.4745 23.9478C30.3435 24.0226 30.278 24.1194 30.278 24.2379C30.278 24.3315 30.3185 24.4095 30.3997 24.4719C30.4808 24.528 30.6024 24.5811 30.7647 24.631L31.2607 24.7901C31.8472 24.9773 32.2964 25.2175 32.6083 25.5107C32.9265 25.7977 33.0856 26.1908 33.0856 26.6899C33.0856 27.2203 32.8766 27.6508 32.4586 27.9814C32.0406 28.3059 31.426 28.4681 30.6149 28.4681C30.3279 28.4681 30.0596 28.4431 29.81 28.3932C29.5667 28.3496 29.3515 28.284 29.1643 28.1967C28.9834 28.1031 28.8398 27.9908 28.7338 27.8598C28.634 27.7225 28.584 27.5665 28.584 27.3918C28.584 27.2109 28.6371 27.058 28.7431 26.9332C28.8492 26.8022 28.9646 26.7024 29.0894 26.6338C29.2641 26.771 29.4763 26.8896 29.7258 26.9894C29.9816 27.0892 30.2593 27.1391 30.5588 27.1391C30.8645 27.1391 31.0797 27.0924 31.2045 26.9988C31.3293 26.9052 31.3917 26.796 31.3917 26.6712C31.3917 26.5464 31.3418 26.4528 31.242 26.3904C31.1421 26.3218 31.0017 26.2563 30.8208 26.1939L30.4277 26.0629Z" fill="#0070D9"/>
</svg>
