<svg width="44" height="3" viewBox="0 0 44 3" fill="none" xmlns="http://www.w3.org/2000/svg">
<path d="M-0.000325561 1.44336C-0.000325561 2.17974 0.596628 2.77669 1.33301 2.77669C2.06939 2.77669 2.66634 2.17974 2.66634 1.44336C2.66634 0.70698 2.06939 0.110026 1.33301 0.110026C0.596628 0.110026 -0.000325561 0.70698 -0.000325561 1.44336ZM43.333 1.44336L40.833 -1.63317e-05V2.88674L43.333 1.44336ZM1.33301 1.44336V1.69336H2.28755V1.44336V1.19336H1.33301V1.44336ZM4.19664 1.44336V1.69336H6.10573V1.44336V1.19336H4.19664V1.44336ZM8.01483 1.44336V1.69336H9.92392V1.44336V1.19336H8.01483V1.44336ZM11.833 1.44336V1.69336H13.7421V1.44336V1.19336H11.833V1.44336ZM15.6512 1.44336V1.69336H17.5603V1.44336V1.19336H15.6512V1.44336ZM19.4694 1.44336V1.69336H21.3785V1.44336V1.19336H19.4694V1.44336ZM23.2875 1.44336V1.69336H25.1966V1.44336V1.19336H23.2875V1.44336ZM27.1057 1.44336V1.69336H29.0148V1.44336V1.19336H27.1057V1.44336ZM30.9239 1.44336V1.69336H32.833V1.44336V1.19336H30.9239V1.44336ZM34.7421 1.44336V1.69336H36.6512V1.44336V1.19336H34.7421V1.44336ZM38.5603 1.44336V1.69336H40.4694V1.44336V1.19336H38.5603V1.44336Z" fill="#BBBBBB"/>
</svg>
