<svg width="24" height="24" viewBox="0 0 24 24" fill="none" xmlns="http://www.w3.org/2000/svg">
<path d="M14.5 19.982C16.073 19.942 17.177 19.815 18 19.415V21C18 21.2653 17.8946 21.5196 17.7071 21.7071C17.5196 21.8947 17.2652 22 17 22H15.5C15.2348 22 14.9804 21.8947 14.7929 21.7071C14.6054 21.5196 14.5 21.2653 14.5 21V19.982ZM6 19.415C6.823 19.815 7.927 19.942 9.5 19.982V21C9.5 21.2653 9.39464 21.5196 9.20711 21.7071C9.01957 21.8947 8.76522 22 8.5 22H7C6.73478 22 6.48043 21.8947 6.29289 21.7071C6.10536 21.5196 6 21.2653 6 21V19.415Z" fill="#0070D9"/>
<path opacity="0.5" fill-rule="evenodd" clip-rule="evenodd" d="M5.172 3.172C6.343 2 8.229 2 12 2C15.771 2 17.657 2 18.828 3.172C19.892 4.235 19.99 5.886 20 9V13C19.99 16.114 19.892 17.765 18.828 18.828C18.5873 19.0693 18.3073 19.2678 18 19.415C17.177 19.815 16.073 19.942 14.5 19.982C13.773 20 12.946 20 12 20C11.054 20 10.227 20 9.5 19.982C7.927 19.942 6.823 19.815 6 19.415C5.69266 19.2678 5.41266 19.0693 5.172 18.828C4.108 17.765 4.009 16.114 4 13V9C4.01 5.886 4.108 4.235 5.172 3.172Z" fill="#0070D9"/>
<path d="M17.75 16C17.75 15.8011 17.671 15.6103 17.5303 15.4697C17.3897 15.329 17.1989 15.25 17 15.25H15.5C15.3011 15.25 15.1103 15.329 14.9697 15.4697C14.829 15.6103 14.75 15.8011 14.75 16C14.75 16.1989 14.829 16.3897 14.9697 16.5303C15.1103 16.671 15.3011 16.75 15.5 16.75H17C17.1989 16.75 17.3897 16.671 17.5303 16.5303C17.671 16.3897 17.75 16.1989 17.75 16ZM6.25 16C6.25 15.8011 6.32902 15.6103 6.46967 15.4697C6.61032 15.329 6.80109 15.25 7 15.25H8.5C8.69891 15.25 8.88968 15.329 9.03033 15.4697C9.17098 15.6103 9.25 15.8011 9.25 16C9.25 16.1989 9.17098 16.3897 9.03033 16.5303C8.88968 16.671 8.69891 16.75 8.5 16.75H7C6.80109 16.75 6.61032 16.671 6.46967 16.5303C6.32902 16.3897 6.25 16.1989 6.25 16ZM5.5 9.5C5.5 10.914 5.5 11.621 5.94 12.06C6.379 12.5 7.086 12.5 8.5 12.5H15.5C16.914 12.5 17.621 12.5 18.06 12.06C18.5 11.621 18.5 10.914 18.5 9.5V7C18.5 5.586 18.5 4.879 18.06 4.44C17.622 4 16.915 4 15.5 4H8.5C7.086 4 6.379 4 5.94 4.44C5.5 4.878 5.5 5.585 5.5 7V9.5ZM2.4 11.8L4 13V9H3C2.73478 9 2.48043 9.10536 2.29289 9.29289C2.10536 9.48043 2 9.73478 2 10V11C2 11.1552 2.03614 11.3084 2.10557 11.4472C2.175 11.5861 2.2758 11.7069 2.4 11.8ZM21 9H19.999L20 13L21.6 11.8C21.7242 11.7069 21.825 11.5861 21.8944 11.4472C21.9639 11.3084 22 11.1552 22 11V10C22 9.73478 21.8946 9.48043 21.7071 9.29289C21.5196 9.10536 21.2652 9 21 9Z" fill="#0070D9"/>
</svg>
