<svg width="16" height="16" viewBox="0 0 16 16" fill="none" xmlns="http://www.w3.org/2000/svg">
<mask id="mask0_364_11376" style="mask-type:alpha" maskUnits="userSpaceOnUse" x="0" y="0" width="16" height="16">
<rect width="16" height="16" fill="#D9D9D9"/>
</mask>
<g mask="url(#mask0_364_11376)">
<path d="M8.66699 9.36852L9.36949 8.66602L7.83366 7.13018V4.16602H6.83366V7.53518L8.66699 9.36852ZM6.46699 11.9007C6.62766 11.4486 6.90199 11.0742 7.28999 10.7775C7.67799 10.481 8.12588 10.3327 8.63366 10.3327H10.8657C11.2221 9.93779 11.5003 9.4844 11.7003 8.97252C11.9003 8.46052 12.0003 7.9139 12.0003 7.33268C12.0003 6.03268 11.5475 4.9299 10.642 4.02435C9.73644 3.11879 8.63366 2.66602 7.33366 2.66602C6.03366 2.66602 4.93088 3.11879 4.02533 4.02435C3.11977 4.9299 2.66699 6.03268 2.66699 7.33268C2.66699 8.48146 3.02833 9.4804 3.75099 10.3295C4.47366 11.1786 5.37899 11.7023 6.46699 11.9007ZM8.66699 14.9993C8.06099 14.9993 7.53921 14.7966 7.10166 14.391C6.66399 13.9855 6.42038 13.4921 6.37083 12.9108C5.03238 12.6861 3.91383 12.0517 3.01516 11.0077C2.11638 9.96368 1.66699 8.73868 1.66699 7.33268C1.66699 5.75857 2.21777 4.42063 3.31933 3.31885C4.42088 2.21696 5.75849 1.66602 7.33216 1.66602C8.90583 1.66602 10.2439 2.21696 11.3465 3.31885C12.449 4.42063 13.0003 5.75857 13.0003 7.33268C13.0003 7.89168 12.9187 8.42502 12.7555 8.93268C12.5922 9.44035 12.3657 9.90701 12.076 10.3327H12.7107C13.3523 10.3327 13.8943 10.5612 14.3367 11.0182C14.7791 11.4751 15.0003 12.0243 15.0003 12.666C15.0003 13.3077 14.7718 13.857 14.3148 14.3138C13.8579 14.7708 13.3087 14.9993 12.667 14.9993H8.66699ZM8.66699 13.9993H12.667C13.0337 13.9993 13.3475 13.8688 13.6087 13.6077C13.8698 13.3466 14.0003 13.0327 14.0003 12.666C14.0003 12.2993 13.8698 11.9855 13.6087 11.7243C13.3475 11.4632 13.0337 11.3327 12.667 11.3327H8.66699C8.30032 11.3327 7.98644 11.4632 7.72533 11.7243C7.46421 11.9855 7.33366 12.2993 7.33366 12.666C7.33366 13.0327 7.46421 13.3466 7.72533 13.6077C7.98644 13.8688 8.30032 13.9993 8.66699 13.9993ZM8.66716 13.2428C8.50383 13.2428 8.36683 13.1876 8.25616 13.0772C8.14549 12.9666 8.09016 12.8296 8.09016 12.6662C8.09016 12.5028 8.14538 12.3658 8.25583 12.2552C8.36638 12.1445 8.50338 12.0892 8.66683 12.0892C8.83016 12.0892 8.96716 12.1444 9.07783 12.2548C9.18849 12.3654 9.24382 12.5024 9.24382 12.6658C9.24382 12.8292 9.1886 12.9662 9.07816 13.0768C8.9676 13.1875 8.8306 13.2428 8.66716 13.2428ZM10.6672 13.2428C10.5038 13.2428 10.3668 13.1876 10.2562 13.0772C10.1455 12.9666 10.0902 12.8296 10.0902 12.6662C10.0902 12.5028 10.1454 12.3658 10.2558 12.2552C10.3664 12.1445 10.5034 12.0892 10.6668 12.0892C10.8302 12.0892 10.9672 12.1444 11.0778 12.2548C11.1885 12.3654 11.2438 12.5024 11.2438 12.6658C11.2438 12.8292 11.1886 12.9662 11.0782 13.0768C10.9676 13.1875 10.8306 13.2428 10.6672 13.2428ZM12.6672 13.2428C12.5038 13.2428 12.3668 13.1876 12.2562 13.0772C12.1455 12.9666 12.0902 12.8296 12.0902 12.6662C12.0902 12.5028 12.1454 12.3658 12.2558 12.2552C12.3664 12.1445 12.5034 12.0892 12.6668 12.0892C12.8302 12.0892 12.9672 12.1444 13.0778 12.2548C13.1885 12.3654 13.2438 12.5024 13.2438 12.6658C13.2438 12.8292 13.1886 12.9662 13.0782 13.0768C12.9676 13.1875 12.8306 13.2428 12.6672 13.2428Z" fill="#989898"/>
</g>
</svg>
