<svg width="27" height="17" viewBox="0 0 27 17" fill="none" xmlns="http://www.w3.org/2000/svg">
<path d="M10.1512 0.000547575C10.1831 0.000384259 10.2149 0.000220942 10.2478 5.26762e-05C10.6995 -0.00152149 11.1405 0.0322278 11.5882 0.0956763C11.6112 0.0988647 11.6341 0.102053 11.6578 0.105338C12.2793 0.192461 12.8844 0.377132 13.4763 0.593805C13.5019 0.603004 13.5275 0.612203 13.5538 0.621681C14.161 0.840779 14.7528 1.10408 15.3467 1.36062C15.5275 1.43871 15.7086 1.51617 15.8896 1.59352C15.9496 1.61917 16.0095 1.64483 16.0695 1.67049C16.1164 1.69056 16.1164 1.69056 16.1642 1.71103C22.2208 4.30324 22.2208 4.30324 22.2779 4.32767C22.3156 4.34381 22.3533 4.35995 22.391 4.37608C22.4838 4.41581 22.5766 4.45553 22.6694 4.49526C22.8471 4.57133 23.0249 4.64738 23.2026 4.7234C23.6933 4.93329 24.1839 5.14366 24.6733 5.35719C24.7943 5.40997 24.9156 5.46201 25.0371 5.51336C25.47 5.69885 25.7058 5.93444 25.9085 6.39341C26.1342 6.96211 26.196 7.58999 26.2497 8.2C26.256 8.27146 26.2626 8.34288 26.2693 8.4143C26.2736 8.46181 26.2778 8.50932 26.2821 8.55684C26.284 8.57715 26.2859 8.59746 26.2878 8.61839C26.3311 9.11782 26.3349 9.61837 26.3356 10.1195C26.3357 10.1531 26.3358 10.1866 26.3359 10.2212C26.3363 10.3982 26.3365 10.5751 26.3366 10.7521C26.3368 10.9338 26.3374 11.1155 26.3381 11.2972C26.3386 11.4381 26.3387 11.5791 26.3388 11.72C26.3388 11.787 26.3391 11.854 26.3394 11.921C26.3438 12.8582 26.3438 12.8582 26.0859 13.144C25.9643 13.261 25.8385 13.3274 25.687 13.3912C25.6627 13.4017 25.6384 13.4121 25.6134 13.4229C24.9221 13.7112 24.9221 13.7112 24.6493 13.7112C24.6499 13.6665 24.6499 13.6665 24.6505 13.6209C24.67 12.8446 24.67 12.8446 24.5717 12.0784C24.5678 12.0601 24.5639 12.0418 24.5599 12.023C24.5027 11.7602 24.4315 11.4853 24.2096 11.3312C24.1039 11.2747 23.9815 11.2858 23.8701 11.3209C23.6574 11.4347 23.5804 11.6986 23.5056 11.9246C23.4765 12.0304 23.4533 12.1363 23.4337 12.2445C23.4298 12.2656 23.426 12.2867 23.422 12.3084C23.3309 12.8358 23.3483 13.371 23.3561 13.9049C23.0564 13.9594 22.7549 13.993 22.4527 14.0274C22.3969 14.0338 22.3412 14.0402 22.2854 14.0466C22.1385 14.0635 21.9916 14.0803 21.8447 14.0971C21.6998 14.1137 21.5549 14.1303 21.41 14.147C20.9536 14.1994 20.4972 14.2516 20.0408 14.3035C19.9995 14.3082 19.9995 14.3082 19.9574 14.313C19.8278 14.3277 19.6981 14.3424 19.5685 14.3571C19.1692 14.4025 18.7701 14.4496 18.371 14.4975C18.1144 14.5282 17.8577 14.5586 17.6011 14.5891C17.453 14.6067 17.3049 14.6243 17.1568 14.6419C17.1021 14.6484 17.0475 14.6549 16.9929 14.6614C16.9414 14.6675 16.89 14.6737 16.8385 14.6798C16.6833 14.6982 16.5282 14.7167 16.373 14.7351C16.3959 14.3634 16.3959 14.3634 16.4119 14.2771C16.4296 14.1453 16.4294 14.0152 16.4299 13.8822C16.4301 13.853 16.4302 13.8239 16.4304 13.7938C16.4306 13.732 16.4308 13.6702 16.4309 13.6083C16.4312 13.5157 16.432 13.423 16.4328 13.3304C16.4364 12.5525 16.3553 11.649 15.821 11.0623C15.561 10.8237 15.3084 10.7802 14.9763 10.8054C14.7832 10.8503 14.6324 10.944 14.4849 11.0822C14.4702 11.0948 14.4554 11.1074 14.4402 11.1203C14.1826 11.3619 14.035 11.764 13.9418 12.1061C13.9365 12.1255 13.9312 12.1449 13.9257 12.1648C13.7551 12.8036 13.7064 13.4722 13.6942 14.1335C13.6867 14.4384 13.6467 14.7156 13.5021 14.9842C13.4203 15.066 13.3545 15.0811 13.2444 15.0937C13.2122 15.0976 13.1799 15.1014 13.1467 15.1054C13.1105 15.1094 13.0744 15.1134 13.0382 15.1174C12.9996 15.1219 12.9611 15.1264 12.9225 15.131C12.8363 15.1412 12.75 15.1512 12.6636 15.1611C12.4802 15.1823 12.2968 15.2049 12.1135 15.2274C11.9676 15.2453 11.8218 15.263 11.6759 15.2804C11.4203 15.3109 11.1647 15.3415 10.9094 15.3752C10.8078 15.3886 10.7061 15.4015 10.6044 15.4143C10.5586 15.4202 10.5127 15.4263 10.467 15.4327C9.59872 15.5535 8.70415 15.4803 7.83265 15.4376C7.75401 15.4338 7.67537 15.4301 7.59673 15.4263C6.74404 15.3859 5.89267 15.3347 5.04135 15.2686C4.87733 15.256 4.71328 15.2437 4.54924 15.2315C4.09383 15.1973 3.63848 15.1622 3.18317 15.1266C3.13192 15.1226 3.08067 15.1186 3.02942 15.1146C1.8329 15.0213 1.8329 15.0213 1.28003 14.9669C1.24838 14.9638 1.21673 14.9607 1.18412 14.9576C0.496502 14.8871 0.496502 14.8871 0.266305 14.6632C0.0248002 14.336 0.0513693 13.7944 0.024037 13.3999C0.0217678 13.3674 0.0194986 13.335 0.0171607 13.3016C-0.000794164 13.0264 -0.0134036 12.7551 0.0256535 12.4814C0.061683 12.21 0.0698183 11.937 0.0789968 11.6633C0.0875318 11.6633 0.0960667 11.6633 0.10486 11.6633C0.108961 11.6907 0.113062 11.7181 0.117287 11.7463C0.162606 12.0284 0.215449 12.2378 0.441085 12.4105C0.509005 12.4498 0.578823 12.4832 0.649609 12.516C0.669934 12.5255 0.690258 12.5351 0.711199 12.5449C0.944411 12.6521 1.18274 12.7413 1.4239 12.8256C1.44462 12.833 1.46535 12.8403 1.4867 12.8479C2.05536 13.0476 2.63965 13.1514 3.23434 13.2131C3.2693 13.2171 3.2693 13.2171 3.30497 13.2211C3.61132 13.252 3.91945 13.2462 4.22685 13.2459C4.2726 13.2459 4.2726 13.2459 4.31928 13.2459C4.98093 13.2452 5.63249 13.2197 6.28622 13.1024C6.32801 13.0953 6.36981 13.0882 6.4116 13.0812C6.73523 13.025 7.05675 12.9559 7.37813 12.8868C7.42732 12.8762 7.47651 12.8657 7.52572 12.8553C7.96783 12.7614 8.41863 12.6595 8.83216 12.4624C8.85184 12.4535 8.87153 12.4446 8.89182 12.4355C9.13132 12.3248 9.29467 12.1957 9.39959 11.9344C9.43485 11.8331 9.46775 11.7313 9.49976 11.6287C9.52186 11.5594 9.54416 11.4901 9.56644 11.4207C9.57601 11.3903 9.58559 11.3598 9.59546 11.3284C9.61812 11.2615 9.64293 11.2001 9.67434 11.1375C8.50628 11.3046 7.29084 11.5501 6.44141 12.4953C6.35705 12.5874 6.26714 12.6707 6.17307 12.7513C6.14673 12.774 6.1204 12.7967 6.09326 12.8201C5.89297 12.9673 5.63604 12.9854 5.40101 13.0102C5.36841 13.0137 5.33582 13.0171 5.30224 13.0208C4.97036 13.0536 4.63936 13.0587 4.30614 13.0563C4.20693 13.0557 4.10774 13.0558 4.00852 13.0559C3.61852 13.0555 3.23405 13.0372 2.84639 12.9917C2.82744 12.9895 2.80849 12.9874 2.78897 12.9851C2.67747 12.9723 2.56634 12.9574 2.4552 12.9415C2.42493 12.9376 2.39466 12.9338 2.36347 12.9298C2.08568 12.8901 1.7654 12.819 1.57908 12.5766C1.46711 12.4127 1.36655 12.2404 1.26609 12.0684C1.24935 12.0403 1.23262 12.0122 1.21537 11.9833C1.2012 11.9588 1.18703 11.9343 1.17243 11.909C1.0064 11.6845 0.795157 11.5451 0.563936 11.4073C0.509326 11.3744 0.454769 11.3414 0.400269 11.3083C0.376423 11.2941 0.352577 11.2798 0.328008 11.2652C0.137705 11.1402 0.137705 11.1402 0.116775 11.0491C0.117878 11.0269 0.11898 11.0047 0.120116 10.9818C0.12116 10.9559 0.122204 10.93 0.123279 10.9034C0.125202 10.8751 0.127126 10.8467 0.129107 10.8175C0.130714 10.7875 0.13232 10.7574 0.133976 10.7265C0.158564 10.3181 0.205057 9.91155 0.253356 9.50576C0.259544 9.45361 0.265601 9.40144 0.271647 9.34927C0.520218 7.23011 1.03349 5.07594 2.69121 1.89447C2.70491 1.87503 2.71861 1.85559 2.73273 1.83556C3.69634 0.534645 6.13003 0.401356 7.55694 0.193332C7.62105 0.183954 7.68515 0.174394 7.74921 0.164604C8.54535 0.0454176 9.34789 0.00169942 10.1512 0.000547575Z" fill="#0070D9"/>
<path d="M12.2167 1.26875C12.8771 1.24811 13.5324 1.50326 14.1471 1.73052C14.2081 1.75292 14.2692 1.7753 14.3302 1.79768C14.7627 1.95658 15.1934 2.12025 15.6227 2.28851C15.8253 2.36783 16.0283 2.44568 16.2313 2.52355C16.3374 2.56423 16.4434 2.60498 16.5494 2.64573C16.5702 2.65374 16.5911 2.66175 16.6125 2.67C17.1358 2.87116 17.6587 3.07319 18.1805 3.27861C18.4898 3.40029 18.7994 3.52075 19.1091 3.64124C20.0751 4.01715 20.0751 4.01715 20.4694 4.17136C20.49 4.17943 20.5107 4.18751 20.5319 4.19583C20.7988 4.30029 21.0653 4.40595 21.3314 4.51241C21.3606 4.52406 21.3897 4.5357 21.4197 4.5477C21.5619 4.60454 21.7039 4.66147 21.846 4.71856C22.1232 4.82978 22.4013 4.93756 22.6812 5.04082C22.9886 5.15464 23.2933 5.27641 23.5982 5.39784C23.6601 5.42246 23.722 5.44707 23.7839 5.47169C23.9582 5.54105 24.1325 5.61058 24.3067 5.68021C24.3294 5.68927 24.3521 5.69833 24.3755 5.70766C24.4993 5.75718 24.6231 5.80693 24.7468 5.8569C24.7741 5.8679 24.8015 5.8789 24.8297 5.89023C24.9714 5.94783 25.1118 6.0083 25.2514 6.07138C25.2958 6.09144 25.2958 6.09144 25.3412 6.11191C25.5852 6.23448 25.6859 6.44141 25.7838 6.70054C25.9423 7.19204 26.1049 7.94992 25.9375 8.45191C25.8779 8.53212 25.8473 8.558 25.7563 8.5905C25.5579 8.60628 25.3733 8.57755 25.18 8.53257C25.1392 8.52344 25.1392 8.52344 25.0975 8.51412C25.0091 8.49426 24.9208 8.47396 24.8325 8.45364C24.7708 8.43967 24.7091 8.42571 24.6473 8.41177C24.2391 8.31923 23.8318 8.22251 23.425 8.12311C23.1565 8.05763 22.8876 7.99599 22.6178 7.93741C22.3367 7.87635 22.0564 7.81253 21.7765 7.74513C21.3113 7.63318 20.8451 7.52626 20.3788 7.41945C20.3393 7.4104 20.2998 7.40135 20.2603 7.3923C20.0436 7.34266 19.8269 7.29307 19.6102 7.24349C19.3221 7.17756 19.0339 7.11153 18.7457 7.04546C18.655 7.02467 18.5643 7.0039 18.4736 6.98313C18.2328 6.92798 17.9922 6.87275 17.7519 6.8152C17.3845 6.72725 17.0166 6.64612 16.6466 6.57235C16.6263 6.56826 16.6059 6.56417 16.585 6.55995C16.3715 6.51714 16.1581 6.47881 15.9423 6.4513C15.9161 6.44795 15.9161 6.44795 15.8893 6.44453C14.9949 6.33728 14.2176 6.65113 13.5217 7.23929C13.4029 7.34222 13.2917 7.4537 13.1808 7.56616C13.1248 7.62285 13.0674 7.67677 13.0087 7.73008C12.8357 7.89116 12.6775 8.06966 12.5164 8.24403C12.1312 8.6608 12.1312 8.6608 11.9771 8.80073C11.906 8.86545 11.8386 8.93445 11.7706 9.00279C11.6459 9.12703 11.518 9.24502 11.385 9.35921C11.3204 9.41534 11.2571 9.47283 11.1941 9.53099C11.0062 9.70404 10.8101 9.8634 10.6108 10.0209C10.5398 10.0772 10.4693 10.1342 10.3987 10.1912C10.3497 10.2305 10.3006 10.2697 10.2515 10.309C10.2249 10.3303 10.1983 10.3516 10.1709 10.3736C10.1452 10.394 10.1194 10.4144 10.0929 10.4354C10.0699 10.4537 10.0469 10.4721 10.0232 10.491C9.96675 10.5307 9.96675 10.5307 9.91498 10.5307C9.89861 8.63977 10.1016 6.74438 10.4171 4.88518C10.4328 4.79253 10.448 4.69979 10.4631 4.60704C10.6037 3.75609 10.7666 2.87718 11.0798 2.07699C11.0898 2.05101 11.0997 2.02504 11.11 1.99827C11.2229 1.73051 11.4233 1.48096 11.6763 1.3584C11.8532 1.28755 12.03 1.27971 12.2167 1.26875Z" fill="#D4E5F7"/>
<path d="M9.60356 1.50312C9.6351 1.50278 9.66665 1.50244 9.69914 1.50209C10.2593 1.50114 10.2593 1.50114 10.498 1.64679C10.5498 1.70219 10.5498 1.70219 10.5579 1.7831C10.5537 1.93007 10.51 2.06786 10.4712 2.20787C10.4631 2.238 10.455 2.26814 10.4466 2.29919C10.4292 2.36353 10.4118 2.42784 10.3942 2.49212C10.3486 2.65929 10.304 2.82673 10.2593 2.99419C10.2506 3.02685 10.2419 3.05952 10.2329 3.09318C10.1384 3.44889 10.0552 3.8061 9.98043 4.16718C9.97353 4.19955 9.96664 4.23192 9.95953 4.26527C9.70781 5.44969 9.54344 6.65347 9.38126 7.8549C9.35997 8.01243 9.33854 8.16994 9.31677 8.3274C9.31371 8.34984 9.31065 8.37228 9.3075 8.3954C9.26289 8.71606 9.18581 8.98271 8.94525 9.19757C8.05133 9.88341 6.68356 9.8874 5.62783 9.95749C5.59485 9.95969 5.56186 9.96189 5.52787 9.96416C4.93525 10.0016 4.34359 10.016 3.74996 10.0146C3.71586 10.0146 3.68176 10.0145 3.64663 10.0145C1.12982 10.0103 1.12982 10.0103 0.726412 9.61053C0.586084 9.42807 0.622671 9.15297 0.637957 8.93099C0.659834 8.73502 0.698421 8.54228 0.736622 8.34936C0.741755 8.3227 0.746889 8.29605 0.752178 8.26858C0.918274 7.40609 1.13042 6.55439 1.38846 5.71819C1.39772 5.68797 1.40698 5.65776 1.41651 5.62663C2.26737 2.86786 2.26737 2.86786 3.21752 2.33552C3.75881 2.05271 4.38586 1.99921 4.97796 1.9493C5.2046 1.92846 5.42878 1.89247 5.6537 1.85686C6.9579 1.65067 8.28379 1.50388 9.60356 1.50312Z" fill="#D4E5F7"/>
<path d="M15.4598 11.606C15.8794 11.9255 16.009 12.5121 16.0927 13.0289C16.1223 13.2448 16.1245 13.4592 16.1235 13.6769C16.1234 13.6974 16.1234 13.718 16.1233 13.7392C16.1206 14.4664 16.0293 15.3028 15.5295 15.8483C15.3695 15.9981 15.1969 16.0534 14.9841 16.0397C14.8991 16.015 14.8283 15.9771 14.7527 15.9292C14.7374 15.9207 14.7222 15.9123 14.7065 15.9036C14.4151 15.7175 14.2567 15.2887 14.1774 14.9558C14.1177 14.6928 14.0629 14.432 14.0585 14.1605C14.0578 14.1386 14.0572 14.1166 14.0566 14.094C14.0354 13.3067 14.1221 12.3451 14.6482 11.7441C14.8754 11.5176 15.1734 11.4325 15.4598 11.606Z" fill="#0070D9"/>
<path d="M26.0586 14.9858C25.9647 15.0534 25.8844 15.0585 25.7751 15.0698C25.7306 15.0748 25.6861 15.0798 25.6417 15.0848C25.6178 15.0874 25.5939 15.0901 25.5692 15.0927C25.4381 15.1071 25.3071 15.1225 25.1761 15.1379C25.1478 15.1412 25.1194 15.1445 25.0902 15.148C24.7257 15.1914 24.362 15.2422 23.9983 15.293C23.9659 15.2975 23.9334 15.302 23.9 15.3066C23.4904 15.3636 23.0815 15.4243 22.6728 15.4878C22.3597 15.5364 22.0464 15.5838 21.7331 15.6307C21.7079 15.6345 21.6828 15.6383 21.6569 15.6422C21.1774 15.714 20.6979 15.7855 20.2184 15.857C19.9365 15.899 19.6547 15.9411 19.3728 15.9835C18.2112 16.1581 17.0491 16.3265 15.885 16.4817C15.8588 16.4852 15.8326 16.4887 15.8057 16.4923C14.9061 16.6123 14.0063 16.728 13.1035 16.8168C13.0743 16.8197 13.0451 16.8226 13.015 16.8256C12.614 16.8653 12.2129 16.9021 11.8114 16.9338C11.7906 16.9354 11.7698 16.9371 11.7484 16.9387C11.6302 16.948 11.5119 16.9567 11.3935 16.9647C11.3558 16.9673 11.3181 16.97 11.2804 16.9728C10.8544 17.0041 10.4276 17.0009 10.0008 17.0002C9.89524 17.0001 9.78966 17.0002 9.68407 17.0003C9.25952 17.0009 8.83588 17.0004 8.41211 16.9687C8.41211 16.9595 8.41211 16.9502 8.41211 16.9407C9.04466 16.8351 9.67838 16.7477 10.3143 16.6694C10.3751 16.6619 10.4359 16.6543 10.4968 16.6467C11.032 16.5801 11.5678 16.5212 12.1039 16.4639C12.4231 16.4298 12.7421 16.3948 13.0611 16.3587C13.0878 16.3556 13.1146 16.3526 13.1421 16.3495C13.1936 16.3436 13.245 16.3378 13.2965 16.332C13.6547 16.2913 14.013 16.2526 14.3715 16.2153C15.1011 16.1392 15.8299 16.0556 16.5587 15.9708C16.686 15.9559 16.8134 15.9412 16.9408 15.9264C17.0964 15.9084 17.252 15.8903 17.4076 15.8723C17.4358 15.869 17.464 15.8657 17.4931 15.8623C17.805 15.8261 18.1168 15.7894 18.4286 15.7518C18.6733 15.7224 18.9182 15.6937 19.1632 15.6669C19.1976 15.6631 19.232 15.6593 19.2664 15.6554C19.3383 15.6475 19.4103 15.6396 19.4822 15.6316C19.6755 15.6103 19.8687 15.5889 20.062 15.5675C20.0912 15.5642 20.0912 15.5642 20.1211 15.5609C20.5068 15.5181 20.8926 15.4747 21.2783 15.4309C21.3081 15.4275 21.338 15.4241 21.3688 15.4206C21.6989 15.3831 22.029 15.3451 22.359 15.3061C25.1697 14.9742 25.1697 14.9742 26.0586 14.9858Z" fill="#0070D9"/>
<path d="M24.0987 11.856C24.2852 11.9746 24.35 12.1755 24.4071 12.3921C24.551 13.0351 24.5544 13.8359 24.2651 14.4363C24.2069 14.5332 24.1629 14.5937 24.0729 14.6582C23.9872 14.6738 23.9248 14.6823 23.8505 14.6274C23.5431 14.2827 23.5176 13.6797 23.5196 13.2287C23.5304 12.7814 23.5829 12.216 23.8921 11.8837C23.9671 11.8435 24.0154 11.8457 24.0987 11.856Z" fill="#0070D9"/>
<path d="M15.1855 12.583C15.322 12.6463 15.4094 12.7567 15.47 12.9004C15.5688 13.1808 15.6038 13.4481 15.6023 13.7473C15.6022 13.7927 15.6022 13.7927 15.602 13.839C15.5973 14.2075 15.5761 14.6628 15.3196 14.9358C15.2488 14.996 15.1961 15.0284 15.1056 15.0343C14.9693 15.0081 14.8968 14.9504 14.7989 14.8477C14.5298 14.3917 14.5293 13.6954 14.6266 13.1831C14.6798 12.9548 14.7643 12.7775 14.9283 12.6227C15.023 12.5746 15.0819 12.5687 15.1855 12.583Z" fill="#D4E5F7"/>
<path d="M5.5625 15.5254C5.74949 15.5334 5.93646 15.5417 6.12343 15.5501C6.1901 15.5531 6.25676 15.5561 6.32343 15.5591C6.45268 15.5648 6.58193 15.5707 6.71118 15.5767C6.76344 15.579 6.81571 15.5814 6.86797 15.5837C6.94273 15.5871 7.01748 15.5905 7.09224 15.594C7.11454 15.5949 7.13684 15.5959 7.15981 15.5969C7.30108 15.6036 7.44032 15.6171 7.58072 15.6351C7.5017 15.8223 7.29623 15.9365 7.12832 16.026C6.77353 16.1609 6.32896 16.0821 5.99752 15.918C5.61879 15.7044 5.61879 15.7044 5.5625 15.5254Z" fill="#0070D9"/>
<path d="M24.0231 12.5762C24.1039 12.5899 24.1039 12.5899 24.162 12.6531C24.3275 12.9663 24.2805 13.4059 24.205 13.7383C24.1752 13.8427 24.151 13.9079 24.078 13.9852C24.0134 14.004 24.0134 14.004 23.9489 13.9852C23.8093 13.8458 23.7914 13.6796 23.7852 13.4862C23.7846 13.4217 23.7842 13.3572 23.7842 13.2926C23.7835 13.2606 23.7829 13.2285 23.7822 13.1954C23.7816 12.9921 23.8029 12.8242 23.8972 12.6446C23.9489 12.5899 23.9489 12.5899 24.0231 12.5762Z" fill="#D4E5F7"/>
<path d="M26.0544 14.9827C25.9788 15.0386 25.9544 15.0488 25.8689 15.0589C25.8471 15.0616 25.8254 15.0643 25.8031 15.0671C25.7795 15.0697 25.756 15.0724 25.7318 15.0751C25.7072 15.0781 25.6826 15.0811 25.6573 15.0841C25.5784 15.0936 25.4994 15.1028 25.4205 15.1119C25.3689 15.1181 25.3173 15.1243 25.2657 15.1305C25.1146 15.1485 24.9635 15.1662 24.8124 15.1837C24.7632 15.1895 24.714 15.1952 24.6647 15.201C24.5501 15.2144 24.4354 15.2278 24.3208 15.2412C24.3293 15.2127 24.3379 15.1843 24.3467 15.155C24.3125 15.1361 24.2784 15.1171 24.2432 15.0976C24.3931 15.0858 24.543 15.074 24.6929 15.0624C24.7437 15.0584 24.7945 15.0544 24.8453 15.0504C25.1003 15.0303 25.3554 15.0106 25.6107 14.9943C25.6287 14.9931 25.6467 14.9919 25.6652 14.9906C25.7951 14.9826 25.9243 14.9818 26.0544 14.9827Z" fill="#0070D9"/>
<path d="M8.90373 16.8717C8.91227 16.8971 8.9208 16.9225 8.9296 16.9487C8.75883 16.9487 8.58806 16.9487 8.41211 16.9487C8.41211 16.9402 8.41211 16.9318 8.41211 16.923C8.46977 16.9144 8.52745 16.9058 8.58515 16.8974C8.63333 16.8902 8.63333 16.8902 8.68248 16.8829C8.75776 16.8737 8.8281 16.8694 8.90373 16.8717Z" fill="#0070D9"/>
<path d="M0.0791016 11.6699C0.0876402 11.6699 0.0961788 11.6699 0.104976 11.6699C0.122053 11.7871 0.139131 11.9043 0.156725 12.025C0.139648 12.025 0.122571 12.025 0.104976 12.025C0.104976 12.07 0.104976 12.1151 0.104976 12.1615C0.0964376 12.1615 0.0878989 12.1615 0.0791016 12.1615C0.0791016 11.9993 0.0791016 11.8371 0.0791016 11.6699Z" fill="#0070D9"/>
<path d="M0.520431 3.31174C0.520431 3.31174 0.667159 3.13393 0.794321 3.06828C0.975083 2.97496 1.31167 3.00742 1.31167 3.00742L1.69207 3.03785L2.09832 3.09251L1.93014 3.4677C1.93014 3.4677 1.34847 3.05233 1.12908 3.28131C0.987142 3.42944 1.03778 3.79865 1.03778 3.79865C1.03778 3.79865 1.05735 4.27246 0.976915 4.55946C0.95663 4.63184 0.91605 4.74206 0.91605 4.74206C0.91605 4.74206 0.835295 4.83748 0.763889 4.86378C0.685826 4.89254 0.632868 4.87779 0.550863 4.86378C0.476771 4.85113 0.428184 4.84283 0.368261 4.79746C0.235149 4.69666 0.270401 4.60776 0.246532 4.4627C0.221371 4.3098 0.24654 4.04211 0.24654 4.04211C0.24654 4.04211 0.262608 3.75113 0.337837 3.58563C0.391032 3.4686 0.520431 3.31174 0.520431 3.31174Z" fill="#0070D9"/>
<path d="M9.26359 3.31174C9.26359 3.31174 9.41032 3.13393 9.53749 3.06828C9.71825 2.97496 10.0548 3.00742 10.0548 3.00742L10.4352 3.03785H10.7768L10.6733 3.4677C10.6733 3.4677 10.0916 3.05233 9.87224 3.28131C9.73031 3.42944 9.78094 3.79865 9.78094 3.79865C9.78094 3.79865 9.80052 4.27246 9.72008 4.55946C9.69979 4.63184 9.65921 4.74206 9.65921 4.74206C9.65921 4.74206 9.57846 4.83748 9.50705 4.86378C9.42899 4.89254 9.37603 4.87779 9.29403 4.86378C9.21993 4.85113 9.17135 4.84283 9.11143 4.79746C8.97831 4.69666 9.01357 4.60776 8.9897 4.4627C8.96454 4.3098 8.9897 4.04211 8.9897 4.04211C8.9897 4.04211 9.00577 3.75113 9.081 3.58563C9.1342 3.4686 9.26359 3.31174 9.26359 3.31174Z" fill="#0070D9"/>
<line x1="18.1439" y1="7.33576" x2="23.6857" y2="5.2352" stroke="#0070D9" stroke-width="0.439007"/>
<line x1="18.7961" y1="7.86222" x2="24.5432" y2="5.68385" stroke="#0070D9" stroke-width="0.219504"/>
</svg>
