<svg width="24" height="24" viewBox="0 0 24 24" fill="none" xmlns="http://www.w3.org/2000/svg">
<mask id="mask0_8_1228" style="mask-type:alpha" maskUnits="userSpaceOnUse" x="0" y="0" width="24" height="24">
<rect width="24" height="24" fill="#D9D9D9"/>
</mask>
<g mask="url(#mask0_8_1228)">
<path d="M12 11.6924C11.0375 11.6924 10.2136 11.3497 9.52825 10.6644C8.84275 9.97888 8.5 9.15488 8.5 8.19238C8.5 7.22988 8.84275 6.40597 9.52825 5.72063C10.2136 5.03513 11.0375 4.69238 12 4.69238C12.9625 4.69238 13.7864 5.03513 14.4718 5.72063C15.1573 6.40597 15.5 7.22988 15.5 8.19238C15.5 9.15488 15.1573 9.97888 14.4718 10.6644C13.7864 11.3497 12.9625 11.6924 12 11.6924ZM4.5 19.3079V17.0846C4.5 16.595 4.633 16.1415 4.899 15.7241C5.165 15.3068 5.5205 14.986 5.9655 14.7616C6.95383 14.2771 7.95092 13.9137 8.95675 13.6714C9.96258 13.429 10.977 13.3079 12 13.3079C13.023 13.3079 14.0374 13.429 15.0433 13.6714C16.0491 13.9137 17.0462 14.2771 18.0345 14.7616C18.4795 14.986 18.835 15.3068 19.101 15.7241C19.367 16.1415 19.5 16.595 19.5 17.0846V19.3079H4.5Z" fill="#0084FF"/>
</g>
</svg>
