<svg width="22" height="22" viewBox="0 0 22 22" fill="none" xmlns="http://www.w3.org/2000/svg">
<path d="M8.75 20.75C4.979 20.75 3.093 20.75 1.922 19.578C0.751 18.406 0.75 17.521 0.75 13.75M20.75 13.75C20.75 17.521 20.75 18.407 19.578 19.578C18.406 20.749 16.521 20.75 12.75 20.75M12.75 0.75C16.521 0.75 18.407 0.75 19.578 1.922C20.749 3.094 20.75 3.979 20.75 7.75M8.75 0.75C4.979 0.75 3.093 0.75 1.922 1.922C0.751 3.094 0.75 3.979 0.75 7.75M0.75 10.75H20.75" stroke="white" stroke-width="1.5" stroke-linecap="round"/>
</svg>
