<svg width="40" height="39" viewBox="0 0 40 39" fill="none" xmlns="http://www.w3.org/2000/svg">
<path d="M22.0138 26.6123L20.0001 26.4102L17.9874 26.6123L16.7324 35.5502H20.0001H23.2686L22.0138 26.6123Z" fill="#A9B6D0"/>
<path d="M23.2684 35.5502L22.0136 26.6123L19.9999 26.4102L17.9873 26.6123L17.6924 28.7117C18.998 29.0422 21.1848 29.6589 21.2944 30.1091C21.4422 30.7156 21.8674 34.3116 20.9991 35.5502H23.2684Z" fill="#8B9ABA"/>
<path d="M17.7451 28.3367L22.4214 29.5169L22.0136 26.6123L19.9999 26.4102L17.9872 26.6123L17.7451 28.3367Z" fill="#6B7CA1"/>
<path d="M10.5078 15.8316C10.5078 15.8316 4.70401 16.059 3.91987 14.0137C3.91987 14.0137 1.95898 18.0285 3.76314 22.0427C3.76314 22.0427 4.78271 19.0073 10.5079 19.389L10.5078 15.8316Z" fill="#8B9ABA"/>
<path d="M5.41992 15.2129C5.48382 15.4475 5.6262 15.7239 5.91891 16.0204C6.57359 16.683 9.0616 17.7274 10.5071 17.9948V15.8309C10.5071 15.8309 7.39418 15.9518 5.41992 15.2129Z" fill="#A9B6D0"/>
<path d="M10.5079 19.3889V18.3662C10.4814 18.367 10.4563 18.3677 10.4298 18.3691C4.54733 18.6723 4.93929 17.3466 4.93929 17.3466C4.88 16.9625 5.04222 15.9941 5.21676 15.1327C4.5932 14.8687 4.10902 14.5083 3.91987 14.0137C3.91987 14.0137 1.95898 18.0285 3.76314 22.0427C3.76314 22.0427 4.78271 19.0072 10.5079 19.3889Z" fill="#6B7CA1"/>
<path d="M29.1963 15.8316C29.1963 15.8316 35.0004 16.059 35.7845 14.0137C35.7845 14.0137 37.7452 18.0285 35.9415 22.0427C35.9415 22.0427 34.9219 19.0073 29.1963 19.389L29.1963 15.8316Z" fill="#8B9ABA"/>
<path d="M34.2835 15.2129C34.22 15.4475 34.0774 15.7239 33.7845 16.0204C33.1302 16.683 30.6422 17.7274 29.1963 17.9948V15.8309C29.1963 15.8309 32.3095 15.9518 34.2835 15.2129Z" fill="#A9B6D0"/>
<path d="M29.1963 19.3889V18.3662C29.2228 18.367 29.2481 18.3677 29.2742 18.3691C35.1569 18.6723 34.7649 17.3466 34.7649 17.3466C34.8243 16.9625 34.6624 15.9941 34.4876 15.1327C35.111 14.8687 35.5946 14.5083 35.7845 14.0137C35.7845 14.0137 37.7452 18.0285 35.9415 22.0427C35.9415 22.0427 34.9219 19.0072 29.1963 19.3889Z" fill="#6B7CA1"/>
<path d="M19.9998 0C8.95424 0 0 8.64768 0 19.315C0 29.9824 8.95424 38.6304 19.9998 38.6304C31.0456 38.6304 40 29.9824 40 19.315C40 8.64768 31.0456 0 19.9998 0ZM19.9998 34.6916C11.2068 34.6916 4.07878 27.807 4.07878 19.315C4.07878 10.823 11.2068 3.93881 19.9998 3.93881C28.7934 3.93881 35.922 10.823 35.922 19.315C35.922 27.807 28.7934 34.6916 19.9998 34.6916Z" fill="#505A78"/>
<path d="M19.9998 0C8.95424 0 0 8.64768 0 19.315C0 29.9824 8.95424 38.6304 19.9998 38.6304C31.0456 38.6304 40 29.9824 40 19.315C40 8.64768 31.0456 0 19.9998 0ZM19.9998 34.6916C11.2068 34.6916 4.07878 27.807 4.07878 19.315C4.07878 10.823 11.2068 3.93881 19.9998 3.93881C28.7934 3.93881 35.922 10.823 35.922 19.315C35.922 27.807 28.7934 34.6916 19.9998 34.6916Z" fill="#505A78"/>
<path d="M19.9996 2.27344C10.2538 2.27344 2.35254 9.90402 2.35254 19.316C2.35254 28.7285 10.2538 36.3587 19.9996 36.3587C29.7463 36.3587 37.6471 28.7285 37.6471 19.316C37.6471 9.90397 29.7463 2.27344 19.9996 2.27344ZM19.9996 34.6926C11.2066 34.6926 4.07862 27.8079 4.07862 19.316C4.07862 10.824 11.2066 3.93979 19.9996 3.93979C28.7932 3.93979 35.9219 10.824 35.9219 19.316C35.9219 27.8079 28.7932 34.6926 19.9996 34.6926Z" fill="#3B4764"/>
<path d="M9.96094 15.4024V19.745L17.4904 27.2187H22.5101L30.0398 19.745V15.4024C26.3193 14.2044 13.6811 14.2044 9.96094 15.4024Z" fill="#3B4764"/>
<path opacity="0.2" d="M9.96094 15.4024V16.1116C13.6811 14.9141 26.3193 14.9141 30.0398 16.1116V15.4024C26.3193 14.2044 13.6811 14.2044 9.96094 15.4024Z" fill="#A9B6D0"/>
<path d="M30.0398 18.998C20.6896 23.1902 13.5385 20.9482 9.96094 19.119V19.7452L17.4904 27.2189H22.5101L30.0398 19.7452V18.998Z" fill="#253350"/>
<path d="M8.57771 8.60418C8.68712 8.49557 8.79818 8.38851 8.91065 8.28285L6.02644 5.49805C5.91439 5.60391 5.80354 5.71117 5.69434 5.81958L8.57771 8.60418Z" fill="#0C1D37"/>
<path d="M31.4228 8.60423L34.3064 5.81958C34.1972 5.71117 34.0859 5.60391 33.9738 5.49805L31.0898 8.28285C31.2025 8.38856 31.3134 8.49562 31.4228 8.60423Z" fill="#0C1D37"/>
</svg>
