<svg width="10" height="20" viewBox="0 0 10 20" fill="none" xmlns="http://www.w3.org/2000/svg">
<path d="M3.39425 19.5385V13.4808H0L2.93275 6.077C3.09308 5.69233 3.3415 5.38783 3.678 5.1635C4.0145 4.93917 4.39108 4.827 4.80775 4.827C5.22442 4.827 5.601 4.93917 5.9375 5.1635C6.274 5.38783 6.52242 5.69233 6.68275 6.077L9.6155 13.4808H6.22125V19.5385H3.39425ZM4.80775 3.69225C4.30008 3.69225 3.8655 3.5115 3.504 3.15C3.14233 2.7885 2.9615 2.35392 2.9615 1.84625C2.9615 1.33858 3.14233 0.903917 3.504 0.54225C3.8655 0.18075 4.30008 0 4.80775 0C5.31542 0 5.75 0.18075 6.1115 0.54225C6.47317 0.903917 6.654 1.33858 6.654 1.84625C6.654 2.35392 6.47317 2.7885 6.1115 3.15C5.75 3.5115 5.31542 3.69225 4.80775 3.69225Z" fill="white"/>
</svg>
